<svg width="90" height="114" viewBox="0 0 90 114" fill="none" xmlns="http://www.w3.org/2000/svg">
<g clip-path="url(#clip0_613_2932)">
<rect width="90" height="113.39" fill="#70B6F7"/>
<mask id="path-1-outside-1_613_2932" maskUnits="userSpaceOnUse" x="1.5" y="38.459" width="87" height="88" fill="black">
<rect fill="white" x="1.5" y="38.459" width="87" height="88"/>
<path fill-rule="evenodd" clip-rule="evenodd" d="M45 41.459C30.5 41.459 19.5 47.959 16 55.459C15.4499 56.6377 14.9745 57.8656 14.5692 59.1124C14.0606 59.0118 13.5361 58.9593 13 58.9593C12.1813 58.9593 11.3896 59.0818 10.6405 59.3106L10.5461 57.7716C11.7525 57.3234 12.5772 56.1265 12.4944 54.7754C12.3929 53.1217 10.9701 51.8633 9.31633 51.9647C7.66259 52.0661 6.40419 53.489 6.50563 55.1428C6.58264 56.3982 7.42125 57.4259 8.5443 57.8036L8.69126 60.1996C6.18303 61.7644 4.5 64.6538 4.5 67.9593C4.5 72.9299 8.30558 76.9593 13 76.9593C13.239 76.9593 13.4756 76.9488 13.7096 76.9284C15.353 80.4715 19.304 86.0241 26 87.459C27.3711 87.7528 28.7805 88.0082 30.1907 88.229C29.9488 89.1516 27.9457 96.9127 27.6472 102.118C27.3462 107.367 28.55 116.239 29.3823 118.806C30.2146 121.374 31.4984 122.658 34.0658 122.658L40.4844 122.658C44.3355 122.658 44.9774 122.658 44.3355 120.09C43.8443 118.125 43.6937 116.239 43.6937 114.955C43.6937 114.313 43.7396 113.672 44.3355 113.672H45.6193C46.2152 113.672 46.2611 114.313 46.2611 114.955C46.2611 116.239 46.1106 118.125 45.6193 120.09C44.9774 122.658 45.6193 122.658 49.4704 122.658H55.889C58.4565 122.658 59.7402 121.374 60.5747 118.806C61.4093 116.239 62.6147 107.367 62.3076 102.118C61.9919 96.7214 59.8288 88.5621 59.7428 88.2394C61.1752 88.0162 62.6074 87.7574 64 87.459C70.6961 86.0241 74.6471 80.4715 76.2905 76.9284C76.5244 76.9489 76.7611 76.9593 77 76.9593C81.6944 76.9593 85.5 72.9299 85.5 67.9593C85.5 64.6538 83.817 61.7644 81.3087 60.1996L81.4557 57.8036C82.5788 57.4259 83.4174 56.3982 83.4944 55.1428C83.5958 53.489 82.3374 52.0661 80.6837 51.9647C79.0299 51.8633 77.6071 53.1217 77.5056 54.7754C77.4228 56.1265 78.2475 57.3234 79.4539 57.7716L79.3595 59.3106C78.6104 59.0818 77.8187 58.9593 77 58.9593C76.4607 58.9593 75.9332 59.0125 75.4218 59.1141C75.0182 57.8577 74.5456 56.628 74 55.459C70.5 47.959 59.5 41.459 45 41.459Z"/>
</mask>
<path d="M16 55.459L18.7186 56.7276L16 55.459ZM14.5692 59.1124L13.9876 62.0554L16.5992 62.5715L17.4223 60.0398L14.5692 59.1124ZM10.6405 59.3106L7.64611 59.4942L7.87894 63.2904L11.5165 62.1798L10.6405 59.3106ZM10.5461 57.7716L9.5013 54.9594L7.4155 55.7344L7.55172 57.9553L10.5461 57.7716ZM12.4944 54.7754L15.4887 54.5917L12.4944 54.7754ZM9.31633 51.9647L9.13267 48.9703H9.13266L9.31633 51.9647ZM6.50563 55.1428L9.5 54.9591L6.50563 55.1428ZM8.5443 57.8036L11.5387 57.62L11.415 55.6041L9.50073 54.9602L8.5443 57.8036ZM8.69126 60.1996L10.2792 62.7449L11.795 61.7993L11.6856 60.016L8.69126 60.1996ZM13.7096 76.9284L16.4311 75.666L15.5452 73.7563L13.4481 73.9398L13.7096 76.9284ZM26 87.459L26.6286 84.5256L26 87.459ZM30.1907 88.229L33.0926 88.9901L33.9348 85.7788L30.6549 85.2652L30.1907 88.229ZM27.6472 102.118L24.6521 101.946L27.6472 102.118ZM29.3823 118.806L32.2361 117.881L29.3823 118.806ZM34.0658 122.658V125.658H34.0658L34.0658 122.658ZM40.4844 122.658V119.658H40.4844L40.4844 122.658ZM44.3355 120.09L41.4251 120.818L44.3355 120.09ZM45.6193 120.09L42.7088 119.363L45.6193 120.09ZM55.889 122.658L55.8892 119.658H55.889V122.658ZM60.5747 118.806L57.7216 117.879L60.5747 118.806ZM62.3076 102.118L59.3127 102.293L62.3076 102.118ZM59.7428 88.2394L59.2809 85.2752L55.9851 85.7888L56.844 89.0119L59.7428 88.2394ZM64 87.459L63.3714 84.5256L64 87.459ZM76.2905 76.9284L76.552 73.9398L74.4548 73.7563L73.569 75.666L76.2905 76.9284ZM81.3087 60.1996L78.3144 60.016L78.205 61.7993L79.7208 62.7449L81.3087 60.1996ZM81.4557 57.8036L80.4993 54.9602L78.585 55.6041L78.4613 57.62L81.4557 57.8036ZM83.4944 55.1428L80.5 54.9591V54.9591L83.4944 55.1428ZM80.6837 51.9647L80.8673 48.9703L80.6837 51.9647ZM77.5056 54.7754L80.5 54.9591V54.9591L77.5056 54.7754ZM79.4539 57.7716L82.4483 57.9553L82.5845 55.7344L80.4987 54.9594L79.4539 57.7716ZM79.3595 59.3106L78.4835 62.1798L82.1211 63.2904L82.3539 59.4942L79.3595 59.3106ZM75.4218 59.1141L72.5655 60.0316L73.3835 62.5781L76.0068 62.0565L75.4218 59.1141ZM74 55.459L76.7186 54.1903L74 55.459ZM18.7186 56.7276C21.5522 50.6556 31.1904 44.459 45 44.459V38.459C29.8097 38.459 17.4478 45.2624 13.2815 54.1903L18.7186 56.7276ZM17.4223 60.0398C17.7938 58.897 18.2255 57.7843 18.7186 56.7276L13.2815 54.1903C12.6744 55.4911 12.1553 56.8341 11.7162 58.1849L17.4223 60.0398ZM15.1508 56.1693C14.452 56.0312 13.7327 55.9593 13 55.9593V61.9593C13.3395 61.9593 13.6693 61.9925 13.9876 62.0554L15.1508 56.1693ZM13 55.9593C11.8801 55.9593 10.7933 56.1272 9.76447 56.4413L11.5165 62.1798C11.986 62.0365 12.4826 61.9593 13 61.9593V55.9593ZM13.6349 59.1269L13.5405 57.588L7.55172 57.9553L7.64611 59.4942L13.6349 59.1269ZM11.5909 60.5838C14.0015 59.6882 15.6548 57.2983 15.4887 54.5917L9.5 54.9591C9.50021 54.9624 9.50001 54.9635 9.50009 54.9627C9.50016 54.9621 9.50035 54.9609 9.50072 54.9596C9.50146 54.9568 9.50213 54.9562 9.5014 54.9573C9.50048 54.9587 9.49914 54.9601 9.49813 54.9609C9.49746 54.9614 9.49847 54.9605 9.5013 54.9594L11.5909 60.5838ZM15.4887 54.5917C15.2859 51.2843 12.4402 48.7675 9.13267 48.9703L9.5 54.9591H9.5L15.4887 54.5917ZM9.13266 48.9703C5.82517 49.1732 3.30838 52.0189 3.51126 55.3264L9.5 54.9591H9.5L9.13266 48.9703ZM3.51126 55.3264C3.66556 57.8421 5.34745 59.8935 7.58787 60.6471L9.50073 54.9602C9.50269 54.9608 9.50274 54.9612 9.50144 54.9602C9.49998 54.9592 9.49874 54.9579 9.49813 54.9571C9.49773 54.9566 9.49857 54.9576 9.49955 54.9601C9.50002 54.9614 9.50028 54.9624 9.50038 54.9628C9.50048 54.9633 9.50019 54.9622 9.5 54.9591L3.51126 55.3264ZM5.54993 57.9873L5.69688 60.3833L11.6856 60.016L11.5387 57.62L5.54993 57.9873ZM7.10333 57.6544C3.70744 59.7729 1.5 63.6296 1.5 67.9593H7.5C7.5 65.6779 8.65862 63.7559 10.2792 62.7449L7.10333 57.6544ZM1.5 67.9593C1.5 74.4228 6.48948 79.9593 13 79.9593V73.9593C10.1217 73.9593 7.5 71.4369 7.5 67.9593H1.5ZM13 79.9593C13.3264 79.9593 13.6503 79.945 13.9711 79.917L13.4481 73.9398C13.3009 73.9527 13.1515 73.9593 13 73.9593V79.9593ZM26.6286 84.5256C21.2696 83.3772 17.8998 78.8325 16.4311 75.666L10.9881 78.1907C12.8062 82.1104 17.3383 88.671 25.3714 90.3924L26.6286 84.5256ZM30.6549 85.2652C29.2911 85.0516 27.9373 84.806 26.6286 84.5256L25.3714 90.3924C26.8049 90.6996 28.2699 90.9648 29.7266 91.1929L30.6549 85.2652ZM27.2889 87.468C27.0602 88.3397 24.9706 96.3913 24.6521 101.946L30.6423 102.29C30.9207 97.4341 32.8373 89.9634 33.0926 88.9901L27.2889 87.468ZM24.6521 101.946C24.4872 104.823 24.7345 108.55 25.1094 111.811C25.478 115.017 26.0119 118.138 26.5285 119.732L32.2361 117.881C31.9204 116.907 31.4362 114.309 31.0701 111.125C30.7103 107.996 30.5063 104.662 30.6423 102.29L24.6521 101.946ZM26.5285 119.732C27.0232 121.257 27.7755 122.815 29.1166 123.969C30.5333 125.188 32.2506 125.658 34.0658 125.658V119.658C33.3136 119.658 33.1053 119.486 33.0302 119.421C32.8795 119.291 32.5738 118.923 32.2361 117.881L26.5285 119.732ZM34.0658 125.658L40.4844 125.658L40.4844 119.658L34.0658 119.658L34.0658 125.658ZM40.4844 125.658C41.406 125.658 42.2872 125.659 43.004 125.611C43.6309 125.568 44.6603 125.469 45.5833 124.941C46.1185 124.636 46.6274 124.184 46.9983 123.555C47.3575 122.947 47.4935 122.331 47.5358 121.824C47.611 120.922 47.4084 120.012 47.246 119.363L41.4251 120.818C41.4935 121.091 41.5284 121.267 41.5446 121.377C41.562 121.494 41.5456 121.457 41.5565 121.325C41.5687 121.179 41.6195 120.864 41.8307 120.506C42.0538 120.128 42.352 119.877 42.6064 119.732C42.8277 119.606 42.9776 119.58 42.9465 119.587C42.9213 119.592 42.8205 119.609 42.5982 119.624C42.1316 119.656 41.4884 119.658 40.4844 119.658V125.658ZM47.246 119.363C46.8236 117.673 46.6937 116.036 46.6937 114.955H40.6937C40.6937 116.442 40.8649 118.577 41.4251 120.818L47.246 119.363ZM46.6937 114.955C46.6937 114.891 46.6943 114.844 46.6954 114.808C46.696 114.79 46.6966 114.777 46.6971 114.767C46.6976 114.758 46.698 114.754 46.698 114.754C46.6979 114.755 46.6973 114.761 46.6957 114.773C46.6941 114.785 46.6913 114.804 46.6864 114.83C46.6773 114.878 46.6575 114.967 46.6163 115.082C46.5378 115.302 46.3341 115.745 45.8533 116.128C45.3324 116.543 44.7591 116.672 44.3355 116.672V110.672C43.614 110.672 42.8115 110.88 42.1144 111.436C41.4573 111.959 41.1304 112.603 40.9659 113.064C40.6795 113.866 40.6937 114.697 40.6937 114.955H46.6937ZM44.3355 116.672H45.6193V110.672H44.3355V116.672ZM45.6193 116.672C45.1957 116.672 44.6224 116.543 44.1015 116.128C43.6207 115.745 43.417 115.302 43.3385 115.082C43.2973 114.967 43.2776 114.878 43.2684 114.83C43.2635 114.804 43.2607 114.785 43.2591 114.773C43.2575 114.761 43.2569 114.755 43.2569 114.754C43.2568 114.754 43.2572 114.758 43.2577 114.767C43.2583 114.777 43.2589 114.79 43.2594 114.808C43.2605 114.844 43.2611 114.891 43.2611 114.955H49.2611C49.2611 114.697 49.2754 113.866 48.9889 113.064C48.8244 112.603 48.4975 111.959 47.8404 111.436C47.1433 110.88 46.3408 110.672 45.6193 110.672V116.672ZM43.2611 114.955C43.2611 116.036 43.1312 117.673 42.7088 119.363L48.5297 120.818C49.0899 118.577 49.2611 116.442 49.2611 114.955H43.2611ZM42.7088 119.363C42.5464 120.013 42.3438 120.922 42.419 121.824C42.4613 122.331 42.5973 122.947 42.9565 123.555C43.3274 124.184 43.8363 124.636 44.3715 124.941C45.2945 125.469 46.3239 125.568 46.9508 125.611C47.6676 125.659 48.5489 125.658 49.4704 125.658V119.658C48.4664 119.658 47.8232 119.656 47.3567 119.624C47.1343 119.609 47.0336 119.592 47.0083 119.587C46.9773 119.58 47.1272 119.606 47.3484 119.732C47.6028 119.877 47.9011 120.128 48.1241 120.506C48.3353 120.864 48.3861 121.179 48.3983 121.325C48.4092 121.457 48.3928 121.494 48.4102 121.377C48.4264 121.267 48.4613 121.091 48.5297 120.818L42.7088 119.363ZM49.4704 125.658H55.889V119.658H49.4704V125.658ZM55.8889 125.658C57.7044 125.658 59.4213 125.188 60.8381 123.969C62.1791 122.816 62.932 121.259 63.4278 119.734L57.7216 117.879C57.3829 118.921 57.0767 119.29 56.9253 119.421C56.8497 119.486 56.6411 119.658 55.8892 119.658L55.8889 125.658ZM63.4278 119.734C63.9461 118.139 64.481 115.017 64.8496 111.81C65.2245 108.549 65.4709 104.821 65.3025 101.943L59.3127 102.293C59.4514 104.664 59.2486 107.996 58.8889 111.125C58.5229 114.309 58.0379 116.906 57.7216 117.879L63.4278 119.734ZM65.3025 101.943C64.9659 96.1895 62.7122 87.7318 62.6416 87.467L56.844 89.0119C56.9453 89.3923 59.0178 97.2533 59.3127 102.293L65.3025 101.943ZM63.3714 84.5256C62.0422 84.8104 60.6663 85.0593 59.2809 85.2752L60.2047 91.2037C61.6841 90.9732 63.1726 90.7044 64.6286 90.3924L63.3714 84.5256ZM73.569 75.666C72.1003 78.8325 68.7305 83.3772 63.3714 84.5256L64.6286 90.3924C72.6617 88.671 77.1939 82.1105 79.012 78.1907L73.569 75.666ZM76.029 79.917C76.3498 79.945 76.6737 79.9593 77 79.9593V73.9593C76.8485 73.9593 76.6991 73.9527 76.552 73.9398L76.029 79.917ZM77 79.9593C83.5105 79.9593 88.5 74.4228 88.5 67.9593H82.5C82.5 71.4369 79.8783 73.9593 77 73.9593V79.9593ZM88.5 67.9593C88.5 63.6296 86.2926 59.7729 82.8967 57.6544L79.7208 62.7449C81.3414 63.7559 82.5 65.6779 82.5 67.9593H88.5ZM84.3031 60.3833L84.4501 57.9873L78.4613 57.62L78.3144 60.016L84.3031 60.3833ZM82.4121 60.6471C84.6525 59.8935 86.3344 57.8421 86.4887 55.3264L80.5 54.9591C80.4998 54.9622 80.4995 54.9633 80.4996 54.9628C80.4997 54.9624 80.5 54.9614 80.5005 54.9601C80.5014 54.9576 80.5023 54.9566 80.5019 54.9571C80.5013 54.9579 80.5 54.9592 80.4986 54.9602C80.4973 54.9612 80.4973 54.9608 80.4993 54.9602L82.4121 60.6471ZM86.4887 55.3264C86.6916 52.0189 84.1748 49.1732 80.8673 48.9703L80.5 54.9591V54.9591L86.4887 55.3264ZM80.8673 48.9703C77.5599 48.7675 74.7141 51.2842 74.5113 54.5918L80.5 54.9591V54.9591L80.8673 48.9703ZM74.5113 54.5917C74.3452 57.2983 75.9985 59.6882 78.4091 60.5838L80.4987 54.9594C80.5015 54.9605 80.5025 54.9614 80.5019 54.9609C80.5009 54.9601 80.4995 54.9587 80.4986 54.9573C80.4979 54.9562 80.4985 54.9568 80.4993 54.9596C80.4997 54.9609 80.4998 54.9621 80.4999 54.9627C80.5 54.9635 80.4998 54.9624 80.5 54.9591L74.5113 54.5917ZM76.4595 57.588L76.3651 59.1269L82.3539 59.4942L82.4483 57.9553L76.4595 57.588ZM80.2355 56.4413C79.2067 56.1272 78.1199 55.9593 77 55.9593V61.9593C77.5174 61.9593 78.014 62.0365 78.4835 62.1798L80.2355 56.4413ZM77 55.9593C76.2629 55.9593 75.5395 56.032 74.8368 56.1717L76.0068 62.0565C76.3269 61.9929 76.6585 61.9593 77 61.9593V55.9593ZM71.2815 56.7276C71.7676 57.7693 72.1957 58.8803 72.5655 60.0316L78.2781 58.1967C77.8408 56.8352 77.3235 55.4866 76.7186 54.1903L71.2815 56.7276ZM45 44.459C58.8097 44.459 68.4478 50.6556 71.2815 56.7276L76.7186 54.1903C72.5522 45.2624 60.1904 38.459 45 38.459V44.459Z" fill="#2681D7" mask="url(#path-1-outside-1_613_2932)"/>
<path d="M45.0001 89.459C41.2832 89.459 34.1127 89.0273 27.5 87.7627C25.5 85.959 23.5 78.0004 23.5 74.959C23.5 71.959 24 67.459 24.5 65.959C25 64.459 25.5 63.459 28 63.459H45.0001H62C64.5 63.459 65 64.459 65.5 65.959C66 67.459 66.5 71.959 66.5 74.959C66.5 77.959 64.5 85.959 62.5001 87.7627C55.8874 89.0273 48.7169 89.459 45.0001 89.459Z" fill="white"/>
<path d="M30.2148 88.1384C30.2148 88.1384 27.9651 96.5765 27.6473 102.118C27.3464 107.367 28.5501 116.239 29.3824 118.806C30.2148 121.374 31.4985 122.658 34.0659 122.658L40.4845 122.658C44.3357 122.658 44.9775 122.658 44.3357 120.09C43.8444 118.125 43.6938 116.239 43.6938 114.955C43.6938 114.313 43.7397 113.672 44.3357 113.672H45.6194C46.2154 113.672 46.2612 114.313 46.2612 114.955C46.2612 116.239 46.1107 118.125 45.6194 120.09C44.9775 122.658 45.6194 122.658 49.4705 122.658H55.8891C58.4566 122.658 59.7403 121.374 60.5748 118.806C61.4094 116.239 62.6148 107.367 62.3077 102.118C61.9856 96.6118 59.7403 88.2296 59.7403 88.2296L44.3357 82.1104L30.2148 88.1384Z" fill="#F8F9FA"/>
<path d="M13 76.9593C17.6944 76.9593 21.5 72.9299 21.5 67.9593C21.5 62.9887 17.6944 58.9593 13 58.9593C12.1813 58.9593 11.3896 59.0818 10.6405 59.3106L10.5461 57.7716C11.7525 57.3234 12.5772 56.1265 12.4944 54.7754C12.3929 53.1217 10.9701 51.8633 9.31633 51.9647C7.66259 52.0661 6.40419 53.489 6.50563 55.1428C6.58264 56.3982 7.42125 57.4259 8.5443 57.8036L8.69126 60.1996C6.18303 61.7644 4.5 64.6538 4.5 67.9593C4.5 72.9299 8.30558 76.9593 13 76.9593Z" fill="#E1615C"/>
<path d="M77 76.9593C72.3056 76.9593 68.5 72.9299 68.5 67.9593C68.5 62.9887 72.3056 58.9593 77 58.9593C77.8187 58.9593 78.6104 59.0818 79.3595 59.3106L79.4539 57.7716C78.2475 57.3234 77.4228 56.1265 77.5056 54.7754C77.6071 53.1217 79.0299 51.8633 80.6837 51.9647C82.3374 52.0661 83.5958 53.489 83.4944 55.1428C83.4174 56.3982 82.5788 57.4259 81.4557 57.8036L81.3087 60.1996C83.817 61.7644 85.5 64.6538 85.5 67.9593C85.5 72.9299 81.6944 76.9593 77 76.9593Z" fill="#E1615C"/>
<path d="M15.9999 55.459C19.4999 47.959 30.4999 41.459 44.9999 41.459C59.4999 41.459 70.4999 47.959 73.9999 55.459C77.4999 62.959 77.9999 72.959 76.4999 76.459C74.9999 79.959 70.9999 85.959 63.9999 87.459C57 88.959 49 89.459 44.9999 89.459C40.9999 89.459 32.9999 88.959 25.9999 87.459C19 85.959 15 79.959 13.4999 76.459C11.9999 72.959 12.4054 63.1616 15.9999 55.459Z" fill="#363637"/>
<path d="M45.0001 89.459C41.2832 89.459 34.1127 89.0273 27.5 87.7627C25.5 85.959 22.5 83.2168 22.5 79.2168C22.5 75.2168 24 69.2168 25.5 65.959C26.1613 64.5228 26.5 63.459 29 63.459H45.0001H61C63.5 63.459 63.8387 64.5228 64.5 65.959C66 69.2168 67.5 75.2168 67.5 79.2168C67.5 83.2168 64.5 85.959 62.5001 87.7627C55.8874 89.0273 48.7169 89.459 45.0001 89.459Z" fill="white"/>
<path d="M35.5 89.959H54.5V98.959C54.5 100.064 53.6046 100.959 52.5 100.959H37.5C36.3954 100.959 35.5 100.064 35.5 98.959V89.959Z" fill="#363637"/>
<circle cx="32.5" cy="94.959" r="2" fill="#B2B3B5"/>
<circle cx="57.5" cy="94.959" r="2" fill="#B2B3B5"/>
<circle cx="31.5" cy="79.2168" r="6" fill="#F8E6DF"/>
<circle cx="58.5" cy="79.2168" r="6" fill="#F8E6DF"/>
<circle cx="37.8123" cy="74.1409" r="2.92414" fill="black"/>
<circle cx="38.9088" cy="73.4033" r="1.09655" fill="white"/>
<circle cx="51.8482" cy="74.1409" r="2.92414" fill="black"/>
<circle cx="52.9447" cy="73.4033" r="1.09655" fill="white"/>
<path d="M48.25 77.9668V78.2168C48.25 79.2792 48.0993 80.3356 47.6133 81.1328C47.1141 81.9513 46.2796 82.4668 45 82.4668C43.7204 82.4668 42.8859 81.9513 42.3867 81.1328C41.9007 80.3356 41.75 79.2792 41.75 78.2168V77.9668H48.25Z" fill="#E1615C" stroke="#E1615C" stroke-width="0.5" stroke-linecap="round"/>
<path fill-rule="evenodd" clip-rule="evenodd" d="M47.1166 81.3858C46.6552 81.9013 45.9766 82.2168 44.9999 82.2168C44.0233 82.2168 43.3447 81.9013 42.8833 81.3858C43.3259 80.6835 44.1084 80.2168 44.9999 80.2168C45.8915 80.2168 46.674 80.6835 47.1166 81.3858Z" fill="#D55748"/>
<path fill-rule="evenodd" clip-rule="evenodd" d="M47 78.2168V78.5C47 79.0523 46.5523 79.5 46 79.5H44C43.4477 79.5 43 79.0523 43 78.5V78.2168H47Z" fill="white"/>
<path d="M35.3909 55.7168C39.1125 55.7168 41.9817 58.2543 41.9817 61.2168C41.9817 64.1793 39.1125 66.7168 35.3909 66.7168C31.6693 66.7168 28.8 64.1793 28.8 61.2168C28.8 58.2543 31.6693 55.7168 35.3909 55.7168Z" fill="white" fill-opacity="0.4" stroke="#E1615C"/>
<path d="M42 61.7168C42.3333 61.2168 43.4 60.2168 45 60.2168C46.6 60.2168 47.6667 61.2168 48 61.7168" stroke="#E1615C" stroke-linecap="round"/>
<path d="M54.5908 55.7168C58.3124 55.7168 61.1816 58.2543 61.1816 61.2168C61.1816 64.1793 58.3124 66.7168 54.5908 66.7168C50.8693 66.7168 48 64.1793 48 61.2168C48 58.2543 50.8693 55.7168 54.5908 55.7168Z" fill="white" fill-opacity="0.4" stroke="#E1615C"/>
</g>
<defs>
<clipPath id="clip0_613_2932">
<rect width="90" height="113.39" fill="white"/>
</clipPath>
</defs>
</svg>
