<svg width="90" height="114" viewBox="0 0 90 114" fill="none" xmlns="http://www.w3.org/2000/svg">
<rect width="90" height="113.39" fill="#FFFAFA"/>
<circle cx="38.6169" cy="56.0632" r="3.55319" fill="#FFC6C6"/>
<circle cx="51.9414" cy="56.0632" r="3.55319" fill="#FFC6C6"/>
<circle cx="39.061" cy="52.0658" r="1.33245" fill="black"/>
<circle cx="51.4972" cy="52.0658" r="1.33245" fill="black"/>
<path d="M36.8403 47.1802L40.3935 48.9568" stroke="black" stroke-width="1.5" stroke-linecap="round"/>
<path d="M53.718 47.1802L50.1648 48.9568" stroke="black" stroke-width="1.5" stroke-linecap="round"/>
<path d="M45.2791 56.0632H41.2817C41.2817 57.2476 42.538 59.6164 45.2791 59.6164C48.0201 59.6164 49.2764 57.2476 49.2764 56.0632H45.2791Z" fill="#EE5B5C"/>
<path d="M31 89.8492V91.3492C31.715 91.3492 32.3306 90.8446 32.4709 90.1434L31 89.8492ZM25.5 88.3492C24.6716 88.3492 24 89.0208 24 89.8492C24 90.6777 24.6716 91.3492 25.5 91.3492V88.3492ZM32.0291 77.0551L29.5291 89.5551L32.4709 90.1434L34.9709 77.6434L32.0291 77.0551ZM31 88.3492H25.5V91.3492H31V88.3492Z" fill="black"/>
<path d="M59 89.8492V91.3492C58.285 91.3492 57.6694 90.8446 57.5291 90.1434L59 89.8492ZM64.5 88.3492C65.3284 88.3492 66 89.0208 66 89.8492C66 90.6777 65.3284 91.3492 64.5 91.3492V88.3492ZM57.9709 77.0551L60.4709 89.5551L57.5291 90.1434L55.0291 77.6434L57.9709 77.0551ZM59 88.3492H64.5V91.3492H59V88.3492Z" fill="black"/>
<path d="M44.5 80.3492C38.2147 80.3492 29.9275 80.0074 24.558 76.5598C17.0175 71.7183 12.5 62.3645 12.5 53.3492C12.5 44.334 17.0175 34.9802 24.558 30.1387C29.9275 26.6911 38.2147 26.3492 44.5 26.3492" stroke="#C0E9E3" stroke-width="3"/>
<path d="M77.033 65.6622C77.2059 66.4724 78.0028 66.9891 78.813 66.8162C79.6232 66.6434 80.1398 65.8465 79.967 65.0363L77.033 65.6622ZM70.5 55.8492C70.8346 55.8492 71.3473 56.0141 72.0242 56.5451C72.6865 57.0646 73.3878 57.8445 74.0655 58.8263C75.4232 60.7934 76.5421 63.361 77.033 65.6622L79.967 65.0363C79.3912 62.3375 78.1102 59.4051 76.5345 57.1222C75.7455 55.979 74.8468 54.9464 73.8758 54.1847C72.9194 53.4344 71.7654 52.8492 70.5 52.8492V55.8492Z" fill="black"/>
<path d="M12.9785 65.6022C12.8388 66.4188 12.0636 66.9675 11.247 66.8278C10.4305 66.688 9.88177 65.9128 10.0215 65.0963L12.9785 65.6022ZM18.5 54.8492C18.3791 54.8492 18.0099 54.938 17.405 55.5296C16.8311 56.0909 16.2133 56.9446 15.6123 58.0303C14.4127 60.1973 13.4175 63.0367 12.9785 65.6022L10.0215 65.0963C10.5158 62.2072 11.6207 59.0466 12.9877 56.5773C13.67 55.3448 14.4522 54.2212 15.3075 53.3848C16.1317 52.5787 17.2209 51.8492 18.5 51.8492V54.8492Z" fill="black"/>
<circle cx="45" cy="53.3492" r="27" stroke="#C0E9E3" stroke-width="3"/>
<path d="M45 31.3492C57.7025 31.3492 68 41.0854 68 53.0955C68 56.4048 67.2182 59.5414 65.8197 62.3492" stroke="#C0E9E3" stroke-width="3" stroke-linecap="round"/>
</svg>
