<svg width="90" height="114" viewBox="0 0 90 114" fill="none" xmlns="http://www.w3.org/2000/svg">
<g clip-path="url(#clip0_183_731)">
<rect width="90" height="113.39" fill="#FFD6E5"/>
<path d="M12.2471 77.9488C12.247 83.7256 12.8887 86.8267 15.4564 91.1069C17.3817 94.3163 19.9494 95.9209 22.5169 96.5628C23.4479 96.7956 26.3298 96.9908 30.2191 97.1349C30.2191 97.1349 27.9694 105.573 27.6517 111.115C27.3507 116.364 28.5545 125.236 29.3868 127.803C30.2191 130.37 31.5028 131.654 34.0703 131.654L40.4889 131.654C44.34 131.654 44.9819 131.654 44.34 129.087C43.8487 127.122 43.6982 125.236 43.6982 123.952C43.6982 123.31 43.7441 122.668 44.34 122.668H45.6238C46.2197 122.668 46.2656 123.31 46.2656 123.952C46.2656 125.236 46.115 127.122 45.6238 129.087C44.9819 131.654 45.6238 131.654 49.4749 131.654H55.8935C58.4609 131.654 59.7447 130.37 60.5792 127.803C61.4137 125.236 62.6192 116.363 62.3121 111.115C61.9899 105.608 59.7447 97.2261 59.7447 97.2261C63.6341 97.0897 66.516 96.8731 67.447 96.5628C69.9576 95.7259 72.5819 94.3162 74.5074 91.1069C77.0749 86.8278 78.3586 84.3675 77.7167 77.9489C76.7113 67.8945 75.681 59.0596 73.8656 54.5209C72.3692 50.7799 68.7307 48.2125 66.1632 47.4605C63.8004 46.7685 55.9395 45.9094 47.5 45.7012V44.6542L46.6179 38.4792C49.9823 37.7395 52.5 34.7409 52.5 31.1542C52.5 27.012 49.1421 23.6542 45 23.6542C40.8579 23.6542 37.5 27.012 37.5 31.1542C37.5 34.7409 40.0177 37.7395 43.3821 38.4792L42.5 44.6542V45.66C42.2572 45.6623 42.0147 45.6652 41.7726 45.6688C33.5461 45.7914 26.1005 46.7867 23.8005 47.4605C21.2331 48.2125 17.5946 50.7799 16.0982 54.5209C14.4991 58.5186 12.2471 67.8443 12.2471 77.9488Z" stroke="white" stroke-width="6" stroke-linejoin="round"/>
<circle cx="45" cy="31.1542" r="7.5" fill="#E94141"/>
<path d="M45.45 31.1542H49.5C49.5 33.8542 47.7 35.6542 45 35.6542C42.3 35.6542 40.5 33.8542 40.5 31.1542C40.5 28.4542 42.3 26.6542 45 26.6542C46.2919 26.6542 47.3778 27.0663 48.159 27.792" stroke="#FFE3E3" stroke-width="3" stroke-linecap="round" stroke-linejoin="round"/>
<path d="M42.5 45.6542L43.5 37.6542H46.5L47.5 45.6542L45 46.6542L42.5 45.6542Z" fill="#E94141"/>
<path d="M30.2189 97.1349C30.2189 97.1349 27.9692 105.573 27.6515 111.115C27.3505 116.364 28.5543 125.236 29.3866 127.803C30.2189 130.37 31.5026 131.654 34.0701 131.654L40.4887 131.654C44.3398 131.654 44.9817 131.654 44.3398 129.087C43.8485 127.122 43.698 125.236 43.698 123.952C43.698 123.31 43.7438 122.668 44.3398 122.668H45.6235C46.2195 122.668 46.2654 123.31 46.2654 123.952C46.2654 125.236 46.1148 127.122 45.6235 129.087C44.9817 131.654 45.6235 131.654 49.4747 131.654H55.8933C58.4607 131.654 59.7444 130.37 60.579 127.803C61.4135 125.236 62.619 116.363 62.3119 111.115C61.9897 105.608 59.7444 97.2261 59.7444 97.2261L44.3398 91.1069L30.2189 97.1349Z" fill="#ADADAD"/>
<path d="M12.2471 77.9488C12.247 83.7255 12.8887 86.8267 15.4564 91.1068L37.2796 73.1348L41.7726 45.6688C33.5461 45.7914 26.1005 46.7867 23.8005 47.4604C21.2331 48.2125 17.5946 50.7799 16.0982 54.5208C14.4991 58.5186 12.2471 67.8443 12.2471 77.9488Z" fill="#C30E0E"/>
<path d="M74.5511 91.1069C77.1185 86.8277 78.4022 84.3674 77.7604 77.9488C76.7549 67.8945 75.7247 59.0595 73.9092 54.5209C72.4128 50.7799 68.7743 48.2124 66.2069 47.4605C63.3125 46.6128 52.1683 45.5145 41.8162 45.6688L37.3232 73.1348L15.5 91.1069C17.4253 94.3163 19.993 95.9208 22.5605 96.5627C26.4116 97.5255 63.6394 97.8464 67.4907 96.5627C70.0013 95.7259 72.6255 94.3162 74.5511 91.1069Z" fill="#ADADAD"/>
<path d="M69.056 87.5945C71.1128 84.1634 71.627 81.9334 71.1128 76.7868C70.3073 68.7251 69.5702 59.2887 68.0277 55.6861C67.0147 53.3204 64.9425 52.7698 62.8859 52.0836C59.8008 51.0543 29.9779 51.0542 26.8928 52.0836C24.836 52.7698 22.901 53.8986 21.751 56.2008C20.2084 59.2887 18.6658 68.6849 18.6658 76.7868C18.6657 81.4187 18.6658 84.1626 20.7227 87.5944C22.265 90.1678 24.836 91.197 26.8928 91.7117C29.9779 92.4837 59.8007 92.741 62.8859 91.7117C64.8971 91.0407 67.5135 90.1677 69.056 87.5945Z" fill="#E1E1E1"/>
<circle cx="32.2129" cy="77.1644" r="4.5613" fill="#FFC6C6"/>
<circle cx="57.8875" cy="77.1644" r="4.5613" fill="#FFC6C6"/>
<circle cx="37.2796" cy="73.2449" r="3.2093" fill="black"/>
<circle cx="38.483" cy="72.436" r="1.20349" fill="white"/>
<circle cx="52.6842" cy="73.2449" r="3.2093" fill="black"/>
<circle cx="53.8876" cy="72.436" r="1.20349" fill="white"/>
<ellipse cx="44.9819" cy="74.5287" rx="0.898603" ry="0.641859" fill="black"/>
<path d="M41.1309 77.738C41.1309 77.738 41.9011 80.3054 44.982 80.3054C48.0629 80.3054 48.8332 77.738 48.8332 77.738" stroke="black" stroke-linecap="round"/>
</g>
<defs>
<clipPath id="clip0_183_731">
<rect width="90" height="113.39" fill="white"/>
</clipPath>
</defs>
</svg>
