<svg width="122" height="107" viewBox="0 0 122 107" fill="none" xmlns="http://www.w3.org/2000/svg">
<path d="M0 54.4458H2H66.5V38.4458H15C9.4 44.8458 2.66667 51.7791 0 54.4458Z" fill="#C4D8FF"/>
<path d="M90.5 18.4458C86.0368 13.4867 81.7375 4.10074 79.0657 0.0449404C79.031 -0.00775733 78.9613 -0.0155944 78.9172 0.0294859C75.6897 3.32441 69.3091 13.6538 66.5 18.4458H89.2523H90.5Z" fill="#C4D8FF"/>
<path d="M121.5 47.9458H89.3612C89.3601 51.7874 89.3569 55.8242 89.3521 59.9458H121.5V47.9458Z" fill="#C4D8FF"/>
<path d="M78 26.9458C73.6 27.7458 74.2172 31.4659 74.5 33.4458C75 36.9458 78.75 37.4458 80.5 36.4458C83.3 34.8458 82.3333 30.7791 81.5 28.9458C80.6667 27.1125 79.5 26.6731 78 26.9458Z" fill="#C4D8FF"/>
<path d="M72 62.9458V55.4458C73.1539 55.1161 75.7426 54.656 76.9601 55.42C76.9857 55.4361 77.0015 55.4621 77.0042 55.4922C77.1722 57.3469 77.5 61.3592 77.5 62.9458H72Z" fill="#C4D8FF"/>
<path d="M81.5 55.4458V62.4458C83.9 63.2458 85.1667 62.1125 85.5 61.4458L84.5 55.4458C83.7 55.0458 82.1667 55.2791 81.5 55.4458Z" fill="#C4D8FF"/>
<path d="M74.5 69.4458V78.4458C77.9561 78.8298 79.5382 78.6301 79.9541 78.4661C79.9838 78.4543 80.003 78.4281 80.0081 78.3965C80.3895 76.029 80.1741 71.6037 80.0095 69.5613C80.0045 69.4998 79.9462 69.4593 79.886 69.4728C78.2731 69.8349 75.6394 69.6086 74.5 69.4458Z" fill="#C4D8FF"/>
<path d="M72.5 91.9458C72 94.9458 72.5 101.946 72.5 106.446H84L84.0036 106.326C84.1713 100.795 84.4856 90.4314 82.5 88.4458C80.5 86.4458 78.5 86.1458 76.5 86.9458C75.25 87.4458 73.3 88.7458 72.5 91.9458Z" fill="#C4D8FF"/>
<path fill-rule="evenodd" clip-rule="evenodd" d="M66.5 38.4458V54.4458V106.446H72.5C72.5 101.946 72 94.9458 72.5 91.9458C73.3 88.7458 75.25 87.4458 76.5 86.9458C78.5 86.1458 80.5 86.4458 82.5 88.4458C84.4856 90.4314 84.1713 100.795 84.0036 106.326L84 106.446H89.2523C89.2894 94.3147 89.3331 76.4504 89.3521 59.9458C89.3569 55.8242 89.3601 51.7874 89.3612 47.9458C89.3657 32.9325 89.3392 20.9014 89.2523 18.4458H66.5V38.4458ZM74.5 33.4458C74.2172 31.4659 73.6 27.7458 78 26.9458C79.5 26.6731 80.6667 27.1125 81.5 28.9458C82.3333 30.7791 83.3 34.8458 80.5 36.4458C78.75 37.4458 75 36.9458 74.5 33.4458ZM72 55.4458V62.9458H77.5C77.5 61.3592 77.1722 57.3469 77.0042 55.4922C77.0015 55.4621 76.9857 55.4361 76.9601 55.42C75.7426 54.656 73.1539 55.1161 72 55.4458ZM81.5 62.4458V55.4458C82.1667 55.2791 83.7 55.0458 84.5 55.4458L85.5 61.4458C85.1667 62.1125 83.9 63.2458 81.5 62.4458ZM74.5 78.4458V69.4458C75.6394 69.6086 78.2731 69.8349 79.886 69.4728C79.9462 69.4593 80.0045 69.4998 80.0095 69.5613C80.1741 71.6037 80.3895 76.029 80.0081 78.3965C80.003 78.4281 79.9838 78.4543 79.9541 78.4661C79.5382 78.6301 77.9561 78.8298 74.5 78.4458Z" fill="#DEE9FF"/>
<path d="M10.5 58.9458V65.9458H15C15.3957 63.5715 14.8453 60.3489 14.5108 58.9892C14.5038 58.9609 14.4848 58.9381 14.4585 58.9254C12.8701 58.1539 11.1609 58.6153 10.5 58.9458Z" fill="#C4D8FF"/>
<path d="M22.5 58.9458V65.4458C25.3 66.2458 26.4286 65.9458 27 63.9458C27.8 61.1458 27.3333 59.4458 27 58.9458H22.5Z" fill="#C4D8FF"/>
<path d="M35.5 58.9458V66.9458C37.5 67.3458 39 66.7791 39.5 66.4458V58.9458C38.3 58.5458 36.3333 58.7791 35.5 58.9458Z" fill="#C4D8FF"/>
<path d="M47 58.9458V66.9458C48.5649 66.9458 49.9385 66.308 50.4658 65.9682C50.4881 65.9538 50.5028 65.9318 50.5078 65.9058C50.8835 63.9461 50.3567 60.5963 50.0235 59.053C50.011 58.9951 49.9511 58.9622 49.8943 58.9793C48.7245 59.3322 47.4854 59.1076 47 58.9458Z" fill="#C4D8FF"/>
<path d="M57 59.4458V65.9458C58.9535 66.3365 60.43 65.487 60.9635 64.9813C60.9869 64.9591 60.9968 64.9268 60.9916 64.8949C60.6033 62.5138 60.8345 60.2732 61 59.4458H57Z" fill="#C4D8FF"/>
<path d="M10.5 73.9458C10.1 78.3458 11 80.4458 11.5 80.9458H14.5V73.9458H10.5Z" fill="#C4D8FF"/>
<path d="M23 73.4458V80.4458C25.8 80.8458 27.1667 80.2791 27.5 79.9458V72.9458C26.3 72.9458 24 73.2791 23 73.4458Z" fill="#C4D8FF"/>
<path d="M100 69.4458V79.4458C101.2 80.2458 103.167 79.7791 104 79.4458V69.4458C102.8 69.0458 100.833 69.2791 100 69.4458Z" fill="#C4D8FF"/>
<path d="M111 69.9458V78.9458C112.2 79.3458 114.5 79.4458 115.5 79.4458V69.4458L111 69.9458Z" fill="#C4D8FF"/>
<path d="M99.5 87.4458V95.9458C101.813 95.9458 103.383 95.6361 103.942 95.4645C103.978 95.4534 104.003 95.4225 104.009 95.385C104.397 92.5925 104.165 88.935 104 87.4458H99.5Z" fill="#C4D8FF"/>
<path d="M112 87.9458V95.9458C114.4 95.9458 116 95.6125 116.5 95.4458V87.9458C114.5 88.3458 112.667 88.1125 112 87.9458Z" fill="#C4D8FF"/>
<path fill-rule="evenodd" clip-rule="evenodd" d="M89.2523 106.446H121.5V59.9458H89.3521C89.3331 76.4504 89.2894 94.3147 89.2523 106.446ZM100 79.4458V69.4458C100.833 69.2791 102.8 69.0458 104 69.4458V79.4458C103.167 79.7791 101.2 80.2458 100 79.4458ZM111 78.9458V69.9458L115.5 69.4458V79.4458C114.5 79.4458 112.2 79.3458 111 78.9458ZM99.5 95.9458V87.4458H104C104.165 88.935 104.397 92.5925 104.009 95.385C104.003 95.4225 103.978 95.4534 103.942 95.4645C103.383 95.6361 101.813 95.9458 99.5 95.9458ZM112 95.9458V87.9458C112.667 88.1125 114.5 88.3458 116.5 87.9458V95.4458C116 95.6125 114.4 95.9458 112 95.9458Z" fill="#DEE9FF"/>
<path d="M46.5 72.4458V80.4458H50.5C50.9 78.0458 50.6667 74.1125 50.5 72.4458H46.5Z" fill="#C4D8FF"/>
<path d="M57 72.9458V80.9458C60.2 80.1458 61 79.1125 61 77.9458V72.9458H57Z" fill="#C4D8FF"/>
<path d="M35.5 72.4458V80.9458C37.8002 80.9458 39.3656 80.6396 39.932 80.4674C39.9732 80.4549 40 80.419 39.9998 80.3759C39.9907 78.7395 39.6749 74.2329 39.5082 72.0529C39.5037 71.9944 39.4493 71.9543 39.3914 71.9638C37.0617 72.3488 35.8283 72.4458 35.5 72.4458Z" fill="#C4D8FF"/>
<path d="M11 88.9458V95.9458C13.584 96.1475 14.6634 96.0545 14.9455 95.9674C14.9805 95.9566 15 95.9231 15 95.8865V89.0458C15 88.9906 14.9552 88.9458 14.9 88.9458H11Z" fill="#C4D8FF"/>
<path d="M23 88.9458V95.9458C24.9907 96.3439 26.8163 94.4634 27.4906 93.4598C27.497 93.4503 27.5014 93.4403 27.5041 93.4292C27.8866 91.8772 27.6795 89.5847 27.5151 88.5391C27.5069 88.4866 27.4587 88.4504 27.4059 88.4563L23 88.9458Z" fill="#C4D8FF"/>
<path d="M35.5 88.4458C35.1079 91.1905 35.3244 94.1595 35.4901 95.3745C35.4959 95.4177 35.5298 95.4508 35.5728 95.4577C37.8385 95.8193 39.3787 95.3187 39.9359 94.9862C39.9746 94.9631 39.9901 94.9162 39.9763 94.8733C39.2094 92.487 39.67 89.6007 40 88.4458H35.5Z" fill="#C4D8FF"/>
<path d="M47 88.4458V95.4458C48.9007 95.8259 50.0488 95.6341 50.4442 95.471C50.4792 95.4566 50.5 95.4219 50.5 95.384V88.5458C50.5 88.4906 50.4552 88.4458 50.4 88.4458H47Z" fill="#C4D8FF"/>
<path d="M57.5 87.9458V95.4458C59.0576 95.8352 60.7416 95.3085 61.4448 94.9728C61.479 94.9564 61.5 94.9228 61.4999 94.8849C61.4934 92.9141 61.1775 89.5624 61.0097 88.0334C61.0041 87.9828 60.9615 87.9458 60.9105 87.9458H57.5Z" fill="#C4D8FF"/>
<path fill-rule="evenodd" clip-rule="evenodd" d="M2 54.4458V106.446H66.5V54.4458H2ZM10.5 65.9458V58.9458C11.1609 58.6153 12.8701 58.1539 14.4585 58.9254C14.4848 58.9381 14.5038 58.9609 14.5108 58.9892C14.8453 60.3489 15.3957 63.5715 15 65.9458H10.5ZM22.5 65.4458V58.9458H27C27.3333 59.4458 27.8 61.1458 27 63.9458C26.4286 65.9458 25.3 66.2458 22.5 65.4458ZM35.5 66.9458V58.9458C36.3333 58.7791 38.3 58.5458 39.5 58.9458V66.4458C39 66.7791 37.5 67.3458 35.5 66.9458ZM47 66.9458V58.9458C47.4854 59.1076 48.7245 59.3322 49.8943 58.9793C49.9511 58.9622 50.011 58.9951 50.0235 59.053C50.3567 60.5963 50.8835 63.9461 50.5078 65.9058C50.5028 65.9318 50.4881 65.9538 50.4658 65.9682C49.9385 66.308 48.5649 66.9458 47 66.9458ZM57 65.9458V59.4458H61C60.8345 60.2732 60.6033 62.5138 60.9916 64.8949C60.9968 64.9268 60.9869 64.9591 60.9635 64.9813C60.43 65.487 58.9535 66.3365 57 65.9458ZM11.5 80.9458C11 80.4458 10.1 78.3458 10.5 73.9458H14.5V80.9458H11.5ZM23 80.4458V73.4458C24 73.2791 26.3 72.9458 27.5 72.9458V79.9458C27.1667 80.2791 25.8 80.8458 23 80.4458ZM35.5 80.9458V72.4458C35.8283 72.4458 37.0617 72.3488 39.3914 71.9638C39.4493 71.9543 39.5037 71.9944 39.5082 72.0529C39.6749 74.2329 39.9907 78.7395 39.9998 80.3759C40 80.419 39.9732 80.4549 39.932 80.4674C39.3656 80.6396 37.8002 80.9458 35.5 80.9458ZM46.5 80.4458V72.4458H50.5C50.6667 74.1125 50.9 78.0458 50.5 80.4458H46.5ZM57 80.9458V72.9458H61V77.9458C61 79.1125 60.2 80.1458 57 80.9458ZM11 95.9458V88.9458H14.9C14.9552 88.9458 15 88.9906 15 89.0458V95.8865C15 95.9231 14.9805 95.9566 14.9455 95.9674C14.6634 96.0545 13.584 96.1475 11 95.9458ZM23 95.9458V88.9458L27.4059 88.4563C27.4587 88.4504 27.5069 88.4866 27.5151 88.5391C27.6795 89.5847 27.8866 91.8772 27.5041 93.4292C27.5014 93.4403 27.497 93.4503 27.4906 93.4598C26.8163 94.4634 24.9907 96.3439 23 95.9458ZM35.5728 95.4577C35.5298 95.4508 35.4959 95.4177 35.4901 95.3745C35.3244 94.1595 35.1079 91.1905 35.5 88.4458H40C39.67 89.6007 39.2094 92.487 39.9763 94.8733C39.9901 94.9162 39.9746 94.9631 39.9359 94.9862C39.3787 95.3187 37.8385 95.8193 35.5728 95.4577ZM47 95.4458V88.4458H50.4C50.4552 88.4458 50.5 88.4906 50.5 88.5458V95.384C50.5 95.4219 50.4792 95.4566 50.4442 95.471C50.0488 95.6341 48.9007 95.8259 47 95.4458ZM57.5 95.4458V87.9458H60.9105C60.9615 87.9458 61.0041 87.9828 61.0097 88.0334C61.1775 89.5624 61.4934 92.9141 61.4999 94.8849C61.5 94.9228 61.479 94.9564 61.4448 94.9728C60.7416 95.3085 59.0576 95.8352 57.5 95.4458Z" fill="#DEE9FF"/>
</svg>
