<svg width="243" height="159" viewBox="0 0 243 159" fill="none" xmlns="http://www.w3.org/2000/svg">
<path d="M57.6389 79C46.8389 79 40.1389 73.5 34.6389 68C27.1389 60.5 26.6389 45 27.1389 34C27.1389 23.2 31.1389 14.5 33.1389 11.5C39.8056 1.5 50.1389 -3.42726e-06 57.6389 0C66.0389 0 76.6389 6.5 80.1389 16.5C85.7389 13.7 91.3056 15.8333 93.6389 17.5C100.139 22.1429 102.354 28.0308 103.139 33C104.639 42.5 105.139 55.5 98.6389 65.5C92.1389 75.5 72.8056 79 57.6389 79Z" fill="#DEE9FF"/>
<path d="M60.5 122.5C60.5 116.9 61 87.3333 61 71.5M61 71.5C68 62 73.8333 43.5 75.5 36.5M61 71.5C54.6 67.1 47.8333 49.8333 45.5 43.5M61 71.5C60.5 62.5 60 49.5 59.0686 41M60.5 27C59.5 31 59.0686 36 59.0686 41M59.0686 41C55.5 36 52.5 33.5 50 31.5" stroke="#C4D8FF" stroke-width="3" stroke-linecap="round"/>
<path d="M0 128.895C14 122.495 54.5 122.562 73 123.395C97.5 123.395 145.5 132.895 161.5 136.395C174.3 139.195 221.167 152.228 243 158.395H0V128.895Z" fill="#DFEAFF"/>
</svg>
