<svg width="22" height="22" viewBox="0 0 22 22" fill="none" xmlns="http://www.w3.org/2000/svg">
<path d="M9.12257 12.1094L19.6226 1.60936M9.25015 12.4374L11.8783 19.1954C12.1098 19.7908 12.2255 20.0885 12.3923 20.1754C12.5369 20.2507 12.7092 20.2508 12.8539 20.1756C13.0208 20.0889 13.1369 19.7914 13.3691 19.1963L19.9595 2.30856C20.1691 1.77138 20.2739 1.50279 20.2166 1.33116C20.1668 1.18212 20.0498 1.06515 19.9008 1.01535C19.7291 0.958019 19.4606 1.06283 18.9234 1.27247L2.03562 7.86281C1.44055 8.09503 1.14301 8.21114 1.0563 8.37805C0.981136 8.52273 0.981238 8.69498 1.05658 8.83958C1.14348 9.00639 1.44115 9.12215 2.0365 9.35367L8.7945 11.9818C8.91535 12.0288 8.97578 12.0523 9.02666 12.0886C9.07175 12.1207 9.11119 12.1602 9.14336 12.2053C9.17965 12.2562 9.20315 12.3166 9.25015 12.4374Z" stroke="#414177" stroke-width="2" stroke-linecap="round" stroke-linejoin="round"/>
</svg>
