<svg width="37" height="33" viewBox="0 0 37 33" fill="none" xmlns="http://www.w3.org/2000/svg">
<path d="M24.6267 20.0286C24.6267 22.4103 21.3473 24.2271 19.8219 24.6088C15.612 25.708 7.39051 25.3721 3.80599 25.0668C0.511282 24.334 0.857897 20.9447 2.30294 19.5706M2.30294 19.5706C6.87892 15.2195 10.5397 11.3263 10.3109 3.76908C10.3109 2.16603 12.1413 1.25 14.2005 1.25C16.2597 1.25 18.3189 2.16603 18.3189 3.54007V9.49428C18.3189 17.5553 7.64159 19.5706 2.30294 19.5706Z" stroke="#F89EA0" stroke-width="2.5" stroke-linecap="round"/>
<path d="M18.3188 3.08203C19.234 3.08203 29.0724 2.62402 29.9876 3.54005C30.9028 4.45607 30.2164 9.95226 29.9876 12.0133M29.9876 12.0133H26.098M29.9876 12.0133C31.818 14.3034 32.2756 18.4255 32.2756 20.9446C32.2756 23.8759 25.3894 23.7691 22.5675 23.4637" stroke="#F89EA0" stroke-width="2.5" stroke-linecap="round"/>
<path d="M26.3268 23.9219C26.3268 24.4715 26.3268 29.0364 26.3268 31.2501M26.3268 31.2501C27.242 31.2501 29.6063 31.2501 31.1316 31.2501C33.1908 31.2501 34.7924 30.5631 35.25 29.1891M26.3268 31.2501H10.5397M1.3877 29.1891C1.84529 30.5631 3.44689 31.2501 5.50608 31.2501H10.5397M10.5397 31.2501C10.5397 30.5173 10.5397 27.7387 10.5397 26.441" stroke="#F89EA0" stroke-width="2.5" stroke-linecap="round"/>
</svg>
