<svg width="81" height="73" viewBox="0 0 81 73" fill="none" xmlns="http://www.w3.org/2000/svg">
<path d="M53.4836 41.3575C54.3245 46.1266 48.3931 50.9236 45.4707 52.227C37.4211 55.916 20.8244 58.1489 13.5322 58.8043C6.67001 58.5012 6.168 51.5918 8.57911 48.3297M8.57911 48.3297C16.2143 37.9996 22.1769 28.9101 19.0499 13.858C18.4839 10.6479 21.8291 8.16677 25.9562 7.43903C30.0834 6.7113 34.534 7.81787 35.0192 10.5693L37.1215 22.4923C39.9678 38.6341 19.2792 46.443 8.57911 48.3297Z" stroke="url(#paint0_linear_1199_4990)" stroke-width="4" stroke-linecap="round"/>
<path d="M34.8573 9.65218C36.6916 9.32874 56.2486 4.93466 58.4063 6.44551C60.5641 7.95636 61.129 19.2047 61.3981 23.4128M61.3981 23.4128L53.6024 24.7874M61.3981 23.4128C65.8753 27.3517 68.2479 35.4443 69.1374 40.4886C70.1724 46.3584 56.3328 48.578 50.5692 48.9638" stroke="url(#paint1_linear_1199_4990)" stroke-width="4" stroke-linecap="round"/>
<path d="M58.2659 48.5524C58.4599 49.653 60.0717 58.7939 60.8534 63.2268M60.8534 63.2268C62.6877 62.9034 67.4263 62.0678 70.4834 61.5287C74.6106 60.801 77.578 58.8593 78.01 55.9461M60.8534 63.2268L29.2117 68.8061M10.141 67.9133C11.5433 70.503 14.9959 71.3127 19.1231 70.585L29.2117 68.8061M29.2117 68.8061C28.953 67.3386 27.9719 61.7746 27.5137 59.176" stroke="#856AE7" stroke-width="4" stroke-linecap="round"/>
<defs>
<linearGradient id="paint0_linear_1199_4990" x1="23.4266" y1="7.88508" x2="31.9414" y2="56.175" gradientUnits="userSpaceOnUse">
<stop stop-color="#8C9BE4"/>
<stop offset="1" stop-color="#8466E7"/>
</linearGradient>
<linearGradient id="paint1_linear_1199_4990" x1="48.8034" y1="6.95669" x2="56.0926" y2="48.2957" gradientUnits="userSpaceOnUse">
<stop stop-color="#8C9BE4"/>
<stop offset="1" stop-color="#8466E7"/>
</linearGradient>
</defs>
</svg>
