<svg width="81" height="74" viewBox="0 0 81 74" fill="none" xmlns="http://www.w3.org/2000/svg">
<path d="M52.3523 45.9605C51.5114 50.7297 44.2207 53.1953 40.9932 53.4143C32.0694 54.1103 15.5185 50.4985 8.35849 48.6055C1.93707 45.9602 3.83656 39.2972 7.25162 37.0624M7.25162 37.0624C18.0659 29.9854 26.8629 23.4985 29.0674 8.28369C29.6334 5.07367 33.668 3.89376 37.8432 4.62994C42.0183 5.36612 45.8699 7.93661 45.3848 10.6881L43.2824 22.611C40.4362 38.7528 18.076 38.971 7.25162 37.0624Z" stroke="url(#paint0_linear_911_2338)" stroke-width="4" stroke-linecap="round"/>
<path d="M45.5465 9.7709C47.4021 10.0981 67.5115 12.6983 69.0437 14.8597C70.5759 17.0212 67.2435 27.7816 66.0519 31.827M66.0519 31.827L58.1656 30.4364M66.0519 31.827C68.9545 37.0671 68.4269 45.4851 67.5374 50.5294C66.5024 56.3992 52.578 53.7233 46.9644 52.103" stroke="url(#paint1_linear_911_2338)" stroke-width="4" stroke-linecap="round"/>
<path d="M54.425 54.3641C54.231 55.4647 52.6192 64.6056 51.8375 69.0385M51.8375 69.0385C53.6931 69.3657 58.4868 70.2109 61.5794 70.7563C65.7545 71.4925 69.2444 70.6893 70.6574 68.1015M51.8375 69.0385L19.8284 63.3944M2.0001 55.9953C2.44275 58.9104 5.44748 60.8587 9.62258 61.5949L19.8284 63.3944M19.8284 63.3944C20.0871 61.927 21.0682 56.363 21.5264 53.7644" stroke="#856AE7" stroke-width="4" stroke-linecap="round"/>
<defs>
<linearGradient id="paint0_linear_911_2338" x1="35.2841" y1="4.17871" x2="26.7693" y2="52.4686" gradientUnits="userSpaceOnUse">
<stop stop-color="#8C9BE4"/>
<stop offset="1" stop-color="#8466E7"/>
</linearGradient>
<linearGradient id="paint1_linear_911_2338" x1="59.7359" y1="12.0365" x2="52.4467" y2="53.3754" gradientUnits="userSpaceOnUse">
<stop stop-color="#8C9BE4"/>
<stop offset="1" stop-color="#8466E7"/>
</linearGradient>
</defs>
</svg>
