<svg width="80" height="71" viewBox="0 0 80 71" fill="none" xmlns="http://www.w3.org/2000/svg">
<path d="M5.05093 42.75C15.0509 33.25 23.0509 24.75 22.5509 8.25C22.5509 4.75 26.5509 2.75001 31.0509 2.75C35.5509 2.74999 40.0509 4.75 40.0509 7.75V20.75C40.0509 38.35 16.7176 42.75 5.05093 42.75Z" fill="#414177"/>
<path d="M53.8356 43.75C53.8356 48.95 46.6689 52.9167 43.3356 53.75C34.1356 56.15 16.1689 55.4167 8.33557 54.75C1.13557 53.15 1.89304 45.75 5.05093 42.75M5.05093 42.75C15.0509 33.25 23.0509 24.75 22.5509 8.25C22.5509 4.75 26.5509 2.75001 31.0509 2.75C35.5509 2.74999 40.0509 4.75 40.0509 7.75V20.75C40.0509 38.35 16.7176 42.75 5.05093 42.75Z" stroke="#414177" stroke-width="5.5" stroke-linecap="round"/>
<path d="M40.0509 6.75C42.0509 6.75 63.5509 5.75 65.5509 7.74999C67.5509 9.74999 66.0509 21.75 65.5509 26.25M65.5509 26.25H57.0509M65.5509 26.25C69.5509 31.25 70.5509 40.25 70.5509 45.75C70.5509 52.15 55.5022 51.9167 49.3356 51.25" stroke="#414177" stroke-width="5.5" stroke-linecap="round"/>
<path d="M57.5509 52.25C57.5509 53.45 57.5509 63.4167 57.5509 68.25M57.5509 68.25C59.5509 68.25 64.7176 68.25 68.0509 68.25C72.5509 68.25 76.0509 66.75 77.0509 63.75M57.5509 68.25H23.0509M3.0509 63.75C4.0509 66.75 7.5509 68.25 12.0509 68.25H23.0509M23.0509 68.25C23.0509 66.65 23.0509 60.5833 23.0509 57.75" stroke="#414177" stroke-width="5.5" stroke-linecap="round"/>
</svg>
