<svg width="75" height="75" viewBox="0 0 75 75" fill="none" xmlns="http://www.w3.org/2000/svg">
<path d="M14.2327 61.1032C13.8331 61.5592 13.4336 62.0145 12.979 62.5342C13.0748 62.7915 13.1363 63.1932 12.9254 63.5913C12.7875 63.8515 12.5995 64.0594 12.335 64.1924C11.8654 64.4283 11.2422 64.3018 10.8733 63.8972C10.4402 63.4219 10.4638 62.7979 10.7561 62.3069C11.0671 61.7844 11.646 61.655 12.4451 61.9052C12.9418 61.4048 13.4472 60.8966 14.0083 60.3313C13.8217 60.3213 13.7231 60.3141 13.6252 60.3105C13.1456 60.2912 12.6652 60.2741 12.1856 60.2534C12.0949 60.2498 12.0034 60.2434 11.9147 60.2241C11.6553 60.1669 11.5045 60.0161 11.5023 59.8245C11.5002 59.6308 11.6424 59.475 11.9055 59.4185C12.0563 59.3864 12.2142 59.3771 12.3693 59.3792C13.0962 59.3885 13.8232 59.3957 14.5493 59.4243C14.7895 59.4335 14.9653 59.3721 15.1347 59.1977C15.7137 58.6016 16.3069 58.0205 16.8944 57.4322C16.948 57.3786 16.9959 57.32 17.0931 57.2128C16.7015 57.1578 16.3605 57.1256 16.0267 57.0591C14.9846 56.8518 13.9439 56.636 12.9047 56.4123C12.731 56.3751 12.5602 56.2965 12.4051 56.2064C12.2636 56.1242 12.1842 55.982 12.2385 55.8076C12.2907 55.6389 12.4201 55.5453 12.5909 55.5546C12.979 55.576 13.37 55.5903 13.7531 55.6525C14.9439 55.8469 16.1311 56.0606 17.319 56.2715C17.5091 56.3051 17.695 56.3651 17.8537 56.4051C18.7071 55.5446 19.5462 54.6997 20.4075 53.8306C20.1895 53.7627 19.9493 53.6776 19.7041 53.6126C18.0602 53.173 16.3884 52.8735 14.7102 52.5998C14.3935 52.5483 14.0869 52.4347 13.7788 52.3403C13.6945 52.3146 13.6159 52.2596 13.5444 52.2045C13.4186 52.108 13.2771 51.9772 13.35 51.82C13.4064 51.6978 13.5558 51.5627 13.6831 51.5391C13.9725 51.4869 14.2799 51.4526 14.5686 51.4941C16.5471 51.7771 18.5155 52.1159 20.4389 52.6748C20.5976 52.7206 20.7613 52.7492 20.9685 52.7963C20.9828 52.6255 20.9928 52.489 21.0064 52.3525C21.08 51.5905 21.1372 50.8272 21.2337 50.0681C21.2959 49.5771 21.4217 49.487 21.8977 49.3998C23.0842 49.1818 24.2686 48.9531 25.4558 48.7408C25.6438 48.7072 25.7502 48.5907 25.8668 48.4721C27.2512 47.0654 28.6329 45.6574 30.0188 44.2522C30.9944 43.2629 31.9751 42.2794 32.9536 41.2931C33.2402 41.0043 33.2445 40.9807 33.0265 40.6362C32.9643 40.5376 32.8899 40.4468 32.822 40.3517C32.7849 40.2988 32.7491 40.2445 32.712 40.1895C32.564 40.2431 32.4546 40.2774 32.3503 40.3224C31.5748 40.6527 30.8021 40.9914 30.0231 41.3138C29.7729 41.4174 29.5785 41.559 29.4377 41.7941C28.793 42.8748 28.139 43.9498 27.4885 45.027C27.4149 45.1485 27.352 45.2807 27.2605 45.3872C27.0618 45.6188 26.7595 45.6645 26.5236 45.5158C26.2999 45.375 26.2084 45.1063 26.302 44.8325C26.3349 44.7353 26.3907 44.6453 26.4421 44.5559C26.8395 43.8712 27.2384 43.1879 27.6358 42.5032C27.6586 42.4638 27.6701 42.4174 27.7087 42.3195C27.5529 42.3781 27.4471 42.4145 27.3442 42.4581C26.5679 42.7869 25.7946 43.1228 25.0148 43.4438C24.7968 43.5331 24.656 43.6568 24.5666 43.8841C24.22 44.7646 23.8519 45.6366 23.4902 46.5115C23.4609 46.583 23.4302 46.6566 23.3866 46.7195C23.2422 46.9289 22.9842 47.0032 22.7697 46.9046C22.5732 46.8138 22.4581 46.5866 22.5081 46.35C22.5317 46.237 22.5817 46.1291 22.6289 46.0226C22.8448 45.5366 23.0642 45.052 23.2808 44.5659C23.333 44.4494 23.3794 44.3308 23.4509 44.1585C23.3208 44.195 23.2372 44.2093 23.1614 44.2407C22.5625 44.4902 21.9671 44.7468 21.3667 44.9926C21.1887 45.0655 21.0736 45.1713 20.99 45.3529C20.7027 45.9776 20.3967 46.593 20.0915 47.2091C20.0351 47.3234 19.9636 47.4378 19.8743 47.5265C19.7192 47.6801 19.5054 47.7051 19.3353 47.6187C19.1566 47.5272 19.0373 47.3077 19.0909 47.0926C19.1302 46.9318 19.2095 46.7788 19.2889 46.6316C19.4418 46.3478 19.6069 46.0705 19.7592 45.8039C19.7363 45.766 19.732 45.7539 19.7234 45.7467C19.7149 45.7388 19.6991 45.7296 19.6906 45.7324C19.5805 45.7703 19.4697 45.8053 19.3625 45.8511C18.3125 46.2956 17.2633 46.7417 16.209 47.1891C16.0939 48.357 15.5028 49.0653 14.5522 49.164C13.7231 49.2497 12.9118 48.7179 12.6524 47.9181C12.3743 47.0604 12.7289 46.1963 13.548 45.7331C14.3707 45.2678 15.1869 45.4751 15.956 46.3571C17.1017 45.8618 18.2525 45.3636 19.4668 44.839C19.3346 44.7704 19.2553 44.7225 19.1702 44.6867C18.8236 44.5416 18.4705 44.4108 18.1303 44.2522C17.9809 44.1828 17.8472 44.0692 17.7257 43.9548C17.6164 43.8512 17.5799 43.7111 17.6507 43.5617C17.7221 43.4116 17.8572 43.3601 18.0052 43.3737C18.1453 43.3866 18.2868 43.4238 18.4197 43.4717C19.0787 43.7075 19.7392 43.942 20.3917 44.1964C20.6005 44.2779 20.777 44.2886 20.9843 44.195C21.6819 43.8805 22.3873 43.5824 23.0885 43.2765C23.1571 43.2465 23.2222 43.2065 23.3401 43.1443C22.9949 42.9806 22.6947 42.8377 22.3945 42.6961C21.9842 42.5024 21.5668 42.3216 21.1651 42.1108C20.9385 41.9921 20.727 41.8363 20.5283 41.6733C20.4168 41.5818 20.3574 41.4382 20.4554 41.2895C20.5497 41.148 20.6884 41.1351 20.8349 41.183C21.2416 41.3167 21.6511 41.4417 22.0507 41.5947C22.8262 41.8913 23.5967 42.2001 24.3651 42.5132C24.5302 42.5803 24.6731 42.6046 24.8447 42.5296C25.8896 42.0707 26.9396 41.6211 27.9867 41.1673C28.0425 41.143 28.0925 41.1072 28.199 41.0458C28.0425 40.9929 27.941 40.9536 27.8359 40.9243C26.961 40.682 26.0855 40.4439 25.2106 40.2002C24.9983 40.1409 24.7896 40.0687 24.5831 39.9929C24.4744 39.9529 24.3694 39.8986 24.2693 39.8385C24.1042 39.7399 23.9827 39.6084 24.0298 39.3947C24.067 39.2267 24.2107 39.1381 24.4565 39.1324C24.5602 39.1302 24.6645 39.1381 24.7668 39.1517C26.2392 39.3439 27.6737 39.7013 29.0631 40.2174C29.507 40.3825 29.8837 40.4046 30.3118 40.1773C30.7914 39.9229 31.3053 39.7313 31.8114 39.5291C32.0494 39.434 32.158 39.2732 32.1709 39.0294C32.1938 38.6049 32.1209 38.2046 31.8886 37.8358C31.8021 37.8272 31.7256 37.8136 31.6491 37.8129C28.1826 37.7879 24.7167 37.7658 21.2502 37.7379C21.0214 37.7357 20.8249 37.7808 20.6305 37.9094C19.742 38.4948 18.8421 39.0623 17.9537 39.647C17.3698 40.0322 17.1175 39.8829 16.7779 39.5734C16.1468 38.9966 15.4928 38.4448 14.8131 37.8515C14.7073 37.9316 14.5786 38.0123 14.47 38.1138C13.0869 39.4111 11.7354 40.7391 10.4902 42.1722C10.2522 42.4467 9.99921 42.709 9.74262 42.9656C9.63397 43.0742 9.50459 43.1672 9.37093 43.2443C9.22655 43.3273 9.07003 43.3301 8.93995 43.2036C8.8213 43.0878 8.82057 42.9377 8.88704 42.8062C8.97996 42.6218 9.08217 42.436 9.21297 42.278C9.83338 41.5282 10.4431 40.7677 11.0992 40.0501C11.7203 39.3704 12.3951 38.74 13.0462 38.0867C13.1348 37.9973 13.2213 37.9059 13.3528 37.7686C13.2092 37.7558 13.1255 37.7422 13.0426 37.7422C12.0949 37.7407 11.1471 37.7457 10.1993 37.7393C10.0056 37.7379 9.85054 37.7615 9.7419 37.9502C9.68687 38.0459 9.57679 38.1124 9.4853 38.1846C8.67906 38.8193 7.88924 39.4726 7.17377 40.2116C6.9665 40.4261 6.7435 40.6255 6.51549 40.8185C6.12094 41.1523 5.89795 41.2159 5.73427 41.0629C5.56416 40.9028 5.63705 40.6598 5.99729 40.2595C6.19671 40.038 6.40542 39.8228 6.62771 39.6241C7.20809 39.1052 7.79848 38.597 8.38458 38.0838C8.48036 37.9995 8.57398 37.913 8.71121 37.7893C8.57469 37.7708 8.49179 37.7508 8.40959 37.75C7.68268 37.7479 6.95578 37.7522 6.22816 37.7472C5.97156 37.7457 5.75928 37.8058 5.55629 37.9859C5.01236 38.4676 4.4477 38.9258 3.88733 39.3882C3.7887 39.4697 3.67864 39.5627 3.55999 39.5898C3.44992 39.6148 3.30052 39.5912 3.20689 39.5305C3.08824 39.4533 3.09182 39.3025 3.16258 39.1781C3.21976 39.0773 3.28266 38.9758 3.36128 38.8915C3.63504 38.597 3.91664 38.3097 4.19468 38.0188C4.26115 37.9487 4.32334 37.8751 4.43127 37.755H2.51C2.08258 38.4927 1.56511 38.7686 0.916827 38.5984C0.369325 38.4548 -0.0159327 37.9688 0.000506653 37.3905C0.016946 36.7908 0.312129 36.3677 0.989716 36.1426C1.58225 35.9453 2.07614 36.2455 2.52572 37.0181C3.23547 37.0181 3.94452 37.0181 4.71717 37.0181C4.62068 36.9016 4.5635 36.8244 4.49845 36.7551C4.1711 36.4034 3.83588 36.0596 3.51638 35.7008C3.40702 35.5779 3.29909 35.4292 3.25978 35.2748C3.23047 35.1591 3.27122 34.9711 3.35413 34.8946C3.43704 34.8181 3.63289 34.7874 3.73939 34.8317C3.92451 34.9089 4.0989 35.0397 4.24257 35.1834C4.74647 35.6887 5.24465 36.2012 5.72568 36.7279C5.91581 36.9359 6.10952 37.031 6.39828 37.0253C7.27957 37.0067 8.16086 37.0181 9.12577 37.0181C9.02142 36.8695 8.9571 36.768 8.88348 36.6743C8.09225 35.6751 7.37606 34.6258 6.75065 33.5144C6.67417 33.3793 6.5984 33.2407 6.54693 33.0948C6.46474 32.8618 6.52551 32.6731 6.68847 32.5788C6.84143 32.4902 7.00367 32.5187 7.17735 32.6931C7.32316 32.8397 7.46468 32.9955 7.58404 33.1642C8.44389 34.3835 9.30089 35.6051 10.15 36.8323C10.2315 36.9495 10.2965 37.0253 10.4495 37.0246C11.5402 37.0196 12.6302 37.0231 13.7209 37.0217C13.7545 37.0217 13.7888 37.001 13.8625 36.9774C13.7667 36.7823 13.6938 36.5886 13.5844 36.4199C12.751 35.1355 11.9133 33.8546 11.0713 32.5759C10.8934 32.305 10.6725 32.0606 10.5103 31.7811C10.368 31.5381 10.2637 31.2694 10.1743 31.0006C10.1214 30.8419 10.125 30.6561 10.2865 30.5389C10.4509 30.4202 10.6253 30.4874 10.7561 30.5911C10.9877 30.7755 11.2336 30.9613 11.408 31.1957C12.5766 32.7696 13.7124 34.3678 14.663 36.0875C14.7566 36.2569 14.8595 36.422 14.981 36.6286C15.104 36.5257 15.2083 36.437 15.3141 36.3498C15.8931 35.8695 16.462 35.3756 17.0553 34.9132C17.4955 34.5701 17.6414 34.5937 18.0967 34.9082C19.078 35.5872 20.0608 36.2662 21.0522 36.9309C21.168 37.0088 21.3445 37.0224 21.4925 37.0224C23.0892 37.0174 24.686 37.0024 26.2827 36.9917C28.0225 36.9795 29.7622 36.9688 31.5019 36.9581C31.6563 36.9574 31.8099 36.9581 32.0129 36.9581C32.0801 36.6257 32.143 36.3169 32.2088 35.9925C31.7049 35.7902 31.2489 35.6072 30.7936 35.4242C30.3361 35.2405 29.878 35.059 29.4227 34.8703C29.2375 34.7931 29.0617 34.7767 28.8573 34.8124C27.59 35.0361 26.3528 35.3785 25.1177 35.7309C24.9805 35.7702 24.8439 35.8195 24.7038 35.8359C24.4108 35.8702 24.1478 35.6915 24.0713 35.4271C23.9948 35.1648 24.1285 34.8874 24.4037 34.7559C24.4844 34.7173 24.5745 34.6959 24.6617 34.673C25.4386 34.4672 26.217 34.262 26.9939 34.0562C27.0282 34.0469 27.0597 34.0255 27.1383 33.9869C27.0375 33.9297 26.9703 33.8811 26.896 33.851C26.0662 33.5151 25.2342 33.1863 24.4065 32.8454C24.2264 32.7711 24.0713 32.7632 23.8883 32.8418C23.0063 33.2192 22.1193 33.5844 21.2337 33.9525C21.1501 33.9876 21.065 34.0247 20.9771 34.0405C20.762 34.0798 20.5526 33.9726 20.4546 33.7846C20.3553 33.5944 20.386 33.3707 20.564 33.2192C20.6698 33.1292 20.8027 33.0641 20.9335 33.0134C21.4403 32.8139 21.9513 32.6252 22.4602 32.4308C22.5789 32.3858 22.6947 32.3343 22.8741 32.26C22.7361 32.1928 22.6532 32.1471 22.5667 32.1121C21.9906 31.8769 21.4103 31.6496 20.8378 31.4059C20.6355 31.3201 20.4589 31.3029 20.2438 31.3837C19.6127 31.6203 18.9722 31.8326 18.3332 32.0463C18.201 32.0906 18.0559 32.1171 17.9173 32.1156C17.7193 32.1135 17.5699 32.0041 17.5048 31.814C17.4405 31.626 17.4791 31.4395 17.6364 31.3194C17.7664 31.2207 17.9244 31.1478 18.0817 31.0978C18.4247 30.9892 18.775 30.902 19.1273 30.7283C17.9587 30.2515 16.7901 29.7748 15.5879 29.2845C15.1976 29.6847 14.7001 29.9413 14.0962 29.9142C13.6709 29.8949 13.2849 29.7519 12.9633 29.4589C12.3436 28.8949 12.1849 27.9858 12.5809 27.2524C13.004 26.4676 13.8417 26.1281 14.7416 26.3769C15.6358 26.6242 16.0675 27.3475 16.0089 28.5254C17.1689 28.9857 18.3354 29.4489 19.5676 29.9378C19.5112 29.7812 19.4783 29.6783 19.4375 29.5782C19.296 29.2302 19.1388 28.8878 19.0151 28.5333C18.9615 28.3796 18.9415 28.1973 18.9665 28.0372C18.983 27.9315 19.0887 27.7921 19.1852 27.7599C19.2839 27.727 19.4511 27.7728 19.5312 27.8471C19.6505 27.9572 19.7349 28.1144 19.8063 28.2652C20.1015 28.8864 20.3967 29.5082 20.6676 30.1393C20.7577 30.3487 20.8799 30.4724 21.0893 30.5525C21.8641 30.8484 22.6339 31.1571 23.453 31.4802C23.4294 31.3573 23.4244 31.2744 23.398 31.1986C23.1721 30.5632 22.9305 29.9328 22.7183 29.2923C22.6296 29.025 22.5875 28.7398 22.5489 28.4597C22.5289 28.3131 22.5875 28.168 22.7561 28.1273C22.9184 28.088 23.0342 28.1738 23.1035 28.3131C23.3451 28.8013 23.5924 29.2873 23.8168 29.7834C24.1106 30.4338 24.3887 31.0914 24.6631 31.7497C24.7317 31.9141 24.8161 32.0334 24.9912 32.102C26.0669 32.5216 27.1383 32.9505 28.2119 33.375C28.2569 33.3929 28.3048 33.4015 28.4056 33.4293C28.3448 33.2971 28.3105 33.2071 28.2633 33.1234C27.8238 32.3436 27.3785 31.5667 26.9432 30.7847C26.7981 30.5246 26.6687 30.2551 26.5465 29.9835C26.4993 29.8799 26.4786 29.7598 26.4672 29.6447C26.4522 29.491 26.5058 29.3395 26.6594 29.3009C26.7695 29.273 26.9267 29.2873 27.0161 29.3502C27.1605 29.4524 27.277 29.6018 27.387 29.7448C28.2548 30.8698 28.9824 32.0842 29.5721 33.3729C29.7929 33.8561 30.0681 34.1763 30.587 34.3306C31.0695 34.4743 31.5369 34.6816 31.9943 34.8953C32.2988 35.0375 32.534 34.9589 32.727 34.7402C32.9049 34.5379 33.0629 34.3106 33.1894 34.0726C33.3395 33.7903 33.3209 33.7696 33.0901 33.5358C31.94 32.3722 30.7878 31.2115 29.6385 30.0471C28.3713 28.7627 27.1054 27.4762 25.8425 26.1867C25.6745 26.0152 25.4972 25.9001 25.2514 25.8508C24.2092 25.6407 23.1728 25.4034 22.1314 25.1861C21.5839 25.0724 21.4188 24.888 21.3867 24.3212C21.3402 23.4921 21.2887 22.663 21.2373 21.8346C21.2351 21.7981 21.2151 21.7624 21.193 21.6938C21.0629 21.6788 20.9257 21.653 20.787 21.6473C18.8136 21.5666 16.8416 21.5737 14.871 21.7138C14.5994 21.7331 14.3263 21.7395 14.054 21.7402C13.9253 21.7402 13.7946 21.7245 13.668 21.6988C13.4007 21.6438 13.2706 21.5244 13.2721 21.3421C13.2742 21.1184 13.4329 21.0312 13.6159 20.9776C13.7402 20.9412 13.8675 20.9133 13.9947 20.8925C15.2148 20.6967 16.4456 20.6245 17.68 20.6095C18.4069 20.6002 19.1338 20.6159 19.8607 20.6195C19.9607 20.6195 20.0608 20.6195 20.2324 20.6195C20.143 20.5123 20.1016 20.4544 20.0515 20.4044C19.3725 19.7246 18.6892 19.0492 18.0145 18.3652C17.878 18.2265 17.7464 18.17 17.5406 18.1765C17.2189 18.1865 16.8959 18.1186 16.5721 18.1014C15.5228 18.045 14.4729 17.9999 13.4236 17.9435C13.2178 17.932 13.0112 17.8999 12.8089 17.8555C12.6495 17.8205 12.5144 17.7305 12.5166 17.5411C12.5187 17.3509 12.6581 17.2652 12.8189 17.2387C13.0612 17.1987 13.3085 17.1544 13.5522 17.1644C14.5243 17.2044 15.4957 17.2659 16.4677 17.3173C16.5935 17.3238 16.72 17.3181 16.8952 17.3181C16.823 17.2216 16.7808 17.1479 16.7229 17.09C16.2011 16.5654 15.6751 16.0451 15.1547 15.5183C15.0025 15.3639 14.8395 15.2796 14.6129 15.2631C13.8625 15.2088 13.1141 15.1323 12.365 15.058C12.2378 15.0451 12.0977 15.0273 11.9927 14.9637C11.9069 14.9122 11.8176 14.7893 11.8161 14.6971C11.8154 14.6056 11.9047 14.4841 11.9891 14.429C12.0791 14.3697 12.2092 14.3554 12.3236 14.3504C12.751 14.3318 13.1791 14.3254 13.6073 14.3147C13.6923 14.3125 13.7781 14.3147 13.9597 14.3147C13.4665 13.8136 13.0348 13.3762 12.6081 12.943C11.6439 13.1253 11.0935 12.9316 10.7969 12.3112C10.5653 11.828 10.6932 11.2241 11.1099 10.8552C11.5781 10.4414 12.1728 10.4393 12.6988 10.758C13.2213 11.074 13.3407 11.6522 13.0862 12.4363C13.5923 12.9359 14.1026 13.4398 14.6129 13.943C14.6437 13.9308 14.6744 13.9187 14.7052 13.9065C14.7052 13.5477 14.6987 13.1896 14.7073 12.8308C14.7137 12.5585 14.7337 12.2869 14.7602 12.0153C14.7702 11.9145 14.7859 11.793 14.8474 11.723C14.9339 11.6243 15.0654 11.5042 15.1776 11.505C15.2912 11.505 15.4585 11.6179 15.5042 11.7237C15.5836 11.9074 15.6186 12.1246 15.6179 12.3269C15.6158 13.0402 15.6043 13.755 15.5679 14.4676C15.5529 14.7664 15.6386 14.9779 15.8545 15.1838C16.4091 15.712 16.9409 16.2638 17.4834 16.8049C17.5634 16.8849 17.6506 16.9578 17.7857 17.0815C17.8215 16.8284 17.8544 16.6312 17.8779 16.4325C18.0216 15.2188 18.2625 14.0245 18.5948 12.8487C18.637 12.7 18.6935 12.5514 18.7707 12.4184C18.8622 12.2597 19.0123 12.1797 19.201 12.239C19.3711 12.2926 19.4561 12.4291 19.4461 12.5964C19.4254 12.9716 19.4082 13.3497 19.3482 13.72C19.1581 14.885 18.9487 16.0472 18.7464 17.2108C18.7421 17.2366 18.7428 17.2652 18.7314 17.2873C18.4884 17.7684 18.7106 18.0836 19.0644 18.4102C19.6748 18.9727 20.2445 19.5803 20.832 20.1671C20.9214 20.2564 21.0171 20.3393 21.1522 20.4651C21.268 20.067 21.3781 19.7225 21.4674 19.373C21.8691 17.7998 22.1493 16.203 22.4124 14.602C22.4638 14.2875 22.5889 13.9816 22.7054 13.6821C22.749 13.5692 22.8505 13.4655 22.9498 13.389C23.0921 13.2797 23.2622 13.3061 23.353 13.4612C23.4294 13.5906 23.4745 13.7457 23.5002 13.8951C23.586 14.3919 23.4645 14.8772 23.3873 15.3632C23.1035 17.1451 22.7719 18.9177 22.2601 20.651C22.2344 20.7367 22.2215 20.8268 22.1936 20.9562C22.6053 20.9876 22.9992 21.0119 23.3923 21.0498C23.8826 21.0963 24.3743 21.142 24.8625 21.2099C25.4093 21.2857 25.5115 21.4107 25.6059 21.9404C25.8153 23.1154 26.0312 24.2891 26.2606 25.4598C26.2877 25.5978 26.4014 25.7336 26.5072 25.8379C27.6686 26.9901 28.8373 28.1344 30.0016 29.2838C31.2303 30.4967 32.4561 31.7125 33.684 32.9269C33.7755 33.0169 33.8706 33.1034 34.0021 33.2278C34.2716 33.0534 34.5374 32.8811 34.8219 32.6967C34.7026 32.4194 34.6011 32.1828 34.4996 31.9462C34.2194 31.2901 33.9328 30.6361 33.6619 29.9757C33.569 29.7491 33.4382 29.5761 33.2273 29.4496C32.1487 28.802 31.073 28.1494 29.9966 27.4976C29.8637 27.4168 29.72 27.3482 29.6035 27.2489C29.3762 27.0552 29.3333 26.7428 29.4813 26.5098C29.6214 26.2897 29.8958 26.1975 30.1689 26.2918C30.2654 26.3254 30.3547 26.3833 30.444 26.4348C31.1288 26.8322 31.8121 27.231 32.4968 27.6284C32.5368 27.6513 32.584 27.6613 32.6791 27.6956C32.619 27.5419 32.5812 27.4368 32.5368 27.3339C32.2066 26.5577 31.8693 25.7843 31.5491 25.0045C31.459 24.7858 31.3368 24.645 31.1102 24.5549C30.2303 24.2061 29.3583 23.8388 28.4842 23.4771C28.4013 23.4428 28.3148 23.4071 28.244 23.3534C28.0611 23.2155 27.9989 22.9968 28.0725 22.8002C28.1525 22.5865 28.3612 22.4536 28.6 22.4936C28.7386 22.5172 28.8737 22.5729 29.0031 22.6301C29.4777 22.8395 29.9494 23.0568 30.4226 23.2684C30.5377 23.3198 30.6563 23.3627 30.8322 23.4335C30.7928 23.2948 30.7786 23.2119 30.7464 23.1362C30.4962 22.5379 30.2382 21.9425 29.9923 21.3414C29.9244 21.1749 29.8265 21.0655 29.6607 20.9883C29.0381 20.6981 28.4213 20.3944 27.803 20.0942C27.733 20.0606 27.6622 20.0263 27.5986 19.9827C27.3542 19.8125 27.2655 19.5645 27.3649 19.3465C27.4721 19.1128 27.7358 19.0135 28.0317 19.1121C28.1533 19.1521 28.2662 19.2214 28.3791 19.2843C28.5943 19.4044 28.8051 19.5324 29.021 19.6517C29.0839 19.6868 29.1554 19.7061 29.3083 19.7654C28.788 18.5274 28.2984 17.3638 27.808 16.1973C26.6387 16.0708 25.9347 15.494 25.836 14.5784C25.7431 13.7107 26.2613 12.9002 27.0754 12.6386C27.9324 12.3641 28.8015 12.7208 29.2604 13.5363C29.7243 14.3611 29.5227 15.1566 28.6371 15.9464C29.1325 17.0915 29.6299 18.2422 30.1639 19.4766C30.2396 19.3015 30.2875 19.1936 30.334 19.0856C30.4812 18.7404 30.6177 18.3895 30.7807 18.0514C30.8465 17.9156 30.9501 17.7798 31.0723 17.6969C31.1631 17.6347 31.3346 17.609 31.4276 17.6547C31.5183 17.6997 31.6041 17.8541 31.6055 17.9613C31.6077 18.1372 31.5583 18.3209 31.4983 18.4903C31.2674 19.1378 31.0187 19.779 30.7893 20.4272C30.745 20.5523 30.7049 20.7181 30.75 20.8289C31.0845 21.643 31.4418 22.4479 31.8157 23.3106C31.8886 23.1991 31.9407 23.1362 31.975 23.064C32.2538 22.4779 32.5254 21.8889 32.8077 21.305C32.9092 21.0955 33.0257 20.8925 33.153 20.6974C33.2144 20.6024 33.3038 20.5087 33.4031 20.4594C33.4846 20.4187 33.6304 20.4037 33.6912 20.4508C33.7669 20.5094 33.8155 20.6417 33.8198 20.7439C33.8241 20.8547 33.7705 20.9705 33.7291 21.0791C33.3202 22.1584 32.9149 23.2398 32.4932 24.3141C32.4118 24.5214 32.3989 24.6929 32.4918 24.9009C32.9228 25.8737 33.3381 26.8529 33.7612 27.83C33.8048 27.9307 33.8613 28.0265 33.9449 28.1895C34.0071 28.0044 34.0521 27.8886 34.085 27.7692C34.3216 26.9194 34.551 26.0681 34.7926 25.2197C34.8705 24.9459 34.9663 24.6765 35.0735 24.4127C35.1207 24.2962 35.2 24.1811 35.2937 24.0982C35.4995 23.9145 35.7697 23.9996 35.8333 24.2733C35.8676 24.4199 35.854 24.5828 35.8362 24.7351C35.6589 26.2375 35.2751 27.692 34.7583 29.1094C34.6118 29.5118 34.5846 29.8541 34.7898 30.2473C35.0406 30.729 35.2415 31.2393 35.4345 31.7482C35.5567 32.0706 35.784 32.1814 36.0942 32.1771C36.2357 32.1749 36.3772 32.1456 36.5173 32.1206C37.1341 32.0084 37.1756 31.9555 37.1799 31.3523C37.1999 28.0287 37.2199 24.705 37.2471 21.3814C37.2499 21.0612 37.2013 20.781 37.0141 20.5037C36.448 19.6653 35.9062 18.8098 35.3594 17.9585C35.2758 17.8284 35.1972 17.6912 35.1443 17.5468C35.0471 17.2852 35.1529 17.07 35.3301 16.8735C35.9112 16.2266 36.488 15.5762 37.0662 14.9265C37.0913 14.8986 37.107 14.8629 37.147 14.7985C37.0577 14.6856 36.9712 14.5591 36.8683 14.449C35.5546 13.046 34.2037 11.6801 32.7506 10.4185C32.4861 10.1891 32.2317 9.94608 31.9901 9.69377C31.8757 9.57441 31.7728 9.4286 31.7156 9.27564C31.6155 9.00689 31.8528 8.75958 32.1216 8.86036C32.336 8.94113 32.5469 9.06336 32.722 9.21203C33.614 9.96538 34.5067 10.7187 35.3723 11.5021C35.9105 11.9888 36.403 12.5271 36.9104 13.0474C36.9898 13.1289 37.0391 13.239 37.102 13.3362C37.1363 13.3147 37.1713 13.2933 37.2056 13.2718C37.2178 13.1903 37.2407 13.1089 37.2414 13.0274C37.2428 12.0668 37.2399 11.1061 37.2414 10.1455C37.2414 9.98253 37.2242 9.84816 37.062 9.74881C36.9562 9.68376 36.879 9.56725 36.7989 9.46647C36.1628 8.66095 35.5088 7.87257 34.7712 7.15568C34.5482 6.9391 34.343 6.70252 34.14 6.46665C34.0478 6.35944 33.9714 6.23579 33.9035 6.11142C33.8305 5.97776 33.8213 5.83552 33.9406 5.71687C34.0636 5.59465 34.2101 5.61181 34.3323 5.70044C34.5517 5.85983 34.7826 6.01564 34.9649 6.21291C35.5996 6.89836 36.2164 7.60025 36.839 8.29714C36.9412 8.4115 37.0398 8.53015 37.1792 8.69311C37.2035 8.56088 37.2306 8.48083 37.2306 8.40078C37.2335 7.64814 37.2299 6.89479 37.2335 6.14143C37.2349 5.92486 37.1756 5.74903 37.0269 5.57892C36.5488 5.03142 36.087 4.47034 35.6246 3.90997C35.5345 3.80061 35.4602 3.67696 35.3916 3.55259C35.3194 3.42322 35.3408 3.27956 35.4573 3.20308C35.5424 3.14733 35.6789 3.12732 35.7797 3.15019C35.8862 3.17449 35.9877 3.25598 36.072 3.33317C36.3594 3.59548 36.6424 3.8628 36.919 4.13655C37.0005 4.2166 37.0548 4.32381 37.122 4.41888C37.1563 4.40029 37.1899 4.381 37.2242 4.36242V2.48904C36.8933 2.33251 36.5688 2.10522 36.4315 1.69138C36.3401 1.41334 36.315 1.1353 36.4065 0.850827C36.5802 0.310472 37.072 -0.02046 37.6624 0.000982681C38.2606 0.0224253 38.7138 0.450562 38.8631 1.04452C39.0118 1.63562 38.7045 2.12309 37.9647 2.51049V4.69406C38.0733 4.61615 38.1448 4.57613 38.2034 4.52181C38.5551 4.19445 38.9003 3.86066 39.2555 3.53759C39.3692 3.43395 39.5014 3.34675 39.6358 3.27099C39.7816 3.18879 39.9381 3.19022 40.0718 3.30601C40.2219 3.43538 40.2298 3.61049 40.1533 3.76917C40.0811 3.91784 39.9796 4.06078 39.8624 4.17729C39.3363 4.69763 38.8088 5.21655 38.2635 5.71687C38.0555 5.90771 37.9633 6.10284 37.969 6.39018C37.9876 7.27147 37.9754 8.15347 37.9754 9.12125C38.1334 9.0076 38.2435 8.9347 38.3464 8.8525C39.3463 8.06198 40.3963 7.34723 41.5092 6.72539C41.6557 6.64391 41.8108 6.57243 41.9688 6.51883C42.1303 6.46379 42.2847 6.50953 42.3847 6.65034C42.497 6.80901 42.4626 6.97269 42.3447 7.11564C42.2875 7.18498 42.2203 7.24859 42.1496 7.30506C41.8658 7.53163 41.5864 7.76536 41.2912 7.97621C40.4256 8.5959 39.555 9.20774 38.6823 9.81742C38.46 9.97324 38.2234 10.1098 37.9797 10.2634V13.8572C38.1184 13.7979 38.2356 13.7629 38.3378 13.7021C38.941 13.3454 39.555 13.0045 40.1376 12.6171C41.0889 11.9853 42.0145 11.3148 42.9601 10.6751C43.226 10.495 43.5233 10.3614 43.8085 10.2113C43.865 10.1819 43.9308 10.1634 43.9944 10.1569C44.1623 10.1391 44.3403 10.114 44.4525 10.2849C44.5633 10.4536 44.4983 10.628 44.3925 10.7552C44.1873 11.0025 43.9794 11.2634 43.7242 11.4521C42.1281 12.635 40.5057 13.78 38.7595 14.7357C38.6359 14.8036 38.5179 14.8815 38.3685 14.9722C38.4436 15.068 38.5008 15.1473 38.5651 15.2217C38.9039 15.6155 39.2484 16.0036 39.5815 16.4017C39.773 16.6305 39.9553 16.8678 40.1261 17.1122C40.3949 17.4967 40.3877 17.6483 40.1261 18.0278C39.5722 18.8283 39.0197 19.6296 38.4672 20.4308C38.3271 20.6338 38.1713 20.8282 38.059 21.0455C37.9919 21.1742 37.9711 21.3393 37.9711 21.4879C37.9711 22.7731 37.9804 24.0582 37.9883 25.344C38.0012 27.4211 38.0155 29.4982 38.029 31.5753C38.0319 32.0005 38.0548 32.0327 38.465 32.1135C38.6287 32.1456 38.796 32.1635 38.9768 32.19C39.0304 32.0842 39.0826 31.9977 39.1197 31.9041C39.4535 31.0735 39.7823 30.2408 40.1204 29.4117C40.1969 29.2237 40.2126 29.0472 40.1769 28.8456C39.9553 27.5912 39.6208 26.3647 39.2684 25.1425C39.2291 25.0052 39.1805 24.8687 39.1612 24.7286C39.1176 24.4063 39.2856 24.1433 39.57 24.0632C39.8516 23.9839 40.1275 24.1282 40.2519 24.4356C40.3048 24.5671 40.3305 24.7093 40.3677 24.8466C40.5686 25.5949 40.7694 26.3425 40.9881 27.1567C41.0653 27.0151 41.1211 26.9329 41.1575 26.8436C41.4884 26.0259 41.8115 25.2047 42.1489 24.3891C42.2246 24.2061 42.2211 24.051 42.1439 23.8702C41.7679 22.9875 41.4034 22.1005 41.0346 21.2142C41.0095 21.1541 40.981 21.0948 40.966 21.0326C40.903 20.7825 41.0095 20.5352 41.2175 20.4372C41.4291 20.3379 41.6921 20.4058 41.8322 20.6238C41.9223 20.7639 41.9802 20.9254 42.0402 21.0827C42.2597 21.6502 42.4741 22.2191 42.7121 22.8445C42.7836 22.7302 42.8379 22.6666 42.8679 22.5929C43.1138 21.9926 43.3518 21.3893 43.6013 20.7903C43.6749 20.6131 43.6899 20.4573 43.6206 20.2686C43.3875 19.636 43.1724 18.9963 42.9594 18.3566C42.9115 18.2122 42.8808 18.055 42.8793 17.9034C42.8779 17.7047 42.9923 17.5575 43.181 17.491C43.3704 17.4238 43.5577 17.4717 43.6727 17.6283C43.7771 17.7698 43.8507 17.942 43.905 18.1107C44.0101 18.4395 44.0923 18.7754 44.1838 19.1085C44.2117 19.1085 44.2395 19.1092 44.2667 19.1099C44.7427 17.9413 45.2187 16.7734 45.7062 15.5791C45.3152 15.1867 45.0579 14.7049 45.0779 14.1109C45.0915 13.7114 45.213 13.3469 45.4675 13.0317C45.9892 12.3855 46.907 12.1711 47.6489 12.5228C48.4437 12.8994 48.8275 13.6871 48.646 14.5956C48.5473 15.0887 48.285 15.4783 47.8562 15.752C47.4288 16.0244 46.9592 16.0601 46.476 15.9715C46.0007 17.173 45.5397 18.3373 45.0494 19.5753C45.2481 19.4923 45.3724 19.4395 45.4982 19.3887C45.8106 19.2622 46.1215 19.1343 46.436 19.0127C46.5196 18.9806 46.6111 18.962 46.7004 18.9506C47.0013 18.912 47.1693 18.9763 47.2408 19.1478C47.318 19.3344 47.2343 19.5331 46.9534 19.6717C46.268 20.0113 45.5761 20.3393 44.8764 20.6481C44.6569 20.7446 44.5204 20.864 44.4354 21.092C44.1445 21.8668 43.8314 22.6337 43.5055 23.4578C43.6506 23.4213 43.7464 23.4056 43.8371 23.3727C44.4475 23.1547 45.0536 22.9224 45.6683 22.7166C45.9356 22.6273 46.2194 22.5779 46.4989 22.5343C46.6604 22.5093 46.8184 22.5651 46.8655 22.7495C46.9127 22.9353 46.7912 23.0411 46.644 23.1147C46.238 23.3177 45.8349 23.5286 45.421 23.7137C44.6984 24.0368 43.9694 24.3434 43.2417 24.6543C43.0974 24.7165 42.9694 24.7772 42.9044 24.9452C42.4755 26.0452 42.0359 27.1409 41.6028 28.2395C41.5907 28.2702 41.6014 28.3103 41.6014 28.3767C41.6972 28.3339 41.7786 28.3053 41.8523 28.2631C42.6321 27.8235 43.409 27.3782 44.1909 26.9429C44.4625 26.7921 44.7434 26.6563 45.0265 26.5277C45.1301 26.4805 45.2523 26.4541 45.366 26.4533C45.6769 26.4505 45.8384 26.7421 45.654 26.993C45.5418 27.1467 45.3824 27.2703 45.2295 27.3889C44.0937 28.2645 42.8651 28.9921 41.5656 29.5883C41.1196 29.7927 40.8316 30.05 40.6829 30.5231C40.5242 31.0292 40.3062 31.5181 40.0911 32.0041C39.9732 32.2714 40.0239 32.4844 40.214 32.676C40.332 32.7946 40.4635 32.904 40.6014 32.9991C41.1482 33.3757 41.1625 33.3693 41.6378 32.9004C44.0215 30.5474 46.4059 28.1945 48.7939 25.8458C48.9762 25.6664 49.0949 25.4791 49.147 25.2211C49.355 24.1911 49.5895 23.1676 49.8067 22.1391C49.9304 21.5515 50.1027 21.4029 50.6938 21.3679C51.5472 21.3171 52.4006 21.2542 53.2926 21.1935C53.309 21.0891 53.3362 20.979 53.3412 20.8682C53.4241 18.8955 53.4298 16.9228 53.2819 14.9522C53.2569 14.6163 53.2569 14.2775 53.2612 13.9401C53.2626 13.8 53.294 13.6571 53.3326 13.5206C53.3741 13.374 53.4734 13.2711 53.6371 13.2611C53.823 13.2497 53.9309 13.3626 53.9831 13.5199C54.0402 13.6914 54.0846 13.8687 54.1124 14.0473C54.3097 15.3203 54.3798 16.6026 54.3805 17.8891C54.3805 18.5775 54.3705 19.2651 54.3655 19.9534C54.3655 20.0148 54.3712 20.077 54.3769 20.1942C54.4791 20.1192 54.552 20.0784 54.6092 20.0213C55.2896 19.343 55.9658 18.6604 56.6484 17.9842C56.7763 17.8577 56.8149 17.7369 56.8156 17.5461C56.8171 17.0943 56.8943 16.6426 56.9236 16.1902C56.9629 15.5819 56.9865 14.9722 57.0158 14.3633C57.0358 13.9487 57.0415 13.5327 57.0765 13.1189C57.0901 12.9559 57.1366 12.7822 57.218 12.6414C57.3353 12.4377 57.5683 12.4484 57.6876 12.6514C57.7448 12.7486 57.782 12.8694 57.7877 12.9816C57.8106 13.3955 57.8449 13.8115 57.8242 14.2246C57.7834 15.0537 57.7091 15.8814 57.6498 16.7098C57.6462 16.7606 57.6498 16.8127 57.6498 16.9064C57.7413 16.8413 57.8163 16.8013 57.8742 16.7434C58.4088 16.213 58.937 15.6763 59.4738 15.1488C59.6403 14.9858 59.7197 14.8086 59.7368 14.5705C59.7919 13.8072 59.8676 13.0453 59.9484 12.284C59.9849 11.9424 60.1007 11.7959 60.2893 11.7873C60.4931 11.7787 60.6281 11.9517 60.6482 12.3026C60.671 12.7043 60.6696 13.1067 60.6775 13.5091C60.6796 13.6206 60.6775 13.7321 60.7482 13.8822C61.1849 13.4519 61.6209 13.0224 62.0541 12.5957C61.8654 11.6608 62.0455 11.1183 62.6466 10.8038C63.1269 10.5522 63.7688 10.6716 64.1383 11.099C64.545 11.5693 64.5679 12.0818 64.2605 12.6529C63.9668 13.1982 63.3892 13.3276 62.6216 13.1017C62.0869 13.6042 61.5695 14.0902 60.9991 14.6263C61.1578 14.6492 61.2393 14.6677 61.3207 14.6713C61.8396 14.6942 62.3586 14.7078 62.8768 14.7378C63.0161 14.7457 63.1648 14.7757 63.287 14.8393C63.5751 14.9887 63.5829 15.3418 63.2942 15.4869C63.1391 15.5648 62.9461 15.5976 62.7695 15.5984C62.004 15.6005 61.2378 15.5912 60.4723 15.5669C60.2215 15.559 60.0335 15.6162 59.8526 15.8035C59.2329 16.4475 58.5947 17.0743 57.9106 17.7612C58.1043 17.7962 58.2459 17.8305 58.3888 17.8463C59.6425 17.9842 60.8754 18.2308 62.0898 18.5675C62.2628 18.6153 62.4336 18.6854 62.5916 18.7712C62.7417 18.8519 62.8038 18.9999 62.7624 19.17C62.7195 19.3451 62.5866 19.4359 62.4179 19.428C62.0555 19.4116 61.6903 19.398 61.3336 19.3394C60.1049 19.1385 58.8784 18.9213 57.6519 18.7054C57.4746 18.6739 57.3017 18.6168 57.1573 18.5789C56.3046 19.438 55.4662 20.2829 54.6063 21.1491C54.8093 21.2149 55.0359 21.3 55.2682 21.3621C56.9121 21.8024 58.5839 22.1041 60.2615 22.3785C60.5903 22.4321 60.909 22.5508 61.2307 22.6466C61.3036 22.668 61.3715 22.7137 61.4344 22.7595C61.5752 22.861 61.7303 22.9939 61.6538 23.1712C61.6016 23.2927 61.4444 23.4228 61.315 23.4464C61.0255 23.4978 60.7182 23.5329 60.4294 23.4914C58.4124 23.2026 56.4075 22.8467 54.4462 22.2806C54.3247 22.2456 54.1989 22.2227 54.0345 22.1848C54.0145 22.4629 54.0002 22.7066 53.9781 22.9496C53.9223 23.5571 53.8651 24.164 53.8044 24.7708C53.7944 24.8737 53.7658 24.9745 53.7458 25.076C53.6879 25.3669 53.5042 25.517 53.2176 25.5699C52.0311 25.7886 50.8474 26.0209 49.6595 26.2282C49.4365 26.2668 49.2828 26.364 49.1327 26.5162C47.085 28.5997 45.035 30.6804 42.983 32.7596C42.592 33.1563 42.1903 33.5423 41.7572 33.969C41.9423 34.257 42.1131 34.5229 42.2861 34.7924C42.4169 34.7481 42.5034 34.7252 42.5849 34.6909C43.4204 34.3349 44.2524 33.9711 45.0915 33.6238C45.2981 33.538 45.436 33.4015 45.5454 33.2199C46.1965 32.1428 46.8477 31.0664 47.4981 29.9892C47.5653 29.8784 47.6196 29.7584 47.6968 29.6547C47.8955 29.3881 48.1957 29.3116 48.4501 29.451C48.7239 29.6004 48.8168 29.9092 48.676 30.2265C48.6346 30.3209 48.5745 30.4074 48.5223 30.4967C48.1378 31.1586 47.7526 31.8204 47.3694 32.4837C47.3466 32.5238 47.3366 32.5702 47.3037 32.661C47.4066 32.6267 47.4652 32.6109 47.5202 32.5874C48.3679 32.2271 49.2128 31.8605 50.0641 31.5095C50.2506 31.4323 50.3514 31.3144 50.4243 31.135C50.7845 30.2458 51.1519 29.3595 51.52 28.4732C51.5593 28.3789 51.6065 28.2824 51.6708 28.2045C51.8016 28.048 52.0182 27.9993 52.2019 28.0665C52.3856 28.1337 52.5128 28.306 52.4985 28.5225C52.4892 28.6612 52.4471 28.8035 52.3913 28.9314C52.1797 29.4196 51.956 29.902 51.738 30.3874C51.6801 30.516 51.6272 30.6475 51.5493 30.8305C51.6758 30.7948 51.7587 30.7805 51.8345 30.749C52.4328 30.4988 53.0274 30.2394 53.6293 29.9971C53.8244 29.9185 53.9402 29.7977 54.0281 29.6068C54.3097 28.9943 54.6078 28.3889 54.908 27.7849C54.9701 27.6598 55.053 27.5369 55.1538 27.4418C55.2961 27.3082 55.4776 27.2782 55.6606 27.3639C55.8457 27.4504 55.9429 27.6155 55.9115 27.8064C55.8807 27.9922 55.8071 28.1773 55.7206 28.3474C55.5698 28.6433 55.3947 28.9271 55.2296 29.2166C55.2482 29.2373 55.2668 29.2573 55.2854 29.278C56.449 28.7884 57.6133 28.2981 58.7805 27.8071C58.957 26.5634 59.5546 25.8787 60.5224 25.8158C61.3579 25.7615 62.1456 26.3211 62.375 27.1309C62.6202 27.9979 62.2349 28.8506 61.4022 29.2845C60.591 29.7069 59.7669 29.4818 59.0557 28.6255C57.9078 29.1229 56.752 29.6233 55.5963 30.1236C55.597 30.1493 55.5977 30.1758 55.5991 30.2015C55.7628 30.2644 55.9286 30.3216 56.0887 30.3909C56.3975 30.5253 56.7041 30.6647 57.0093 30.8062C57.0672 30.8334 57.1187 30.8762 57.168 30.9177C57.3703 31.0857 57.4353 31.2586 57.3596 31.4209C57.2845 31.5817 57.1037 31.6568 56.8528 31.586C56.504 31.4881 56.1595 31.3716 55.8178 31.2493C55.3904 31.0957 54.9716 30.9198 54.542 30.7726C54.4176 30.7297 54.2518 30.7054 54.1382 30.7526C53.3476 31.0807 52.5657 31.4287 51.7816 31.7725C51.7602 31.7818 51.7459 31.809 51.703 31.854C51.976 31.9855 52.2384 32.1142 52.5028 32.2393C52.9367 32.4444 53.3762 32.6381 53.8051 32.8533C54.0124 32.9569 54.2132 33.0827 54.3955 33.2249C54.592 33.3793 54.6414 33.5651 54.5499 33.6952C54.4284 33.8682 54.2611 33.8346 54.0939 33.7767C53.5921 33.6016 53.0861 33.4372 52.5893 33.2485C51.9346 32.9998 51.2863 32.7353 50.6373 32.4716C50.4886 32.4115 50.3557 32.3694 50.1927 32.4408C49.1113 32.914 48.0263 33.3786 46.9427 33.8482C46.9099 33.8625 46.8855 33.8961 46.8298 33.944C46.9542 33.9869 47.0557 34.0276 47.16 34.0569C48.0349 34.2992 48.9112 34.5372 49.7846 34.7831C50.034 34.8531 50.2792 34.9389 50.5201 35.034C50.6387 35.0804 50.7667 35.144 50.8467 35.237C50.9225 35.3249 50.9804 35.4635 50.9761 35.5779C50.9697 35.7344 50.8317 35.8266 50.6802 35.8388C50.5137 35.8517 50.3421 35.8459 50.1763 35.8238C48.7046 35.6279 47.2715 35.2648 45.8827 34.7474C45.4746 34.5951 45.1315 34.5894 44.742 34.7867C44.2452 35.0383 43.7242 35.2434 43.206 35.4492C42.9523 35.55 42.83 35.7237 42.8293 35.9789C42.8286 36.1711 42.8508 36.367 42.8872 36.5564C42.9994 37.1361 43.0459 37.1675 43.6141 37.1711C46.9763 37.194 50.3393 37.2161 53.7015 37.2461C53.9709 37.2483 54.2004 37.1947 54.4291 37.0424C55.2932 36.4685 56.1681 35.9095 57.0429 35.3506C57.183 35.2613 57.336 35.1834 57.4932 35.129C57.7262 35.0483 57.9242 35.1455 58.0979 35.2999C58.7283 35.8602 59.358 36.4213 59.9892 36.981C60.0456 37.031 60.1071 37.0753 60.1921 37.1425C60.3179 37.0424 60.4444 36.9559 60.5545 36.8523C61.9583 35.5386 63.3228 34.187 64.5843 32.7346C64.8309 32.4508 65.0961 32.1821 65.3691 31.9241C65.4778 31.8219 65.625 31.7375 65.7694 31.7011C66.0188 31.6389 66.2197 31.8462 66.1375 32.0899C66.0689 32.2943 65.9573 32.4966 65.8208 32.6638C65.2047 33.4172 64.5957 34.1784 63.9403 34.896C63.3106 35.5858 62.6287 36.2276 61.9654 36.8866C61.8754 36.9767 61.7646 37.046 61.6638 37.1253C61.6795 37.1525 61.696 37.1804 61.7117 37.2075C61.781 37.2183 61.8504 37.239 61.9197 37.239C62.8932 37.2411 63.8674 37.2383 64.8409 37.2411C65.0032 37.2411 65.1368 37.2268 65.239 37.0667C65.3126 36.9509 65.4413 36.8695 65.5485 36.7751C66.3083 36.1068 67.0688 35.4392 67.8279 34.7709C68.1202 34.5143 68.4004 34.2427 68.7056 34.0019C68.9572 33.8039 69.1351 33.796 69.2695 33.9168C69.4146 34.0476 69.4039 34.2349 69.1823 34.5043C68.9607 34.7745 68.7242 35.0368 68.4661 35.2713C67.8615 35.8216 67.2403 36.3541 66.6256 36.893C66.5292 36.9774 66.4312 37.0596 66.289 37.1811C66.4062 37.2061 66.4705 37.2318 66.5356 37.2318C67.2889 37.2347 68.0416 37.229 68.7949 37.2354C69.0401 37.2376 69.2402 37.1754 69.4311 37.0081C69.9678 36.5378 70.5196 36.0847 71.0693 35.6294C71.1786 35.5386 71.2973 35.455 71.4245 35.3928C71.5603 35.3263 71.7276 35.3192 71.8069 35.4635C71.8598 35.5607 71.8712 35.7216 71.8276 35.8216C71.7626 35.9717 71.6425 36.1025 71.5282 36.2255C71.2294 36.5457 70.9206 36.8566 70.5704 37.2183H72.5202C72.6539 36.858 72.9162 36.5485 73.34 36.412C73.6188 36.322 73.9004 36.3127 74.182 36.407C74.7031 36.5821 75.0362 37.106 74.9969 37.69C74.9554 38.3004 74.5215 38.7078 73.9597 38.8593C73.3858 39.0144 72.8898 38.6985 72.4881 37.968H70.2652C70.5647 38.2861 70.8205 38.5548 71.0721 38.8265C71.2487 39.0166 71.4302 39.2031 71.591 39.4068C71.8262 39.7035 71.8412 39.9422 71.6604 40.1023C71.491 40.2524 71.2523 40.2388 70.9949 40.0037C70.6025 39.6456 70.2316 39.2625 69.8578 38.8836C69.6212 38.6435 69.4046 38.3819 69.1609 38.1496C69.0665 38.0595 68.9222 37.9723 68.7992 37.9709C67.8529 37.9559 66.9058 37.963 65.878 37.963C65.9888 38.1196 66.0603 38.2325 66.1432 38.3368C66.9258 39.3261 67.6327 40.366 68.2531 41.4653C68.3232 41.589 68.3932 41.7155 68.4433 41.8484C68.5398 42.1043 68.4904 42.3002 68.321 42.4024C68.1602 42.4989 67.9937 42.4631 67.805 42.2659C67.6527 42.1065 67.5048 41.9406 67.3768 41.7612C66.4877 40.5154 65.6043 39.2646 64.6887 37.973H61.117C61.2643 38.2539 61.3751 38.5134 61.5259 38.7471C62.2799 39.9129 63.0419 41.0736 63.8081 42.2315C64.0154 42.5453 64.2662 42.8319 64.4614 43.1521C64.615 43.4037 64.7308 43.6825 64.8338 43.9598C64.8981 44.1335 64.8881 44.3329 64.7087 44.4509C64.545 44.5581 64.3663 44.493 64.2377 44.3851C63.9918 44.1778 63.7323 43.9691 63.5429 43.7139C62.3521 42.1079 61.2007 40.4733 60.2407 38.7142C60.1793 38.602 60.1064 38.4969 60.0206 38.3604C59.9062 38.4555 59.8105 38.5355 59.7147 38.6149C59.1257 39.1038 58.5468 39.6055 57.9435 40.0766C57.5132 40.4125 57.3574 40.3868 56.9007 40.0708C55.9193 39.3911 54.9366 38.7128 53.9459 38.0467C53.8394 37.9752 53.6786 37.9595 53.5428 37.9595C52.2312 37.9609 50.9203 37.9695 49.6088 37.9788C47.5574 37.993 45.5061 38.0095 43.4554 38.0252C43.3261 38.0259 43.1974 38.0252 43.0673 38.0252C42.8565 38.3176 42.8522 38.642 42.815 38.9758C42.9172 39.0273 43.0051 39.0788 43.0988 39.1166C43.9293 39.4512 44.7613 39.7807 45.5904 40.118C45.777 40.1938 45.9542 40.2074 46.1565 40.1716C47.4238 39.9472 48.661 39.6048 49.8961 39.2524C50.0205 39.2167 50.1448 39.1724 50.2721 39.1538C50.5665 39.1109 50.8389 39.2746 50.9232 39.5312C51.0161 39.815 50.886 40.0994 50.5916 40.2345C50.4986 40.2774 50.395 40.2988 50.2949 40.3253C49.543 40.5247 48.7904 40.7227 48.0384 40.9235C47.9934 40.9357 47.952 40.9629 47.8569 41.0065C48.0056 41.0765 48.1028 41.128 48.2043 41.1694C48.9977 41.4911 49.7939 41.807 50.5844 42.1351C50.7767 42.2151 50.9425 42.2201 51.1383 42.1365C52.0196 41.7577 52.9066 41.3931 53.7922 41.025C53.8758 40.9907 53.9631 40.9571 54.051 40.9436C54.2475 40.9135 54.4541 41.0208 54.5449 41.1859C54.6435 41.3645 54.6156 41.6161 54.4527 41.7577C54.3476 41.8484 54.2154 41.9156 54.0853 41.9671C53.5785 42.1672 53.0675 42.3552 52.5586 42.5496C52.4292 42.5989 52.3027 42.6568 52.1061 42.739C52.9002 43.0614 53.6178 43.358 54.3426 43.6396C54.4384 43.6768 54.5727 43.6603 54.6757 43.626C55.3275 43.408 55.9737 43.1743 56.6248 42.9549C56.7699 42.9063 56.9264 42.8691 57.0772 42.8684C57.2917 42.867 57.4603 43.0092 57.5147 43.1943C57.5726 43.3916 57.5097 43.5703 57.3553 43.6811C57.2123 43.7833 57.0379 43.8512 56.8678 43.9041C56.5383 44.0077 56.2017 44.0906 55.8686 44.2536C57.0422 44.7325 58.2158 45.2106 59.4223 45.7031C59.7976 45.3093 60.2851 45.0563 60.8754 45.0713C61.2857 45.0813 61.6653 45.2085 61.9876 45.4787C62.6366 46.0226 62.8296 46.9597 62.4443 47.7044C62.0305 48.505 61.1735 48.8602 60.2615 48.6093C59.3745 48.3649 58.9542 47.6558 58.9999 46.4607C57.8399 46.0012 56.6734 45.5387 55.4376 45.0491C55.4969 45.2078 55.5319 45.3086 55.5713 45.4079C55.7185 45.7817 55.875 46.1513 56.0087 46.5301C56.0544 46.6602 56.0751 46.8181 56.0451 46.9489C56.0201 47.0576 55.9208 47.1948 55.8236 47.2277C55.7256 47.2606 55.557 47.2162 55.4776 47.1426C55.3582 47.0326 55.2739 46.8753 55.2024 46.7245C54.908 46.1034 54.6149 45.4808 54.3412 44.8504C54.2518 44.6446 54.1317 44.5145 53.9209 44.4344C53.1454 44.1399 52.3763 43.8305 51.5543 43.5067C51.5793 43.631 51.5865 43.714 51.6129 43.7897C51.8288 44.4015 52.0511 45.0112 52.2655 45.6231C52.3341 45.8182 52.3949 46.0176 52.4421 46.2192C52.4685 46.3307 52.4914 46.46 52.4592 46.5644C52.4256 46.6745 52.3441 46.7995 52.2476 46.8524C52.119 46.9239 52.0011 46.8274 51.9253 46.7095C51.8695 46.6223 51.8174 46.5315 51.7752 46.4372C51.3106 45.4086 50.8389 44.383 50.3929 43.3466C50.2821 43.0893 50.1448 42.9277 49.8761 42.8262C48.8933 42.4546 47.9212 42.0564 46.9442 41.6683C46.8505 41.6311 46.7555 41.5983 46.6018 41.5418C46.6626 41.6826 46.6926 41.7755 46.7397 41.8584C47.1857 42.6497 47.6368 43.438 48.0813 44.2307C48.2078 44.4566 48.3243 44.6889 48.4308 44.9254C48.483 45.042 48.5138 45.172 48.5331 45.2993C48.5574 45.4637 48.5123 45.6088 48.3501 45.6938C48.1993 45.7732 48.0649 45.7181 47.9577 45.6188C47.8347 45.5051 47.7247 45.375 47.6218 45.2421C46.7447 44.1071 46.0178 42.8784 45.4174 41.5804C45.2073 41.1273 44.95 40.8199 44.4597 40.6698C43.9529 40.5147 43.4662 40.291 42.9787 40.0794C42.7285 39.9708 42.5091 40.0044 42.3419 40.1952C42.1467 40.4168 41.9645 40.6569 41.8201 40.9135C41.6671 41.1859 41.6921 41.2223 41.918 41.451C43.141 42.6883 44.3668 43.9227 45.589 45.1606C46.7926 46.38 47.9949 47.6022 49.1942 48.8259C49.3436 48.9781 49.4987 49.081 49.7188 49.1254C50.7738 49.3383 51.8231 49.5778 52.8766 49.7972C53.4184 49.9102 53.5942 50.0974 53.6286 50.6649C53.6764 51.4683 53.7193 52.2717 53.7658 53.0744C53.7694 53.138 53.7858 53.2002 53.8008 53.2924C53.9816 53.3117 54.1589 53.3424 54.3376 53.3481C56.2846 53.4082 58.2316 53.4103 60.1764 53.2724C60.4223 53.2552 60.6689 53.2445 60.9155 53.2459C61.0699 53.2466 61.2271 53.2652 61.3786 53.2967C61.6074 53.3446 61.7439 53.4796 61.7417 53.6426C61.7389 53.8434 61.6009 53.9407 61.4322 53.9964C61.31 54.0372 61.1821 54.0665 61.0548 54.0872C59.8348 54.2859 58.6047 54.3624 57.371 54.3781C56.657 54.3874 55.9429 54.3745 55.2289 54.3717C55.1052 54.3717 54.9816 54.3717 54.7757 54.3717C54.9172 54.5275 54.9966 54.6225 55.0838 54.7105C55.6985 55.3259 56.3182 55.9362 56.9271 56.5574C57.0987 56.7325 57.2588 56.8347 57.5311 56.809C57.8227 56.7818 58.1229 56.8661 58.421 56.8819C59.4316 56.9369 60.4423 56.9819 61.453 57.0356C61.6595 57.0463 61.8675 57.0627 62.0705 57.1006C62.3564 57.1542 62.4865 57.2678 62.4944 57.4322C62.5029 57.6088 62.3636 57.726 62.0484 57.781C61.8832 57.8096 61.7124 57.8282 61.5452 57.8211C60.6639 57.7846 59.7826 57.7396 58.9013 57.6946C58.6483 57.6817 58.396 57.661 58.0607 57.6388C58.1558 57.7553 58.1894 57.8046 58.2316 57.8468C58.7812 58.3986 59.3337 58.9475 59.8827 59.5007C60.0163 59.6358 60.1643 59.7044 60.3601 59.7194C61.1106 59.7773 61.8597 59.8503 62.608 59.9239C62.7481 59.9375 62.8996 59.9589 63.019 60.0246C63.1055 60.0725 63.197 60.2005 63.1963 60.2927C63.1963 60.3842 63.1005 60.4985 63.0154 60.5593C62.9382 60.6143 62.8203 60.6272 62.7195 60.6322C62.2921 60.6529 61.864 60.6644 61.4365 60.6779C61.3393 60.6808 61.2421 60.6779 61.052 60.6779C61.5409 61.174 61.9647 61.6035 62.4129 62.0581C62.5015 62.0331 62.6094 61.9988 62.7195 61.9716C63.3885 61.8087 64.094 62.2132 64.2827 62.8679C64.4649 63.4976 64.0747 64.2074 63.4135 64.3961C62.964 64.5247 62.5294 64.4433 62.1749 64.1281C61.8161 63.8093 61.7024 63.3947 61.8082 62.9251C61.8368 62.8 61.8797 62.6792 61.9176 62.5506C61.4101 62.0481 60.9076 61.5506 60.343 60.9917C60.3237 61.4256 60.3072 61.7686 60.2929 62.1117C60.2829 62.3583 60.2879 62.6056 60.2629 62.8508C60.2472 63.0023 60.215 63.1646 60.1435 63.2954C59.9942 63.5677 59.6647 63.5756 59.521 63.3018C59.4352 63.1381 59.3995 62.9301 59.3988 62.7421C59.3945 62.0024 59.3966 61.2619 59.4295 60.5228C59.4438 60.2083 59.3516 59.9889 59.1243 59.7745C58.5868 59.2663 58.0743 58.7317 57.5504 58.2092C57.4603 58.1191 57.3646 58.0348 57.2223 57.9018C57.1716 58.2621 57.128 58.5644 57.0872 58.8667C56.9386 59.9746 56.7163 61.0668 56.4097 62.1418C56.3775 62.254 56.3418 62.3662 56.2917 62.4705C56.1824 62.6993 56.0187 62.7979 55.8393 62.7593C55.6542 62.7193 55.5419 62.567 55.5527 62.309C55.5648 62.0109 55.587 61.7115 55.637 61.4184C55.8822 59.9746 56.1373 58.533 56.3911 57.0799C55.5684 56.2693 54.7278 55.4416 53.858 54.5847C53.818 54.6904 53.7565 54.8119 53.7257 54.9406C53.4885 55.9377 53.2383 56.9312 53.0303 57.9347C52.8487 58.811 52.7315 59.7001 52.5571 60.5779C52.5 60.8645 52.3663 61.1397 52.2412 61.4077C52.1683 61.5635 52.0282 61.6836 51.8345 61.6486C51.6394 61.6135 51.555 61.4506 51.5386 61.2798C51.5093 60.9724 51.465 60.6544 51.51 60.3534C51.8066 58.3507 52.1547 56.3565 52.7229 54.4081C52.7551 54.298 52.7744 54.1837 52.8094 54.0286C52.3649 53.9943 51.9446 53.9685 51.5257 53.9285C51.0483 53.8828 50.5701 53.8356 50.0948 53.7677C49.6116 53.6983 49.5023 53.5811 49.4136 53.1123C49.1906 51.9265 48.9641 50.7421 48.7546 49.5542C48.721 49.3655 48.6138 49.2561 48.4952 49.1396C47.3666 48.0282 46.2358 46.9196 45.1087 45.8067C43.8428 44.5574 42.5806 43.3044 41.3155 42.0536C41.2247 41.9635 41.1296 41.8785 40.9988 41.7555C40.7265 41.9349 40.4635 42.1086 40.1847 42.293C40.3413 42.659 40.4792 42.9792 40.6157 43.2994C40.8552 43.8605 41.1053 44.4173 41.3298 44.9833C41.4313 45.2385 41.5842 45.4236 41.8172 45.563C42.8858 46.2027 43.9508 46.8474 45.0165 47.4914C45.1494 47.5715 45.2924 47.6415 45.4082 47.7423C45.6304 47.936 45.6719 48.2133 45.5389 48.447C45.4081 48.6772 45.1423 48.7844 44.8649 48.6979C44.7434 48.66 44.6312 48.5879 44.5197 48.5235C43.8457 48.134 43.1731 47.7416 42.4991 47.352C42.4684 47.3342 42.4298 47.3285 42.354 47.3042C42.3912 47.4257 42.4112 47.5214 42.4491 47.6108C42.7879 48.4113 43.1352 49.2083 43.4654 50.0124C43.5519 50.2225 43.6835 50.3426 43.8907 50.4255C44.7692 50.7779 45.6419 51.1424 46.516 51.5055C46.6104 51.5448 46.7076 51.5905 46.7855 51.6556C46.9585 51.7993 47.0049 52.0294 46.9184 52.2195C46.8341 52.4054 46.6211 52.529 46.4052 52.4926C46.2794 52.4711 46.1565 52.4204 46.0386 52.3689C45.5404 52.1488 45.0451 51.9215 44.5476 51.6999C44.4347 51.6492 44.316 51.6106 44.1244 51.5384C44.326 52.0165 44.4925 52.4197 44.6662 52.8199C44.8206 53.1759 44.9121 53.594 45.1616 53.8649C45.401 54.1251 45.8048 54.2373 46.1422 54.4024C46.4803 54.5675 46.8284 54.7119 47.165 54.8777C47.3022 54.9449 47.4388 55.0299 47.546 55.1372C47.6911 55.2823 47.7097 55.5217 47.6167 55.6796C47.5138 55.8548 47.3423 55.9377 47.155 55.9062C46.9813 55.8769 46.8112 55.7976 46.6525 55.7147C46.3581 55.5617 46.0736 55.3902 45.7848 55.2258C45.7634 55.2451 45.7412 55.2651 45.7198 55.2844C46.2087 56.4466 46.6969 57.6095 47.1965 58.7981C47.7561 58.791 48.2729 58.9568 48.6796 59.3914C48.9741 59.7066 49.142 60.0768 49.1728 60.5085C49.2328 61.3577 48.6639 62.146 47.8254 62.3733C46.9856 62.6013 46.1322 62.2054 45.7084 61.3905C45.2866 60.58 45.5147 59.7473 46.3666 59.0462C45.8685 57.8954 45.3674 56.7375 44.8263 55.4867C44.722 55.7654 44.6591 55.9548 44.5805 56.1371C44.4575 56.4223 44.3317 56.7075 44.1902 56.9841C44.133 57.0963 44.038 57.1942 43.9451 57.2821C43.8307 57.3901 43.6706 57.4201 43.5519 57.325C43.4633 57.2543 43.389 57.1149 43.384 57.0034C43.3775 56.854 43.4311 56.6968 43.4833 56.5517C43.7249 55.8805 43.9786 55.2136 44.2188 54.5418C44.2595 54.4274 44.3003 54.2759 44.2588 54.1751C43.9172 53.3488 43.5555 52.5312 43.1781 51.6613C43.1038 51.7885 43.0495 51.8686 43.008 51.9551C42.73 52.5412 42.4612 53.1315 42.1767 53.7148C42.0695 53.9349 41.9387 54.1465 41.7979 54.3474C41.735 54.4374 41.63 54.5146 41.527 54.5561C41.3433 54.6297 41.1797 54.5168 41.1789 54.3188C41.1789 54.2051 41.209 54.0865 41.2497 53.9793C41.655 52.8986 42.0567 51.8164 42.4805 50.7429C42.5834 50.482 42.5949 50.2675 42.4784 50.0066C42.0531 49.0596 41.6521 48.1018 41.2404 47.1491C41.1947 47.044 41.1404 46.9425 41.066 46.7917C41.0146 46.9296 40.9731 47.0183 40.9474 47.1112C40.6893 48.0354 40.4406 48.9631 40.1733 49.8851C40.0911 50.1696 39.9703 50.4448 39.8495 50.7164C39.7845 50.8622 39.668 50.9701 39.4893 50.9751C39.2884 50.9801 39.1398 50.8422 39.1519 50.5877C39.1698 50.2132 39.2134 49.838 39.277 49.4677C39.4928 48.2112 39.8245 46.984 40.2691 45.7903C40.3941 45.4544 40.417 45.1663 40.249 44.8311C39.9882 44.3101 39.7673 43.7668 39.5572 43.2229C39.4457 42.9334 39.2434 42.7926 38.9668 42.8162C38.6487 42.8434 38.3349 42.9327 38.0226 43.0078C37.8818 43.0421 37.8103 43.1479 37.826 43.3008C37.8303 43.3394 37.826 43.3787 37.826 43.4173C37.8024 46.8446 37.7803 50.2718 37.751 53.6991C37.7488 53.9685 37.8025 54.1973 37.9547 54.4267C38.5294 55.2908 39.0797 56.1714 39.653 57.037C39.9796 57.5301 39.9303 57.8446 39.5829 58.217C38.9997 58.8424 38.4514 59.5007 37.8575 60.1798C37.9354 60.2827 38.0162 60.4113 38.1184 60.5207C39.4242 61.913 40.7622 63.2739 42.2053 64.5262C42.4798 64.7642 42.7414 65.0179 42.9966 65.2759C43.1038 65.3846 43.196 65.5168 43.2646 65.6541C43.3304 65.7856 43.3275 65.9342 43.211 66.0515C43.0952 66.1673 42.9515 66.1815 42.8165 66.1065C42.6128 65.9936 42.4012 65.8842 42.2254 65.7348C41.3648 65.0051 40.5006 64.2774 39.6658 63.5184C39.1097 63.0123 38.6001 62.4548 38.069 61.9209C37.9904 61.8416 37.9061 61.7679 37.776 61.6457C37.7667 61.7915 37.756 61.8751 37.756 61.9595C37.7553 62.9073 37.7588 63.855 37.7531 64.8028C37.7517 64.9958 37.7724 65.1509 37.9661 65.2566C38.0619 65.3088 38.1262 65.4232 38.1984 65.5147C38.8331 66.3209 39.4878 67.1093 40.2262 67.8255C40.4492 68.0421 40.6522 68.2794 40.8573 68.5145C40.9424 68.6117 41.016 68.7211 41.0782 68.834C41.1561 68.9762 41.1947 69.1328 41.0624 69.2657C40.9274 69.4015 40.7665 69.3643 40.6357 69.2679C40.417 69.107 40.1912 68.9462 40.0089 68.7482C39.3671 68.0513 38.7431 67.3387 38.1127 66.6318C38.0219 66.5296 37.9332 66.4253 37.7846 66.253C37.7724 66.4446 37.7617 66.5411 37.761 66.6383C37.7596 67.3523 37.766 68.0663 37.7574 68.7804C37.7546 69.0263 37.8125 69.2243 37.9797 69.4158C38.4586 69.9626 38.9189 70.5251 39.3813 71.0855C39.4714 71.1941 39.565 71.3142 39.6058 71.445C39.6351 71.5408 39.6179 71.7066 39.5543 71.7609C39.4743 71.8295 39.3177 71.8488 39.2062 71.8281C39.1012 71.8088 39.0004 71.7209 38.916 71.643C38.6201 71.3707 38.3321 71.0898 38.0412 70.8124C37.9704 70.7445 37.8975 70.6788 37.7753 70.5658V72.5036C38.1184 72.6522 38.4207 72.8831 38.5608 73.2776C38.6644 73.5686 38.6787 73.8644 38.5887 74.1575C38.4279 74.6807 37.8918 75.0224 37.3157 74.9859C36.6882 74.9459 36.2879 74.5142 36.1392 73.9602C36.0148 73.4956 36.1857 72.8316 37.0291 72.4935V70.2799C36.919 70.3671 36.8497 70.4143 36.7889 70.4708C36.438 70.7989 36.0935 71.1341 35.7368 71.455C35.6132 71.5665 35.4716 71.6801 35.318 71.7273C35.2015 71.7638 35.0313 71.733 34.9234 71.668C34.7755 71.5794 34.754 71.395 34.8326 71.2492C34.9298 71.0697 35.0506 70.8939 35.195 70.7495C35.6911 70.2542 36.1892 69.7603 36.7117 69.2936C36.9597 69.0727 37.047 68.8383 37.0377 68.5138C37.0169 67.774 37.0327 67.0342 37.0334 66.2938C37.0334 66.1808 37.0334 66.0679 37.0334 65.8635C36.8604 65.9864 36.7475 66.0586 36.6431 66.1415C35.6539 66.9242 34.6125 67.6296 33.5139 68.2493C33.3788 68.3258 33.2387 68.3973 33.0929 68.4495C32.8785 68.5259 32.7062 68.4745 32.604 68.3287C32.5018 68.1829 32.5204 68.0092 32.6848 67.8376C32.8192 67.6975 32.9657 67.566 33.1229 67.4524C33.922 66.8749 34.7247 66.3016 35.5302 65.7313C36.0163 65.3867 36.5087 65.0515 37.0262 64.6927V61.1311C36.8947 61.1847 36.7761 61.2176 36.6746 61.2776C36.082 61.6264 35.4788 61.9602 34.907 62.3405C33.9449 62.9795 33.0079 63.6556 32.0508 64.3025C31.7849 64.4826 31.4883 64.6177 31.2046 64.7706C31.1595 64.7949 31.1081 64.8135 31.0573 64.8199C30.8772 64.8428 30.6785 64.8893 30.5556 64.7106C30.4362 64.5376 30.4998 64.3446 30.6206 64.206C30.8407 63.9537 31.063 63.6913 31.3296 63.4941C32.9257 62.3111 34.5503 61.1697 36.2993 60.2176C36.4008 60.1626 36.4945 60.094 36.6188 60.0154C36.5523 59.9239 36.4995 59.8402 36.4358 59.7659C36.0735 59.3413 35.7039 58.9225 35.3451 58.4951C35.1786 58.2964 35.022 58.0884 34.8741 57.8754C34.6139 57.4994 34.6189 57.3272 34.8741 56.9584C35.4052 56.1893 35.9362 55.4202 36.4666 54.6511C36.6281 54.416 36.8039 54.1887 36.9419 53.9399C37.0119 53.8134 37.0384 53.6476 37.0384 53.5004C37.0369 52.4361 37.0212 51.3711 37.0148 50.3068C36.9998 48.0089 36.9876 45.711 36.9748 43.413C36.9726 42.9913 36.9455 42.952 36.5431 42.8727C36.3787 42.8398 36.2107 42.8241 36.0249 42.7983C35.9748 42.8963 35.9219 42.9828 35.8841 43.0757C35.5488 43.9055 35.2208 44.7389 34.8805 45.5666C34.7976 45.7689 34.7883 45.9611 34.8269 46.1727C35.0556 47.4392 35.3966 48.6772 35.749 49.9123C35.7911 50.061 35.8354 50.2146 35.8397 50.3676C35.8469 50.6521 35.6589 50.8751 35.3973 50.933C35.1579 50.9859 34.9077 50.8679 34.784 50.6242C34.7261 50.5105 34.6933 50.3819 34.6604 50.2568C34.4603 49.5049 34.2637 48.7515 34.0643 47.9989C34.055 47.9632 34.0286 47.9324 33.9914 47.866C33.9406 47.9567 33.8927 48.0232 33.8627 48.0975C33.5261 48.9274 33.1966 49.7593 32.8549 50.587C32.7806 50.7671 32.7734 50.923 32.8521 51.1059C33.2287 51.9887 33.5933 52.8757 33.9606 53.762C33.9949 53.8449 34.03 53.9314 34.0436 54.0193C34.0814 54.2651 33.9656 54.4717 33.7548 54.5561C33.5582 54.6347 33.3374 54.5811 33.1973 54.3974C33.1201 54.2959 33.0651 54.1744 33.0186 54.0543C32.8263 53.5583 32.6419 53.0594 32.4525 52.5626C32.4025 52.4304 32.3453 52.301 32.271 52.1216C32.2038 52.2567 32.1552 52.3425 32.118 52.4332C31.8764 53.0215 31.6434 53.6126 31.3954 54.198C31.3203 54.3759 31.3096 54.531 31.379 54.7176C31.617 55.3623 31.8378 56.0134 32.0594 56.6639C32.1009 56.7847 32.1323 56.9155 32.1337 57.042C32.1359 57.2535 31.9986 57.4408 31.8228 57.493C31.6148 57.5552 31.4197 57.5051 31.3032 57.3286C31.1988 57.1706 31.1309 56.9834 31.0738 56.8004C30.9773 56.4923 30.9022 56.1785 30.7435 55.8569C30.2654 57.0277 29.7872 58.1992 29.2933 59.4085C29.6935 59.7931 29.9459 60.2877 29.9194 60.8959C29.9015 61.3112 29.7707 61.6836 29.4949 62.0002C28.9445 62.6321 28.036 62.8108 27.2991 62.4326C26.5 62.0224 26.1512 61.209 26.3807 60.2927C26.608 59.3849 27.2755 58.974 28.5392 58.979C28.9974 57.8225 29.4591 56.6582 29.9502 55.4188C29.7672 55.4902 29.6543 55.5324 29.542 55.5774C29.2054 55.7132 28.8744 55.8634 28.5314 55.9799C28.377 56.0327 28.1969 56.0485 28.0346 56.0299C27.7408 55.997 27.6301 55.7011 27.8316 55.4845C27.9431 55.3652 28.0961 55.2737 28.2462 55.2029C28.8909 54.897 29.5434 54.6082 30.1867 54.3009C30.3061 54.2437 30.449 54.1515 30.4955 54.04C30.8343 53.2266 31.1509 52.4047 31.4969 51.5291C31.3539 51.5634 31.2596 51.5777 31.1717 51.6091C30.5613 51.8278 29.9552 52.0601 29.3405 52.266C29.0732 52.3553 28.7894 52.4025 28.5099 52.4482C28.3462 52.4747 28.1876 52.4182 28.134 52.2424C28.0789 52.0587 28.2033 51.9493 28.3505 51.8764C28.803 51.6506 29.2526 51.4176 29.7136 51.2103C30.3997 50.9022 31.0938 50.6113 31.7878 50.3204C31.94 50.2568 32.0437 50.1746 32.1073 50.0124C32.5276 48.9367 32.9586 47.8652 33.3846 46.7924C33.4024 46.7474 33.4053 46.6966 33.4253 46.5987C33.3002 46.6559 33.2094 46.6895 33.1265 46.7359C32.3353 47.1819 31.5483 47.6351 30.7535 48.0754C30.4827 48.2255 30.196 48.3506 29.9116 48.4742C29.8194 48.5142 29.7093 48.535 29.6092 48.53C29.319 48.515 29.1739 48.2398 29.3419 48.0025C29.4448 47.8581 29.5899 47.738 29.7322 47.6272C30.8858 46.7324 32.138 45.9947 33.4603 45.3829C33.8899 45.1842 34.1758 44.9376 34.3187 44.4744C34.4745 43.9677 34.6918 43.4781 34.9055 42.9913C35.0292 42.7097 34.9756 42.4846 34.7719 42.2844C34.4924 42.0085 34.1786 41.7834 33.7698 41.7055C33.7019 41.7648 33.6311 41.8206 33.5675 41.8835C31.1181 44.2993 28.6715 46.7181 26.2177 49.1296C26.024 49.3205 25.9025 49.5235 25.8482 49.7886C25.6409 50.805 25.4143 51.8178 25.2063 52.8342C25.0891 53.4075 24.8961 53.5783 24.3222 53.6126C23.468 53.6633 22.6153 53.7284 21.7026 53.7913C21.6847 53.9607 21.6518 54.1472 21.6476 54.3338C21.6025 56.2679 21.5854 58.202 21.7212 60.134C21.7412 60.4185 21.7405 60.7051 21.7433 60.9903C21.7441 61.0939 21.7326 61.1983 21.7155 61.3005C21.6719 61.5642 21.5582 61.7022 21.3788 61.72C21.193 61.7386 21.0486 61.6386 20.99 61.3634C20.8978 60.9331 20.832 60.4964 20.7791 60.059C20.5869 58.4693 20.6154 56.8712 20.6269 55.2744C20.6276 55.1329 20.6269 54.9913 20.6269 54.7948C20.5232 54.8691 20.4489 54.9084 20.3917 54.9649C19.7113 55.6425 19.0359 56.3265 18.3511 57.0005C18.2182 57.1313 18.1889 57.2578 18.1932 57.4437C18.2003 57.7653 18.1367 58.0884 18.1181 58.4122C18.0666 59.3185 18.0245 60.2255 17.9752 61.1318C17.9594 61.4163 17.9344 61.7008 17.9108 61.9845C17.9051 62.0488 17.8944 62.1146 17.8737 62.1753C17.8215 62.3283 17.7443 62.4734 17.5606 62.4777C17.3726 62.482 17.2861 62.3433 17.2532 62.1811C17.2175 62.0038 17.1789 61.8215 17.1853 61.6436C17.2197 60.6844 17.2661 59.7252 17.3111 58.7667C17.3212 58.5523 17.3433 58.3378 17.3662 58.0391C17.2404 58.1441 17.1811 58.1863 17.1303 58.237C16.5942 58.7717 16.0618 59.3099 15.5221 59.841C15.3656 59.9946 15.2819 60.1619 15.2662 60.3856C15.2162 61.0975 15.1505 61.8087 15.0854 62.5191C15.0725 62.6607 15.0439 62.8022 15.0068 62.9394C14.966 63.0895 14.8667 63.191 14.7009 63.1896C14.5329 63.1881 14.43 63.0802 14.4035 62.9308C14.3606 62.6885 14.332 62.4427 14.3228 62.1968C14.3099 61.848 14.3192 61.4985 14.3192 61.149C14.2906 61.1325 14.2627 61.1161 14.2341 61.1004L14.2327 61.1032ZM13.2971 47.1641C13.2871 47.7816 13.801 48.307 14.4221 48.3155C15.0761 48.3248 15.5786 47.8574 15.5957 47.2234C15.6129 46.6066 15.0797 46.0719 14.4343 46.0583C13.7667 46.0448 13.3078 46.4908 13.2971 47.1641ZM27.8202 13.2818C27.2184 13.2725 26.6873 13.8072 26.6844 14.4254C26.6816 15.0837 27.1519 15.5819 27.7852 15.5905C28.3963 15.5991 28.9323 15.0537 28.9423 14.4133C28.9524 13.7572 28.4913 13.2926 27.8202 13.2818ZM46.9356 15.4547C47.5846 15.4475 48.1307 14.9236 48.1242 14.3139C48.1178 13.7128 47.576 13.1961 46.9549 13.1996C46.3295 13.2025 45.7798 13.7586 45.7956 14.3718C45.812 14.9865 46.3116 15.4618 46.9349 15.4547H46.9356ZM60.5874 28.9257C61.2578 28.9307 61.7003 28.4868 61.7067 27.8042C61.7124 27.1953 61.1821 26.6678 60.5638 26.6678C59.9119 26.6678 59.4145 27.1474 59.4102 27.7806C59.4059 28.4053 59.9355 28.9207 60.5874 28.9257ZM46.0722 60.6093C46.0793 61.2719 46.5503 61.72 47.2222 61.7036C47.809 61.6886 48.3243 61.1582 48.3294 60.5636C48.3344 59.9046 47.8204 59.3799 47.1843 59.3949C46.5668 59.4092 46.065 59.9575 46.0729 60.61L46.0722 60.6093ZM13.2156 28.0444C13.2206 28.6648 13.7359 29.1887 14.3478 29.1944C14.9753 29.2009 15.485 28.6841 15.4721 28.0544C15.4592 27.4104 14.926 26.8643 14.3192 26.8722C13.7116 26.8808 13.2106 27.4125 13.2156 28.0444ZM28.1032 59.5286C27.4607 59.5222 26.8917 60.0332 26.8703 60.6365C26.8495 61.2147 27.4013 61.7694 28.0125 61.7844C28.65 61.8001 29.1939 61.2798 29.1989 60.6493C29.204 60.0246 28.7251 59.535 28.1032 59.5286ZM59.5396 46.8989C59.5353 47.5436 60.0499 48.1054 60.6539 48.1161C61.2528 48.1261 61.7803 47.5972 61.7925 46.9739C61.8046 46.3371 61.2821 45.7975 60.6517 45.796C60.0278 45.7946 59.5439 46.2749 59.5403 46.8996L59.5396 46.8989ZM24.8604 22.0469C24.0992 21.9711 23.3523 21.8789 22.601 21.8417C22.5896 21.8682 22.5782 21.8939 22.5667 21.9204C23.4516 22.8009 24.3357 23.6815 25.2206 24.5614C25.2406 24.5471 25.2599 24.5321 25.2799 24.5178C25.142 23.703 25.0033 22.8889 24.8604 22.0462V22.0469ZM37.0076 59.1569C37.0913 58.5151 37.0655 55.5917 36.9776 55.3008C36.488 55.9899 36.0106 56.6624 35.5159 57.3586C36.0041 57.9476 36.4816 58.523 37.0076 59.1577V59.1569ZM50.1441 52.9464C50.9196 53.0179 51.6615 53.0858 52.437 53.1566C52.2033 52.7885 50.0176 50.6242 49.7274 50.4712C49.8661 51.2961 50.0012 52.098 50.1441 52.9464ZM21.8448 52.3675C22.7504 51.4733 23.631 50.6049 24.5323 49.715C23.7046 49.8551 22.8869 49.9931 22.0493 50.1353C21.9792 50.9001 21.9113 51.6399 21.8448 52.3675ZM59.1765 37.9788C58.228 37.8958 55.5948 37.9316 55.3232 38.0274C56.0065 38.512 56.6798 38.9894 57.3696 39.479C57.9614 38.9873 58.536 38.5105 59.1765 37.9788ZM50.4322 25.2769C51.307 25.1282 52.1197 24.9902 52.956 24.848C53.0267 24.0789 53.0961 23.332 53.1654 22.5837C52.2569 23.4792 51.3756 24.347 50.4329 25.2769H50.4322ZM19.6598 37.0146C19.6641 36.9924 19.6677 36.9709 19.672 36.9488C18.998 36.4713 18.324 35.9932 17.6592 35.5221C17.0245 35.941 16.0589 36.7844 15.946 37.0146H19.6606H19.6598ZM37.9733 19.6246C37.9983 19.6346 38.0233 19.6446 38.0483 19.6553C38.5251 18.9849 39.0018 18.3144 39.4728 17.6518C39.0819 17.05 38.2199 16.0587 37.9733 15.9307V19.6246ZM35.9098 32.8211C36.325 33.8167 36.7289 34.7845 37.1327 35.753C37.2464 35.0368 37.2013 32.7954 37.1241 32.5595C36.7346 32.6431 36.3472 32.7267 35.9091 32.8211H35.9098ZM40.7537 33.7474C40.3849 33.5158 40.0396 33.2993 39.6758 33.0712C39.2698 34.0583 38.8696 35.0297 38.5 35.9274C39.2219 35.2298 39.9832 34.4929 40.7537 33.7481V33.7474ZM35.7325 37.8787C35.7289 37.8601 35.7247 37.8422 35.7211 37.8237H32.5597C32.6534 38.2518 32.7398 38.6499 32.8342 39.0816C33.802 38.6799 34.7676 38.2789 35.7325 37.8787ZM36.5195 39.028C36.4959 39.0094 36.4723 38.9916 36.4487 38.973C35.7089 39.7228 34.9692 40.4725 34.2337 41.218C34.6154 41.4618 34.9606 41.6826 35.3265 41.9163C35.7239 40.9528 36.1213 39.9901 36.5187 39.028H36.5195ZM33.0801 35.3156C34.0543 35.718 35.0356 36.124 35.9341 36.4956C35.2415 35.7766 34.5003 35.0082 33.7619 34.242C33.5396 34.5915 33.3202 34.9368 33.0801 35.3156ZM42.4526 37.1661C42.3511 36.7222 42.2604 36.3255 42.1632 35.9038C41.1797 36.3127 40.2183 36.7129 39.257 37.1125C39.2613 37.1303 39.2655 37.1482 39.2698 37.1661H42.4526ZM39.0454 38.4798C39.029 38.5048 39.0118 38.5298 38.9954 38.5549C39.7394 39.2896 40.4842 40.0251 41.2297 40.7613C41.4741 40.3768 41.6936 40.033 41.9273 39.6656C40.9681 39.271 40.0068 38.8751 39.0454 38.4791V38.4798ZM39.0926 42.1615C38.9575 41.8363 38.8253 41.5175 38.693 41.1987C38.5544 40.8642 38.4221 40.5269 38.2756 40.1959C38.1412 39.8929 38.0533 39.5655 37.8332 39.2253V42.4367C38.2592 42.3438 38.6566 42.2566 39.0926 42.1615ZM36.0749 17.2587C36.4351 17.7977 36.7718 18.303 37.1106 18.8069C37.1306 18.8369 37.1649 18.8584 37.1949 18.8855C37.2771 18.6025 37.295 16.3331 37.2078 15.86C36.8104 16.351 36.4408 16.807 36.0756 17.2587H36.0749ZM15.9445 37.7486C15.9345 37.7758 15.9245 37.8029 15.9145 37.8301C16.3741 38.1975 16.8337 38.5648 17.2933 38.9322C17.5113 38.7714 17.6857 38.6385 17.8651 38.5127C18.0452 38.3862 18.2346 38.274 18.4119 38.1432C18.5755 38.0224 18.7978 37.9673 18.9143 37.7486H15.9445ZM22.055 22.5393C21.9921 22.7166 22.0693 23.6329 22.2387 24.2112C22.8655 24.3298 23.4966 24.4492 24.0885 24.5614C23.4087 23.8859 22.7168 23.1976 22.055 22.5401V22.5393ZM57.7284 36.0582C57.1551 36.4513 56.6298 36.8123 56.0794 37.1897C56.5455 37.2854 58.8341 37.2726 59.1064 37.1704C58.6433 36.7965 58.1923 36.4327 57.7284 36.0582ZM50.4315 24.0896C51.1276 23.3878 51.8231 22.6866 52.5121 21.9918C51.9653 22.0512 51.3792 22.1148 50.7945 22.1777C50.6666 22.8517 50.5465 23.4843 50.4315 24.0896ZM37.7982 56.0542C37.7138 56.6138 37.7324 58.8003 37.826 59.0955C38.2084 58.6187 38.5765 58.1591 38.9332 57.7146C38.5451 57.1471 38.1884 56.6246 37.7975 56.0542H37.7982ZM24.5852 50.8329C24.2121 51.0759 22.5782 52.7299 22.4517 52.9993C23.0549 52.9314 23.6417 52.8657 24.2121 52.802C24.3429 52.113 24.4623 51.4819 24.5852 50.8329ZM52.9938 52.5112C52.9274 51.9322 52.9388 51.3354 52.7751 50.7729C52.1233 50.6521 51.5021 50.5363 50.881 50.4212C51.5986 51.1317 52.2948 51.8193 52.9938 52.5112ZM37.6945 0.657838C37.3857 0.667845 37.0813 0.990917 37.0841 1.30469C37.087 1.60418 37.3908 1.88722 37.7045 1.88221C38.034 1.87721 38.2992 1.58487 38.2913 1.23607C38.2842 0.895134 38.0283 0.647832 37.6938 0.658553L37.6945 0.657838ZM11.7747 62.364C11.4838 62.3605 11.1371 62.6607 11.1228 62.928C11.1056 63.2546 11.398 63.5612 11.7268 63.562C12.0963 63.562 12.3615 63.3139 12.3593 62.9701C12.3572 62.6428 12.092 62.3683 11.7739 62.364H11.7747ZM1.89103 37.2926C1.88674 36.9588 1.60656 36.7036 1.24775 36.7086C0.89752 36.7129 0.667368 36.9495 0.674515 37.2976C0.681663 37.6185 0.981139 37.9023 1.31136 37.9008C1.62442 37.8994 1.8946 37.6157 1.89103 37.2926ZM37.3071 74.3262C37.6195 74.319 37.9154 74.006 37.9147 73.6851C37.914 73.3777 37.623 73.0996 37.305 73.1025C36.9726 73.1054 36.7182 73.3863 36.7217 73.7465C36.7253 74.0853 36.9762 74.3348 37.3071 74.3269V74.3262ZM62.3771 63.2153C62.3707 63.5141 62.658 63.8543 62.9318 63.8715C63.2634 63.8922 63.5572 63.6134 63.5615 63.2739C63.5658 62.8915 63.3371 62.6399 62.9847 62.6407C62.6488 62.6407 62.3843 62.8915 62.3771 63.2153ZM63.2463 12.6207C63.5493 12.615 63.8695 12.3191 63.8745 12.041C63.8803 11.6994 63.5994 11.4178 63.262 11.4263C62.891 11.4356 62.6366 11.6872 62.648 12.0324C62.6595 12.3619 62.9289 12.6271 63.2463 12.6214V12.6207ZM73.7325 38.2747C74.0834 38.2811 74.3293 38.0509 74.3343 37.7114C74.3393 37.3962 74.0448 37.096 73.7174 37.0846C73.4022 37.0732 73.1292 37.3398 73.1192 37.6678C73.1092 38.0073 73.3722 38.2682 73.7332 38.2747H73.7325ZM12.6209 11.7658C12.6245 11.4614 12.3407 11.1261 12.0677 11.114C11.7361 11.099 11.4366 11.3842 11.4352 11.7151C11.433 12.0853 11.676 12.3448 12.0227 12.3441C12.3629 12.3426 12.6166 12.0975 12.6209 11.7658ZM39.1734 39.9794C39.4414 40.5905 39.6794 41.133 39.9296 41.7026C40.1404 41.5411 40.3177 41.4053 40.4978 41.2673C40.0596 40.8413 39.6437 40.4368 39.1726 39.9794H39.1734ZM33.6933 40.4497C34.1115 40.0287 34.521 39.6163 34.9327 39.2017C34.3981 39.4347 33.8534 39.6727 33.2902 39.9186C33.4546 40.1352 33.5854 40.3074 33.6926 40.4497H33.6933ZM36.9748 42.2859C36.9726 41.6833 36.9833 41.1151 36.9469 40.5469C36.6624 40.9972 36.3229 41.9185 36.3115 42.1994C36.5145 42.2258 36.7189 42.2523 36.9748 42.2859ZM41.3205 34.5458C40.9123 34.9625 40.5071 35.3756 40.1347 35.7559C40.6179 35.545 41.1582 35.3091 41.7157 35.0661C41.5606 34.8617 41.4291 34.6887 41.3205 34.5458ZM35.8262 34.9954C35.5567 34.38 35.3208 33.8425 35.0757 33.2828C34.8641 33.4429 34.6854 33.578 34.5217 33.7017C34.9499 34.1262 35.3608 34.5336 35.8262 34.9954ZM40.5678 38.0474C40.5628 38.0681 40.5578 38.0888 40.5528 38.1103C41.0867 38.3204 41.6214 38.5305 42.1953 38.7564C42.2289 38.4991 42.2575 38.2789 42.2875 38.0481H40.5678V38.0474ZM38.0476 34.4336C38.0705 34.4407 38.0941 34.4472 38.1169 34.4543C38.3292 33.9111 38.5415 33.3672 38.7674 32.7882C38.4943 32.7582 38.2828 32.7346 38.0476 32.7089V34.4336ZM34.4488 36.9359C34.4502 36.9152 34.4517 36.8945 34.4538 36.873C33.9142 36.6622 33.3753 36.452 32.8092 36.2312C32.7742 36.4828 32.7441 36.6965 32.7105 36.9359H34.4488Z" fill="white"/>
</svg>
