<svg width="67" height="67" viewBox="0 0 67 67" fill="none" xmlns="http://www.w3.org/2000/svg">
<path d="M46.0819 44.7849C46.2393 44.7742 46.396 44.7666 46.5528 44.7521C47.7531 44.6434 48.9529 44.5346 50.1526 44.4247C50.6096 44.3829 51.0666 44.3374 51.5236 44.2951C51.7303 44.2761 51.937 44.2565 52.1253 44.376C52.3965 44.5479 52.4218 44.8368 52.1563 45.0182C52.0311 45.1041 51.863 45.1554 51.71 45.1686C50.2354 45.2969 48.7594 45.4114 47.2848 45.5352C46.9782 45.5612 46.6735 45.6098 46.3303 45.6522C46.3802 45.7318 46.4011 45.7818 46.4359 45.8191C46.8992 46.3134 47.3688 46.8013 47.8265 47.3007C47.9497 47.4353 48.0717 47.4713 48.25 47.4429C49.7904 47.1964 51.3314 46.953 52.875 46.7248C53.0943 46.6926 53.3301 46.7318 53.5526 46.7685C53.6929 46.7912 53.7934 46.8993 53.8162 47.0535C53.8402 47.2223 53.7669 47.3588 53.6227 47.4239C53.4477 47.5029 53.2599 47.5693 53.0709 47.5978C51.8118 47.7855 50.5501 47.9612 49.2898 48.1426C49.1311 48.1654 48.9737 48.1989 48.7689 48.2355C48.8321 48.3234 48.8726 48.3961 48.9282 48.4555C49.3131 48.8657 49.7057 49.269 50.0849 49.6843C50.2126 49.824 50.3428 49.8809 50.535 49.8632C51.2094 49.8006 51.8845 49.7494 52.5602 49.7026C52.8807 49.6805 53.2024 49.6767 53.5235 49.6704C53.7258 49.666 53.9072 49.7273 54.0627 49.8613C54.2795 50.0484 54.2789 50.2077 54.0639 50.4061C53.8832 50.573 53.6626 50.6128 53.4274 50.623C52.923 50.6444 52.4186 50.6672 51.9142 50.6982C51.6784 50.7127 51.4439 50.7462 51.1557 50.7765C51.253 50.8947 51.3112 50.9744 51.3788 51.0458C51.8523 51.5464 52.332 52.0407 52.7979 52.5477C52.9338 52.6956 53.0697 52.7657 53.2732 52.7512C53.6967 52.7215 54.1215 52.7013 54.5456 52.7006C54.7118 52.7006 54.8895 52.7379 55.0418 52.8043C55.2169 52.8802 55.3294 53.035 55.3174 53.2436C55.3054 53.4528 55.1726 53.5824 54.99 53.6456C54.8635 53.6892 54.722 53.6987 54.5861 53.705C54.3813 53.7145 54.1758 53.7076 53.9173 53.7076C53.9881 53.815 54.0336 53.8858 54.081 53.9553C54.2043 54.1349 54.3376 54.3074 54.4483 54.4939C54.526 54.6247 54.5007 54.7638 54.3851 54.87C54.2675 54.9774 54.1272 54.9806 54.0045 54.8927C53.8377 54.7726 53.6815 54.6367 53.5286 54.4989C53.3952 54.3782 53.2726 54.2455 53.0981 54.071C53.0513 54.3453 53.0204 54.5558 52.9786 54.7644C52.9477 54.9212 52.9173 55.0811 52.8604 55.2296C52.7903 55.4117 52.6462 55.4951 52.4875 55.4749C52.3029 55.4515 52.2012 55.3295 52.1664 55.1607C52.1411 55.0387 52.1335 54.9085 52.1462 54.7846C52.1879 54.3738 52.2321 53.9629 52.2966 53.5559C52.3301 53.3435 52.2884 53.193 52.1278 53.0375C51.6411 52.5666 51.1734 52.0761 50.6968 51.5951C50.6367 51.5344 50.5666 51.4826 50.4699 51.4004C50.4079 51.8846 50.3605 52.3252 50.2916 52.7626C50.2309 53.1475 50.1532 53.5306 50.0672 53.9105C50.0375 54.0413 49.9813 54.1772 49.9004 54.2828C49.7562 54.4711 49.5281 54.43 49.4427 54.2075C49.4067 54.114 49.3934 54.0053 49.3966 53.9048C49.408 53.5837 49.4295 53.2632 49.4528 52.9427C49.504 52.2443 49.5565 51.5464 49.6128 50.848C49.6324 50.6059 49.5774 50.4042 49.3934 50.2273C49.0717 49.9163 48.7676 49.5869 48.4541 49.2671C48.4017 49.214 48.3397 49.1704 48.243 49.0901C48.1868 49.5572 48.1431 49.975 48.0844 50.391C47.9756 51.1634 47.8631 51.9358 47.7418 52.7063C47.7152 52.8738 47.6583 53.0413 47.5875 53.1962C47.5035 53.3801 47.3524 53.4452 47.1975 53.3985C47.0275 53.3466 46.9599 53.2139 46.9712 53.054C46.9978 52.6766 47.0408 52.2999 47.0762 51.9232C47.1824 50.8031 47.281 49.683 47.3992 48.5642C47.427 48.2994 47.3562 48.1142 47.1685 47.9264C46.7051 47.4644 46.2646 46.9802 45.8133 46.5061C45.7361 46.4252 45.654 46.3494 45.537 46.235C45.5042 46.3803 45.4763 46.4764 45.4605 46.5744C45.2317 48.0017 45.0092 49.4308 44.7735 50.8568C44.7039 51.2746 44.5996 51.6874 44.5042 52.1008C44.4814 52.2 44.4422 52.2986 44.3917 52.3871C44.324 52.5059 44.2141 52.573 44.0737 52.5357C43.9366 52.4996 43.8651 52.396 43.8557 52.2575C43.85 52.1785 43.8563 52.097 43.8677 52.018C44.1477 50.0876 44.3152 48.1414 44.7014 46.2261C44.7216 46.1269 44.7242 46.0245 44.7387 45.8886C44.228 45.8127 43.7311 45.7464 43.2368 45.6629C41.6756 45.4006 40.1156 45.1358 38.5568 44.8602C38.3729 44.8279 38.2724 44.8539 38.1599 45.0138C36.9911 46.6755 35.8129 48.3304 34.6372 49.9877C34.5525 50.1078 34.4678 50.2279 34.373 50.3613C34.605 50.5522 34.8174 50.7253 35.0272 50.9011C36.2263 51.901 37.426 52.9004 38.6207 53.9054C38.7402 54.0059 38.8438 54.1361 38.9228 54.2714C39.0082 54.4174 39.0056 54.5836 38.8874 54.7227C38.7768 54.8529 38.6175 54.8655 38.4747 54.8213C38.3375 54.7783 38.2003 54.7025 38.0897 54.6095C36.9652 53.6639 35.8471 52.7108 34.7245 51.7632C34.4887 51.5641 34.2416 51.3789 33.9691 51.164C33.9426 51.2582 33.9141 51.3157 33.9122 51.3745C33.8888 52.0401 33.8756 52.7057 33.844 53.3707C33.8345 53.5679 33.9091 53.6785 34.0652 53.7916C35.3117 54.693 36.5512 55.6026 37.7901 56.5153C37.9273 56.6164 38.055 56.7372 38.1637 56.8686C38.3489 57.0911 38.3697 57.3168 38.2446 57.4641C38.1251 57.6044 37.9197 57.6291 37.6732 57.5052C37.5208 57.4287 37.3786 57.3275 37.2415 57.2251C36.22 56.4635 35.2017 55.698 34.1815 54.9351C34.0835 54.8618 33.9773 54.8004 33.8326 54.7063C33.8181 55.0514 33.8035 55.3447 33.7934 55.6386C33.7814 55.9831 33.7864 56.3282 33.7586 56.6708C33.7416 56.8832 33.8345 57.0039 33.9843 57.1322C34.6809 57.7302 35.3705 58.337 36.0569 58.947C36.1751 59.0519 36.2895 59.1752 36.3647 59.3123C36.4659 59.495 36.531 59.7194 36.373 59.8932C36.2118 60.0708 35.9855 60.0095 35.7959 59.9223C35.6638 59.8616 35.5481 59.7586 35.4368 59.6619C34.9432 59.232 34.4546 58.7972 33.9622 58.3667C33.9053 58.3174 33.8358 58.282 33.7378 58.2175C33.7264 58.3661 33.7125 58.4767 33.7093 58.5873C33.6897 59.2757 33.679 59.9646 33.6512 60.653C33.6436 60.8331 33.7036 60.952 33.8345 61.0683C34.1689 61.3654 34.4925 61.6757 34.818 61.9829C34.9634 62.1201 35.0702 62.2794 35.0822 62.4886C35.1018 62.8457 34.8553 63.0606 34.5108 62.9582C34.3756 62.9178 34.2523 62.8185 34.1398 62.7256C33.9641 62.5809 33.8016 62.4197 33.6012 62.2357C33.5861 62.352 33.5747 62.4582 33.5589 62.5632C33.5336 62.7332 33.5178 62.9058 33.4748 63.0714C33.4205 63.28 33.3061 63.3716 33.148 63.3703C32.9887 63.3691 32.8756 63.2743 32.8377 63.06C32.8042 62.8691 32.801 62.6725 32.7928 62.4785C32.7858 62.3084 32.7915 62.1384 32.7915 61.8982C32.6474 61.9974 32.5501 62.0657 32.4515 62.1327C32.2618 62.2616 32.0792 62.4032 31.8801 62.5158C31.6734 62.6327 31.4951 62.6049 31.3756 62.4728C31.2461 62.3293 31.2499 62.1422 31.4085 61.9405C31.5002 61.8242 31.6089 61.718 31.7246 61.6258C32.0292 61.3824 32.3396 61.1454 32.6537 60.914C32.7745 60.8249 32.8326 60.7244 32.8326 60.5689C32.8326 59.811 32.844 59.0532 32.8497 58.2959C32.8497 58.2643 32.837 58.2327 32.8212 58.1556C32.7163 58.2327 32.6291 58.2965 32.5419 58.3604C32.0052 58.7542 31.4717 59.1511 30.9307 59.5386C30.8017 59.6315 30.6538 59.7036 30.5059 59.763C30.3744 59.8161 30.2265 59.8218 30.1285 59.6916C30.0318 59.5626 30.0697 59.4267 30.1633 59.3117C30.2493 59.2049 30.339 59.0974 30.4427 59.0083C31.1456 58.3996 31.8484 57.7909 32.5608 57.1935C32.758 57.0279 32.8863 56.8509 32.8838 56.5842C32.8781 56.0596 32.8819 55.5349 32.8819 54.9661C32.7783 55.0362 32.6955 55.0862 32.619 55.1443C31.7878 55.777 30.9597 56.4135 30.1254 57.0412C29.9617 57.1645 29.7796 57.2719 29.5919 57.3516C29.4857 57.3964 29.3409 57.4009 29.2297 57.3686C29.0584 57.3181 29.0015 57.1025 29.1071 56.9375C29.1671 56.844 29.2581 56.7662 29.346 56.6942C30.4787 55.7587 31.6133 54.8245 32.7479 53.8915C32.8472 53.81 32.9312 53.7341 32.9344 53.5843C32.9496 52.7695 32.9748 51.9548 32.9957 51.14C32.9957 51.1185 32.9862 51.0964 32.9692 51.0237C32.856 51.0945 32.7517 51.1514 32.6563 51.2209C31.6437 51.9554 30.6361 52.6975 29.6184 53.425C29.1425 53.7651 28.6494 54.0811 28.1596 54.4003C28.0559 54.468 27.9345 54.5331 27.8157 54.5451C27.7171 54.5546 27.5844 54.5103 27.5148 54.4414C27.4175 54.3447 27.4421 54.2031 27.5287 54.0944C27.585 54.0236 27.657 53.9636 27.7291 53.9079C28.6387 53.2076 29.5451 52.5028 30.4623 51.8132C31.0672 51.3581 31.6892 50.9238 32.3036 50.4807C32.4148 50.4005 32.5273 50.3227 32.6784 50.2159C32.0242 49.3316 31.3693 48.4663 30.7366 47.5851C30.1077 46.7097 29.5002 45.8184 28.8757 44.9227C26.6678 45.2963 24.4454 45.6718 22.1964 46.0523C22.1964 46.1351 22.1895 46.2242 22.1977 46.3121C22.3513 48.0036 22.508 49.695 22.661 51.3871C22.6762 51.5578 22.6882 51.7329 22.6667 51.901C22.6376 52.133 22.4467 52.3138 22.2691 52.3169C22.1054 52.3201 21.9082 52.1671 21.8532 51.9567C21.8096 51.7917 21.8007 51.6172 21.7856 51.4466C21.6395 49.8006 21.4961 48.154 21.35 46.508C21.345 46.4537 21.3248 46.4012 21.3033 46.3127C21.2192 46.3721 21.1535 46.4088 21.1004 46.4581C20.6314 46.8974 20.1687 47.3449 19.694 47.7779C19.5416 47.9163 19.5031 48.0465 19.5372 48.2558C19.785 49.7734 20.0182 51.293 20.2439 52.8138C20.2755 53.0249 20.2572 53.2493 20.2274 53.4629C20.2047 53.6266 20.1036 53.7607 19.919 53.7923C19.7565 53.8201 19.601 53.7354 19.5132 53.5375C19.4443 53.382 19.3937 53.2133 19.3691 53.0451C19.1775 51.7398 18.9949 50.4327 18.8078 49.1268C18.7907 49.0073 18.7572 48.8897 18.7224 48.7311C18.6093 48.8278 18.5303 48.8898 18.4576 48.958C18.0815 49.3126 17.7149 49.6773 17.3287 50.0199C17.1466 50.1811 17.0961 50.3455 17.115 50.5882C17.1909 51.5376 17.2389 52.4889 17.2977 53.4395C17.3122 53.6797 17.2516 53.8946 17.0815 54.0716C16.9166 54.2429 16.7674 54.2575 16.6125 54.0792C16.5114 53.9629 16.4324 53.8131 16.3888 53.6652C16.3439 53.5148 16.3502 53.3479 16.3407 53.188C16.3085 52.6494 16.2813 52.1109 16.2472 51.5724C16.2389 51.439 16.2118 51.3069 16.1871 51.1312C16.098 51.2038 16.0436 51.2418 15.9962 51.2866C15.4627 51.7917 14.9337 52.3018 14.3951 52.8011C14.2649 52.9219 14.2125 53.0426 14.2238 53.2208C14.251 53.6443 14.2611 54.0697 14.2681 54.4939C14.2706 54.6298 14.2618 54.772 14.2232 54.9009C14.1486 55.1525 13.9261 55.3137 13.7201 55.296C13.5102 55.2777 13.3263 55.0843 13.2858 54.8257C13.27 54.7246 13.2763 54.6197 13.2757 54.5166C13.2744 54.3232 13.2757 54.1298 13.2757 53.8852C13.1714 53.9528 13.1006 53.9964 13.0317 54.0445C12.8528 54.1683 12.6803 54.3017 12.4957 54.4161C12.3674 54.4958 12.2271 54.4844 12.1158 54.3731C11.9907 54.248 11.997 54.0931 12.0899 53.9635C12.2163 53.7872 12.3655 53.6267 12.5115 53.4655C12.624 53.3416 12.7473 53.2278 12.9078 53.0679C12.6423 53.0255 12.4413 53.0009 12.2435 52.9604C12.0646 52.9238 11.8838 52.8839 11.7138 52.8201C11.5615 52.7632 11.4844 52.6324 11.5002 52.463C11.516 52.2923 11.6247 52.188 11.7795 52.1526C11.9116 52.1223 12.0539 52.1109 12.1891 52.1235C12.5659 52.1589 12.9426 52.1994 13.3155 52.2613C13.5835 52.3062 13.7883 52.2651 13.9881 52.0527C14.4286 51.585 14.8989 51.1457 15.3553 50.6931C15.4242 50.6248 15.4855 50.5477 15.5784 50.4434C15.1145 50.3846 14.696 50.3417 14.2807 50.2766C13.8844 50.2146 13.49 50.1362 13.0981 50.0515C12.966 50.0231 12.825 49.9757 12.722 49.8935C12.6474 49.8341 12.5899 49.6995 12.5994 49.6059C12.6069 49.5307 12.7157 49.4384 12.7997 49.4055C12.9015 49.3657 13.026 49.3664 13.1392 49.3733C13.6891 49.4049 14.239 49.4416 14.7883 49.4814C15.2459 49.5149 15.7029 49.5572 16.1606 49.5907C16.3483 49.6046 16.5266 49.5762 16.6707 49.4352C17.0487 49.0661 17.4279 48.6989 17.8053 48.3297C17.8268 48.3082 17.8343 48.2728 17.8622 48.2147C17.4595 48.166 17.0752 48.1262 16.6922 48.0725C15.9084 47.9631 15.1252 47.85 14.342 47.7324C14.1954 47.7103 14.0494 47.6711 13.9097 47.6212C13.6341 47.5238 13.5247 47.3708 13.5728 47.1781C13.617 47.0011 13.7719 46.9233 14.0506 46.948C14.4621 46.9846 14.873 47.0257 15.2845 47.0662C16.3236 47.1673 17.3641 47.2634 18.402 47.3753C18.6636 47.4037 18.852 47.3399 19.041 47.1496C19.5353 46.654 20.053 46.1819 20.5612 45.6996C20.6099 45.6534 20.6541 45.6016 20.7262 45.5245C20.6276 45.4935 20.5587 45.4632 20.4872 45.4512C19.06 45.2217 17.6321 44.9992 16.2061 44.7628C15.7655 44.6901 15.33 44.5833 14.8939 44.4853C14.7946 44.4632 14.696 44.424 14.6056 44.3773C14.4855 44.3147 14.4097 44.2104 14.4356 44.0681C14.4647 43.9114 14.5803 43.8406 14.7295 43.8223C14.7858 43.8153 14.8446 43.8204 14.9008 43.828C16.3338 44.0208 17.7667 44.2091 19.1984 44.4108C19.7091 44.4828 20.2154 44.5865 20.7243 44.6737C20.8254 44.6908 20.9278 44.7002 21.0605 44.7167C21.4139 42.5612 21.7653 40.4178 22.1155 38.2826C20.2913 36.9868 18.4595 35.6854 16.5727 34.3453C16.5461 34.3908 16.519 34.4559 16.4753 34.5084C15.3458 35.8687 14.2144 37.227 13.0835 38.586C12.9502 38.7466 12.8136 38.8989 12.5905 38.9356C12.3029 38.983 12.0943 38.8205 12.1424 38.5361C12.1708 38.3667 12.265 38.1897 12.3775 38.0557C13.3269 36.9198 14.2889 35.7934 15.2434 34.662C15.4337 34.4363 15.6094 34.198 15.8224 33.9262C15.6953 33.9079 15.6227 33.8908 15.5493 33.8883C14.9071 33.8656 14.2643 33.8491 13.6221 33.822C13.4356 33.8137 13.3124 33.8618 13.1935 34.0261C12.301 35.265 11.3978 36.4957 10.4901 37.7232C10.3624 37.8964 10.205 38.0538 10.0375 38.1891C9.85672 38.3345 9.66014 38.3338 9.5274 38.234C9.38012 38.1227 9.3403 37.9375 9.44902 37.7024C9.52487 37.5374 9.6279 37.3825 9.73662 37.2359C10.5046 36.2049 11.2777 35.1778 12.0469 34.1481C12.1139 34.0583 12.1708 33.9604 12.2555 33.8308C12.1493 33.8156 12.0773 33.7986 12.0046 33.796C11.4426 33.7771 10.8794 33.7695 10.3181 33.7404C10.1146 33.7303 9.9825 33.7954 9.84976 33.9509C9.2379 34.6658 8.61276 35.3693 7.99078 36.076C7.8277 36.2612 7.6406 36.4066 7.38081 36.4281C7.08689 36.4521 6.95731 36.3181 6.98513 36.0172C7.00598 35.7871 7.12861 35.6133 7.27778 35.4471C7.71519 34.9603 8.14691 34.4686 8.57863 33.9768C8.63804 33.9092 8.68608 33.8314 8.7613 33.7278C8.66017 33.7107 8.58811 33.6905 8.51542 33.6879C7.79231 33.6658 7.06919 33.6525 6.34671 33.6222C6.15519 33.614 6.02687 33.6734 5.90172 33.8156C5.61412 34.1431 5.31893 34.4661 5.00731 34.7701C4.88152 34.8927 4.71402 35.0065 4.54715 35.0444C4.14134 35.1367 3.87397 34.7998 4.03515 34.4149C4.08635 34.2929 4.18875 34.1898 4.27851 34.0874C4.42073 33.9237 4.5718 33.7682 4.74057 33.5856C4.64955 33.5704 4.56738 33.5571 4.48457 33.5426C4.27029 33.5059 4.05348 33.4806 3.843 33.4282C3.70141 33.3928 3.60091 33.2872 3.60091 33.1292C3.60091 32.9535 3.71658 32.8529 3.87397 32.8207C4.0301 32.7891 4.19191 32.779 4.35183 32.7739C4.57559 32.7664 4.79998 32.772 5.09075 32.772C4.91819 32.5337 4.78102 32.3549 4.65587 32.1671C4.56737 32.0344 4.47888 31.8972 4.41947 31.75C4.36005 31.6039 4.3828 31.4516 4.51554 31.3429C4.64575 31.2367 4.79682 31.2285 4.93146 31.3201C5.0623 31.4093 5.19251 31.5117 5.29238 31.6336C5.5547 31.9529 5.80375 32.2828 6.05089 32.6134C6.13876 32.731 6.23104 32.7999 6.38969 32.8005C7.15895 32.803 7.92821 32.8169 8.69683 32.8258C8.72654 32.8258 8.75625 32.8093 8.82261 32.7897C8.74234 32.6842 8.67471 32.5982 8.6096 32.5097C8.2038 31.9535 7.7942 31.4004 7.39725 30.8385C7.30623 30.7095 7.23101 30.5572 7.19877 30.4042C7.17918 30.3126 7.23227 30.1805 7.29675 30.1027C7.38018 30.0022 7.51545 30.0288 7.6109 30.1027C7.75501 30.2152 7.89787 30.3341 8.01733 30.4719C8.61908 31.1653 9.21515 31.8637 9.80805 32.5654C9.96544 32.7518 10.1437 32.8612 10.3972 32.8586C10.8561 32.8542 11.3156 32.8675 11.7745 32.8713C11.8383 32.8713 11.9022 32.8586 12.0115 32.8466C11.9243 32.7246 11.8623 32.6336 11.7953 32.5464C11.1898 31.7525 10.5798 30.9617 9.97934 30.1634C9.84913 29.9902 9.74168 29.798 9.64117 29.6053C9.59566 29.518 9.57164 29.4068 9.57733 29.3088C9.58997 29.0762 9.82764 28.9523 10.0318 29.0762C10.1361 29.1394 10.2189 29.2437 10.2985 29.3398C11.2271 30.4636 12.1537 31.5888 13.0798 32.7152C13.1689 32.8239 13.2548 32.9105 13.4173 32.9136C14.1979 32.9282 14.9779 32.9554 15.7586 32.9762C15.8117 32.9775 15.8654 32.9674 15.9747 32.9579C15.8843 32.8213 15.8211 32.7171 15.7503 32.6191C15.0354 31.6343 14.313 30.6552 13.6063 29.6647C13.2466 29.1609 12.9104 28.6394 12.5709 28.1211C12.5027 28.0174 12.4357 27.8948 12.4262 27.7766C12.4186 27.6799 12.4761 27.5573 12.5444 27.4814C12.631 27.386 12.7612 27.4106 12.8592 27.4859C12.9394 27.5478 13.0109 27.6256 13.0734 27.7065C13.7529 28.5889 14.4369 29.4675 15.1056 30.3581C15.5879 31.0003 16.0493 31.6583 16.5196 32.31C16.5929 32.4118 16.6643 32.5141 16.7471 32.6324C18.5195 31.3581 20.2755 30.0958 22.0498 28.8208C21.68 26.6338 21.3039 24.4107 20.9221 22.1548C20.4841 22.194 20.0524 22.2319 19.6206 22.2705C18.4317 22.376 17.2433 22.481 16.0544 22.5872C15.8256 22.6074 15.598 22.6377 15.3692 22.6523C15.256 22.6592 15.1372 22.6573 15.0279 22.6314C14.8231 22.5821 14.6777 22.4209 14.6663 22.2604C14.6549 22.0973 14.7731 21.9184 14.971 21.8432C15.0866 21.7989 15.215 21.7768 15.3395 21.768C16.0607 21.7149 16.7832 21.6788 17.5031 21.6163C18.4633 21.5328 19.4222 21.4304 20.381 21.3337C20.4695 21.3249 20.5555 21.2945 20.668 21.2686C20.62 21.2016 20.5928 21.1523 20.5549 21.1125C20.0915 20.6188 19.6232 20.1289 19.1636 19.6315C19.0499 19.5082 18.9367 19.4709 18.7705 19.4975C17.2301 19.744 15.689 19.988 14.1461 20.2168C13.9261 20.2497 13.691 20.2143 13.4672 20.1808C13.3111 20.1574 13.2011 20.0405 13.1796 19.8755C13.1575 19.7067 13.251 19.5778 13.3907 19.5127C13.5545 19.4362 13.7321 19.3736 13.9103 19.3471C15.1928 19.1568 16.4766 18.9779 17.7598 18.794C17.907 18.7731 18.0524 18.7402 18.2383 18.7055C18.17 18.6157 18.1245 18.5424 18.0663 18.4811C17.7048 18.0961 17.3268 17.7257 16.9823 17.3263C16.7927 17.1063 16.5929 17.0677 16.3192 17.0905C15.4046 17.167 14.4881 17.2156 13.5715 17.2732C13.3345 17.2883 13.1151 17.239 12.9312 17.0766C12.7283 16.8971 12.7245 16.7454 12.9186 16.5551C13.1139 16.3636 13.3591 16.3307 13.617 16.3162C14.2927 16.2782 14.9684 16.2321 15.6442 16.1872C15.6966 16.1834 15.7491 16.1683 15.8382 16.1512C15.7655 16.0621 15.7206 15.9995 15.6688 15.9445C15.172 15.4192 14.6695 14.8984 14.1783 14.3674C14.0589 14.2379 13.9388 14.1784 13.7599 14.1898C13.313 14.2183 12.8655 14.2429 12.4186 14.2385C12.2441 14.2366 12.0469 14.1892 11.9015 14.0969C11.5817 13.894 11.6146 13.4888 11.9565 13.3245C12.0848 13.2625 12.2422 13.248 12.3882 13.2385C12.6038 13.2246 12.8212 13.2347 13.1126 13.2347C12.9963 13.0868 12.9122 12.9876 12.8364 12.882C12.7422 12.7524 12.6423 12.6241 12.5684 12.4832C12.4951 12.3441 12.4887 12.1918 12.6196 12.0723C12.7523 11.9516 12.9009 11.9743 13.0304 12.0672C13.179 12.1741 13.3162 12.2973 13.4508 12.4219C13.5917 12.5527 13.7239 12.693 13.9027 12.8713C13.959 12.5514 14.0007 12.2866 14.0544 12.023C14.0791 11.9004 14.1151 11.7771 14.1663 11.664C14.2289 11.5274 14.3496 11.4598 14.502 11.4693C14.6549 11.4788 14.7738 11.5622 14.8073 11.7063C14.8458 11.8713 14.8711 12.0477 14.8559 12.2145C14.8212 12.6026 14.7681 12.9901 14.7049 13.3751C14.6707 13.5843 14.7036 13.7391 14.866 13.8965C15.361 14.3757 15.8369 14.8744 16.3205 15.3642C16.3742 15.4192 16.4343 15.4679 16.5335 15.557C16.5853 15.1354 16.6195 14.7631 16.6795 14.3952C16.7554 13.9313 16.8477 13.4699 16.945 13.0103C16.9703 12.8902 17.0221 12.7651 17.0954 12.6684C17.2484 12.4661 17.5012 12.5129 17.5663 12.7569C17.6068 12.9092 17.6188 13.0761 17.6081 13.2341C17.5398 14.1841 17.4627 15.1329 17.3856 16.0823C17.3691 16.2839 17.3875 16.4767 17.5322 16.6278C17.9058 17.0172 18.2857 17.4002 18.6643 17.7845C18.6782 17.7984 18.706 17.7991 18.7604 17.8168C18.7781 17.6897 18.7958 17.5683 18.8122 17.447C18.9494 16.435 19.0827 15.4224 19.2256 14.411C19.2509 14.2303 19.2989 14.0508 19.3583 13.8782C19.4525 13.602 19.608 13.4945 19.8008 13.5438C19.9822 13.59 20.0637 13.7695 20.0309 14.0558C20.0208 14.1468 20.0012 14.2372 19.9923 14.3289C19.8583 15.7226 19.7237 17.1164 19.5973 18.5108C19.5878 18.6145 19.6048 18.7567 19.6687 18.8262C20.2439 19.4495 20.8317 20.06 21.4575 20.7174C21.4973 20.5588 21.534 20.4456 21.5529 20.33C21.7438 19.129 21.9252 17.9261 22.1237 16.7258C22.223 16.1265 22.3494 15.5311 22.4707 14.9357C22.4954 14.8137 22.5428 14.6936 22.5959 14.5804C22.654 14.4578 22.759 14.3782 22.9006 14.4022C23.0542 14.4281 23.137 14.5362 23.149 14.6911C23.1547 14.7593 23.1534 14.8295 23.1439 14.8971C22.9157 16.557 22.6888 18.2169 22.4556 19.8761C22.4139 20.1713 22.3456 20.4627 22.2931 20.756C22.2773 20.8438 22.2735 20.9336 22.2634 21.0309C24.4176 21.3837 26.5528 21.7332 28.693 22.084C29.9831 20.268 31.2846 18.4362 32.6392 16.5298C32.5874 16.5026 32.5071 16.4767 32.447 16.4268C31.0956 15.3048 29.7436 14.1835 28.3998 13.0527C28.2569 12.9326 28.1185 12.7689 28.0572 12.5976C27.9472 12.2904 28.1482 12.0609 28.4699 12.1172C28.6286 12.145 28.7923 12.2379 28.9181 12.3435C30.0268 13.272 31.126 14.2119 32.2315 15.1449C32.4831 15.3573 32.7479 15.5551 33.0576 15.7991C33.1272 14.9306 33.1398 14.1241 33.148 13.315C32.607 12.9263 32.0728 12.5489 31.5463 12.1621C30.7417 11.5711 29.9376 10.9782 29.1431 10.3732C28.9832 10.2513 28.8549 10.0806 28.7354 9.91498C28.6437 9.7873 28.6381 9.6318 28.7436 9.49653C28.858 9.35052 29.0217 9.31576 29.1772 9.38402C29.3744 9.47062 29.5666 9.57934 29.7398 9.70765C30.7632 10.4662 31.7802 11.2335 32.8004 11.9971C32.8996 12.071 33.0052 12.1368 33.1411 12.2291C33.1626 12.1159 33.1872 12.0432 33.1891 11.9699C33.2062 11.3846 33.21 10.7986 33.2372 10.214C33.246 10.0205 33.1423 9.92572 33.0178 9.81764C32.308 9.19945 31.6013 8.5781 30.8953 7.95612C30.7189 7.80126 30.5836 7.62175 30.5527 7.37713C30.5147 7.08068 30.6374 6.94035 30.9319 6.95236C31.1645 6.96184 31.3421 7.07815 31.5084 7.22796C31.9869 7.65715 32.4685 8.08318 32.9508 8.50794C33.0343 8.58127 33.1278 8.64195 33.2321 8.72033C33.2549 8.66597 33.277 8.63815 33.2776 8.60971C33.3016 7.84109 33.32 7.07183 33.349 6.30321C33.356 6.12812 33.3098 6.0036 33.1739 5.88476C32.8541 5.60601 32.5444 5.31462 32.2416 5.01627C32.1297 4.90629 32.0273 4.77418 31.9597 4.63322C31.856 4.41831 31.9085 4.19391 32.0558 4.06307C32.1942 3.93981 32.4432 3.91769 32.636 4.03905C32.7599 4.11743 32.8617 4.23058 32.9692 4.33298C33.0855 4.44359 33.1954 4.56116 33.3105 4.67304C33.3231 4.68568 33.3522 4.68189 33.3958 4.69011C33.423 4.49037 33.4464 4.29 33.4786 4.09089C33.4951 3.98975 33.5184 3.88798 33.5545 3.7919C33.6069 3.65158 33.7081 3.56182 33.868 3.5713C34.0292 3.58078 34.1278 3.68824 34.1518 3.8292C34.1885 4.04285 34.196 4.26218 34.2068 4.47962C34.215 4.64712 34.2087 4.81589 34.2087 5.05609C34.4394 4.88858 34.6082 4.75774 34.7851 4.64017C34.928 4.54599 35.0765 4.45813 35.2308 4.3848C35.3679 4.3197 35.5038 4.35384 35.6107 4.46066C35.7314 4.58076 35.7459 4.73752 35.6675 4.87405C35.5892 5.01058 35.4836 5.14079 35.3629 5.24129C35.0544 5.49792 34.7371 5.74507 34.4097 5.97768C34.2321 6.10347 34.1638 6.24379 34.1676 6.46439C34.1815 7.221 34.1733 7.97762 34.1733 8.77974C34.2668 8.71906 34.3389 8.67734 34.4059 8.62804C34.9609 8.22097 35.5121 7.80885 36.0708 7.40684C36.1998 7.31392 36.3483 7.24376 36.4956 7.18244C36.629 7.12619 36.7693 7.12619 36.8717 7.2545C36.9772 7.38724 36.9298 7.51808 36.8394 7.63186C36.7465 7.74816 36.6473 7.86194 36.5348 7.95865C35.8313 8.56609 35.1183 9.16342 34.4211 9.77845C34.2915 9.89286 34.1417 10.066 34.1328 10.2203C34.0987 10.7892 34.1189 11.3618 34.1189 11.9788C34.2264 11.9067 34.3092 11.8568 34.3857 11.7986C35.1884 11.1855 35.988 10.5686 36.7939 9.95986C36.9671 9.82901 37.1574 9.71777 37.3508 9.61916C37.4482 9.56922 37.5714 9.54205 37.6795 9.55026C37.9001 9.56607 38.0196 9.78792 37.9071 9.97882C37.8394 10.0932 37.7307 10.1874 37.6258 10.274C36.5025 11.2032 35.3768 12.1298 34.251 13.0558C34.1512 13.138 34.0677 13.2196 34.0646 13.3656C34.0481 14.1803 34.0247 14.9951 34.0051 15.8099C34.0051 15.8307 34.0184 15.8522 34.0393 15.9161C34.1373 15.856 34.2333 15.8067 34.3193 15.7441C35.3047 15.0299 36.2838 14.308 37.2743 13.6007C37.7876 13.2341 38.3173 12.8909 38.8444 12.5438C38.9481 12.4756 39.0688 12.4263 39.1883 12.3934C39.3204 12.3574 39.4614 12.3978 39.5043 12.5318C39.5341 12.6254 39.5018 12.7486 39.4696 12.8498C39.4513 12.9079 39.3824 12.9547 39.328 12.9952C37.9089 14.0678 36.4893 15.1405 35.0671 16.2093C34.8389 16.3806 34.5987 16.5361 34.3225 16.7277C34.9805 17.6176 35.6347 18.4824 36.2674 19.3635C36.897 20.2396 37.5044 21.1308 38.1264 22.0227C40.3387 21.6485 42.5624 21.2724 44.8202 20.89C44.8019 20.6776 44.7842 20.4633 44.7646 20.2497C44.6331 18.775 44.5017 17.2997 44.3689 15.825C44.3525 15.6424 44.3222 15.4603 44.312 15.277C44.2937 14.9395 44.4694 14.6588 44.7039 14.6329C44.9498 14.6057 45.1673 14.8668 45.1982 15.2283C45.3354 16.8408 45.4707 18.4533 45.6097 20.0651C45.6255 20.2459 45.659 20.4248 45.6894 20.6416C45.781 20.5746 45.848 20.536 45.903 20.4842C46.372 20.0449 46.8335 19.5967 47.3107 19.1656C47.4681 19.0234 47.4971 18.8818 47.4655 18.6821C47.2209 17.1411 46.982 15.5988 46.7525 14.0552C46.7247 13.8675 46.7506 13.6671 46.7791 13.4768C46.8044 13.3087 46.9087 13.1816 47.0894 13.1494C47.2468 13.1216 47.4118 13.2101 47.4908 13.4104C47.5692 13.6108 47.6229 13.8257 47.6533 14.0394C47.8043 15.0842 47.9421 16.131 48.0907 17.1758C48.1368 17.5026 48.2007 17.8275 48.2632 18.196C48.3555 18.1341 48.4225 18.1012 48.4744 18.0519C48.8846 17.667 49.286 17.2725 49.7025 16.8945C49.8542 16.7567 49.9035 16.6158 49.8884 16.4135C49.8188 15.4869 49.7626 14.559 49.705 13.631C49.6899 13.3883 49.7012 13.1494 49.8618 12.9427C50.0622 12.6848 50.2354 12.6778 50.4496 12.9206C50.6045 13.0957 50.6367 13.3055 50.6494 13.528C50.6867 14.1923 50.7309 14.8567 50.7733 15.521C50.7783 15.5987 50.7922 15.6759 50.8074 15.7947C50.894 15.7346 50.9604 15.6999 51.0128 15.6499C51.5476 15.1462 52.0767 14.6361 52.6152 14.1361C52.7359 14.0242 52.7859 13.9098 52.777 13.7461C52.7524 13.3106 52.7271 12.8744 52.7328 12.4383C52.7353 12.2512 52.7732 12.0413 52.8661 11.8833C53.0678 11.5407 53.485 11.5742 53.655 11.9351C53.7112 12.054 53.7245 12.1994 53.7321 12.334C53.7441 12.5596 53.7353 12.7859 53.7353 13.0742C53.8851 12.9598 53.9875 12.8757 54.0956 12.8005C54.2365 12.7025 54.3768 12.6026 54.5266 12.5205C54.6606 12.4471 54.7978 12.4705 54.9021 12.5875C55.0077 12.7057 55.0064 12.846 54.9204 12.9692C54.8155 13.1191 54.6973 13.2606 54.5734 13.3946C54.435 13.5444 54.2833 13.6822 54.0873 13.8738C54.3225 13.9123 54.4969 13.9389 54.6701 13.9698C54.8395 14.0008 55.0108 14.0242 55.1752 14.0735C55.4116 14.1443 55.5355 14.3118 55.5089 14.4913C55.4843 14.6632 55.3427 14.784 55.1138 14.8124C55.0007 14.8263 54.8838 14.8314 54.7706 14.8194C54.4173 14.7821 54.0621 14.7505 53.7125 14.6873C53.4325 14.6367 53.2163 14.6664 53.009 14.8971C52.5185 15.4414 51.9995 15.9603 51.4844 16.4976C51.5267 16.5064 51.5969 16.5241 51.6677 16.5349C52.3813 16.6461 53.0962 16.751 53.8086 16.8699C53.9641 16.8958 54.117 16.9596 54.2605 17.0285C54.3813 17.0867 54.4704 17.2068 54.4103 17.3383C54.3692 17.4274 54.2631 17.5171 54.1682 17.5437C54.0285 17.5822 53.8718 17.5797 53.7239 17.569C52.7966 17.5039 51.87 17.4362 50.9439 17.3585C50.6766 17.3364 50.4465 17.3705 50.2562 17.5797C49.9092 17.9609 49.5552 18.3351 49.1899 18.7282C49.3157 18.7459 49.4769 18.7699 49.6374 18.7921C50.6488 18.9311 51.6614 19.0651 52.6714 19.213C52.8617 19.2409 53.0494 19.3091 53.2283 19.3831C53.3743 19.4438 53.466 19.5658 53.4401 19.7389C53.4173 19.8925 53.2814 19.9937 53.0848 20.0051C53.0286 20.0082 52.9711 19.9968 52.9142 19.9911C51.8516 19.8913 50.7891 19.7927 49.7272 19.6909C49.3391 19.6536 48.9503 19.6144 48.5635 19.5651C48.3448 19.5373 48.1766 19.5797 48.0098 19.7465C47.5313 20.2257 47.0326 20.6846 46.5383 21.1472C46.4555 21.2244 46.3531 21.2806 46.2595 21.3464C46.2759 21.3742 46.2924 21.4013 46.3082 21.4292C46.379 21.45 46.4485 21.4785 46.5206 21.4898C47.8005 21.6953 49.0818 21.8919 50.3605 22.1055C50.937 22.2016 51.5084 22.3274 52.0811 22.4487C52.2024 22.4746 52.3352 22.5138 52.4262 22.5903C52.5014 22.6529 52.5703 22.7882 52.5545 22.876C52.5387 22.9639 52.4249 23.0505 52.3345 23.1029C52.2739 23.1383 52.1765 23.1251 52.0988 23.1131C50.1374 22.8103 48.1545 22.6586 46.2077 22.2553C46.1217 22.2376 46.0307 22.2452 45.9409 22.2408C45.5895 24.388 45.2412 26.5137 44.8904 28.659C46.6988 29.9441 48.5382 31.2512 50.4231 32.59C50.4617 32.535 50.5021 32.4661 50.552 32.4061C51.6753 31.0553 52.7991 29.7058 53.923 28.3556C54.0639 28.1862 54.2093 28.0244 54.4502 28.0023C54.7137 27.9776 54.8661 28.1135 54.868 28.3784C54.8692 28.5889 54.7574 28.7437 54.6284 28.8961C53.6114 30.0958 52.5969 31.2967 51.5836 32.4996C51.4528 32.6545 51.3352 32.8207 51.1759 33.028C51.3226 33.0401 51.4085 33.0502 51.4939 33.0527C52.1247 33.0748 52.7561 33.0913 53.387 33.1184C53.5747 33.1266 53.6967 33.0754 53.8149 32.9117C54.7074 31.6728 55.6094 30.4415 56.5184 29.2153C56.6524 29.0339 56.8256 28.8752 57.0013 28.7323C57.141 28.6192 57.3199 28.5889 57.4804 28.7115C57.6435 28.836 57.6447 29.0193 57.5777 29.1818C57.5044 29.3594 57.4001 29.5288 57.2851 29.6836C56.5184 30.7152 55.744 31.7417 54.9742 32.7714C54.9008 32.87 54.8389 32.9775 54.7517 33.1121C54.8755 33.1285 54.9609 33.1469 55.0469 33.15C55.6094 33.1677 56.172 33.1747 56.7333 33.2012C56.9172 33.2101 57.0266 33.138 57.1403 33.0059C57.7547 32.2929 58.378 31.5875 58.9993 30.8808C59.1536 30.7057 59.3267 30.5597 59.5688 30.5199C59.8861 30.4681 60.0239 30.5888 60.0157 30.9055C60.01 31.1412 59.888 31.3144 59.7395 31.4807C59.3109 31.9598 58.8849 32.4408 58.4601 32.9237C58.3875 33.0065 58.3268 33.1007 58.2326 33.2271C58.3186 33.2398 58.3584 33.2499 58.3988 33.2512C59.1561 33.2733 59.914 33.2897 60.6706 33.3188C60.8476 33.3258 60.9702 33.2752 61.0877 33.1406C61.3671 32.8207 61.6585 32.511 61.9562 32.2082C62.0669 32.0957 62.1983 31.9939 62.3387 31.925C62.546 31.8233 62.7837 31.8783 62.9107 32.0205C63.0403 32.1652 63.0656 32.3997 62.9366 32.5982C62.845 32.7398 62.7122 32.8561 62.594 32.98C62.4847 33.0938 62.3703 33.2025 62.2167 33.3542C62.4948 33.3921 62.716 33.4174 62.9353 33.4547C63.0359 33.4718 63.1515 33.4882 63.2249 33.5483C63.3039 33.6127 63.3873 33.729 63.3854 33.8207C63.3829 33.9117 63.2956 34.0331 63.2116 34.0817C63.1092 34.1405 62.9714 34.1538 62.8475 34.1582C62.5637 34.1683 62.2786 34.1614 61.9189 34.1614C62.0302 34.3226 62.106 34.4288 62.1787 34.5368C62.3064 34.7271 62.4461 34.911 62.5561 35.1114C62.6629 35.3067 62.632 35.4667 62.5055 35.5849C62.3747 35.7068 62.1819 35.7151 62.0005 35.5785C61.8734 35.4831 61.7571 35.3674 61.6573 35.2435C61.4126 34.9395 61.1794 34.6266 60.9449 34.315C60.8652 34.2088 60.7818 34.1405 60.6345 34.1399C59.8539 34.1386 59.0733 34.126 58.2926 34.119C58.2737 34.119 58.2541 34.138 58.201 34.1652C58.2661 34.2543 58.3293 34.3415 58.3931 34.4288C58.7983 34.985 59.2073 35.5387 59.6055 36.1C59.6902 36.2195 59.7502 36.3611 59.7989 36.5001C59.8419 36.6234 59.8305 36.7517 59.7117 36.8421C59.5891 36.935 59.4658 36.8996 59.3634 36.8174C59.2294 36.7106 59.0979 36.5962 58.986 36.4673C58.3856 35.7726 57.7889 35.0748 57.196 34.3731C57.0386 34.1873 56.861 34.0767 56.6081 34.0792C56.1372 34.0836 55.6669 34.0723 55.196 34.0691C55.1429 34.0691 55.0892 34.0811 54.99 34.0925C55.0835 34.2202 55.1537 34.3194 55.227 34.4155C55.8262 35.1999 56.4286 35.9818 57.0228 36.7707C57.153 36.9439 57.2661 37.1335 57.3641 37.3269C57.4855 37.5665 57.4545 37.751 57.3066 37.8553C57.1473 37.9678 56.9634 37.9147 56.7756 37.6897C56.1802 36.9755 55.5867 36.2599 54.995 35.5425C54.6372 35.1083 54.2845 34.6702 53.9312 34.2322C53.8351 34.1127 53.7397 34.0248 53.5627 34.0223C52.7934 34.0116 52.0248 33.9831 51.2562 33.9616C51.2012 33.9604 51.1462 33.968 51.0343 33.9743C51.1184 34.107 51.1778 34.212 51.248 34.3093C51.9825 35.3219 52.7245 36.3295 53.4521 37.3478C53.7921 37.8237 54.1076 38.3167 54.4268 38.8073C54.4944 38.9109 54.5437 39.0317 54.5766 39.1518C54.6126 39.2832 54.569 39.4002 54.4426 39.4754C54.3256 39.5449 54.2175 39.5139 54.1234 39.4393C54.0526 39.3831 53.9919 39.3117 53.9363 39.2396C53.2359 38.33 52.5318 37.4236 51.8415 36.5064C51.3864 35.9015 50.9522 35.2802 50.5091 34.6658C50.4288 34.5545 50.351 34.442 50.2575 34.3087C48.4794 35.5861 46.7152 36.8541 44.9542 38.1195C45.3265 40.3173 45.7014 42.5315 46.0825 44.7824L46.0819 44.7849ZM34.0064 17.7169C33.9868 17.7251 33.9672 17.7327 33.947 17.7409C33.8149 22.1953 33.6828 26.649 33.55 31.1033C33.5734 31.109 33.5974 31.1153 33.6208 31.121C33.6695 31.0376 33.722 30.9567 33.7656 30.8713C34.4862 29.4605 35.1549 28.0257 35.763 26.5624C36.2605 25.3652 36.744 24.1611 37.2901 22.986C37.4785 22.5815 37.4507 22.3413 37.1789 21.9898C36.1688 20.682 35.2049 19.3388 34.2232 18.0089C34.1512 17.9116 34.0785 17.8142 34.0058 17.7175L34.0064 17.7169ZM49.2853 33.9477C49.2152 33.9225 49.1861 33.9035 49.157 33.9022C44.7311 33.7828 40.3058 33.6639 35.8799 33.5464C35.873 33.5464 35.8622 33.5571 35.8591 33.5653C35.8553 33.5748 35.8584 33.5868 35.8584 33.6089C35.933 33.6494 36.012 33.6955 36.0929 33.7366C37.5253 34.4629 38.9784 35.1424 40.462 35.7574C41.6478 36.2486 42.8386 36.7321 44.0029 37.2713C44.3936 37.4521 44.6249 37.4287 44.9681 37.1638C46.293 36.1405 47.6539 35.1632 49.0009 34.1683C49.0888 34.1039 49.1735 34.035 49.2853 33.9477ZM31.868 31.7683C31.8902 31.7506 31.9123 31.7323 31.9344 31.7146C31.8902 31.5742 31.8447 31.4339 31.801 31.293C30.9288 28.4726 29.6633 25.8032 28.64 23.041C28.5843 22.8912 28.4901 22.816 28.3125 22.792C26.9384 22.6049 25.5655 22.4045 24.1932 22.2041C23.6983 22.132 23.2046 22.048 22.7103 21.9696C22.7002 21.986 22.6907 22.0025 22.6806 22.0189C25.7431 25.2691 28.8056 28.5193 31.868 31.7689V31.7683ZM32.9925 49.2178C33.0166 49.2077 33.0399 49.197 33.064 49.1868C33.1436 44.747 33.3604 40.3104 33.3964 35.8623C33.313 35.9382 33.2605 36.0204 33.215 36.1063C31.8112 38.7554 30.7985 41.5796 29.5546 44.3008C29.492 44.4367 29.5078 44.5448 29.6058 44.6762C30.6728 46.0984 31.7296 47.5276 32.7903 48.9549C32.8566 49.044 32.9255 49.1306 32.9925 49.2184V49.2178ZM31.7909 35.1076C31.7745 35.0874 31.7581 35.0672 31.7423 35.0469C31.6986 35.0552 31.6525 35.0577 31.6108 35.0729C30.37 35.516 29.121 35.9388 27.8909 36.4104C26.286 37.026 24.697 37.6828 23.0997 38.3174C22.9195 38.3888 22.8411 38.4963 22.814 38.6954C22.6446 39.9564 22.4613 41.2162 22.2773 42.4753C22.1895 43.0739 22.0896 43.6712 21.9828 44.3494C25.2905 41.2332 28.5407 38.1701 31.7909 35.107V35.1076ZM35.2219 31.9124C35.3793 31.8656 35.4969 31.8321 35.6132 31.7955C37.603 31.1615 39.5353 30.3758 41.467 29.5876C42.2729 29.2589 43.0864 28.9466 43.8955 28.6249C44.0345 28.5693 44.1452 28.5098 44.1717 28.3202C44.41 26.6401 44.6622 24.9619 44.9094 23.2837C44.9384 23.0871 44.965 22.8899 44.9972 22.6611C44.6047 22.9266 35.4255 31.609 35.2226 31.9124H35.2219ZM17.7231 32.9901C18.1833 33.0881 30.8586 33.4225 31.1588 33.3441C31.0406 33.2815 30.942 33.229 30.8428 33.1778C29.2335 32.3447 27.5768 31.6147 25.9049 30.9169C24.9214 30.5066 23.9302 30.1116 22.9657 29.6596C22.6035 29.4902 22.3829 29.5092 22.0605 29.7576C20.7249 30.7854 19.3571 31.7714 18.0019 32.7733C17.9153 32.8378 17.8312 32.9054 17.7231 32.9895V32.9901ZM44.3266 44.9822C43.9745 44.4733 35.342 35.3706 35.0658 35.2157C35.0955 35.3194 35.1157 35.4072 35.1448 35.4919C35.3698 36.1544 35.574 36.825 35.8275 37.4767C36.6631 39.6245 37.5177 41.7654 38.3628 43.9101C38.4241 44.0663 38.5233 44.1276 38.6953 44.151C39.9114 44.314 41.1263 44.4879 42.3405 44.6661C42.9859 44.7609 43.6294 44.8709 44.3266 44.9828V44.9822ZM34.5051 36.6531C34.4811 36.6556 34.4565 36.6588 34.4324 36.6613C34.3136 40.9248 33.9868 45.1813 33.9874 49.5168C34.0665 49.4239 34.0987 49.3923 34.1234 49.3556C35.244 47.6907 36.3629 46.0245 37.4873 44.3621C37.5929 44.206 37.579 44.0846 37.4981 43.9228C36.39 41.7035 35.4539 39.4128 34.653 37.0658C34.6056 36.9274 34.5544 36.7902 34.5051 36.6531ZM17.493 33.9743C17.5221 34.0135 17.5272 34.0248 17.536 34.0312C19.2376 35.1797 20.9398 36.3263 22.6401 37.4767C22.7741 37.5671 22.886 37.5513 23.0213 37.4824C23.4094 37.2845 23.8 37.0905 24.1964 36.9097C26.1059 36.0381 28.0471 35.2429 30.0394 34.5779C30.1355 34.5457 30.2271 34.5021 30.3795 34.4401C29.7613 34.3245 18.1466 33.9117 17.493 33.9743ZM33.0058 17.4824C32.9401 17.5304 32.9078 17.5437 32.8914 17.5677C31.7568 19.2516 30.6241 20.9368 29.4876 22.62C29.3953 22.7572 29.4244 22.8678 29.4914 23.0012C30.631 25.283 31.5906 27.6395 32.4053 30.0553C32.4363 30.147 32.4799 30.2348 32.5172 30.3239C32.6771 26.0478 33.0191 21.7907 33.0058 17.4824ZM30.5723 31.9472C27.6634 28.7899 24.8803 25.5409 21.8134 22.4772C21.8209 22.584 21.8197 22.6365 21.8298 22.6864C22.2141 24.6554 22.6016 26.6243 22.9808 28.5945C23.0169 28.7829 23.1193 28.8562 23.2868 28.9119C25.6622 29.702 27.963 30.6729 30.2082 31.7784C30.3283 31.8372 30.4509 31.8915 30.5723 31.9478V31.9472ZM36.4299 34.9957C39.3356 38.1505 42.1155 41.4033 45.1704 44.448C45.1799 44.3697 45.1881 44.3463 45.1843 44.3254C44.7956 42.3343 44.4043 40.3439 44.02 38.3515C43.984 38.1651 43.8828 38.0873 43.7147 38.0317C41.3399 37.2422 39.0404 36.27 36.7946 35.167C36.6738 35.1076 36.5512 35.0526 36.4299 34.9957ZM44.4599 21.8173L44.4227 21.7389C42.412 22.1422 40.4013 22.5467 38.3893 22.9468C38.213 22.9822 38.122 23.0682 38.0632 23.2445C37.2598 25.6522 36.2782 27.9871 35.1505 30.2607C35.1025 30.3575 35.0614 30.4573 35.0171 30.5559C38.1732 27.6388 41.4322 24.8519 44.4599 21.8166V21.8173ZM49.5211 32.9819C49.4585 32.913 49.4459 32.8921 49.4276 32.8795C47.7437 31.7449 46.0585 30.6122 44.3752 29.4751C44.2318 29.3783 44.1117 29.3885 43.9625 29.4656C43.5858 29.6609 43.2046 29.8486 42.819 30.0243C40.8981 30.9004 38.9475 31.7025 36.9425 32.3688C36.8464 32.4004 36.7288 32.4092 36.6416 32.5394C40.9436 32.6488 45.197 32.987 49.5205 32.9813L49.5211 32.9819ZM31.9641 36.4091C28.8094 39.3174 25.5553 42.0954 22.5245 45.1402C22.5706 45.1528 22.582 45.1598 22.5915 45.1579C24.6059 44.7679 26.6204 44.3766 28.6355 43.9873C28.8018 43.955 28.8795 43.8608 28.9326 43.7015C29.7309 41.3028 30.7107 38.9798 31.8289 36.7131C31.8782 36.6139 31.9192 36.5102 31.9641 36.4091Z" fill="white"/>
<path d="M12.7726 10.2322C12.7454 11.1229 12.1784 11.6014 11.3086 11.6285C10.5824 11.6513 9.9648 10.9263 9.97491 10.1197C9.98376 9.39409 10.693 8.74113 11.4559 8.75567C12.1936 8.76958 12.789 9.4377 12.7726 10.2322ZM11.3137 9.42569C10.8617 9.43454 10.5786 9.71455 10.5868 10.1456C10.595 10.5552 11.004 10.9294 11.4376 10.9244C11.8895 10.9193 12.136 10.676 12.1341 10.2563C12.1322 9.80431 11.7062 9.35616 11.3137 9.42569Z" fill="white"/>
<path d="M65.556 32.619C66.3265 32.6089 66.9877 33.2265 66.9997 33.9793C67.0149 34.9021 66.4378 35.4356 65.7172 35.4628C64.9138 35.4931 64.1572 34.7896 64.1584 34.0324C64.1597 33.2656 64.7893 32.6298 65.556 32.6197V32.619ZM65.6736 33.3086C65.2343 33.3086 64.8089 33.6816 64.8038 34.0709C64.7994 34.4217 65.1717 34.7504 65.6028 34.7751C65.6142 34.7757 65.6255 34.777 65.6369 34.777C65.9985 34.7814 66.3904 34.4641 66.4245 34.1405C66.4725 33.686 66.1318 33.3086 65.6736 33.3086Z" fill="white"/>
<path d="M55.7959 58.1215C55.0487 58.1979 54.3851 57.4325 54.4141 56.6417C54.4457 55.7726 54.9748 55.2808 55.8856 55.2505C56.6062 55.2265 57.2383 55.9755 57.2219 56.765C57.2073 57.4603 56.5019 58.1309 55.7959 58.1208V58.1215ZM55.8585 57.4527C56.3186 57.4476 56.6062 57.1784 56.6075 56.7517C56.6087 56.3314 56.1808 55.9407 55.7352 55.9565C55.301 55.9717 55.0456 56.2138 55.05 56.6057C55.0557 57.0766 55.4198 57.4578 55.8585 57.4527Z" fill="white"/>
<path d="M32.4361 1.43353C32.4336 0.637097 33.0297 0.0189163 33.7964 0.000585606C34.7388 -0.0221697 35.2603 0.621931 35.2736 1.28816C35.2894 2.09787 34.5947 2.84184 33.8337 2.83678C33.0512 2.83172 32.4393 2.2167 32.4368 1.43417L32.4361 1.43353ZM34.5852 1.3482C34.5834 0.951248 34.2262 0.561247 33.8691 0.565039C33.431 0.570096 33.1201 0.891835 33.1251 1.3362C33.1302 1.78182 33.5069 2.20595 33.8925 2.20153C34.2458 2.1971 34.5871 1.77676 34.5852 1.3482Z" fill="white"/>
<path d="M58.2098 11.3315C58.1997 12.0818 57.6959 12.6406 56.9747 12.7335C56.2149 12.8308 55.6252 12.4591 55.4141 11.7499C55.2131 11.073 55.4918 10.3992 56.1233 10.1097C56.8199 9.78982 57.4557 9.91813 57.8932 10.5237C58.0727 10.7715 58.2888 11.0142 58.2092 11.3315H58.2098ZM57.5398 11.2695C57.5221 10.8214 57.2244 10.5287 56.8091 10.5515C56.3964 10.5742 56.0443 10.9819 56.055 11.4257C56.0664 11.8801 56.3123 12.1286 56.7307 12.109C57.1738 12.0881 57.6163 11.693 57.5398 11.2695Z" fill="white"/>
<path d="M32.966 66.9663C32.0273 66.9954 31.504 66.3133 31.5116 65.6623C31.5217 64.8526 32.1778 64.1352 32.9319 64.1314C33.7182 64.1269 34.3553 64.7666 34.3503 65.5548C34.3452 66.3399 33.7289 66.9676 32.966 66.9663ZM33.6607 65.6376C33.6562 65.18 33.2504 64.7407 32.8585 64.7704C32.4862 64.7982 32.1746 65.2337 32.205 65.6851C32.2081 65.7306 32.2119 65.7767 32.222 65.821C32.2871 66.1079 32.6367 66.4031 32.9066 66.4018C33.3434 66.3993 33.6645 66.0738 33.66 65.6376H33.6607Z" fill="white"/>
<path d="M0.000510614 32.9547C-0.0203484 32.0261 0.600997 31.4945 1.29124 31.4813C2.0921 31.4661 2.82153 32.1336 2.83354 32.8864C2.84619 33.6772 2.21852 34.3213 1.43283 34.3244C0.657886 34.3276 0.00746362 33.705 0.000510614 32.954V32.9547ZM1.34687 33.6348C1.70716 33.619 1.97706 33.4408 2.14267 33.1001C2.25202 32.8757 2.20525 32.6734 2.05038 32.4951C1.81272 32.2208 1.51058 32.1228 1.15408 32.1955C1.1427 32.1981 1.13132 32.2 1.12058 32.2031C0.844353 32.2815 0.56244 32.6209 0.561808 32.875C0.561808 33.3036 0.898712 33.6386 1.34623 33.6354L1.34687 33.6348Z" fill="white"/>
<path d="M8.9206 55.6974C8.81694 54.9812 9.60768 54.2929 10.4003 54.3232C11.3428 54.3593 11.7707 55.009 11.7814 55.8023C11.7909 56.5261 11.0451 57.1569 10.2613 57.1297C9.55775 57.1051 8.90417 56.4066 8.92123 55.6974H8.9206ZM11.076 55.65C11.0672 55.2145 10.8283 54.9572 10.4351 54.9578C9.96798 54.9591 9.56976 55.3295 9.57418 55.7593C9.57924 56.2227 9.88328 56.5368 10.3099 56.5185C10.7189 56.5008 11.0855 56.0861 11.076 55.65Z" fill="white"/>
</svg>
