<svg width="75" height="75" viewBox="0 0 75 75" fill="none" xmlns="http://www.w3.org/2000/svg">
<path d="M13.4155 12.6291C13.4825 12.4656 13.4443 12.3337 13.4258 12.2034C13.3632 11.7644 13.3669 11.3225 13.3758 10.8814C13.378 10.7893 13.3927 10.6936 13.4199 10.606C13.4663 10.455 13.5628 10.3445 13.7322 10.3372C13.8847 10.3305 13.9856 10.4255 14.0393 10.5551C14.0901 10.6774 14.1292 10.8085 14.1483 10.9389C14.2551 11.6665 14.3685 12.3941 14.4495 13.1247C14.4959 13.5474 14.6683 13.8582 14.9857 14.1513C16.125 15.2052 17.2334 16.293 18.3551 17.3653C18.5856 17.5863 18.8257 17.7969 19.079 18.0289C19.2086 17.8632 19.1556 17.7004 19.149 17.5531C19.0908 16.2687 18.8927 14.999 18.724 13.7264C18.604 12.8242 18.5377 11.9176 18.4677 11.0103C18.4501 10.782 18.4832 10.5529 18.5657 10.3394C18.7491 9.86213 19.2094 9.77301 19.5467 10.1567C19.7868 10.4299 19.9429 10.7599 20.0821 11.0942C20.6042 12.3411 21.0815 13.6056 21.5278 14.8819C22.1766 16.7386 22.8085 18.6018 23.4485 20.4614C23.4912 20.5859 23.5133 20.7199 23.6503 20.8989C23.6503 20.7192 23.6503 20.6073 23.6503 20.4961C23.6569 18.9568 23.6635 17.4176 23.6709 15.8791C23.6724 15.5713 23.6805 15.2642 23.7195 14.9578C23.7549 14.6787 23.7423 14.4098 23.623 14.1351C23.4389 13.7109 23.6304 13.2389 24.02 13.0393C24.3971 12.8463 24.85 12.9627 25.1284 13.3243C25.4119 13.6925 25.3972 14.1698 25.0562 14.4872C24.8927 14.6396 24.8139 14.7877 24.8309 15.0079C24.9281 16.2768 24.8684 17.5494 24.9133 18.8198C24.9597 20.1175 24.9553 21.4152 24.973 22.7128C24.973 22.7533 24.973 22.7931 24.9759 22.8329C24.9966 23.0877 25.0142 23.1149 25.2661 23.0833C25.7971 23.017 26.3266 22.9419 26.8547 22.8601C27.4888 22.7629 28.1199 22.6436 28.7592 22.5869C28.9116 22.5736 29.0405 22.5103 29.1724 22.444C30.6203 21.7201 32.0638 20.9865 33.4748 20.1926C33.5448 20.1536 33.6155 20.1138 33.6906 20.0858C34.7047 19.708 35.5333 19.0084 36.4642 18.4862C36.6063 18.4067 36.6284 18.3235 36.5062 18.21C36.4671 18.174 36.4303 18.1342 36.392 18.0966C34.9559 16.7091 33.6766 15.178 32.3547 13.6866C32.0792 13.3766 31.7986 13.0709 31.5247 12.7594C31.3103 12.5156 31.082 12.3227 30.7469 12.2321C30.308 12.1135 30.0554 11.6738 30.1217 11.2762C30.1865 10.8888 30.5105 10.5795 30.8773 10.5544C31.2801 10.5272 31.7066 10.8026 31.7706 11.2106C31.8207 11.5317 31.9953 11.7364 32.1993 11.9508C33.2863 13.096 34.3402 14.2721 35.3992 15.4431C35.8279 15.9167 36.2837 16.3652 36.7293 16.8277C36.8626 16.7113 36.7786 16.6259 36.7536 16.55C36.009 14.2522 35.0862 12.034 33.8674 9.94093C33.0985 8.6197 32.5189 7.20567 31.9481 5.79017C31.8929 5.65392 31.8546 5.51105 31.848 5.36154C31.8332 5.0397 31.9584 4.82392 32.2228 4.72008C32.5027 4.61034 32.7943 4.67147 32.9785 4.92113C33.3121 5.3748 33.698 5.78428 34.053 6.21953C34.9249 7.28668 35.805 8.3472 36.6814 9.41067C36.7308 9.47032 36.7698 9.5425 36.8641 9.5587C36.951 9.43129 36.9149 9.29431 36.9127 9.16763C36.8928 8.09754 36.8663 7.02744 36.8449 5.95735C36.8368 5.56923 36.8206 5.18037 36.8376 4.79299C36.8508 4.47557 36.7566 4.23621 36.5216 4.0138C36.0068 3.52625 35.5237 3.00557 35.087 2.44511C35.0708 2.42375 35.0516 2.40461 35.0347 2.38398C34.7673 2.04742 34.7703 1.71085 35.0413 1.50169C35.3138 1.29179 35.6342 1.36323 35.9059 1.70496C36.1225 1.97672 36.3279 2.25805 36.5437 2.53128C36.6063 2.61008 36.6483 2.72203 36.8037 2.72718C36.8435 2.37073 36.884 2.04815 36.6048 1.72705C36.199 1.26013 36.2963 0.615713 36.7691 0.229065C37.197 -0.12076 37.8907 -0.062578 38.2619 0.353529C38.622 0.757852 38.6589 1.30653 38.2634 1.69612C37.901 2.05331 37.985 2.42817 38.0329 2.8266C38.1809 2.8568 38.2192 2.75443 38.2766 2.68815C38.5572 2.36483 38.8098 2.01722 39.125 1.72484C39.2223 1.63425 39.3246 1.54514 39.4358 1.4737C39.5772 1.38238 39.7363 1.33893 39.8821 1.46487C40.028 1.59007 40.0096 1.74767 39.9381 1.90528C39.838 2.12622 39.6966 2.32138 39.5485 2.51213C39.1884 2.97758 38.8408 3.45408 38.4652 3.90701C38.1654 4.26862 38.0292 4.64348 38.108 5.1244C38.1706 5.50368 38.1367 5.89843 38.1441 6.28655C38.1713 7.67775 38.1978 9.06895 38.2266 10.4601C38.228 10.5353 38.2008 10.6236 38.3002 10.6914C38.4416 10.6502 38.5204 10.5198 38.6169 10.4167C39.2944 9.69274 39.902 8.91134 40.4934 8.11669C41.1886 7.1821 41.931 6.28582 42.6933 5.40499C42.8612 5.2113 43.0497 5.04118 43.2773 4.92113C43.4931 4.80771 43.7177 4.79004 43.9246 4.93512C44.1338 5.08168 44.1831 5.3041 44.1412 5.54271C44.0764 5.91316 43.9563 6.26814 43.8112 6.61502C43.1919 8.09754 42.5217 9.55575 41.8183 11C41.0981 12.4795 40.3682 13.9547 39.6435 15.4328C39.5846 15.5521 39.5301 15.6736 39.4557 15.8327C39.5868 15.8261 39.6369 15.7465 39.6943 15.6891C40.1414 15.2465 40.5877 14.8031 41.0325 14.3583C41.9597 13.4311 42.9009 12.5186 43.8841 11.6495C44.0189 11.5302 44.1029 11.3925 44.1684 11.2246C44.3408 10.7798 44.765 10.5515 45.1892 10.6494C45.6252 10.7503 45.8969 11.1473 45.8513 11.6142C45.8049 12.0841 45.4919 12.403 45.0014 12.4088C44.7281 12.4118 44.5543 12.5237 44.3813 12.7064C42.6417 14.5424 40.8793 16.3563 39.1015 18.1555C39.0639 18.1938 39.0256 18.2314 38.9903 18.2712C38.8172 18.4663 38.815 18.47 39.0242 18.6424C39.8004 19.2801 40.6635 19.803 41.439 20.4386C41.8647 20.7877 42.342 20.9807 42.8516 21.1515C43.9939 21.5337 45.1406 21.9005 46.299 22.2297C46.7623 22.3615 47.2218 22.5074 47.6615 22.7084C47.9701 22.8491 48.3096 22.8609 48.6307 22.9529C49.0925 23.0855 49.5682 23.1717 50.0381 23.2755C50.3872 23.3528 50.413 23.3359 50.4152 22.9883C50.4196 22.3196 50.4417 21.6516 50.463 20.9829C50.5072 19.6322 50.6236 18.2859 50.7046 16.9382C50.7363 16.4175 50.7149 15.8938 50.7864 15.3754C50.8062 15.2332 50.7466 15.1169 50.6626 15.0064C50.5551 14.8642 50.505 14.6971 50.4896 14.5211C50.4549 14.1359 50.6273 13.8177 50.9535 13.6616C51.2754 13.5069 51.69 13.5695 51.9249 13.8067C52.1886 14.074 52.2748 14.4754 52.0678 14.8031C51.8542 15.1412 51.824 15.5013 51.8086 15.8754C51.8071 15.9152 51.8071 15.9557 51.8064 15.9962C51.7718 17.7615 51.6547 19.5239 51.5781 21.2878C51.5619 21.6707 51.5759 22.0544 51.6355 22.4573C51.7106 22.3078 51.7865 22.1575 51.8616 22.008C52.8455 20.0564 53.7043 18.0546 54.2728 15.938C54.5718 14.8252 54.9371 13.7345 55.3702 12.6673C55.5918 12.1224 55.8143 11.5766 56.061 11.0427C56.2598 10.6126 56.5404 10.4638 56.8718 10.5566C57.2275 10.656 57.3726 10.9411 57.327 11.4227C57.1922 12.847 57.0626 14.2721 56.9278 15.6965C56.891 16.0824 56.8431 16.4675 56.8026 16.8527C56.7886 16.9846 56.7555 17.1171 56.8026 17.2497C56.9241 17.3086 56.9727 17.2025 57.0302 17.1436C58.0634 16.0765 59.0908 15.0034 60.1263 13.9392C60.3642 13.6947 60.4629 13.4274 60.4665 13.0798C60.4739 12.372 60.4938 11.6621 60.5873 10.958C60.5999 10.8652 60.6065 10.7702 60.6359 10.6826C60.7236 10.4218 60.9696 10.2687 61.2266 10.3025C61.4667 10.3342 61.6618 10.5264 61.692 10.7864C61.7186 11.014 61.6699 11.2393 61.6398 11.4647C61.5978 11.7806 61.558 12.0973 61.5551 12.4324C61.8349 12.2255 62.1199 12.0598 62.1531 11.6378C62.2061 10.9617 62.7209 10.5544 63.3513 10.6273C63.8764 10.6877 64.3043 11.162 64.3154 11.6967C64.3264 12.2107 63.953 12.7086 63.4286 12.7071C62.9109 12.7064 62.6561 12.9826 62.4108 13.353C62.4771 13.4797 62.5957 13.4281 62.69 13.4252C63.1311 13.4134 63.5664 13.3184 64.0105 13.3456C64.1725 13.356 64.3338 13.3633 64.4781 13.4406C64.744 13.5828 64.7514 13.8553 64.4877 14.004C64.2749 14.1241 64.0303 14.1521 63.7925 14.1852C63.1694 14.2699 62.5471 14.359 61.9226 14.4275C61.4917 14.4747 61.164 14.6404 60.8598 14.9762C59.9886 15.9373 59.0695 16.8557 58.1717 17.7932C57.8197 18.16 57.4735 18.5326 57.1252 18.9023C57.0802 18.9495 57.0272 18.9944 57.0361 19.1026C57.3837 19.1682 57.7379 19.1247 58.0907 19.1026C59.2536 19.0283 60.3973 18.8 61.5543 18.6821C62.4182 18.5945 63.2806 18.4663 64.1533 18.4818C64.3411 18.4847 64.5282 18.4892 64.7035 18.5724C65.149 18.783 65.2146 19.2102 64.8471 19.5386C64.6659 19.7007 64.4509 19.8119 64.2336 19.9164C63.5332 20.2538 62.8026 20.5167 62.0787 20.7951C59.8295 21.6597 57.5405 22.4101 55.2597 23.1827C54.9054 23.3028 54.5556 23.4346 54.1498 23.5797C54.3038 23.6482 54.4186 23.6253 54.5262 23.6253C55.4895 23.629 56.4535 23.6386 57.4168 23.629C58.3411 23.6202 59.2617 23.6923 60.1845 23.713C60.4143 23.7181 60.6301 23.6997 60.851 23.6158C61.301 23.4449 61.7325 23.6091 61.9579 24.0031C62.1693 24.3728 62.0662 24.8074 61.6943 25.1086C61.3385 25.3965 60.907 25.4039 60.5652 25.0784C60.3701 24.8928 60.1675 24.8427 59.9149 24.8457C57.3859 24.8714 54.8583 24.9598 52.3285 24.9502C52.288 24.9502 52.2483 24.9502 52.2077 24.9524C51.9139 24.9709 51.88 25.0033 51.9213 25.2898C52.0148 25.9386 52.1201 26.5852 52.2129 27.234C52.2866 27.7503 52.3978 28.2607 52.4302 28.7828C52.4397 28.9368 52.5215 29.0598 52.587 29.1908C53.2683 30.5555 53.9532 31.9187 54.7 33.2495C54.8767 33.5648 55.0365 33.8895 55.1522 34.2335C55.2398 34.4935 55.4394 34.6827 55.5742 34.9125C55.8724 35.4199 56.1884 35.9171 56.5058 36.4127C56.634 36.613 56.6664 36.6152 56.838 36.4481C57.3734 35.9244 57.8955 35.3861 58.4575 34.8889C59.5997 33.8785 60.7354 32.86 61.8732 31.8444C62.0426 31.6926 62.209 31.5373 62.3806 31.3885C62.5559 31.236 62.6745 31.0622 62.7378 30.8273C62.8586 30.3803 63.2062 30.1114 63.5966 30.1085C64.0281 30.1055 64.3802 30.395 64.4494 30.8096C64.5142 31.1977 64.2616 31.661 63.8573 31.742C63.4581 31.8223 63.1974 32.0579 62.9212 32.3128C61.7804 33.3652 60.622 34.3984 59.4893 35.4597C59.054 35.8677 58.6703 36.3317 58.2616 36.7721C58.3183 36.8295 58.403 36.7544 58.484 36.7286C60.6831 36.0275 62.8122 35.1673 64.8095 33.9971C66.1757 33.1973 67.6324 32.5853 69.0943 31.9872C69.2541 31.9217 69.4235 31.8687 69.5937 31.8392C69.9037 31.7847 70.1622 31.9305 70.2823 32.2015C70.4053 32.4792 70.3456 32.7524 70.0981 32.9572C68.7268 34.0913 67.3533 35.2226 65.9805 36.3553C65.806 36.4989 65.6344 36.6454 65.4598 36.7912C65.5342 36.9385 65.6535 36.8951 65.7485 36.8936C67.3003 36.8759 68.8528 36.8723 70.4038 36.8133C70.6232 36.8052 70.7809 36.7183 70.9289 36.5681C71.4437 36.0415 71.9828 35.5407 72.5594 35.0819C72.622 35.0318 72.6802 34.9744 72.7472 34.9317C73.016 34.7593 73.3121 34.7998 73.5036 35.0303C73.6855 35.2498 73.6811 35.5326 73.455 35.7536C73.2642 35.9391 73.0411 36.0909 72.8305 36.2566C72.6427 36.4039 72.4364 36.5291 72.245 36.7537C72.6264 36.8472 72.938 36.8737 73.2407 36.6211C73.631 36.2949 74.0655 36.2632 74.5081 36.5239C75.0237 36.8266 75.1695 37.5778 74.8145 38.0742C74.4551 38.5772 73.7407 38.698 73.3062 38.2605C73.0138 37.9659 72.7259 37.9291 72.3694 38.005C72.3053 38.019 72.2391 38.0241 72.1374 38.0388C72.2096 38.2266 72.3621 38.3121 72.4865 38.4122C72.7789 38.6479 73.0573 38.8976 73.3187 39.1671C73.4211 39.2732 73.5227 39.3807 73.5787 39.5206C73.6892 39.7968 73.5213 40.0104 73.2259 39.964C73.0345 39.9338 72.8805 39.8204 72.731 39.7084C72.1647 39.282 71.5947 38.8593 71.0416 38.4152C70.7543 38.1847 70.4539 38.0874 70.0827 38.097C68.2238 38.1434 66.3642 38.1707 64.5046 38.206C64.4288 38.2075 64.3441 38.181 64.2631 38.2649C64.3301 38.4255 64.4833 38.5139 64.6048 38.6287C65.736 39.6981 67.0425 40.5487 68.2371 41.54C68.7416 41.9583 69.2608 42.3605 69.7292 42.8207C69.8824 42.971 70.0311 43.1264 70.1188 43.3267C70.3036 43.7509 70.0687 44.1236 69.6054 44.1331C69.4876 44.1354 69.3668 44.1081 69.2497 44.0816C68.7776 43.9748 68.3358 43.7826 67.8924 43.5926C65.0614 42.3803 62.3232 40.9722 59.5548 39.6289C59.423 39.5648 59.2897 39.5029 59.1055 39.416C59.1512 39.5626 59.2374 39.6208 59.3044 39.6885C60.2824 40.6784 61.2649 41.6652 62.24 42.658C62.5493 42.9725 62.8446 43.3009 63.1436 43.6264C63.3683 43.871 63.5752 44.1118 63.9162 44.2348C64.2815 44.3666 64.4575 44.8475 64.3559 45.2136C64.2395 45.6319 63.8978 45.8705 63.4485 45.8477C63.0044 45.8248 62.6178 45.5383 62.6215 45.1281C62.6252 44.7267 62.4292 44.5051 62.1685 44.2561C60.8436 42.9887 59.5364 41.7035 58.221 40.4265C57.7696 39.9883 57.3137 39.5552 56.8608 39.1192C56.5308 38.8018 56.5257 38.7974 56.2606 39.1546C55.6935 39.9168 55.1529 40.6997 54.5623 41.4428C54.2286 41.8626 54.0349 42.3258 53.8685 42.8237C53.487 43.966 53.1195 45.1127 52.7903 46.2711C52.6585 46.7344 52.4707 47.1807 52.3234 47.6373C52.14 48.2073 52.0273 48.8009 51.8874 49.3849C51.8218 49.6582 51.7651 49.9336 51.7003 50.2068C51.6635 50.3608 51.7158 50.4388 51.8763 50.4396C51.9434 50.4396 52.0104 50.4418 52.0774 50.441C53.3088 50.4366 54.5394 50.4499 55.7679 50.5375C56.835 50.6141 57.9022 50.6855 58.97 50.7526C59.3935 50.7791 59.814 50.8233 60.208 50.5611C60.4231 50.4182 60.6985 50.4462 60.9438 50.5596C61.3459 50.7445 61.5433 51.2335 61.3835 51.643C61.2288 52.0392 60.6882 52.3286 60.3244 52.0996C59.7919 51.7637 59.2197 51.8278 58.66 51.7895C57.6864 51.7232 56.7069 51.7335 55.7332 51.6687C54.8377 51.6091 53.9421 51.5966 53.0459 51.5885C52.917 51.587 52.7822 51.5538 52.6526 51.6268C52.6923 51.7512 52.8124 51.7615 52.9 51.8072C55.1669 52.9797 57.5324 53.8914 60.0011 54.5454C61.3231 54.8952 62.5714 55.4594 63.833 55.98C63.9795 56.0404 64.118 56.131 64.2424 56.2297C64.4766 56.416 64.54 56.651 64.4413 56.9073C64.3404 57.1694 64.1519 57.3219 63.8661 57.3307C63.7601 57.3344 63.6525 57.319 63.5465 57.3086C61.656 57.1275 59.7662 56.9456 57.8756 56.7644C57.8123 56.7585 57.7438 56.7408 57.6842 56.7983C57.6878 56.9205 57.7954 56.9713 57.8683 57.0413C58.9583 58.0893 60.0563 59.1285 61.1382 60.1846C61.3562 60.3974 61.5772 60.4931 61.8828 60.4865C62.578 60.4718 63.2747 60.4733 63.9663 60.5683C64.0716 60.583 64.1813 60.5852 64.2822 60.6161C64.5761 60.7053 64.7484 60.9512 64.7131 61.2127C64.6762 61.4852 64.4185 61.7069 64.1121 61.698C63.8993 61.6921 63.6872 61.6487 63.475 61.6229C63.1841 61.5868 62.8932 61.5515 62.592 61.5146C62.7702 61.9212 63.017 62.1104 63.4036 62.1524C64.0149 62.218 64.4479 62.7239 64.389 63.3021C64.3264 63.9148 63.8028 64.3501 63.193 64.2948C62.6612 64.2469 62.2827 63.8691 62.2879 63.3013C62.2923 62.8248 61.9815 62.6422 61.6368 62.3955C61.5536 62.6908 61.5963 62.9397 61.6302 63.1857C61.6744 63.5061 61.6847 63.8264 61.6574 64.1468C61.6302 64.4657 61.4925 64.652 61.3032 64.6653C61.1117 64.6785 60.9696 64.5298 60.8952 64.1939C60.7508 63.5399 60.6949 62.872 60.6102 62.2091C60.4967 61.3202 60.5093 61.3195 59.8597 60.6979C58.6408 59.5328 57.4242 58.3662 56.2053 57.2011C56.1295 57.1289 56.0698 57.0339 55.9483 57.006C55.8378 57.0973 55.8835 57.2254 55.8842 57.3366C55.8916 58.3426 56.0359 59.3354 56.1714 60.3297C56.3357 61.5353 56.4896 62.7431 56.5338 63.9612C56.5404 64.1483 56.5463 64.3361 56.5006 64.5209C56.4314 64.8008 56.2834 65.0247 55.9859 65.074C55.7185 65.1189 55.5263 64.9525 55.3864 64.7448C55.1765 64.4333 55.0093 64.0989 54.8672 63.7498C53.8685 61.2937 53.0053 58.7889 52.1672 56.2754C51.9596 55.6538 51.7386 55.0359 51.5228 54.4172C51.5022 54.3576 51.4742 54.3009 51.3888 54.2501C51.3888 54.3775 51.3888 54.5042 51.3888 54.6316C51.3873 55.354 51.3785 56.0773 51.3866 56.7997C51.3998 57.9913 51.3284 59.18 51.2842 60.3702C51.2776 60.5565 51.3439 60.706 51.4043 60.868C51.5449 61.248 51.4286 61.6582 51.1281 61.8762C50.8107 62.1068 50.3791 62.1075 50.0779 61.8792C49.7391 61.6222 49.6058 61.1759 49.7634 60.8061C49.7995 60.7215 49.8437 60.6242 49.9136 60.5734C50.1508 60.3996 50.1758 60.1662 50.1685 59.8981C50.0992 57.45 50.072 55.002 50.0676 52.5532C50.0661 51.8698 50.0433 51.8529 49.3561 51.9552C48.4834 52.0863 47.6144 52.2528 46.7387 52.3529C46.2327 52.4104 45.7945 52.5945 45.3475 52.8117C44.1191 53.409 42.923 54.0652 41.7196 54.7096C41.4125 54.8739 41.1025 55.0329 40.774 55.1493C40.5162 55.2406 40.3189 55.4284 40.0898 55.5647C39.5839 55.8659 39.0897 56.1855 38.5941 56.5037C38.3908 56.634 38.3923 56.6598 38.5462 56.8366C38.555 56.8469 38.5646 56.8557 38.5742 56.8653C39.7673 58.0208 40.8698 59.2603 41.959 60.513C42.5121 61.1493 43.0829 61.7695 43.6389 62.4028C43.7854 62.57 43.9453 62.6812 44.1684 62.7342C44.6051 62.8388 44.8688 63.1503 44.8946 63.537C44.9218 63.9531 44.7097 64.2727 44.3223 64.4016C43.9556 64.5231 43.5586 64.3773 43.3443 64.0415C43.3229 64.0076 43.292 63.973 43.2883 63.9362C43.2287 63.3484 42.7713 63.0192 42.4208 62.6304C41.2365 61.3202 40.0375 60.0233 38.8408 58.7241C38.6456 58.512 38.4357 58.3139 38.2236 58.1003C38.1662 58.2108 38.2111 58.2705 38.2295 58.3309C38.9733 60.7008 39.9389 62.9736 41.1857 65.1263C41.9384 66.4254 42.5121 67.8129 43.0622 69.2078C43.1064 69.319 43.141 69.4361 43.1646 69.554C43.2265 69.8655 43.0998 70.1321 42.8398 70.261C42.5614 70.3987 42.2595 70.3361 42.0466 70.0828C41.5908 69.54 41.1378 68.9942 40.6864 68.4478C39.9035 67.4977 39.1236 66.5455 38.3392 65.5969C38.284 65.5299 38.242 65.4312 38.1279 65.443C38.066 65.496 38.0778 65.5667 38.0837 65.63C38.1743 66.6582 38.1249 67.69 38.1492 68.7195C38.1625 69.2675 38.1934 69.8154 38.2037 70.3641C38.2081 70.5791 38.2855 70.7419 38.4306 70.8995C38.9284 71.4408 39.4601 71.9519 39.9153 72.5323C39.9889 72.6265 40.0692 72.7201 40.123 72.8254C40.2423 73.0611 40.1885 73.321 40.0037 73.483C39.8328 73.6333 39.5839 73.6539 39.3659 73.5376C39.2444 73.4727 39.1582 73.3718 39.0779 73.2636C38.91 73.0382 38.7443 72.8107 38.5712 72.5897C38.4917 72.4881 38.4298 72.3599 38.2553 72.3261C38.1308 72.653 38.0984 72.9381 38.3724 73.2341C38.7782 73.6723 38.7524 74.277 38.3547 74.685C37.9695 75.079 37.2831 75.1077 36.8494 74.7468C36.4524 74.4162 36.3846 73.8218 36.6822 73.3623C36.7823 73.2069 36.9878 73.1192 36.9989 72.9115C37.0121 72.6589 37.0018 72.4056 37.0018 72.1213C36.8243 72.1574 36.7661 72.2863 36.6859 72.3769C36.4642 72.6273 36.2506 72.885 36.0348 73.1406C35.9037 73.2952 35.7491 73.4234 35.5789 73.5309C35.4331 73.6237 35.277 73.6532 35.1326 73.5309C34.9839 73.405 34.9993 73.243 35.0818 73.0927C35.1783 72.9174 35.2858 72.7466 35.4059 72.5868C35.8153 72.041 36.2263 71.496 36.6505 70.9614C36.8442 70.7176 36.9326 70.462 36.9186 70.149C36.842 68.4375 36.8383 66.7244 36.814 65.0121C36.8111 64.7868 36.7787 64.5622 36.7602 64.3478C36.6129 64.2875 36.5717 64.395 36.515 64.4568C35.8257 65.2058 35.1857 65.9946 34.581 66.8136C33.9528 67.6642 33.2856 68.4846 32.5955 69.2859C32.404 69.5083 32.1926 69.7145 31.982 69.9207C31.8458 70.054 31.6823 70.1454 31.4864 70.163C31.1417 70.194 30.92 70.0135 30.8847 69.6689C30.8611 69.4369 30.923 69.2174 30.9929 69.0001C31.2558 68.1827 31.6248 67.4086 31.9746 66.6272C33.0506 64.2197 34.2577 61.8755 35.4066 59.5026C35.4685 59.3752 35.5237 59.2441 35.5819 59.1145C35.5524 59.0902 35.523 59.0659 35.4928 59.0416C35.414 59.1483 35.3477 59.2677 35.2549 59.3605C34.2201 60.3893 33.1847 61.416 32.1426 62.4374C31.8273 62.7468 31.4974 63.0406 31.1675 63.3337C31.0246 63.4604 30.9171 63.5981 30.8449 63.7808C30.6586 64.2499 30.2314 64.4672 29.7844 64.3449C29.3896 64.2374 29.1142 63.8389 29.1525 63.4309C29.2003 62.9257 29.5347 62.5965 30.0502 62.5884C30.269 62.5847 30.428 62.5243 30.5783 62.3645C31.8995 60.9623 33.2311 59.5689 34.5928 58.2057C35.0656 57.7321 35.5443 57.2645 35.9833 56.7585C36.1843 56.5272 36.1909 56.5022 35.9472 56.3203C35.1643 55.7363 34.3571 55.1832 33.5941 54.5741C33.1758 54.2405 32.7214 54.0358 32.2221 53.8708C31.0275 53.4768 29.8308 53.0909 28.6207 52.7469C28.1965 52.6261 27.7745 52.4936 27.3746 52.3014C27.0565 52.1482 26.7 52.1438 26.3664 52.048C25.8914 51.9118 25.4031 51.8219 24.92 51.7159C24.6003 51.6459 24.5834 51.6592 24.5797 51.9994C24.576 52.3743 24.579 52.7491 24.5768 53.1233C24.5694 54.5152 24.4575 55.902 24.3595 57.2895C24.3065 58.0363 24.2859 58.786 24.2476 59.5335C24.2373 59.7272 24.2756 59.8973 24.3897 60.0616C24.5237 60.2545 24.5657 60.4814 24.5237 60.7141C24.4604 61.0602 24.2594 61.2996 23.9198 61.3968C23.5825 61.4933 23.2798 61.4167 23.053 61.1353C22.8203 60.8474 22.7525 60.4998 22.9565 60.2015C23.1723 59.8856 23.1738 59.5593 23.1893 59.2132C23.257 57.7299 23.3086 56.2466 23.3955 54.7641C23.4367 54.0586 23.4028 53.3486 23.4028 52.6129C23.2762 52.674 23.2563 52.8 23.2069 52.8957C22.0389 55.15 21.1382 57.5053 20.482 59.9599C20.1218 61.3062 19.5607 62.5847 19.0135 63.8647C18.9567 63.998 18.8743 64.1262 18.7815 64.2381C18.5893 64.4708 18.3285 64.5261 18.059 64.4104C17.7924 64.2963 17.6414 64.0643 17.6679 63.7734C17.7791 62.5752 17.897 61.3777 18.0119 60.1794C18.0921 59.3428 18.1724 58.5061 18.2527 57.671C18.1341 57.6371 18.098 57.727 18.0479 57.7792C16.9727 58.8987 15.9041 60.024 14.8215 61.1361C14.6182 61.3445 14.5269 61.5559 14.5342 61.846C14.5526 62.5553 14.5298 63.2645 14.4495 63.97C14.4392 64.0628 14.4341 64.1578 14.4083 64.2469C14.3199 64.5585 14.0725 64.7338 13.7852 64.6977C13.5024 64.6623 13.2984 64.4244 13.3146 64.096C13.3286 63.8169 13.3853 63.5392 13.4244 63.2615C13.4538 63.0524 13.4892 62.844 13.4339 62.5899C13.1069 62.8167 12.8536 63.02 12.8433 63.4457C12.8322 63.8824 12.4684 64.2609 12.0582 64.3545C11.6031 64.4583 11.1339 64.2646 10.8725 63.8669C10.6287 63.4958 10.6457 63.0178 10.9101 62.6621C11.1008 62.4065 11.3726 62.2644 11.6708 62.2769C12.1598 62.2982 12.3727 61.983 12.6268 61.6258C12.4044 61.5308 12.207 61.5736 12.017 61.6023C11.6443 61.659 11.2694 61.6612 10.8953 61.6457C10.5455 61.631 10.3474 61.494 10.3452 61.2907C10.343 61.1037 10.4984 60.9498 10.8327 60.8953C11.5847 60.773 12.3395 60.6647 13.0959 60.5734C13.4973 60.5248 13.8184 60.3878 14.1056 60.0815C15.3502 58.7536 16.617 57.4471 17.8749 56.1325C17.9294 56.0758 17.9993 56.0279 18.0222 55.9241C17.9353 55.8188 17.8079 55.8629 17.6996 55.8666C16.723 55.9005 15.7531 56.0066 14.7861 56.145C13.5282 56.3247 12.2681 56.4875 10.9947 56.5155C10.8077 56.5199 10.6184 56.5287 10.4358 56.4772C10.2045 56.4116 10.0182 56.2835 9.94895 56.0426C9.87604 55.7878 10.0167 55.6074 10.1927 55.4476C10.3437 55.3113 10.5227 55.22 10.7024 55.1302C11.6031 54.6816 12.5531 54.3561 13.4907 53.9982C15.8422 53.1012 18.2475 52.3603 20.616 51.5141C20.6911 51.4876 20.7663 51.461 20.8451 51.3859C20.753 51.3808 20.6609 51.3712 20.5689 51.3705C19.1099 51.3631 17.651 51.3609 16.1928 51.3469C15.7516 51.3425 15.3105 51.3115 14.8701 51.2858C14.6263 51.2718 14.3965 51.2968 14.1645 51.3881C13.8456 51.5133 13.5304 51.4758 13.2587 51.2482C12.8867 50.9359 12.8477 50.4027 13.1637 50.0271C13.4921 49.6368 14.0658 49.5447 14.409 49.8975C14.6609 50.156 14.9084 50.209 15.2287 50.1509C15.3326 50.1317 15.4423 50.1435 15.5491 50.142C17.8903 50.1104 20.2323 50.0794 22.5736 50.0478C23.1178 50.0404 23.1443 50.0102 23.0611 49.4696C22.9182 48.5446 22.7415 47.6226 22.6457 46.6924C22.5986 46.235 22.4395 45.8484 22.2466 45.45C21.6382 44.1972 20.9821 42.971 20.3155 41.7492C20.1358 41.42 19.9694 41.0849 19.8449 40.7299C19.7418 40.4353 19.5128 40.2166 19.3618 39.9478C19.1077 39.4926 18.8124 39.0611 18.5289 38.6229C18.3587 38.3607 18.3477 38.3599 18.1209 38.5905C17.4175 39.307 16.6973 40.0045 15.946 40.671C14.8347 41.6564 13.7285 42.6469 12.615 43.6294C12.439 43.7848 12.3182 43.9387 12.2696 44.1862C12.1694 44.6921 11.6775 44.986 11.2135 44.8659C10.818 44.7636 10.5669 44.4454 10.5698 44.0507C10.5727 43.6537 10.8202 43.298 11.2149 43.2435C11.511 43.203 11.6944 43.0432 11.8925 42.8613C13.2727 41.5945 14.6594 40.3359 16.0366 39.0655C16.3379 38.7878 16.6081 38.4763 16.8939 38.1795C16.8062 38.139 16.7348 38.1942 16.6634 38.2178C14.3288 38.9778 12.0685 39.9021 9.94232 41.146C8.6233 41.9178 7.20854 42.496 5.79083 43.0623C5.67962 43.1065 5.56179 43.1404 5.44395 43.1588C5.10149 43.214 4.85109 43.0793 4.72442 42.7847C4.60143 42.4989 4.66108 42.2588 4.92768 42.0364C5.57504 41.4973 6.22756 40.9626 6.87786 40.4265C7.71449 39.7371 8.55186 39.0493 9.38629 38.3577C9.45404 38.301 9.54831 38.2605 9.56378 38.1427C9.44373 38.0624 9.30822 38.1029 9.18155 38.1036C8.24475 38.1081 7.30796 38.1073 6.37117 38.1309C5.79672 38.1449 5.22227 38.1994 4.64709 38.1854C4.42909 38.1802 4.27001 38.2708 4.11609 38.4181C3.57626 38.9373 3.03495 39.4558 2.45608 39.9323C2.08048 40.2416 1.73876 40.2615 1.50824 39.9713C1.29024 39.6981 1.37788 39.3704 1.74244 39.0809C2.08416 38.8099 2.45755 38.5772 2.81032 38.2215C2.38243 38.1692 2.04145 38.1169 1.71445 38.4115C1.38893 38.7046 0.984608 38.7326 0.589859 38.5227C0.185535 38.3084 -0.0192036 37.9512 0.00141767 37.5027C0.0213024 37.0726 0.235615 36.736 0.647303 36.5637C1.06194 36.3899 1.45963 36.4672 1.75717 36.7839C2.10331 37.1521 2.46418 37.024 2.87366 36.8804C2.6726 36.711 2.47523 36.5379 2.27049 36.3737C2.05102 36.1969 1.84775 36.0032 1.6548 35.7985C1.56274 35.7005 1.47584 35.5967 1.43091 35.4685C1.3337 35.1909 1.51855 34.9773 1.80725 35.0414C2.00683 35.0856 2.1718 35.2064 2.33162 35.3279C2.87513 35.741 3.42454 36.1468 3.95554 36.5747C4.25307 36.8141 4.56607 36.9135 4.95125 36.9032C6.78359 36.8546 8.61667 36.8288 10.449 36.7927C10.5367 36.7912 10.6376 36.8266 10.7134 36.7367C10.6943 36.588 10.5661 36.521 10.4718 36.4355C9.91655 35.9325 9.3583 35.4332 8.75292 34.9891C7.61949 34.1569 6.52362 33.2783 5.46162 32.3569C5.27898 32.1986 5.10517 32.0322 4.97555 31.8259C4.8312 31.5969 4.76198 31.3553 4.924 31.1116C5.08602 30.8678 5.33348 30.8288 5.60082 30.8833C5.9558 30.9562 6.29899 31.0689 6.63335 31.2073C7.90671 31.7354 9.16093 32.3069 10.4026 32.9049C12.0545 33.6995 13.6954 34.5163 15.3421 35.322C15.4725 35.3861 15.5962 35.4715 15.7678 35.4936C15.8024 35.3765 15.7067 35.3264 15.65 35.2682C15.1705 34.7822 14.6889 34.299 14.2065 33.8159C13.3272 32.9358 12.4596 32.0432 11.6399 31.1064C11.5198 30.9687 11.374 30.8899 11.2091 30.8288C10.8946 30.7117 10.7024 30.4848 10.6523 30.1519C10.5742 29.6349 10.9042 29.2129 11.4131 29.1673C11.9779 29.1165 12.4382 29.4678 12.422 29.998C12.4132 30.2786 12.52 30.4421 12.7012 30.6167C14.4819 32.3363 16.2576 34.0611 18.0354 35.7845C18.0833 35.8309 18.1312 35.878 18.1798 35.9237C18.4707 36.1969 18.4965 36.2013 18.7329 35.8839C19.2918 35.1327 19.8243 34.3601 20.4047 33.6259C20.7434 33.1973 20.9541 32.7325 21.1323 32.2207C21.5904 30.9054 21.9321 29.5539 22.3909 28.2415C22.7673 27.1633 23.0243 26.0608 23.2754 24.9532C23.3579 24.5916 23.3358 24.5651 22.9565 24.5614C22.3946 24.5555 21.8327 24.5577 21.27 24.5518C19.9584 24.5371 18.6526 24.4111 17.3446 24.3287C16.7436 24.2911 16.1427 24.2653 15.5417 24.2307C15.3223 24.2182 15.133 24.2602 14.9363 24.3809C14.4753 24.663 13.9635 24.5408 13.705 24.1232C13.5017 23.7955 13.5231 23.4368 13.7617 23.154C14.004 22.8675 14.426 22.7217 14.7375 22.919C15.2273 23.2298 15.7612 23.1901 16.2863 23.2158C18.1164 23.3042 19.9473 23.3742 21.7789 23.4493C21.9895 23.4581 22.2002 23.4508 22.4609 23.4508C22.3563 23.288 22.2215 23.2586 22.1125 23.2011C19.8376 22.0132 17.4529 21.1147 14.9732 20.4504C13.6659 20.0998 12.4242 19.5556 11.1825 19.0209C11.0367 18.9583 10.8924 18.878 10.7679 18.7801C10.547 18.6055 10.4822 18.3433 10.5705 18.0959C10.6641 17.8367 10.86 17.6768 11.1494 17.6857C11.55 17.6975 11.95 17.7365 12.3491 17.7741C13.6004 17.8919 14.8509 18.0156 16.1022 18.1357C16.4969 18.174 16.8924 18.2093 17.2982 18.2469C17.2967 18.0664 17.1789 18.006 17.0979 17.9287C15.988 16.863 14.8723 15.8025 13.7661 14.7332C13.596 14.5689 13.4133 14.5174 13.188 14.5188C12.4522 14.5225 11.7158 14.5262 10.9837 14.4334C10.8364 14.415 10.6898 14.4025 10.5624 14.32C10.3813 14.2029 10.2715 14.0409 10.2966 13.817C10.3231 13.5835 10.4468 13.4215 10.6751 13.3456C10.8055 13.3022 10.9358 13.3051 11.0713 13.3243C11.5176 13.3854 11.9654 13.4384 12.4846 13.5032C12.2431 13.1299 12.0265 12.8912 11.6141 12.8559C10.7907 12.7852 10.4733 12.0274 10.6795 11.4419C10.8408 10.9845 11.3269 10.6664 11.8085 10.7083C12.2917 10.7503 12.6702 11.1149 12.7453 11.6105C12.8082 12.0239 13.0301 12.3656 13.4111 12.6357L13.4155 12.6291ZM51.7298 41.0186C51.5007 40.7328 51.2658 40.5752 51.0603 40.3882C50.4277 39.813 49.7884 39.2452 49.1565 38.6693C48.9304 38.4638 48.6911 38.3474 48.3685 38.354C47.5135 38.3702 46.6577 38.3658 45.8034 38.3408C45.4344 38.3297 45.1936 38.466 45.0242 38.7812C44.5425 39.6768 44.1412 40.6091 43.7634 41.5525C43.6735 41.7764 43.7081 41.8214 43.9372 41.7971C44.8798 41.6991 45.8233 41.6026 46.7645 41.4914C48.0504 41.3397 49.3296 41.1247 50.6302 41.1195C50.9727 41.118 51.3144 41.0584 51.7298 41.0186ZM29.9471 25.6256C30.0436 26.5675 30.0664 27.5168 30.1099 28.4647C30.1239 28.7681 30.2211 28.9949 30.4354 29.2063C31.0268 29.7881 31.6233 30.367 32.1772 30.9827C32.4983 31.3399 32.826 31.3804 33.2502 31.2427C34.0905 30.9687 34.9124 30.6483 35.7277 30.3095C36.2418 30.096 36.2403 30.1019 35.8271 29.7587C34.0485 28.2791 32.1381 26.9608 30.4509 25.37C30.3301 25.2566 30.1916 25.0364 30.037 25.1071C29.844 25.1955 29.9943 25.4466 29.9471 25.6263V25.6256ZM23.3756 34.0162C23.3866 34.1414 23.4838 34.1805 23.5509 34.2408C24.347 34.956 25.149 35.6644 25.9392 36.3862C26.1307 36.5615 26.3296 36.6358 26.5873 36.6344C27.4571 36.6277 28.3276 36.6189 29.1959 36.6528C29.6253 36.6697 29.8588 36.4893 30.0436 36.1306C30.4921 35.2616 30.8854 34.3683 31.2522 33.4631C31.2838 33.3851 31.3634 33.3026 31.2698 33.1914C28.6517 33.4653 26.0247 33.74 23.3756 34.017V34.0162ZM44.9049 36.1446C45.036 36.1292 45.0691 36.0283 45.1251 35.959C45.6215 35.3463 46.1142 34.7306 46.6083 34.1156C47.4207 33.1059 48.1667 32.0432 49.0534 31.0932C49.309 30.8199 49.552 30.5349 49.7943 30.2499C49.8584 30.174 49.9858 30.0997 49.9188 29.9833C49.8577 29.8765 49.7236 29.9229 49.622 29.9281C48.5681 29.9818 47.5142 30.0407 46.4603 30.0967C46.235 30.1085 46.0604 30.2109 45.8947 30.3618C45.2415 30.9562 44.6427 31.6057 43.9909 32.1993C43.6875 32.4755 43.6345 32.7657 43.7442 33.1325C43.9622 33.8638 44.2222 34.5789 44.5263 35.2785C44.6523 35.5687 44.7362 35.8795 44.9056 36.1454L44.9049 36.1446ZM34.0316 51.6282C34.0913 51.6393 34.131 51.6002 34.1649 51.5619C34.9235 50.7165 35.6813 49.8703 36.4399 49.0248C36.5732 48.876 36.6026 48.6993 36.6137 48.5063C36.666 47.5982 36.6446 46.6887 36.6741 45.7806C36.6866 45.408 36.543 45.1848 36.2278 45.011C35.3352 44.5198 34.3932 44.1405 33.4557 43.7494C33.385 43.72 33.3113 43.6714 33.206 43.7428C33.48 46.3624 33.7554 48.9953 34.0309 51.629L34.0316 51.6282ZM25.0835 45.0574C25.1748 45.0611 25.2411 45.0699 25.3066 45.0663C26.4135 45.0095 27.5205 44.9492 28.6274 44.8954C28.8468 44.8851 28.9986 44.7702 29.1458 44.6266C29.7858 44.0013 30.4199 43.368 31.0754 42.7596C31.3369 42.5173 31.4149 42.2662 31.2971 41.9392C31.2566 41.8265 31.2279 41.7094 31.1925 41.5938C30.9436 40.7741 30.61 39.9868 30.2822 39.1966C30.1136 38.7908 30.0988 38.7922 29.8124 39.1362C28.2753 40.9847 26.8937 42.9607 25.2403 44.7142C25.163 44.796 25.0599 44.8785 25.0835 45.0567V45.0574ZM45.0853 49.9439C45.0853 49.8209 45.0927 49.7141 45.0839 49.6096C45.0124 48.7567 44.952 47.9031 44.9373 47.0474C44.9336 46.847 44.8953 46.6482 44.8916 46.4479C44.8872 46.1894 44.7819 45.9957 44.5993 45.8153C43.9806 45.204 43.359 44.5949 42.7691 43.9564C42.501 43.6662 42.2337 43.6154 41.878 43.7229C40.9029 44.0183 39.9654 44.4101 39.0256 44.7982C38.966 44.8225 38.8982 44.8431 38.8695 44.955C40.8042 46.6114 42.9289 48.0637 44.7974 49.8253C44.8622 49.8865 44.9307 49.9594 45.0853 49.9439ZM40.9795 23.3624C40.8447 23.4066 40.7755 23.5274 40.6893 23.6231C40.0081 24.378 39.3372 25.1417 38.6508 25.8907C38.4666 26.0918 38.3805 26.2987 38.3827 26.5727C38.39 27.4292 38.4018 28.2865 38.3635 29.1408C38.3429 29.6033 38.5373 29.8581 38.921 30.0562C39.7422 30.4811 40.5869 30.8501 41.442 31.1992C41.4913 31.2191 41.5414 31.239 41.5915 31.2581C41.7587 31.3207 41.8124 31.239 41.8088 31.0858C41.808 31.046 41.8065 31.0055 41.8021 30.9657C41.6858 29.9295 41.5738 28.8926 41.4516 27.8571C41.3374 26.8879 41.1702 25.9253 41.1548 24.9458C41.1481 24.5319 41.1091 24.118 41.0804 23.7041C41.0723 23.5878 41.0841 23.4611 40.9787 23.3624H40.9795ZM44.2089 50.7666C41.9288 49.3717 40.0103 47.6572 38.0388 45.978C38.0137 46.0465 37.9887 46.0811 37.9887 46.1157C37.9909 47.0371 37.9968 47.9591 37.9997 48.8804C37.9997 49.0506 38.0645 49.189 38.1735 49.3157C38.9903 50.2694 39.7731 51.2504 40.5199 52.2601C40.6466 52.4317 40.7711 52.4627 40.9618 52.3699C42.0172 51.8565 43.0269 51.2519 44.2082 50.7666H44.2089ZM23.4669 32.8349C25.9864 32.2222 28.5567 32.0918 31.1343 31.8635C31.1019 31.795 31.0938 31.753 31.0688 31.728C30.4133 31.0777 29.7564 30.4296 29.1002 29.7815C28.9912 29.674 28.8623 29.6202 28.7069 29.6084C27.4799 29.5201 26.2596 29.3757 25.0415 29.2063C24.6519 29.1518 24.6497 29.1584 24.5245 29.5208C24.1621 30.5695 23.8837 31.647 23.4699 32.6788C23.4566 32.7119 23.4684 32.7539 23.4684 32.8349H23.4669ZM50.7355 30.8634C49.393 33.0853 47.6586 34.9862 46.0229 36.9444C46.0737 37.0358 46.1311 37.0306 46.1819 37.0306C47.0097 37.0203 47.8375 37.038 48.6653 36.9967C49.0218 36.979 49.2972 36.8664 49.5645 36.6395C50.4093 35.9215 51.2761 35.2307 52.1636 34.5656C52.4979 34.3152 52.4987 34.313 52.3219 33.9507C51.8373 32.9542 51.2894 31.988 50.846 30.9709C50.832 30.9392 50.793 30.9186 50.7355 30.8641V30.8634ZM24.3006 44.0993C25.6469 41.9083 27.3651 39.9817 29.0612 37.9865C28.9514 37.9726 28.9006 37.9615 28.8491 37.96C27.927 37.9306 27.0071 38.0175 26.0858 38.0153C25.898 38.0153 25.7588 38.1014 25.6218 38.2178C24.7462 38.9616 23.8536 39.6848 22.9344 40.3735C22.6526 40.5846 22.5868 40.8441 22.7371 41.1519C22.7606 41.1998 22.7849 41.2476 22.81 41.2948C23.2695 42.1697 23.7401 43.0395 24.1356 43.9461C24.1614 44.0043 24.1791 44.0757 24.3013 44.0993H24.3006ZM43.8871 43.1234C43.8672 43.2236 43.9276 43.2634 43.9732 43.3076C44.6243 43.9417 45.2783 44.5721 45.9271 45.2084C46.0626 45.341 46.218 45.3726 46.3977 45.3888C47.1025 45.4529 47.8066 45.5251 48.5099 45.6031C49.0409 45.6621 49.5712 45.7276 50.1 45.8049C50.2951 45.8337 50.4078 45.7755 50.4623 45.5884C50.4844 45.5118 50.5153 45.4374 50.5396 45.3608C50.8585 44.3548 51.1612 43.3429 51.5398 42.3568C51.5589 42.3074 51.5759 42.2559 51.5 42.1785C49.0115 42.764 46.4441 42.9216 43.8871 43.1234ZM31.8612 43.8938C31.7935 43.8791 31.7507 43.91 31.7132 43.9483C31.0702 44.6082 30.4288 45.2695 29.7851 45.9294C29.6864 46.0303 29.6459 46.1489 29.6341 46.2888C29.5296 47.5261 29.3874 48.7589 29.2254 49.9896C29.176 50.3666 29.1805 50.3689 29.5494 50.4955C30.5341 50.8336 31.5445 51.0958 32.5145 51.4795C32.5638 51.4986 32.6161 51.5133 32.6684 51.5222C32.7509 51.5354 32.801 51.4868 32.7995 51.4117C32.7973 51.3196 32.7759 51.2268 32.756 51.1363C32.6198 50.5375 32.4806 49.938 32.4106 49.3275C32.2155 47.6174 31.9835 45.9103 31.9246 44.1876C31.9209 44.0867 31.9548 43.9711 31.8612 43.8945V43.8938ZM42.1726 23.4324C42.789 25.9901 42.9149 28.5464 43.1462 31.1027C43.3355 31.0431 43.4113 30.926 43.5041 30.8332C44.0042 30.3302 44.4888 29.811 45.0036 29.3242C45.2775 29.0657 45.3961 28.7747 45.4204 28.4087C45.4933 27.3011 45.6399 26.2 45.7835 25.0997C45.8432 24.6439 45.8454 24.6321 45.427 24.4892C44.4269 24.1475 43.4047 23.8735 42.4186 23.4898C42.3707 23.4714 42.3177 23.4662 42.1726 23.4331V23.4324ZM30.8795 24.2521C31.2198 24.5363 31.585 24.7072 31.9106 24.937C33.4984 26.0557 34.9905 27.2944 36.4517 28.5715C36.6284 28.7261 36.7934 28.8948 37.0055 29.0148C37.0313 28.953 37.0511 28.9287 37.0497 28.9058C36.9856 27.9838 37.0143 27.0602 37.0018 26.1374C36.9989 25.9364 36.9252 25.7839 36.7993 25.6322C36.0459 24.7271 35.302 23.8146 34.5943 22.8734C34.4087 22.6259 34.1713 22.5739 33.8821 22.7173C32.9225 23.1915 31.9864 23.7122 31.0077 24.1482C30.9738 24.1637 30.9473 24.1961 30.8795 24.2521ZM24.2115 38.083C23.9522 38.0219 23.7041 37.9689 23.4831 38.1508C22.698 38.7981 21.8378 39.3417 21.0196 39.9441C20.7066 40.1746 20.7096 40.1761 20.8834 40.5296C21.2899 41.3574 21.7016 42.1822 22.1 43.0144C22.6192 44.1007 23.2055 45.1509 23.7696 46.2137C23.8624 46.3875 23.9751 46.5259 24.1776 46.5657C25.0047 46.7292 25.8354 46.8574 26.6831 46.8301C26.7899 46.8264 26.9018 46.8264 26.9865 46.7484C27.2281 46.5259 27.4741 46.3072 27.681 46.0458C27.5543 45.9471 27.4461 45.9868 27.3466 46.003C26.5122 46.1415 25.6712 46.143 24.8286 46.154C24.1931 46.1629 23.7917 45.8808 23.5494 45.3203C23.5177 45.2467 23.4802 45.1753 23.4522 45.1001C23.1959 44.424 22.874 43.7774 22.5426 43.136C22.181 42.4356 21.8025 41.7433 21.4453 41.04C21.1875 40.5333 21.2678 40.3086 21.7414 40.0126C22.6266 39.4588 23.3955 38.7532 24.2122 38.0823L24.2115 38.083ZM36.9377 24.3036C37.0416 23.7247 37.0261 23.6806 36.7367 23.3263C36.5761 23.1297 36.4259 22.9242 36.2779 22.718C35.8728 22.1524 35.4736 21.5831 35.0671 21.0182C34.8285 20.6861 34.8255 20.692 34.4536 20.8753C33.2539 21.4675 32.049 22.0485 30.8552 22.651C30.1511 23.0067 29.4633 23.3948 28.7688 23.7697C28.6112 23.8544 28.4823 23.9641 28.4455 24.1549C28.2864 24.9701 28.1634 25.7891 28.1848 26.6228C28.1877 26.7421 28.1847 26.8695 28.2702 26.966C28.4882 27.2105 28.7091 27.4535 28.9691 27.6568C29.045 27.5625 29.0273 27.4955 29.017 27.4307C28.8675 26.5035 28.8306 25.5718 28.8675 24.6336C28.8851 24.1814 29.0759 23.8684 29.4625 23.6658C29.6989 23.5421 29.9427 23.4287 30.1894 23.3263C30.9561 23.0082 31.7007 22.6443 32.429 22.2452C32.9335 21.969 33.4395 21.695 33.9528 21.4351C34.4573 21.1795 34.6922 21.2539 34.9912 21.7208C35.562 22.6119 36.2697 23.3992 36.9392 24.3029L36.9377 24.3036ZM46.0413 47.2823C45.9978 47.5312 46.0162 47.6763 46.0376 47.8207C46.1414 48.5093 46.1849 49.2008 46.176 49.8975C46.162 50.9698 46.0332 51.1775 45.0441 51.5796C44.0889 51.9677 43.172 52.4317 42.2683 52.9259C41.8345 53.163 41.3971 53.3943 40.95 53.6049C40.5369 53.7993 40.2784 53.6992 40.0464 53.3067C39.9514 53.1461 39.8527 52.9863 39.7393 52.8383C39.2525 52.2012 38.7605 51.5678 38.2685 50.9352C38.2243 50.8778 38.1897 50.7857 38.0645 50.8461C38.0454 51.0877 37.9924 51.3388 38.1802 51.559C38.8319 52.3235 39.3578 53.1807 39.9558 53.9842C40.1893 54.2972 40.2018 54.3031 40.5376 54.1366C41.6747 53.5725 42.817 53.0187 43.9489 52.4442C44.7112 52.0576 45.458 51.6393 46.2151 51.2423C46.4191 51.1355 46.5531 50.9912 46.5966 50.7621C46.7335 50.0389 46.8175 49.3098 46.8595 48.5755C46.8713 48.3627 46.8595 48.1366 46.7092 47.9665C46.517 47.7492 46.3049 47.5504 46.042 47.283L46.0413 47.2823ZM50.7783 36.884L50.8143 36.9658C51.0589 36.9577 51.3129 37.0313 51.5361 36.8457C52.3079 36.2035 53.1585 35.6696 53.9657 35.0753C54.3001 34.8293 54.3052 34.8065 54.1145 34.4191C53.6188 33.4123 53.1195 32.407 52.6327 31.3958C52.2026 30.504 51.6988 29.6526 51.2467 28.7733C51.1561 28.5973 51.0316 28.4691 50.8313 28.4293C50.0307 28.2703 49.2265 28.1428 48.4068 28.1576C48.3008 28.1598 48.1822 28.1465 48.096 28.2158C47.8287 28.4286 47.5768 28.6584 47.3787 28.9456C47.512 29.0436 47.635 29.0045 47.7469 28.9854C48.5409 28.8491 49.3421 28.8558 50.1441 28.8344C50.8335 28.816 51.2577 29.1187 51.5 29.7351C51.5295 29.8095 51.5604 29.8839 51.5921 29.9575C51.9036 30.6822 52.2166 31.4047 52.5973 32.097C52.945 32.7296 53.2815 33.3681 53.6056 34.0125C53.8133 34.4242 53.7514 34.6938 53.3927 34.9096C52.7358 35.3036 52.1606 35.8036 51.5582 36.2691C51.2967 36.4716 51.039 36.6793 50.779 36.884H50.7783ZM50.5102 38.4505C50.6 38.6214 50.737 38.6855 50.8482 38.7709C51.5287 39.2923 52.1614 39.8646 52.7358 40.5038C53.0215 40.8212 53.1195 41.1622 52.9972 41.5739C52.9052 41.8825 52.7778 42.1763 52.657 42.4731C52.1812 43.639 51.852 44.8527 51.4779 46.0524C51.4183 46.2431 51.3564 46.4368 51.2658 46.6136C51.1318 46.8758 50.9204 46.9671 50.631 46.9133C50.4343 46.8772 50.2414 46.8146 50.0433 46.7874C49.2361 46.6777 48.4274 46.5746 47.6188 46.4751C47.5216 46.4633 47.4089 46.414 47.308 46.5289C47.4892 46.8102 47.7057 47.012 48.0769 46.9884C48.2345 46.9789 48.3958 47.012 48.5541 47.0378C49.3451 47.1659 50.1361 47.2992 50.9263 47.4296C51.2518 47.4834 51.2827 47.4664 51.3939 47.1534C51.4926 46.8765 51.5832 46.5966 51.6804 46.319C52.2851 44.5905 52.8603 42.8517 53.3773 41.0945C53.4568 40.8242 53.42 40.6054 53.2661 40.3786C52.9199 39.8682 52.5023 39.4138 52.1444 38.9152C51.7173 38.3194 51.145 38.3732 50.5094 38.4505H50.5102ZM28.5294 47.247C28.2275 47.4591 28.0058 47.6608 28.0308 48.0364C28.0411 48.1941 28.0065 48.3553 27.9815 48.5137C27.8555 49.2921 27.7259 50.0691 27.5978 50.8468C27.5308 51.2504 27.5448 51.2769 27.913 51.4021C29.1525 51.8249 30.389 52.2557 31.6329 52.6659C32.3937 52.917 33.1655 53.1365 33.9329 53.3707C34.1318 53.4311 34.3225 53.4473 34.5096 53.3251C35.1724 52.8935 35.794 52.4111 36.3618 51.8602C36.4568 51.7682 36.5658 51.6709 36.5791 51.5317C36.6115 51.1915 36.624 50.8498 36.5688 50.4764C36.403 50.5677 36.339 50.704 36.2528 50.8144C35.6997 51.52 35.126 52.2049 34.4337 52.7837C34.1516 53.0202 33.8482 53.0909 33.5013 52.9959C33.3467 52.9539 33.1898 52.9134 33.044 52.8486C31.7699 52.2822 30.428 51.9132 29.1002 51.5052C28.8829 51.439 28.6627 51.3771 28.4565 51.2843C28.1516 51.1466 28.019 50.9161 28.0978 50.6045C28.293 49.8364 28.3475 49.0484 28.4462 48.2677C28.4867 47.9459 28.5832 47.6226 28.5302 47.247H28.5294ZM27.7024 28.4949C27.533 28.1841 27.3091 28.0471 27.0086 28.0199C26.8223 28.0029 26.6359 27.986 26.4518 27.9565C25.6741 27.8313 24.8971 27.701 24.1194 27.5736C23.7519 27.5132 23.7261 27.5323 23.609 27.891C23.5258 28.1451 23.4397 28.3977 23.352 28.6503C22.7415 30.4046 22.1567 32.1669 21.6301 33.9492C21.5594 34.1893 21.5992 34.3822 21.7391 34.587C22.0868 35.0951 22.4977 35.5554 22.8564 36.0518C23.3012 36.6675 23.9007 36.6196 24.5385 36.6115C24.5002 36.4267 24.3772 36.3825 24.2851 36.3125C23.6459 35.8265 23.067 35.2734 22.483 34.7232C21.9557 34.2261 21.8585 33.6981 22.1449 33.0632C22.1611 33.0264 22.1744 32.9888 22.1899 32.952C22.6634 31.8584 23.0132 30.7212 23.3483 29.5797C23.4537 29.221 23.5619 28.8616 23.6937 28.5118C23.8329 28.1421 24.0907 28 24.4472 28.0928C25.2271 28.296 26.0276 28.3491 26.823 28.4404C27.097 28.4721 27.3702 28.5693 27.7024 28.4949ZM46.439 27.7717C46.7961 27.5227 46.9817 27.2893 46.9803 26.9247C46.9795 26.7001 47.0362 26.4747 47.0731 26.2509C47.1902 25.5387 47.3146 24.828 47.4266 24.1158C47.4884 23.7203 47.47 23.7034 47.0812 23.5811C46.9412 23.5369 46.7998 23.4957 46.6614 23.4464C44.8342 22.7997 42.9967 22.1863 41.1378 21.6376C40.8572 21.5544 40.6252 21.5765 40.3837 21.7436C39.8556 22.1097 39.3732 22.5339 38.8643 22.9227C38.2921 23.3595 38.3761 23.9148 38.4283 24.5238C38.5852 24.4494 38.6419 24.3397 38.7141 24.2469C39.1656 23.6658 39.6715 23.1334 40.162 22.5862C40.7431 21.9381 41.3514 21.8328 42.1262 22.1988C43.021 22.6223 43.9718 22.9051 44.9211 23.1864C45.4462 23.3425 45.972 23.4979 46.4876 23.6828C46.9096 23.8337 47.0134 24.0716 46.9074 24.498C46.6444 25.5512 46.6194 26.6353 46.4382 27.7717H46.439ZM22.3659 21.1287C21.6162 19.2035 20.8812 17.3182 20.1469 15.4321C20.211 16.2658 20.1241 17.095 20.2198 17.9184C20.2551 18.2226 20.2824 18.5341 20.2559 18.8375C20.2331 19.0975 20.3163 19.2713 20.5033 19.4289C21.0454 19.887 21.5278 20.4084 22.0448 20.893C22.128 20.9703 22.1921 21.0757 22.3651 21.1279L22.3659 21.1287ZM15.4092 54.8702C15.4092 54.8834 15.4084 54.896 15.4077 54.9092C15.5925 54.8952 15.7774 54.8768 15.963 54.8694C16.6965 54.8385 17.43 54.8127 18.1636 54.7811C18.5068 54.7663 18.889 54.8289 19.1806 54.6964C19.476 54.5623 19.6866 54.2346 19.9259 53.9842C20.32 53.571 20.7073 53.1513 21.0984 52.7344C21.0866 52.7131 21.0748 52.6924 21.0631 52.6711C19.1784 53.4039 17.2938 54.1374 15.4092 54.8702ZM65.3081 40.7859C65.3199 40.7667 65.3317 40.7476 65.3435 40.7284C65.2669 40.6577 65.191 40.587 65.1144 40.5171C64.3735 39.8417 63.6253 39.1745 62.8976 38.4859C62.7371 38.3342 62.5883 38.2561 62.3733 38.2612C61.7848 38.2752 61.1964 38.2738 60.6087 38.2885C60.39 38.2937 60.172 38.3275 59.954 38.3489C59.9503 38.3776 59.9466 38.4063 59.9422 38.4351C61.7303 39.2187 63.5192 40.003 65.3074 40.7866L65.3081 40.7859ZM15.0704 36.5607C13.3198 35.7919 11.5743 35.0259 9.78325 34.2394C9.83112 34.4537 9.95484 34.5214 10.0484 34.6083C10.762 35.2704 11.4816 35.9259 12.1937 36.5895C12.3138 36.7007 12.4456 36.7294 12.5958 36.7279C13.3301 36.7183 14.0636 36.7102 14.7972 36.697C14.8841 36.6955 14.9872 36.7183 15.0696 36.56L15.0704 36.5607ZM59.4163 20.1573C59.0039 20.1573 58.5915 20.1507 58.1798 20.1588C57.4603 20.1727 56.7429 20.2567 56.0227 20.2309C55.8688 20.225 55.7708 20.2898 55.6758 20.39C55.1603 20.932 54.6433 21.4726 54.1285 22.0161C54.0777 22.0699 53.9974 22.1185 54.0732 22.2673C55.868 21.614 57.6326 20.868 59.4163 20.158V20.1573ZM52.7793 53.9319C52.7513 53.9459 52.724 53.9599 52.696 53.9739C53.4089 55.8055 54.1226 57.6364 54.8355 59.468C54.8922 59.1704 54.8753 58.8921 54.8635 58.6137C54.8266 57.7601 54.7869 56.9073 54.7611 56.0537C54.7567 55.9108 54.7442 55.7944 54.6374 55.6936C54.0165 55.1073 53.3979 54.5196 52.7793 53.9327V53.9319ZM36.6733 59.943C36.6439 59.9327 36.6144 59.9224 36.5857 59.9128C35.8021 61.6995 35.0185 63.4854 34.2047 65.3406C34.419 65.2287 34.4934 65.0983 34.5913 64.9923C35.2608 64.2661 35.9273 63.5362 36.6048 62.8182C36.719 62.6974 36.7573 62.5752 36.7521 62.4242C36.7264 61.5971 36.6998 60.7708 36.6741 59.9437L36.6733 59.943ZM40.7534 9.80026C40.6812 9.75534 40.6392 9.77964 40.6017 9.81941C40.4735 9.95566 40.3447 10.0919 40.2187 10.2296C39.6236 10.8799 39.0337 11.5347 38.4313 12.1783C38.3061 12.3124 38.2862 12.456 38.2877 12.618C38.2928 13.0592 38.3017 13.5003 38.3046 13.9414C38.3076 14.3377 38.3046 14.7339 38.3046 15.1301C38.337 15.1367 38.3694 15.1441 38.4018 15.1507C39.1832 13.3722 39.9646 11.5928 40.7527 9.80026H40.7534ZM15.1757 19.0931C16.9123 19.8509 18.7027 20.4158 20.4319 21.1567C19.9009 20.6021 19.353 20.0777 18.8036 19.5548C18.7144 19.4701 18.604 19.4245 18.4795 19.4127C17.3785 19.3067 16.2767 19.1999 15.1757 19.0931ZM59.8192 55.8902C58.1341 55.1603 56.3909 54.6021 54.7081 53.8568C54.6852 53.9746 54.7309 54.01 54.7677 54.0461C55.2251 54.4938 55.6846 54.9401 56.142 55.3887C56.2723 55.5168 56.4255 55.572 56.6067 55.589C57.3365 55.6567 58.0657 55.7377 58.7955 55.8092C59.1357 55.8423 59.4775 55.8637 59.8192 55.8909V55.8902ZM40.1937 66.1868C40.2202 66.1721 40.2467 66.1574 40.2732 66.1419C39.5529 64.4635 38.7104 62.8396 38.0284 61.1383C38.0152 61.9064 38.041 62.6635 38.0638 63.4214C38.0697 63.6092 38.1794 63.7447 38.2877 63.8794C38.5219 64.1704 38.7605 64.4576 38.9991 64.7448C39.3968 65.2257 39.7952 65.7059 40.1937 66.1868ZM21.1109 54.6662C20.5615 55.1633 20.0372 55.6729 19.5577 56.2268C19.4642 56.335 19.4413 56.4617 19.4281 56.5965C19.3515 57.3793 19.2639 58.1622 19.1983 58.9458C19.1755 59.2205 19.0908 59.4923 19.1468 59.8546C19.8619 58.0974 20.4032 56.3549 21.1109 54.6654V54.6662ZM8.76029 40.2291C10.4564 39.5832 12.0634 38.7562 13.8147 38.0793C13.6983 38.0396 13.6637 38.0175 13.6291 38.0175C12.9619 38.0226 12.2946 38.0315 11.6274 38.0366C11.4712 38.0381 11.3424 38.1 11.2267 38.195C10.4041 38.8725 9.58219 39.5508 8.76029 40.2291ZM61.1552 36.9975C61.9123 36.9827 62.6686 36.9673 63.4257 36.9555C63.5848 36.9525 63.7026 36.8745 63.8182 36.7795C64.5407 36.1837 65.2647 35.5908 65.9857 34.9935C66.0475 34.9427 66.1543 34.9044 66.1131 34.7534C64.4398 35.4708 62.8306 36.303 61.1552 36.9982V36.9975ZM55.8231 15.354C55.1161 17.014 54.5821 18.7381 53.8582 20.3959C53.9318 20.3731 53.9826 20.3355 54.0254 20.2906C54.4776 19.8185 54.9253 19.3427 55.3812 18.8743C55.5528 18.6983 55.5985 18.487 55.6191 18.2557C55.6625 17.7512 55.7296 17.2482 55.7598 16.743C55.787 16.2827 55.9004 15.8276 55.8238 15.3547L55.8231 15.354ZM34.8705 8.87083C34.8395 8.88851 34.8078 8.90545 34.7769 8.92312C35.4788 10.5493 36.2845 12.129 36.9539 13.7698C36.9797 13.0525 36.9782 12.3462 36.9804 11.6407C36.9804 11.4544 36.8913 11.3115 36.7787 11.1753C36.4215 10.7437 36.0687 10.3084 35.7115 9.87686C35.4331 9.54029 35.151 9.20593 34.8712 8.87083H34.8705ZM36.9237 22.2187C36.9495 22.2106 36.9753 22.2025 37.0003 22.1944C37.0003 21.4196 37.0003 20.6441 37.0003 19.8693C37.0003 19.7625 37.0018 19.655 36.9966 19.5482C36.99 19.4127 36.9311 19.3346 36.7926 19.4179C36.4141 19.6454 36.0407 19.8804 35.6651 20.1116C35.5399 20.1889 35.509 20.281 35.6032 20.4091C36.0451 21.0108 36.4833 21.6155 36.9237 22.2187ZM38.0557 52.8434C38.0608 53.7854 37.9452 54.7126 38.0233 55.7031C38.4998 55.41 38.9255 55.1441 39.3548 54.8842C39.5154 54.787 39.4852 54.6897 39.3902 54.5601C39.0264 54.0682 38.6714 53.5688 38.3098 53.0754C38.2501 52.9944 38.2229 52.8788 38.0557 52.8434ZM25.0879 50.7504C25.4981 50.8512 25.9105 50.9595 26.3266 51.0538C26.6684 51.1311 26.7354 51.0788 26.7972 50.7113C26.8989 50.1059 26.9976 49.4998 27.094 48.8937C27.1036 48.8355 27.1382 48.7582 27.0447 48.7309C26.3959 49.4004 25.75 50.0676 25.0879 50.7504ZM50.0175 24.2705C49.4821 24.1386 49.0431 24.0223 48.6005 23.9251C48.3553 23.8713 48.2912 23.9125 48.2455 24.1711C48.1233 24.8655 48.0172 25.5623 47.9045 26.2582C48.6138 25.6241 49.3377 25.0261 50.0182 24.2705H50.0175ZM48.7574 47.8987C48.7809 48.0968 48.8966 48.1572 48.9768 48.2397C49.4055 48.6801 49.8393 49.1169 50.2716 49.5543C50.3658 49.6493 50.4586 49.7451 50.5573 49.8357C50.6582 49.9284 50.7554 49.9366 50.7937 49.7819C50.9005 49.354 51.0014 48.9246 51.0986 48.4945C51.1377 48.3244 51.0478 48.2537 50.885 48.2309C50.6206 48.1941 50.3577 48.1425 50.0941 48.1013C49.661 48.0335 49.2272 47.9694 48.7574 47.898V47.8987ZM24.2844 24.9591C24.1481 25.5416 24.0281 26.0446 23.9125 26.5484C23.8727 26.7215 23.9942 26.7413 24.1231 26.762C24.7565 26.8614 25.3891 26.9674 26.0225 27.0661C26.0924 27.0772 26.186 27.1155 26.2338 26.9777C25.6056 26.3274 24.9701 25.6698 24.2837 24.9583L24.2844 24.9591ZM55.6972 36.9628C55.4239 36.5202 55.186 36.1196 54.932 35.73C54.7913 35.5142 54.728 35.5083 54.5114 35.6622C53.9893 36.0327 53.473 36.4105 52.9545 36.7868C52.9133 36.8163 52.8647 36.845 52.875 36.9628H55.6972ZM22.1987 38.1095C22.1899 38.0793 22.1803 38.0491 22.1715 38.0182C21.7738 38.0182 21.3761 38.0182 20.9784 38.0182C20.5254 38.0182 20.0732 38.0086 19.6203 38.0182C19.4082 38.0226 19.3648 38.0926 19.462 38.259C19.677 38.6265 19.9083 38.9852 20.1307 39.3483C20.2139 39.4838 20.3104 39.4809 20.4282 39.3947C21.0174 38.9653 21.6088 38.5382 22.1987 38.1103V38.1095ZM43.4702 38.2664C43.0703 38.2664 42.7117 38.2679 42.353 38.2657C42.2006 38.2649 42.0658 38.2973 41.9538 38.4115C41.5451 38.8305 41.1356 39.2496 40.721 39.6642C40.5958 39.7894 40.6245 39.8822 40.732 40.0015C40.8727 40.1569 40.9765 40.0759 41.1091 39.9912C41.8478 39.5155 42.5239 38.9484 43.2788 38.4962C43.3443 38.4564 43.4179 38.4166 43.4695 38.2671L43.4702 38.2664ZM32.7317 41.1003C33.055 40.9008 33.2509 40.6423 33.4925 40.4375C33.6597 40.2961 33.7179 40.1223 33.7112 39.9058C33.6972 39.4381 33.7076 38.9697 33.6936 38.5028C33.6884 38.3334 33.7805 38.1022 33.5102 38.0388C33.3268 37.9954 33.2436 38.0963 33.178 38.4417C33.0212 39.2687 32.8695 40.0965 32.7177 40.9243C32.7111 40.9604 32.7229 41.0009 32.7317 41.1003ZM38.2892 31.499C38.2892 31.9659 38.2892 32.3385 38.2892 32.7112C38.2892 32.8342 38.312 32.9491 38.4062 33.0404C38.8275 33.4499 39.2473 33.8593 39.6678 34.2696C39.7717 34.3705 39.874 34.3778 39.983 34.2762C40.0817 34.1841 40.1274 34.0854 40.042 33.9602C40.0118 33.9161 39.9838 33.8711 39.9536 33.8269C39.4535 33.1023 38.9534 32.3776 38.4519 31.6536C38.4306 31.6227 38.3967 31.5999 38.2899 31.499H38.2892ZM41.0546 42.3185C40.8661 41.9178 40.573 41.6475 40.2975 41.3633C40.218 41.2808 40.1141 41.2587 40.0029 41.2742C39.4992 41.3434 38.9917 41.3058 38.4865 41.3183C38.407 41.3206 38.3267 41.3228 38.2472 41.3316C38.1419 41.3434 38.0778 41.4067 38.0638 41.5113C38.0491 41.6277 38.0822 41.7271 38.2023 41.7676C38.3024 41.8015 38.407 41.828 38.5116 41.8464C38.9962 41.9311 39.483 42.0077 39.9676 42.0961C40.3314 42.1623 40.6923 42.2434 41.0546 42.3177V42.3185ZM36.624 43.3657C36.7728 42.9592 36.7507 42.5497 36.733 42.141C36.7293 42.0585 36.6704 41.993 36.6085 41.9414C36.1681 41.571 35.7726 41.1526 35.3631 40.7498C35.2556 40.6437 35.1525 40.5929 35.0177 40.7144C34.8933 40.8264 34.8977 40.928 34.9875 41.0628C35.5068 41.8398 36.1011 42.5637 36.624 43.3665V43.3657ZM33.9359 32.6729C33.9219 32.6965 33.9086 32.72 33.8946 32.7436C34.1539 33.0279 34.4146 33.3114 34.6716 33.5979C34.7828 33.7216 34.9213 33.7452 35.0737 33.7224C35.5524 33.6509 36.0348 33.6848 36.5157 33.6738C36.6225 33.6716 36.73 33.6679 36.8346 33.6517C36.923 33.6377 36.9701 33.5707 36.979 33.4823C36.9885 33.3865 36.9849 33.2893 36.881 33.2422C36.8206 33.2149 36.7543 33.2002 36.6895 33.1862C35.7756 32.9933 34.8454 32.8909 33.9359 32.6722V32.6729ZM31.5762 36.6093C31.5843 36.6484 31.5924 36.6874 31.6005 36.7257C31.9305 36.7257 32.2611 36.7132 32.5903 36.7294C32.8385 36.7419 33.0204 36.6609 33.1861 36.476C33.5065 36.1188 33.8453 35.7779 34.1767 35.4302C34.2224 35.3816 34.2688 35.3338 34.3129 35.2844C34.3903 35.1983 34.3704 35.1172 34.3012 35.0355C34.1818 34.8941 34.0574 34.911 33.9138 35.0038C33.1199 35.5179 32.3856 36.1166 31.5762 36.6093ZM42.2168 33.9242C41.9973 34.1296 41.7896 34.3513 41.5539 34.5369C41.3411 34.7041 41.2542 34.897 41.2917 35.1607C41.3558 35.6122 41.3404 36.0673 41.3433 36.5217C41.3433 36.6145 41.3477 36.7095 41.3654 36.8001C41.386 36.9047 41.4641 36.9525 41.5694 36.957C41.6732 36.9614 41.755 36.9253 41.7867 36.82C41.8095 36.7434 41.8183 36.6631 41.8367 36.585C42.0164 35.8036 42.0709 34.9987 42.2742 34.221C42.2963 34.137 42.3272 34.039 42.2168 33.9234V33.9242ZM31.75 40.0737C32.038 39.4558 32.1183 38.821 32.2162 38.1891C32.2412 38.0278 32.1565 37.9674 32.0137 37.9659C31.7066 37.9622 31.3987 37.9541 31.0923 37.9637C30.8832 37.9696 30.8449 38.0219 30.9259 38.2104C31.194 38.8342 31.4746 39.4529 31.75 40.0737ZM43.2662 34.9236C42.9871 35.5164 42.8951 36.1196 42.8177 36.725C42.7883 36.9577 42.8406 37.0144 43.0748 37.0254C43.3671 37.0387 43.661 37.0299 43.9541 37.0328C44.1124 37.0343 44.1831 36.9754 44.1102 36.8133C43.8289 36.1837 43.5476 35.554 43.2662 34.9236ZM38.4291 19.8038C38.3532 20.306 38.3842 21.684 38.4836 21.9764C38.8828 21.656 39.2768 21.3452 39.6634 21.0271C39.7908 20.9225 39.687 20.8393 39.6096 20.7671C39.3372 20.5137 39.0639 20.2604 38.7863 20.0129C38.6905 19.9275 38.6103 19.8097 38.4291 19.8038ZM40.0884 43.2545C40.0898 43.2258 40.0906 43.1971 40.092 43.1684C39.4786 42.9968 38.8548 42.8694 38.2207 42.7935C38.0675 42.7751 37.9953 42.8568 37.9931 43.0012C37.9879 43.3216 37.9865 43.6412 37.9894 43.9615C37.9916 44.1398 38.0947 44.1552 38.2324 44.0934C38.8511 43.8143 39.4697 43.5351 40.0884 43.2553V43.2545ZM43.3922 39.7644C42.7478 39.9868 42.2322 40.3808 41.7182 40.777C41.6195 40.8536 41.6541 40.945 41.7211 41.0208C41.9818 41.3176 42.2403 41.6166 42.5902 41.881C42.8663 41.1526 43.1292 40.4589 43.3922 39.7644ZM25.873 47.789C25.3766 47.7345 24.9281 47.6852 24.4803 47.6373C24.2181 47.6093 24.1673 47.6446 24.196 47.9164C24.2387 48.3156 24.2328 48.7162 24.2571 49.1161C24.2616 49.1927 24.2454 49.2803 24.3271 49.3334C24.5827 49.2074 25.5968 48.2058 25.873 47.789ZM47.8014 49.2082C47.7477 49.6699 47.6888 50.1523 47.6365 50.6362C47.6239 50.7489 47.6895 50.81 47.8051 50.8056C48.2698 50.7894 48.7353 50.7732 49.2 50.7555C49.267 50.7533 49.3399 50.7422 49.3576 50.6642C49.3745 50.5898 49.3127 50.5427 49.267 50.497C48.8413 50.0765 48.4142 49.6574 47.987 49.2384C47.9487 49.2008 47.9045 49.1721 47.8022 49.2082H47.8014ZM35.2895 43.3068C35.0001 42.7088 34.6142 42.2036 34.2268 41.6991C34.1664 41.621 34.0898 41.6255 34.0198 41.6895C33.7657 41.9245 33.5124 42.1609 33.2598 42.398C33.1375 42.5122 33.1515 42.5939 33.315 42.655C33.8644 42.8605 34.4102 43.0734 34.9596 43.2788C35.0435 43.3098 35.1275 43.3657 35.2895 43.3068ZM39.8114 31.6264C39.7275 31.6801 39.7422 31.7346 39.7673 31.781C40.0471 32.315 40.4043 32.7974 40.7689 33.2761C40.8543 33.3887 40.9434 33.3829 41.0369 33.2908C41.266 33.0669 41.4994 32.8467 41.7204 32.6154C41.8669 32.4623 41.8581 32.4078 41.6622 32.3304C41.0428 32.0874 40.4183 31.8561 39.8122 31.6256L39.8114 31.6264ZM31.655 35.3131C32.2552 35.0171 32.77 34.6209 33.2966 34.2408C33.4159 34.1547 33.4049 34.0737 33.3121 33.9794C33.1162 33.7798 32.924 33.5765 32.7244 33.3806C32.46 33.1207 32.4335 33.1244 32.3024 33.4572C32.1124 33.9404 31.9275 34.4264 31.7485 34.914C31.7051 35.0333 31.6197 35.1467 31.6543 35.3131H31.655ZM19.7271 36.613C20.4488 36.6498 21.0999 36.6241 21.7502 36.5703C21.9299 36.5556 21.9616 36.479 21.8481 36.3368C21.6081 36.0334 21.3569 35.7388 21.1124 35.4383C21.0034 35.3043 20.8915 35.3021 20.7758 35.4229C20.4253 35.7867 20.0534 36.1321 19.7271 36.613ZM34.8285 31.7899C35.509 32.0012 36.1099 32.1117 36.7168 32.1949C36.9009 32.22 36.9974 32.15 37.007 31.9637C37.0224 31.658 37.0386 31.3517 37.0519 31.046C37.0585 30.8869 36.9952 30.8162 36.8331 30.8892C36.1909 31.1779 35.5487 31.4666 34.8277 31.7899H34.8285ZM53.0289 38.4203C53.3102 38.8895 53.6468 39.1958 53.9046 39.5619C54.0467 39.7637 54.0843 39.76 54.2706 39.5633C54.5726 39.2444 54.8642 38.916 55.1581 38.5905C55.2008 38.5433 55.2523 38.4925 55.1971 38.3791C54.5159 38.3231 53.8206 38.4498 53.0289 38.4203ZM49.0807 27.2009C49.6529 27.2642 50.1353 27.3239 50.6199 27.3688C50.7849 27.3843 50.807 27.2495 50.8062 27.1228C50.8055 26.843 50.8011 26.5639 50.7959 26.284C50.7923 26.0741 50.7738 25.8671 50.6693 25.5983C50.1324 26.1404 49.6345 26.6419 49.0807 27.2009ZM27.1832 25.7883C27.2008 25.7611 27.2376 25.7302 27.2413 25.6956C27.287 25.2713 27.3268 24.8464 27.3695 24.4215C27.3857 24.2616 27.2995 24.2035 27.1552 24.2064C26.7413 24.2152 26.3274 24.2241 25.9135 24.2351C25.8332 24.2373 25.7404 24.244 25.7065 24.3272C25.6712 24.4156 25.7492 24.4745 25.8045 24.529C26.2022 24.9245 26.6013 25.3192 27.0005 25.7125C27.0476 25.7589 27.0977 25.8053 27.1832 25.7876V25.7883ZM36.5783 52.9841C36.1342 53.3405 35.7741 53.6344 35.4088 53.9216C35.2792 54.024 35.2902 54.1079 35.4029 54.2118C35.6872 54.4732 35.9648 54.7428 36.2521 55.0005C36.3353 55.0757 36.4141 55.1802 36.5783 55.1648V52.9833V52.9841ZM39.103 40.126C38.9255 39.7467 38.404 39.1502 38.1544 39.0316C38.0852 39.3188 38.0763 39.609 38.0807 39.9006C38.0829 40.0339 38.122 40.1444 38.2752 40.1488C38.5469 40.1562 38.8216 40.1879 39.103 40.126ZM36.8155 36.004C36.8486 35.9892 36.881 35.9745 36.9142 35.9598C36.9142 35.6681 36.9156 35.3757 36.9134 35.0841C36.9127 34.9869 36.8906 34.8779 36.7809 34.8646C36.4877 34.8293 36.1909 34.7873 35.8485 34.9081C36.1961 35.294 36.4649 35.6858 36.8162 36.004H36.8155ZM36.8155 40.4692C36.9259 39.9765 36.9208 39.4941 36.9421 38.9572C36.8133 39.0574 36.7249 39.1133 36.6505 39.1855C35.9059 39.9058 35.9582 39.6672 36.6115 40.3587C36.6557 40.4059 36.6984 40.4596 36.8155 40.4692ZM38.9571 38.0344C39.1847 38.4049 39.4425 38.6008 39.6568 38.8342C39.7326 38.9167 39.8195 38.9219 39.9006 38.8416C40.0714 38.6729 40.243 38.505 40.4065 38.329C40.4802 38.2495 40.4426 38.1604 40.3476 38.1508C39.9146 38.1066 39.48 38.0771 38.9564 38.0344H38.9571ZM38.2442 34.4957C38.2133 34.5111 38.1831 34.5259 38.1522 34.5413C38.1838 35.0215 38.0233 35.4951 38.0918 36.0717C38.3775 35.7911 38.5948 35.5798 38.8098 35.3654C38.8975 35.2785 38.9174 35.1776 38.826 35.0834C38.6346 34.8853 38.4379 34.6916 38.2435 34.4964L38.2442 34.4957ZM36.0326 38.2009C36.0164 38.1662 36.0009 38.1324 35.9847 38.0977C35.7071 38.0977 35.4287 38.0977 35.151 38.0977C34.9529 38.0977 34.8594 38.1942 34.8616 38.3923C34.8646 38.6265 34.8616 38.8615 34.8616 39.1568C35.3271 38.8504 35.6673 38.5117 36.0319 38.2009H36.0326ZM36.0797 36.9083C35.8176 36.6417 35.604 36.423 35.3875 36.2072C35.2998 36.1196 35.1952 36.1012 35.1032 36.1925C34.9168 36.3766 34.6915 36.5283 34.5737 36.7795C34.8196 36.8767 35.6703 36.957 36.0797 36.9083ZM38.98 36.8443C39.3489 36.9253 39.6553 36.8848 39.9565 36.9083C40.0714 36.9179 40.1252 36.8354 40.1281 36.7294C40.134 36.5158 40.1377 36.3022 40.1311 36.0887C40.1259 35.934 40.0339 35.8942 39.9219 35.9936C39.6244 36.2573 39.2885 36.4805 38.9792 36.8443H38.98Z" fill="white"/>
</svg>
