<svg width="68" height="68" viewBox="0 0 68 68" fill="none" xmlns="http://www.w3.org/2000/svg">
<path d="M35.0034 46.1493C35.0334 47.1135 35.0603 47.9946 35.0884 48.8752C35.1031 49.3275 35.1273 49.7799 35.1337 50.2323C35.1363 50.4081 35.1976 50.5359 35.3184 50.6617C36.7816 52.1851 38.2455 53.7071 39.6934 55.2451C39.8934 55.4579 40.0168 55.748 40.1548 56.0132C40.2314 56.1608 40.25 56.3365 40.0953 56.4579C39.9484 56.5735 39.8027 56.4777 39.6755 56.4061C39.3912 56.2464 39.1484 56.0406 38.9299 55.7902C37.7311 54.4183 36.519 53.0585 35.3107 51.6956C35.2967 51.6796 35.2724 51.6726 35.2219 51.6426C35.213 51.7397 35.1957 51.824 35.1989 51.9077C35.243 53.2298 35.2916 54.5525 35.3318 55.8745C35.3363 56.0272 35.3893 56.1346 35.4967 56.2368C36.5893 57.2771 37.682 58.3167 38.765 59.3665C38.9458 59.5416 39.089 59.7569 39.2366 59.9633C39.2883 60.0349 39.3164 60.1327 39.3279 60.2221C39.3663 60.516 39.1465 60.718 38.8794 60.5959C38.6327 60.4834 38.3957 60.3167 38.2014 60.1256C37.342 59.279 36.5005 58.4138 35.6513 57.5569C35.59 57.4949 35.5197 57.4426 35.3989 57.3384C35.3989 57.5065 35.3963 57.6055 35.3989 57.7045C35.4225 58.4815 35.4513 59.2592 35.4666 60.0362C35.4698 60.2138 35.5312 60.332 35.6577 60.456C36.4117 61.1953 37.1618 61.9384 37.896 62.6975C38.0417 62.8483 38.1522 63.0624 38.2046 63.2668C38.2928 63.61 38.0168 63.8528 37.6922 63.7148C37.4762 63.6234 37.2711 63.47 37.1062 63.3001C36.6698 62.8515 36.2558 62.3799 35.8366 61.9141C35.7593 61.8279 35.7011 61.7243 35.6347 61.6285C35.6053 61.6464 35.5765 61.6649 35.5471 61.6828C35.5369 61.7563 35.5165 61.8291 35.5171 61.9026C35.5254 62.6687 35.5331 63.4342 35.5529 64.1997C35.5555 64.3058 35.5963 64.4291 35.6609 64.5116C35.9625 64.8937 36.2788 65.2649 36.5906 65.6394C36.6724 65.7371 36.7657 65.8266 36.8411 65.9288C37.0398 66.1985 37.0347 66.4017 36.8066 66.6438C36.4404 67.0317 36.0737 67.4202 35.6884 67.7895C35.4047 68.0611 35.2558 68.0713 34.9638 67.8119C34.5567 67.4509 34.1746 67.0611 33.7925 66.6732C33.5504 66.4272 33.5203 66.1314 33.7095 65.8457C34.0545 65.3243 34.4206 64.817 34.7727 64.3007C34.8206 64.2304 34.8756 64.1403 34.8717 64.0617C34.8353 63.2502 34.7881 62.4394 34.7421 61.6285C34.7395 61.585 34.721 61.5422 34.6986 61.4566C34.6002 61.5608 34.5197 61.6387 34.4475 61.7237C34.0788 62.1563 33.721 62.5991 33.3408 63.0221C33.1325 63.2541 32.8884 63.4534 32.6584 63.6649C32.6162 63.7039 32.5644 63.7333 32.514 63.7614C32.3663 63.8432 32.213 63.9001 32.0609 63.778C31.9414 63.6822 31.9414 63.5122 32.0584 63.2994C32.114 63.1978 32.1772 63.0994 32.2481 63.008C32.8405 62.2483 33.4315 61.4879 34.0315 60.7352C34.1823 60.5454 34.3734 60.3882 34.5318 60.2036C34.5944 60.1307 34.6577 60.024 34.6551 59.9346C34.6296 59.0553 34.5906 58.1761 34.5529 57.2413C34.4609 57.316 34.3996 57.3557 34.3504 57.4074C33.5267 58.2739 32.7101 59.1467 31.8795 60.0068C31.6635 60.2304 31.4175 60.4298 31.1645 60.6119C30.9357 60.7767 30.7344 60.7704 30.6239 60.6477C30.5159 60.5269 30.5274 60.3799 30.7101 60.1461C31.0021 59.771 31.3031 59.4017 31.6143 59.0419C32.2443 58.3135 32.8794 57.5889 33.521 56.8707C33.7836 56.5767 34.0667 56.3013 34.3433 56.0202C34.4353 55.9269 34.5043 55.8368 34.498 55.6898C34.4405 54.3799 34.3906 53.0694 34.3369 51.7589C34.335 51.7148 34.3178 51.672 34.2973 51.5851C34.1996 51.6726 34.1248 51.7352 34.0552 51.8036C32.9842 52.8496 31.9152 53.8975 30.843 54.9429C30.7101 55.072 30.5683 55.1934 30.4213 55.3065C30.2284 55.4547 30.0641 55.47 29.9472 55.3684C29.8162 55.2547 29.8105 55.0822 29.9638 54.8656C30.0974 54.6771 30.2469 54.4962 30.4098 54.332C31.4795 53.2521 32.5555 52.178 33.6283 51.1007C33.8411 50.8873 34.128 50.7026 34.236 50.4438C34.3376 50.1998 34.2539 49.8758 34.243 49.5876C34.1989 48.4394 34.151 47.2918 34.1044 46.1435C34.1005 46.0515 34.0922 45.9595 34.082 45.8055C33.9593 45.8822 33.866 45.9352 33.7778 45.9953C32.2271 47.0605 30.7351 48.203 29.2827 49.3978C28.5479 50.0023 27.8041 50.5972 27.1562 51.2994C27.0559 51.4081 26.9306 51.5045 26.7984 51.571C26.5108 51.7154 26.2309 51.5876 26.1524 51.2668C26.1006 51.0553 26.0802 50.8311 26.0802 50.6125C26.0833 49.4055 26.0968 48.1985 26.1076 46.9914C26.1185 45.8426 26.1313 44.6937 26.1428 43.5448C26.1428 43.4905 26.1357 43.4355 26.1287 43.3307C26.031 43.417 25.9607 43.4694 25.9019 43.532C25.0527 44.4381 24.2067 45.3474 23.3562 46.2522C23.2335 46.3831 23.1524 46.5097 23.1485 46.7058C23.1128 48.5039 23.0636 50.302 23.0201 52.1007C23.0131 52.3793 23.0054 52.6579 23.0157 52.9365C23.0272 53.2585 22.9383 53.5557 22.824 53.849C22.799 53.9129 22.7658 53.9767 22.7249 54.0317C22.5377 54.2809 22.3 54.2617 22.2118 53.9608C22.1249 53.6649 22.0572 53.3454 22.0732 53.0413C22.1268 52.0221 22.2316 51.0061 22.2974 49.9876C22.3479 49.2119 22.369 48.4343 22.4022 47.6573C22.4061 47.5665 22.4022 47.4752 22.4022 47.3339C22.3096 47.4061 22.2444 47.4438 22.1946 47.4962C21.2904 48.4624 20.3895 49.4311 19.4834 50.3953C19.3722 50.5135 19.3256 50.6349 19.3301 50.7985C19.3709 52.3065 19.4119 53.8138 19.4342 55.3218C19.438 55.5946 19.3767 55.8732 19.3147 56.1416C19.2751 56.3154 19.1607 56.4573 18.9531 56.4656C18.7799 56.4726 18.6214 56.3531 18.578 56.118C18.5262 55.8355 18.5032 55.5448 18.5013 55.2573C18.4936 54.0509 18.4981 52.8445 18.4975 51.6381C18.4975 51.6164 18.4847 51.5946 18.4687 51.5416C18.4023 51.5921 18.3365 51.6298 18.2873 51.6815C17.7294 52.272 17.1761 52.8668 16.6157 53.4553C16.5032 53.5736 16.4624 53.695 16.4636 53.8579C16.4713 54.8905 16.4732 55.9237 16.4649 56.9563C16.4636 57.1384 16.431 57.3269 16.3742 57.5001C16.2886 57.7627 16.1237 57.8809 15.9275 57.87C15.7358 57.8592 15.5831 57.7224 15.5218 57.4528C15.4809 57.2751 15.4713 57.0854 15.4771 56.902C15.4969 56.2758 15.5301 55.6502 15.5569 55.024C15.5614 54.9129 15.5576 54.801 15.5576 54.6215C15.4368 54.7256 15.3672 54.7774 15.3071 54.8387C14.7793 55.3774 14.2509 55.9154 13.7295 56.4611C13.6643 56.5295 13.6138 56.6349 13.6036 56.7282C13.548 57.2234 13.4918 57.7192 13.4643 58.217C13.4241 58.9486 13.3308 59.0611 12.6081 59.086C12.1793 59.1007 11.7493 59.1052 11.3206 59.0937C10.9199 59.0822 10.7857 58.9691 10.7659 58.5774C10.7391 58.0336 10.7461 57.4879 10.7506 56.9435C10.7531 56.6106 10.9346 56.3889 11.2547 56.3212C11.8662 56.1927 12.4829 56.0898 13.0963 55.971C13.1915 55.9525 13.309 55.9307 13.3678 55.8662C13.932 55.2496 14.4854 54.624 15.0413 53.9998C15.0547 53.9851 15.0541 53.9576 15.0707 53.8962C14.6969 53.9256 14.3352 53.9569 13.9736 53.9812C13.3499 54.0227 12.7282 54.1461 12.1007 54.0311C12.0209 54.0164 11.9391 54.0087 11.8624 53.9838C11.7135 53.9359 11.5768 53.8649 11.5704 53.6815C11.5646 53.4982 11.6905 53.4157 11.842 53.3646C11.9186 53.3384 11.9979 53.318 12.0777 53.3071C12.7212 53.2183 13.3634 53.1173 14.0087 53.049C14.6189 52.9838 15.233 52.9505 15.8458 52.9097C15.9665 52.9013 16.0656 52.8815 16.1531 52.7851C16.7218 52.1576 17.2962 51.5346 17.8675 50.909C17.8802 50.895 17.8809 50.8688 17.8981 50.8157C17.817 50.8119 17.7429 50.8036 17.67 50.8055C16.4515 50.8343 15.2336 50.8694 14.0151 50.8886C13.7391 50.893 13.4611 50.8521 13.1857 50.8157C13.086 50.8023 12.9819 50.7582 12.8995 50.7001C12.7039 50.564 12.7212 50.3224 12.9397 50.2311C13.0867 50.1697 13.2528 50.141 13.4126 50.1276C14.3378 50.0515 15.2624 49.9742 16.1889 49.9186C17.0106 49.8694 17.8342 49.8451 18.6572 49.817C18.8042 49.8119 18.9218 49.7831 19.0265 49.6688C19.9051 48.7103 20.7882 47.7569 21.6687 46.801C21.6981 46.7691 21.7179 46.7288 21.7703 46.6515C21.6272 46.6438 21.5185 46.6349 21.4093 46.633C19.8777 46.6119 18.346 46.594 16.8144 46.5691C16.6304 46.5659 16.4451 46.5371 16.263 46.5052C16.1256 46.4809 16.0323 46.3921 16.0247 46.2445C16.017 46.1001 16.095 45.9946 16.2259 45.9506C16.3563 45.9071 16.4949 45.872 16.6317 45.8669C17.3972 45.84 18.1627 45.8087 18.9282 45.8061C20.0189 45.803 21.1102 45.817 22.201 45.8375C22.4527 45.8419 22.6316 45.7697 22.8048 45.5787C23.7006 44.5895 24.6112 43.6132 25.5159 42.6317C25.5702 42.5729 25.6201 42.5109 25.6968 42.4221C25.6028 42.3883 25.5357 42.3506 25.4642 42.3403C23.7658 42.0962 22.0674 41.847 20.3671 41.617C19.7122 41.5282 19.0521 41.4707 18.3927 41.4247C17.9422 41.3934 17.4879 41.4119 17.0355 41.3991C16.8624 41.394 16.6847 41.3863 16.5192 41.3423C16.1902 41.2547 16.0604 40.9563 16.2355 40.663C16.3531 40.4662 16.5071 40.2854 16.6707 40.1237C17.5103 39.2892 18.3575 38.463 19.2023 37.6336C20.0221 36.8285 20.8419 36.0241 21.6617 35.2183C21.7089 35.1717 21.7498 35.1193 21.8284 35.0292C21.684 35.0221 21.5856 35.0106 21.4879 35.0138C20.2355 35.056 18.9825 35.1033 17.7301 35.1403C17.564 35.1455 17.4502 35.21 17.3358 35.3199C15.8119 36.7819 14.2892 38.2458 12.7525 39.695C12.5474 39.8886 12.2733 40.0145 12.0177 40.1467C11.8745 40.2202 11.6892 40.2579 11.5608 40.1212C11.4247 39.9774 11.5116 39.8106 11.5928 39.6707C11.7557 39.3883 11.9614 39.1461 12.2119 38.9276C13.5755 37.7371 14.9263 36.5327 16.2809 35.332C16.3039 35.3116 16.3148 35.2784 16.3486 35.2209C16.2502 35.2132 16.1755 35.2004 16.1013 35.2023C14.8023 35.2451 13.5033 35.2943 12.2042 35.3301C11.9889 35.3359 11.842 35.4081 11.6943 35.564C10.6503 36.6688 9.60109 37.7685 8.54167 38.8579C8.37554 39.0285 8.15893 39.157 7.94999 39.2777C7.79472 39.3678 7.61388 39.3812 7.46436 39.2432C7.34999 39.1371 7.32124 38.941 7.44329 38.7602C7.60367 38.5225 7.79024 38.2975 7.99151 38.0931C8.8471 37.226 9.71291 36.3691 10.5742 35.5071C10.5889 35.4924 10.594 35.4669 10.6151 35.4209C10.5576 35.4094 10.5065 35.3889 10.4567 35.3902C9.63304 35.4151 8.80941 35.4483 7.98577 35.4662C7.78258 35.4707 7.64902 35.5499 7.50973 35.6924C6.77874 36.4381 6.0369 37.1736 5.29506 37.909C5.12765 38.0752 4.92829 38.1972 4.68676 38.2189C4.38133 38.2471 4.19987 38.0451 4.26185 37.7435C4.31552 37.4822 4.48165 37.2892 4.67462 37.1148C5.1481 36.6867 5.61965 36.2566 6.08929 35.8247C6.173 35.7474 6.24712 35.6592 6.35958 35.5403C6.25415 35.5256 6.19218 35.509 6.13084 35.5103C5.34171 35.5218 4.55258 35.532 3.76409 35.5557C3.65993 35.5589 3.54108 35.6145 3.45738 35.6809C3.0855 35.9768 2.7232 36.2854 2.35771 36.5902C2.251 36.6796 2.15324 36.7806 2.0395 36.8605C1.80244 37.0279 1.58583 37.0234 1.37688 36.8285C0.98711 36.4643 0.597978 36.0982 0.228013 35.7141C-0.0678302 35.4081 -0.0767652 35.2509 0.206938 34.932C0.552621 34.5423 0.927687 34.178 1.29829 33.8106C1.56602 33.5455 1.87849 33.5212 2.18647 33.7269C2.69637 34.0681 3.19284 34.4285 3.69891 34.7761C3.7692 34.8247 3.86185 34.8745 3.94172 34.8701C4.78708 34.8266 5.63243 34.7729 6.47715 34.7212C6.48546 34.7212 6.49249 34.7078 6.52188 34.6803C6.45798 34.6196 6.39792 34.5557 6.33147 34.4995C5.89824 34.1308 5.45288 33.7761 5.03371 33.3927C4.76151 33.1435 4.51167 32.8656 4.281 32.5774C4.09954 32.3512 4.1053 32.1634 4.23182 32.0432C4.35258 31.9288 4.50849 31.9231 4.74107 32.086C5.17813 32.3915 5.61198 32.7039 6.02668 33.0394C6.59408 33.4988 7.1468 33.9768 7.6944 34.4592C7.86181 34.6068 8.02602 34.6752 8.25286 34.6624C8.97106 34.6209 9.69054 34.6011 10.4094 34.5697C10.511 34.5653 10.6113 34.5474 10.7602 34.5301C10.6675 34.4343 10.6094 34.3697 10.5468 34.3103C9.67201 33.479 8.79278 32.6522 7.92442 31.8138C7.7257 31.6221 7.55702 31.3966 7.39153 31.1742C7.32571 31.0854 7.28225 30.9653 7.27011 30.8547C7.24583 30.6368 7.42731 30.5001 7.63114 30.5844C7.75766 30.6362 7.87714 30.7173 7.98193 30.8062C8.76787 31.4758 9.55572 32.1442 10.3302 32.8266C10.8873 33.3173 11.4266 33.8279 11.9697 34.334C12.0758 34.433 12.1742 34.5033 12.3327 34.4956C13.6081 34.4375 14.8835 34.387 16.1588 34.3333C16.2272 34.3308 16.2943 34.318 16.4125 34.3039C16.3243 34.203 16.263 34.1263 16.1953 34.0566C15.1569 32.994 14.1167 31.934 13.0803 30.8694C12.9269 30.7116 12.787 30.5397 12.6522 30.3665C12.5538 30.24 12.5129 30.0943 12.6266 29.9512C12.7225 29.8298 12.8911 29.8074 13.0688 29.925C13.2611 30.0522 13.447 30.1966 13.6106 30.3582C14.7007 31.4343 15.7838 32.5173 16.8694 33.5979C17.0828 33.8106 17.263 34.1039 17.5205 34.2126C17.7754 34.3199 18.109 34.2509 18.408 34.2426C19.0342 34.2247 19.6604 34.1972 20.2866 34.1717C20.9007 34.1467 21.5147 34.1193 22.1396 34.0931C22.1665 33.9384 22.0546 33.8547 21.9875 33.7576C20.8764 32.1397 19.6802 30.5864 18.4291 29.0745C17.8885 28.4215 17.3537 27.7653 16.7294 27.1876C16.6202 27.0867 16.5205 26.9666 16.4477 26.8368C16.2783 26.5372 16.3927 26.242 16.725 26.1551C16.9352 26.1001 17.1601 26.0828 17.3786 26.0835C19.0036 26.0886 20.6284 26.1014 22.2533 26.1148C22.9728 26.1205 23.6923 26.134 24.4118 26.1442C24.4776 26.1448 24.5441 26.1442 24.6687 26.1442C24.5875 26.0432 24.5473 25.9793 24.4942 25.9289C23.5715 25.063 22.6457 24.2011 21.7249 23.3333C21.599 23.2151 21.4719 23.157 21.2943 23.1531C19.4725 23.1142 17.6515 23.0656 15.8304 23.0221C15.5518 23.0151 15.27 23.0451 14.9959 23.0087C14.6892 22.9678 14.3895 22.8733 14.0886 22.7959C14.0356 22.7819 13.9863 22.741 13.9423 22.7033C13.7352 22.5276 13.7544 22.3225 14.0062 22.219C14.3199 22.0899 14.6509 22.0375 14.9934 22.0637C16.1154 22.1499 17.2368 22.24 18.3595 22.3129C19.1109 22.3614 19.8642 22.3825 20.677 22.4183C20.6023 22.3193 20.5671 22.2554 20.5166 22.2081C19.5511 21.3033 18.5818 20.403 17.6189 19.4956C17.4898 19.3736 17.3582 19.3295 17.1838 19.334C15.6643 19.3723 14.1448 19.41 12.6253 19.4305C12.364 19.4343 12.0969 19.3742 11.8407 19.3097C11.6682 19.2662 11.5231 19.1442 11.5289 18.9384C11.5346 18.7333 11.6841 18.6202 11.8598 18.5845C12.1078 18.534 12.3634 18.4995 12.6158 18.4982C13.8573 18.4924 15.0988 18.5007 16.3403 18.5027C16.3742 18.5027 16.408 18.4924 16.4764 18.4809C16.4176 18.4081 16.3774 18.3442 16.3243 18.2937C15.7339 17.7359 15.1384 17.1825 14.5512 16.6222C14.433 16.5097 14.3135 16.4656 14.1499 16.4669C13.1173 16.4752 12.0841 16.4809 11.0516 16.4669C10.8266 16.4637 10.5966 16.3928 10.3819 16.318C10.2241 16.263 10.1193 16.1257 10.1257 15.9391C10.1314 15.7531 10.242 15.6202 10.4049 15.5781C10.6362 15.5186 10.8803 15.4707 11.1174 15.4777C11.8471 15.4982 12.5761 15.5468 13.3902 15.5883C13.2886 15.4586 13.2439 15.3877 13.1851 15.3301C12.6375 14.7947 12.0912 14.2579 11.5352 13.7308C11.4592 13.6586 11.3384 13.6081 11.233 13.5953C10.7845 13.5416 10.3333 13.5059 9.88287 13.4643C9.69821 13.4471 9.51098 13.4445 9.32888 13.4113C9.08862 13.3672 8.94998 13.2228 8.93975 12.987C8.91675 12.4541 8.89246 11.9199 8.90333 11.387C8.91291 10.8905 9.01004 10.7877 9.49565 10.7627C10.0158 10.7359 10.5378 10.7468 11.0586 10.7525C11.4113 10.7563 11.6234 10.9589 11.6899 11.2912C11.8107 11.8924 11.9097 12.4982 12.0215 13.1008C12.0375 13.1857 12.0522 13.2944 12.1084 13.3461C12.7429 13.9231 13.3857 14.4918 14.0394 15.0739C14.141 14.9615 14.0892 14.8432 14.0816 14.7391C14.0368 14.1257 13.9717 13.5135 13.9397 12.8995C13.9237 12.6004 13.9467 12.2956 13.9838 11.9979C14.0189 11.7186 14.1531 11.5717 14.316 11.5634C14.4835 11.5551 14.6183 11.6822 14.6668 11.973C14.7684 12.5787 14.8637 13.187 14.9282 13.7979C14.9991 14.4662 15.0349 15.1378 15.0835 15.8081C15.0924 15.9359 15.0969 16.0515 15.2081 16.1512C15.8368 16.7186 16.4585 17.295 17.0834 17.8662C17.1064 17.8873 17.1422 17.8956 17.2119 17.9282C17.2023 17.7595 17.1908 17.6164 17.1876 17.4733C17.1576 16.3014 17.125 15.1295 17.1032 13.9576C17.0994 13.7384 17.1365 13.5193 17.1576 13.3001C17.1633 13.2426 17.1761 13.1851 17.1921 13.1301C17.2675 12.8733 17.3889 12.7512 17.5537 12.7749C17.7767 12.8068 17.8151 12.9934 17.8361 13.1634C17.8943 13.6234 17.9467 14.0854 17.9799 14.548C18.0547 15.5896 18.1205 16.6324 18.1805 17.6746C18.1997 18.01 18.1933 18.3474 18.1908 18.6841C18.1895 18.8196 18.2214 18.925 18.3269 19.0215C19.2936 19.9078 20.2553 20.7991 21.2195 21.688C21.2431 21.7097 21.2757 21.7212 21.3486 21.7634C21.3556 21.6298 21.3658 21.5218 21.3665 21.4145C21.3831 19.9525 21.3965 18.4899 21.4169 17.0279C21.4201 16.7966 21.4495 16.5653 21.4744 16.3346C21.4923 16.171 21.5728 16.0464 21.7479 16.0202C21.8917 15.9992 22.0444 16.1167 22.0808 16.3161C22.1288 16.5774 22.1626 16.8452 22.1639 17.1103C22.1722 18.642 22.1684 20.1742 22.1703 21.7059C22.1703 21.9838 22.1032 22.2937 22.2035 22.5314C22.3032 22.7672 22.5703 22.9359 22.7735 23.1237C23.6073 23.8975 24.4444 24.6675 25.2808 25.4381C25.3709 25.5212 25.4636 25.6004 25.6048 25.7257C25.6981 25.2164 25.7888 24.7768 25.8591 24.334C26.183 22.2816 26.438 20.2209 26.5875 18.1487C26.6111 17.8253 26.5977 17.4995 26.6054 17.1749C26.6092 16.9896 26.6035 16.8017 26.6316 16.6196C26.6974 16.1928 27.038 16.0337 27.3945 16.2714C27.5958 16.4055 27.7792 16.571 27.9498 16.7436C29.1076 17.9161 30.2597 19.095 31.4136 20.2713C31.8686 20.7352 32.3235 21.1998 32.7791 21.663C32.8245 21.7091 32.8762 21.7487 32.9625 21.8247C32.9715 21.709 32.9823 21.6445 32.9798 21.5806C32.9382 20.3046 32.8929 19.0285 32.8558 17.7525C32.8507 17.5774 32.79 17.4503 32.6692 17.3244C31.4168 16.017 30.1708 14.7039 28.9217 13.3934C28.7376 13.2004 28.5536 13.0062 28.3594 12.8234C28.1249 12.6023 27.9792 12.3276 27.8571 12.0381C27.8265 11.9653 27.8092 11.8816 27.806 11.8024C27.7952 11.5423 27.9351 11.433 28.1804 11.5308C28.5082 11.6611 28.7779 11.8752 29.0124 12.1423C30.2066 13.5027 31.4053 14.8586 32.6034 16.2151C32.6475 16.265 32.7005 16.3059 32.7932 16.3915C32.7996 16.2643 32.8079 16.1902 32.8053 16.1167C32.7625 14.8292 32.7133 13.5416 32.6782 12.2541C32.6718 12.0158 32.5957 11.8471 32.42 11.6816C31.314 10.6388 30.2149 9.58893 29.1255 8.52887C28.9549 8.36338 28.8284 8.14421 28.7127 7.93271C28.6054 7.73718 28.6412 7.55699 28.7651 7.45283C28.9102 7.33079 29.0788 7.33974 29.2194 7.43367C29.4392 7.58063 29.6584 7.73782 29.845 7.92312C30.7184 8.78894 31.5804 9.66625 32.4475 10.5378C32.4775 10.5678 32.5191 10.5857 32.5925 10.6337C32.5996 10.5238 32.6104 10.449 32.6079 10.3749C32.5842 9.57424 32.5536 8.77424 32.5382 7.9736C32.5344 7.78063 32.4571 7.65731 32.3242 7.52632C31.5708 6.78638 30.8226 6.04133 30.0859 5.28479C29.9536 5.14868 29.8673 4.95827 29.7926 4.77936C29.7268 4.62153 29.7581 4.45412 29.8986 4.33527C30.0245 4.22856 30.1823 4.19789 30.321 4.28223C30.5255 4.40747 30.7363 4.53782 30.9012 4.70843C31.3529 5.17488 31.7823 5.6637 32.2219 6.14165C32.282 6.20683 32.3542 6.26114 32.4616 6.35763C32.4705 6.24645 32.4807 6.18383 32.4801 6.12121C32.4724 5.33207 32.4667 4.54357 32.4494 3.75444C32.4475 3.66178 32.3932 3.55635 32.3331 3.48095C32.0207 3.09246 31.6986 2.71163 31.3791 2.32824C31.305 2.23942 31.2207 2.15763 31.1529 2.0637C30.9536 1.7883 30.9587 1.59981 31.1926 1.35061C31.5491 0.969775 31.9076 0.588946 32.2833 0.227285C32.5894 -0.0679227 32.7446 -0.0768696 33.0648 0.208114C33.4622 0.562746 33.8347 0.946134 34.2072 1.3276C34.4488 1.57489 34.475 1.87073 34.2852 2.15572C33.9389 2.67648 33.5734 3.18383 33.22 3.69948C33.1715 3.77041 33.1152 3.85987 33.1191 3.93782C33.1612 4.79213 33.2155 5.64581 33.2692 6.55124C33.3574 6.47009 33.4175 6.42472 33.4654 6.36849C33.8417 5.92696 34.2066 5.4752 34.5944 5.04325C34.8181 4.79405 35.073 4.57233 35.3216 4.34677C35.397 4.27776 35.4935 4.22664 35.588 4.18511C35.7101 4.13207 35.8379 4.12249 35.9446 4.226C36.0506 4.32888 36.0532 4.45475 35.9963 4.57936C35.9484 4.68415 35.8928 4.7883 35.8245 4.88095C35.121 5.83239 34.4238 6.78958 33.5919 7.63622C33.3906 7.84133 33.3095 8.0522 33.3325 8.34549C33.3874 9.05092 33.4047 9.75954 33.4379 10.4663C33.4417 10.5461 33.452 10.626 33.4628 10.7493C33.544 10.6797 33.6047 10.6362 33.6552 10.5832C34.4788 9.71673 35.2999 8.84772 36.1241 7.98191C36.2519 7.84772 36.3874 7.71929 36.5299 7.60108C36.6455 7.50523 36.7708 7.41897 36.9024 7.34613C37.1113 7.23047 37.2922 7.24006 37.3791 7.3621C37.4947 7.52504 37.4212 7.67584 37.319 7.80811C37.0781 8.11993 36.8379 8.4343 36.5797 8.73207C35.8654 9.55699 35.1459 10.3768 34.4213 11.1921C34.1746 11.4694 33.8992 11.7206 33.65 11.9953C33.5798 12.0733 33.5139 12.194 33.5171 12.2937C33.5587 13.649 33.613 15.0036 33.6673 16.44C33.7983 16.3225 33.8807 16.2535 33.9568 16.1793C35.0111 15.1493 36.0628 14.1167 37.119 13.0886C37.2768 12.9353 37.4481 12.7953 37.6212 12.6586C37.7471 12.5589 37.8934 12.5193 38.0391 12.6222C38.1593 12.7071 38.1848 12.8905 38.0743 13.0643C37.9631 13.2394 37.8347 13.4087 37.689 13.5557C36.5887 14.6707 35.4813 15.7793 34.3772 16.8905C34.165 17.1039 33.8788 17.288 33.7683 17.5468C33.6641 17.7915 33.7363 18.1154 33.7472 18.4043C33.7906 19.5755 33.8398 20.7467 33.8877 21.918C33.8909 21.9947 33.9037 22.0707 33.9165 22.1838C34.0277 22.1199 34.1075 22.0809 34.1804 22.0311C36.2008 20.6432 38.1241 19.1289 39.9848 17.5346C40.257 17.3014 40.4973 17.0305 40.756 16.78C40.864 16.6752 40.972 16.5659 41.0966 16.4835C41.4423 16.2535 41.7726 16.3838 41.8653 16.7845C41.8966 16.9193 41.9094 17.0605 41.9119 17.1992C41.919 17.617 41.9222 18.0349 41.9183 18.4522C41.9004 20.4368 41.88 22.4215 41.8621 24.4055C41.8621 24.4707 41.8723 24.5359 41.8832 24.6586C41.979 24.5717 42.0391 24.5257 42.0896 24.4707C42.9464 23.5557 43.8001 22.6381 44.6614 21.7269C44.7911 21.5896 44.8423 21.4464 44.8461 21.2611C44.8895 19.1614 44.9324 17.0611 44.9943 14.9615C45.0026 14.679 45.1125 14.3985 45.1848 14.1193C45.2014 14.0547 45.248 13.9947 45.2921 13.9416C45.4678 13.7308 45.6678 13.748 45.7752 14.0004C45.9138 14.325 45.9554 14.6694 45.9247 15.0228C45.864 15.7276 45.7937 16.4324 45.7509 17.1384C45.6844 18.2388 45.6378 19.3404 45.5828 20.4413C45.5796 20.5059 45.5828 20.571 45.5828 20.702C45.703 20.5896 45.779 20.5257 45.8467 20.4535C46.7189 19.5212 47.5866 18.5845 48.4646 17.6579C48.6135 17.5007 48.6633 17.3429 48.6582 17.1301C48.6186 15.6107 48.5854 14.0912 48.5668 12.571C48.5636 12.3218 48.6256 12.0656 48.6953 11.8234C48.7579 11.6075 48.9131 11.5116 49.0761 11.5295C49.2639 11.55 49.3751 11.679 49.4045 11.8439C49.4537 12.1148 49.4901 12.3921 49.492 12.6675C49.501 13.9186 49.4959 15.1698 49.4959 16.4707C49.5853 16.4068 49.6518 16.3736 49.6997 16.3231C50.2658 15.7244 50.8269 15.1206 51.3962 14.525C51.5118 14.4036 51.5336 14.2784 51.5323 14.1174C51.5234 13.0618 51.524 12.0055 51.531 10.95C51.5317 10.8024 51.57 10.6503 51.6173 10.5091C51.6856 10.3027 51.8 10.127 52.0537 10.1257C52.2518 10.1244 52.4077 10.2516 52.4658 10.5282C52.515 10.7627 52.5221 11.0094 52.5157 11.2503C52.5016 11.8183 52.4677 12.3864 52.4435 12.9544C52.4383 13.0675 52.4428 13.1813 52.4428 13.3615C52.5585 13.2662 52.6294 13.2177 52.6882 13.1576C53.216 12.619 53.7444 12.0803 54.2639 11.534C54.3361 11.4579 54.3917 11.3397 54.4032 11.2356C54.4607 10.7052 54.5016 10.173 54.5482 9.64133C54.5572 9.53718 54.5565 9.43111 54.5795 9.33015C54.6364 9.07839 54.7763 8.94485 55.039 8.93398C55.5834 8.91162 56.1291 8.89373 56.6741 8.90203C57.0805 8.90842 57.1961 9.00619 57.2242 9.41705C57.2613 9.95954 57.2581 10.5059 57.2492 11.0496C57.2434 11.3915 57.0504 11.6177 56.7105 11.6835C56.0971 11.8023 55.4811 11.9059 54.8677 12.0222C54.784 12.0381 54.6837 12.0675 54.63 12.127C54.0754 12.7359 53.5278 13.3519 52.9802 13.9672C52.9591 13.9908 52.9514 14.026 52.9169 14.1014C53.3329 14.0675 53.7182 14.0337 54.1035 14.0062C54.7041 13.9634 55.3041 13.856 55.9073 13.9666C56.0313 13.9896 56.1623 14.0151 56.2703 14.0752C56.4926 14.1992 56.4926 14.4445 56.2728 14.5736C56.1757 14.6305 56.0581 14.6643 55.9457 14.6809C55.338 14.7717 54.7303 14.8701 54.1195 14.9346C53.4748 15.003 52.8256 15.0324 52.1789 15.088C52.0716 15.0969 51.9348 15.1218 51.8684 15.1928C51.2646 15.8337 50.6735 16.4867 50.0416 17.1761C50.1604 17.1832 50.2326 17.1921 50.3048 17.1908C51.5578 17.1615 52.8109 17.1263 54.0639 17.1039C54.3054 17.0995 54.5482 17.1423 54.7891 17.1723C54.8677 17.1819 54.9457 17.2138 55.0198 17.2464C55.1444 17.3014 55.239 17.3921 55.2294 17.5365C55.2204 17.6809 55.1182 17.764 54.9846 17.796C54.8498 17.8285 54.7118 17.8586 54.5738 17.8675C52.8371 17.9755 51.101 18.0822 49.3636 18.1806C49.1905 18.1902 49.0588 18.2285 48.9374 18.3615C48.0761 19.3033 47.2071 20.2388 46.3413 21.1774C46.3049 21.217 46.2761 21.2643 46.2045 21.3614C46.3732 21.3614 46.4838 21.3602 46.595 21.3614C48.1036 21.3806 49.6122 21.3979 51.1208 21.4215C51.317 21.4247 51.5138 21.4522 51.708 21.4822C51.8582 21.5052 51.9693 21.5928 51.9751 21.7563C51.9809 21.918 51.878 22.0138 51.7336 22.0579C51.6237 22.0912 51.508 22.1199 51.3943 22.1237C50.6288 22.1493 49.8639 22.1825 49.0984 22.1857C48.0077 22.1902 46.9164 22.1793 45.8256 22.1576C45.5483 22.1525 45.3534 22.2317 45.1643 22.442C44.3023 23.3991 43.4225 24.3404 42.549 25.2873C42.4717 25.3717 42.3982 25.4592 42.2979 25.5742C42.4084 25.6087 42.4883 25.6439 42.572 25.6592C44.6959 26.0477 46.8339 26.3346 48.986 26.5065C49.6326 26.5582 50.2831 26.564 50.9317 26.5927C51.0818 26.5991 51.2345 26.6004 51.3815 26.6285C51.8313 26.7142 51.9719 27.0458 51.7042 27.4228C51.5508 27.6388 51.3662 27.8362 51.1764 28.0228C50.0531 29.1314 48.924 30.2343 47.7969 31.3391C47.308 31.8183 46.8186 32.2975 46.3304 32.7774C46.2831 32.8234 46.2416 32.8752 46.1483 32.9787C46.3074 32.9787 46.4058 32.9819 46.5036 32.9787C47.756 32.9359 49.009 32.8899 50.2614 32.8515C50.425 32.8464 50.5419 32.7883 50.6575 32.6771C52.1815 31.2145 53.7041 29.7506 55.2402 28.302C55.4453 28.1084 55.7227 27.9889 55.9731 27.8464C56.0396 27.8087 56.1303 27.8011 56.2102 27.7998C56.4485 27.7953 56.5597 27.9365 56.4741 28.1589C56.352 28.4771 56.1514 28.7467 55.8945 28.9729C54.5789 30.1295 53.2626 31.286 51.9483 32.4445C51.8473 32.5333 51.7566 32.6349 51.6262 32.7653C51.7221 32.78 51.7738 32.7959 51.8243 32.7947C53.1463 32.7518 54.469 32.702 55.791 32.6675C56.0236 32.6618 56.1719 32.5646 56.3239 32.4042C57.3693 31.3007 58.4185 30.2011 59.4779 29.111C59.6357 28.9487 59.8459 28.8311 60.0453 28.7161C60.2025 28.6253 60.3808 28.6119 60.5296 28.7512C60.6453 28.8592 60.6702 29.049 60.5507 29.2336C60.407 29.4547 60.2421 29.6681 60.0568 29.8554C59.1833 30.7372 58.2996 31.6094 57.4204 32.4854C57.4051 32.5007 57.3987 32.5256 57.3738 32.5729C57.4294 32.5857 57.4779 32.6074 57.5258 32.6062C58.338 32.5819 59.1495 32.548 59.9616 32.5333C60.2038 32.5288 60.3597 32.4304 60.5252 32.2611C61.2453 31.5212 61.9769 30.7915 62.7207 30.0752C62.8638 29.9372 63.0683 29.8343 63.2625 29.7851C63.6031 29.6995 63.851 29.9768 63.7168 30.2988C63.6267 30.5154 63.4708 30.7199 63.3015 30.8848C62.844 31.3295 62.3622 31.7487 61.8926 32.1806C61.8121 32.2547 61.7443 32.3423 61.6191 32.4809C61.7846 32.4809 61.8721 32.4822 61.9603 32.4809C62.7143 32.4688 63.4689 32.4605 64.2223 32.4375C64.3264 32.4343 64.4465 32.3825 64.5296 32.3161C64.9111 32.0132 65.2823 31.6975 65.6567 31.3857C65.7635 31.2969 65.8625 31.1959 65.9775 31.1186C66.205 30.9653 66.412 30.9717 66.6114 31.157C67.0018 31.5205 67.3903 31.8879 67.7602 32.2713C68.067 32.5889 68.0797 32.7295 67.7967 33.049C67.4439 33.4477 67.0612 33.8209 66.681 34.1947C66.4229 34.4483 66.1168 34.4675 65.8216 34.2713C65.3104 33.932 64.8127 33.5723 64.3066 33.226C64.2357 33.1774 64.1469 33.1167 64.0689 33.1205C63.214 33.1608 62.3597 33.2119 61.4453 33.2643C61.5399 33.3646 61.5929 33.433 61.6574 33.488C62.0811 33.8496 62.5162 34.1985 62.9296 34.571C63.1871 34.803 63.4172 35.0662 63.6529 35.3212C63.7149 35.3883 63.7628 35.4726 63.7993 35.5563C63.8568 35.6886 63.8804 35.8292 63.7648 35.9455C63.6485 36.0617 63.5111 36.0458 63.3788 35.9761C63.2664 35.9167 63.1533 35.8547 63.0529 35.7768C62.274 35.1717 61.4951 34.5665 60.7239 33.9525C60.5341 33.8017 60.3763 33.6113 60.1916 33.4534C60.1194 33.3915 60.0114 33.332 59.922 33.3346C59.0638 33.3633 58.2063 33.4062 57.3488 33.4458C57.3278 33.4471 57.308 33.4643 57.2639 33.486C57.3188 33.5461 57.3655 33.6049 57.4191 33.656C58.2862 34.479 59.1578 35.2969 60.0191 36.1263C60.2268 36.3263 60.4044 36.5582 60.5846 36.7851C60.6479 36.8643 60.6836 36.9678 60.7201 37.0649C60.7661 37.1857 60.7418 37.3122 60.6306 37.3717C60.5507 37.4145 60.4236 37.4298 60.3418 37.3966C60.205 37.341 60.0792 37.2477 59.9654 37.1506C59.267 36.5563 58.5667 35.9646 57.8805 35.357C57.2556 34.8036 56.6453 34.2324 56.0326 33.6643C55.9271 33.5665 55.8306 33.4924 55.6709 33.4995C54.3495 33.5602 53.0275 33.6119 51.7055 33.6675C51.6831 33.6681 51.6607 33.679 51.5898 33.6975C51.6652 33.7844 51.7227 33.8579 51.7885 33.925C52.8428 35.0042 53.899 36.0816 54.9514 37.1621C55.0888 37.3033 55.2172 37.4547 55.3335 37.6132C55.469 37.7979 55.4677 37.9423 55.3578 38.0547C55.2537 38.1621 55.0907 38.1742 54.9105 38.0586C54.7553 37.9589 54.6051 37.8451 54.4741 37.7154C53.3431 36.5978 52.2179 35.4752 51.0901 34.355C50.885 34.1512 50.708 33.8764 50.4601 33.7691C50.2262 33.6681 49.9151 33.7359 49.6377 33.7455C48.4199 33.7902 47.2026 33.8407 45.9847 33.8899C45.9413 33.8918 45.8978 33.9026 45.8205 33.9148C45.8742 34.0126 45.91 34.0937 45.9592 34.1653C47.0295 35.7269 48.1777 37.2292 49.3802 38.6905C49.9924 39.4343 50.5936 40.187 51.3042 40.8432C51.4128 40.9435 51.5055 41.0713 51.5713 41.2036C51.7035 41.4681 51.6039 41.7333 51.3221 41.8189C51.115 41.8822 50.8895 41.9058 50.6716 41.9058C49.4531 41.9058 48.2346 41.8911 47.016 41.8873C45.8097 41.8835 44.6039 41.8867 43.379 41.8867C43.402 41.9256 43.4231 41.9876 43.4653 42.0272C44.4135 42.9167 45.3649 43.8017 46.3113 44.6931C46.4224 44.7978 46.54 44.8317 46.6863 44.8343C48.786 44.879 50.8863 44.9193 52.986 44.9825C53.2907 44.9915 53.593 45.1116 53.8939 45.1889C53.9578 45.2055 54.0173 45.2547 54.0684 45.3001C54.2626 45.4732 54.2473 45.6579 54.0096 45.7614C53.6869 45.9033 53.3438 45.948 52.9898 45.925C51.2307 45.8093 49.471 45.6975 47.7112 45.5863C47.5988 45.5793 47.4851 45.5857 47.3125 45.5857C47.4033 45.6892 47.4544 45.7595 47.5164 45.817C48.4659 46.7052 49.4186 47.5889 50.3643 48.4809C50.5023 48.6113 50.6428 48.6585 50.8294 48.6541C52.3489 48.6164 53.8684 48.5812 55.3878 48.5608C55.6383 48.5576 55.8939 48.6132 56.1399 48.6726C56.3137 48.7148 56.4543 48.8311 56.4658 49.0355C56.4754 49.2049 56.3514 49.3621 56.115 49.4093C55.8562 49.4611 55.5878 49.4854 55.3239 49.4867C54.0716 49.4943 52.8192 49.4898 51.5195 49.4898C51.5834 49.5774 51.6179 49.6432 51.6697 49.6918C52.2601 50.2502 52.8556 50.8023 53.4422 51.3646C53.5712 51.4886 53.7035 51.5224 53.8786 51.5212C54.9227 51.5122 55.9674 51.5128 57.0121 51.5192C57.1603 51.5199 57.3131 51.5518 57.4549 51.5966C57.729 51.6822 57.8805 51.856 57.8773 52.047C57.8741 52.2419 57.7182 52.4125 57.4351 52.4707C57.2345 52.5122 57.0217 52.5192 56.8159 52.5116C56.1105 52.4841 55.4051 52.4432 54.6281 52.4042C54.7099 52.5224 54.7425 52.5889 54.7917 52.6374C55.3463 53.1819 55.9003 53.7282 56.4645 54.2624C56.5482 54.3416 56.6843 54.3889 56.8019 54.4029C57.2741 54.4573 57.7488 54.4924 58.2223 54.5339C58.361 54.5461 58.5016 54.5467 58.6383 54.5704C58.906 54.617 59.0581 54.7678 59.0664 55.04C59.0843 55.6081 59.0913 56.1767 59.0811 56.7454C59.0753 57.0566 58.9648 57.1914 58.6709 57.2061C58.0818 57.2355 57.4907 57.2355 56.9009 57.2311C56.5782 57.2285 56.3782 57.0285 56.315 56.7288C56.1859 56.1173 56.0843 55.4994 55.9655 54.886C55.9469 54.7914 55.9227 54.6751 55.8575 54.6164C55.2326 54.0464 54.5981 53.486 53.9303 52.8911C53.922 52.9991 53.9073 53.0713 53.9131 53.1422C53.9559 53.686 54.0172 54.2285 54.0434 54.7729C54.0613 55.1537 54.0339 55.5365 54.0243 55.918C54.023 55.964 54.0121 56.01 54.0006 56.0553C53.9444 56.2847 53.8313 56.4176 53.6856 56.4279C53.5291 56.4387 53.3821 56.3096 53.3355 56.0553C53.2447 55.5652 53.1706 55.0713 53.1067 54.5774C53.0403 54.0598 52.9872 53.5397 52.9412 53.0202C52.9144 52.7205 52.9208 52.4183 52.8952 52.1186C52.8869 52.024 52.8492 51.9084 52.7834 51.8464C52.1495 51.2521 51.5067 50.6668 50.8218 50.0387C50.8115 50.1716 50.7975 50.2547 50.7994 50.3378C50.8275 51.4982 50.8633 52.6579 50.8837 53.8183C50.8888 54.1295 50.8511 54.4426 50.8256 54.7537C50.8192 54.833 50.7892 54.9122 50.7579 54.9863C50.701 55.1231 50.6128 55.2291 50.446 55.2144C50.2786 55.1991 50.2032 55.0751 50.1828 54.932C50.1259 54.5416 50.069 54.1505 50.0403 53.7576C49.963 52.7045 49.8946 51.6509 49.8345 50.5966C49.8109 50.1799 49.8128 49.7614 49.8147 49.3435C49.8154 49.1819 49.7745 49.0605 49.6505 48.9474C48.7087 48.0854 47.7726 47.217 46.8339 46.3518C46.786 46.3077 46.7291 46.2745 46.6237 46.1978C46.6237 46.3653 46.625 46.4764 46.6237 46.5876C46.6026 48.1544 46.5822 49.7205 46.5579 51.2867C46.5553 51.4362 46.5323 51.587 46.5017 51.7333C46.4729 51.8694 46.3777 51.9646 46.2352 51.9697C46.0934 51.9755 45.9815 51.8879 45.9464 51.7582C45.8959 51.5697 45.8531 51.3723 45.8512 51.178C45.8384 49.5653 45.8352 47.9525 45.8301 46.3397C45.8295 46.1077 45.8288 45.8752 45.8365 45.6432C45.841 45.5071 45.8046 45.3991 45.7004 45.3039C44.6314 44.3231 43.5656 43.3391 42.4985 42.3563C42.4832 42.3423 42.4576 42.3384 42.4065 42.3173C42.379 42.4113 42.3426 42.502 42.3254 42.5966C41.9733 44.5391 41.7113 46.4937 41.526 48.4592C41.4429 49.3378 41.3669 50.2151 41.3912 51.0994C41.395 51.2355 41.372 51.3799 41.3273 51.5084C41.2263 51.8017 40.9528 51.9199 40.6864 51.764C40.4787 51.6426 40.2883 51.4815 40.1171 51.3109C39.4353 50.6304 38.7637 49.9397 38.089 49.2521C37.1375 48.2828 36.1874 47.3135 35.2353 46.3448C35.1817 46.2899 35.1197 46.2426 35.0015 46.1391L35.0034 46.1493ZM17.7109 40.5346C17.8048 40.5525 17.8374 40.564 17.87 40.564C20.2438 40.5972 22.5863 40.9199 24.9172 41.3371C25.3044 41.4062 25.684 41.5154 26.0674 41.6055C26.2667 41.6522 26.438 41.6624 26.5952 41.4694C26.8584 41.1461 27.16 40.8541 27.4322 40.5378C27.5095 40.4477 27.5677 40.3224 27.5888 40.2049C27.7383 39.3723 27.8686 38.5365 28.022 37.7052C28.0584 37.5078 28.0284 37.3902 27.8565 37.2713C27.0163 36.6918 26.1875 36.0963 25.3505 35.5116C25.0661 35.3129 24.7913 35.0528 24.4725 34.9627C24.1402 34.8688 23.7594 34.957 23.401 34.9442C23.1805 34.9359 23.0418 35.0253 22.8968 35.1838C21.277 36.9576 19.6476 38.7224 17.8809 40.3531C17.831 40.3991 17.7889 40.4515 17.7109 40.5346ZM40.5407 50.2937C40.5509 50.1927 40.5599 50.1403 40.5605 50.0873C40.5873 48.5301 40.7375 46.9838 40.9605 45.4432C41.133 44.2496 41.2787 43.0509 41.6135 41.8873C41.6704 41.6892 41.6314 41.5403 41.4634 41.401C41.1688 41.1569 40.8896 40.8931 40.6148 40.6272C40.4749 40.4918 40.3222 40.4285 40.1279 40.3979C39.3152 40.2707 38.5043 40.132 37.6967 39.9755C37.489 39.9352 37.3804 39.9876 37.2666 40.1518C36.6781 41.0004 36.0781 41.8407 35.4871 42.6873C35.2948 42.9627 35.0417 43.2272 34.9555 43.5359C34.866 43.8573 34.9523 44.226 34.9465 44.5736C34.9427 44.7985 35.0213 44.955 35.1925 45.1116C36.9676 46.7307 38.7331 48.3601 40.3624 50.1295C40.4059 50.1767 40.457 50.217 40.5407 50.2937ZM39.9343 30.5634C40.0104 30.6209 40.0723 30.6713 40.1382 30.718C40.9707 31.3065 41.8027 31.8963 42.6378 32.4809C42.9221 32.6796 43.1944 32.9423 43.5132 33.033C43.8448 33.1282 44.2256 33.0413 44.5841 33.0534C44.8001 33.0611 44.9458 32.987 45.0934 32.826C46.7196 31.0458 48.354 29.2726 50.1278 27.6356C50.1789 27.5889 50.2128 27.5231 50.2646 27.4528C50.2032 27.4419 50.1809 27.4343 50.1585 27.4343C47.9266 27.4094 45.7228 27.118 43.5279 26.7404C42.9924 26.6483 42.464 26.5154 41.9343 26.3921C41.7139 26.341 41.5426 26.3557 41.3829 26.5538C41.1356 26.8598 40.8589 27.1423 40.5874 27.4279C40.4787 27.5423 40.4308 27.6656 40.4059 27.8241C40.2858 28.6023 40.1484 29.3774 40.0155 30.1531C39.9925 30.288 39.9624 30.4215 39.9343 30.5634ZM27.1108 50.1352C27.1785 50.0835 27.2143 50.0611 27.2444 50.0323C28.7568 48.5684 30.4137 47.2809 32.1236 46.0611C32.6513 45.6847 33.2079 45.3486 33.751 44.9934C33.8941 44.9001 34.0571 44.8323 34.043 44.6068C34.0149 44.1557 34.0117 43.7026 33.9797 43.2515C33.9714 43.1339 33.9133 43.0081 33.8443 42.909C33.3606 42.2151 32.8686 41.5276 32.3791 40.8375C32.3331 40.7729 32.2878 40.7078 32.2347 40.6317C32.1012 40.647 31.9747 40.656 31.8507 40.6777C30.698 40.879 29.5466 41.0886 28.3926 41.2816C28.0693 41.3359 27.8022 41.4509 27.6003 41.7186C27.4891 41.8656 27.3581 42.0023 27.2175 42.1218C27.0226 42.2886 26.9741 42.4796 26.9862 42.7346C27.1025 45.1327 27.1894 47.532 27.0917 49.9333C27.0897 49.9857 27.1012 50.0394 27.1108 50.1352ZM40.9068 17.8484C40.7989 17.9384 40.7452 17.9781 40.6973 18.0241C38.8954 19.741 36.9197 21.2394 34.8673 22.64C34.6475 22.7902 34.4091 22.9129 34.1785 23.0458C34.0143 23.141 33.9248 23.2637 33.9529 23.4694C33.981 23.6758 34.004 23.888 33.9861 24.0937C33.9357 24.6713 34.1433 25.1237 34.5152 25.5659C34.9305 26.0605 35.2634 26.6253 35.62 27.1678C35.7146 27.3122 35.811 27.3902 35.9848 27.3455C36.0404 27.3314 36.0999 27.3308 36.1567 27.3205C37.3203 27.1154 38.4839 26.9065 39.6487 26.7065C39.9452 26.6554 40.1925 26.5506 40.3822 26.3014C40.5362 26.0995 40.7381 25.9352 40.8992 25.7384C40.965 25.6579 41.0142 25.5352 41.0123 25.4324C41.0027 24.888 40.9765 24.3429 40.9522 23.7985C40.8691 21.9212 40.8282 20.0432 40.9062 18.164C40.9094 18.0848 40.9068 18.0055 40.9068 17.8484ZM27.4015 32.2138C27.2035 31.1071 27.0099 30.0113 26.8086 28.9173C26.746 28.5768 26.7293 28.2017 26.5664 27.9135C26.4028 27.6234 26.0833 27.4209 25.8322 27.18C25.8073 27.1557 25.7786 27.1346 25.7568 27.1078C25.6667 26.9979 25.5505 26.9793 25.4144 26.9851C24.4291 27.026 23.4431 27.0816 22.4572 27.0924C21.0189 27.1084 19.5805 27.0905 18.1422 27.088C18.0598 27.088 17.9774 27.0988 17.8566 27.1078C17.9275 27.1908 17.9639 27.2349 18.0023 27.2777C18.5652 27.911 19.1518 28.5237 19.686 29.18C20.8866 30.656 22.0725 32.1455 23.0323 33.7966C23.1358 33.9749 23.2642 34.0579 23.4827 34.0394C23.8987 34.0042 24.3166 33.9927 24.7345 33.9793C24.8814 33.9749 24.9958 33.9269 25.1115 33.8349C25.4655 33.5538 25.8239 33.2764 26.1933 33.0157C26.5709 32.7487 26.9638 32.5026 27.4028 32.2132L27.4015 32.2138ZM27.4603 17.6982C27.4495 17.8496 27.4424 17.9186 27.4405 17.987C27.399 19.6017 27.2444 21.2062 27.0047 22.8023C26.838 23.9148 26.7051 25.0336 26.3817 26.1161C26.3204 26.3205 26.3817 26.4643 26.5434 26.6011C26.8354 26.8483 27.1166 27.109 27.3907 27.3768C27.5313 27.5142 27.6872 27.5729 27.8795 27.6036C28.6808 27.7295 29.4814 27.8624 30.2776 28.017C30.4935 28.0592 30.6168 28.0202 30.7402 27.8407C31.4264 26.8483 32.1165 25.8586 32.8187 24.8771C33.0111 24.6081 33.1082 24.3359 33.0641 24.0055C33.0386 23.8113 33.0353 23.61 33.0507 23.4145C33.0692 23.1806 32.967 23.0343 32.8002 22.8816C31.0366 21.2675 29.2769 19.6483 27.6552 17.888C27.6111 17.84 27.5606 17.796 27.4603 17.6982ZM40.6423 35.7474C40.6423 35.8266 40.6353 35.8739 40.6436 35.9186C40.8762 37.2419 41.1075 38.5653 41.3496 39.8867C41.3707 40.0023 41.4474 40.1218 41.5305 40.2087C41.7554 40.4419 42.0014 40.6547 42.2327 40.8828C42.3311 40.98 42.4346 41.0196 42.5739 41.0125C42.979 40.9902 43.3848 40.98 43.7899 40.964C45.8288 40.8828 47.8671 40.8036 49.9074 40.9109C49.9713 40.9141 50.0352 40.9058 50.1476 40.9001C50.0748 40.8119 50.0352 40.7601 49.9917 40.7116C49.4895 40.1499 48.9662 39.6062 48.4882 39.0247C47.2224 37.4841 45.9796 35.925 44.9681 34.1985C44.8633 34.0196 44.7362 33.9308 44.5196 33.955C44.2896 33.9812 44.0557 33.9934 43.825 33.9832C43.3036 33.9595 42.8774 34.1212 42.4806 34.479C42.1049 34.8177 41.6557 35.0758 41.2359 35.3653C41.0455 35.4963 40.848 35.6157 40.6423 35.7474ZM37.128 38.6822C37.2864 38.3819 37.4302 38.1103 37.5765 37.8336C36.9682 37.2688 36.3836 36.7256 35.8193 36.2017C35.4392 36.38 35.0858 36.5455 34.7254 36.7141V37.9269C35.5229 38.178 36.3037 38.4228 37.128 38.6822ZM37.3018 36.2611C38.0596 35.8637 38.7835 35.4841 39.5228 35.0963C39.4231 34.778 39.3311 34.4841 39.2366 34.1812C38.4078 34.2125 37.6053 34.2426 36.8494 34.2707C36.6935 34.6899 36.558 35.0528 36.4155 35.4368C36.696 35.6982 36.9912 35.9723 37.3018 36.2611ZM33.8181 39.2375C33.7861 38.4081 33.7555 37.6125 33.7261 36.8445C33.3274 36.6975 32.9619 36.5633 32.5606 36.4157C32.3031 36.6924 32.022 36.9953 31.7376 37.3014C32.1319 38.0534 32.5114 38.778 32.9005 39.5199C33.2123 39.424 33.498 39.3359 33.8181 39.2375ZM33.2577 30.0637C32.4596 29.8138 31.6795 29.5691 30.8712 29.3161C30.7178 29.6074 30.5747 29.879 30.4245 30.1646C31.0328 30.7308 31.6239 31.2803 32.1785 31.7966C32.5817 31.6081 32.935 31.4426 33.3133 31.2656C33.2954 30.8848 33.2775 30.4816 33.2577 30.0637ZM31.1523 33.7276C31.3044 33.3122 31.4379 32.9467 31.581 32.5576C31.2993 32.2956 31.0034 32.0209 30.698 31.7372C29.9581 32.1244 29.2322 32.5039 28.4789 32.8982C28.5741 33.2094 28.6642 33.5039 28.76 33.8157C29.576 33.7857 30.3721 33.7563 31.1523 33.7276ZM35.4417 31.5806C35.7088 31.2918 35.9893 30.9895 36.2615 30.6956C35.8647 29.9384 35.4896 29.2228 35.0999 28.479C34.7893 28.5736 34.4954 28.6637 34.1849 28.7582C34.2142 29.5844 34.2436 30.3902 34.2705 31.1506C34.6801 31.3007 35.0353 31.4317 35.4417 31.5806ZM30.0699 34.7199C29.8143 35.5384 29.5696 36.3205 29.3185 37.1256C29.6124 37.2809 29.8833 37.4247 30.1664 37.5742C30.7306 36.9659 31.2788 36.3742 31.7957 35.817C31.6111 35.4221 31.4507 35.079 31.2833 34.7205L30.0699 34.7199ZM37.9292 33.2765C38.188 32.4477 38.4321 31.6669 38.6819 30.8675C38.3848 30.7116 38.1126 30.5691 37.834 30.4234C37.2615 31.0388 36.7126 31.6292 36.2021 32.178C36.3912 32.5819 36.5516 32.9257 36.7158 33.2765H37.9292ZM30.9012 38.201C30.1708 38.9793 29.4705 39.7269 28.7696 40.4739C28.7817 40.4969 28.7932 40.5205 28.8054 40.5435C29.7996 40.3793 30.7625 40.0841 31.7791 39.8311C31.4788 39.2733 31.2015 38.7595 30.9012 38.201ZM34.8801 42.2662C34.9082 42.2752 34.9357 42.2835 34.9638 42.2924C35.5465 41.4707 36.0174 40.5806 36.5574 39.6931C35.9523 39.5122 35.3912 39.3448 34.781 39.1621C34.8149 40.226 34.8475 41.2458 34.8801 42.2662ZM39.2621 27.4886C38.7458 27.4905 36.5056 28.0509 36.2507 28.2273C36.5286 28.7384 36.8066 29.2509 37.1018 29.7934C37.8283 29.0189 38.5209 28.279 39.2621 27.4886ZM28.3057 36.5614C28.4884 35.9435 28.6533 35.3857 28.8328 34.7787C27.7543 34.8138 26.7357 34.8477 25.7166 34.8809C25.7115 34.9065 25.7064 34.932 25.7012 34.9576C26.5166 35.5429 27.4086 36.003 28.3057 36.5614ZM39.1637 33.2151C40.2327 33.1812 41.2602 33.1487 42.2876 33.1161C42.2934 33.0911 42.2992 33.0662 42.3055 33.0413C41.4819 32.456 40.5867 31.9864 39.696 31.4375C39.5145 32.0432 39.3471 32.6023 39.1637 33.2151ZM27.5313 28.7755C27.5063 28.7908 27.4808 28.8062 27.4559 28.8215C27.6226 29.81 27.9191 30.7665 28.1638 31.7851C28.7255 31.4701 29.2533 31.2055 29.7926 30.8937C29.0117 30.1621 28.2712 29.4688 27.5313 28.7755ZM39.8423 36.2119C39.2813 36.5148 38.7599 36.7959 38.2027 37.0969C38.9944 37.84 39.7433 38.5423 40.4915 39.2445C40.5196 39.2285 40.5471 39.2119 40.5752 39.1959C40.3356 38.2202 40.096 37.2439 39.8423 36.2119ZM33.2123 28.8324C33.174 27.7659 33.183 26.7429 33.0948 25.7231C33.0647 25.7154 33.0353 25.7071 33.0053 25.6995C32.4884 26.5563 31.9708 27.4126 31.4347 28.3007C32.0411 28.4822 32.6021 28.6496 33.2123 28.8324ZM55.0511 11.2893C55.5846 11.1966 56.0575 11.1148 56.5629 11.0273C56.5629 10.7717 56.5629 10.5429 56.5629 10.3135C56.5629 10.0841 56.5629 9.83878 56.5629 9.58446C56.1182 9.61386 55.7073 9.64133 55.2805 9.66945C55.2057 10.1985 55.1335 10.7084 55.0511 11.2893ZM31.8379 1.73719C32.0092 1.96466 32.1644 2.17872 32.3287 2.38639C32.4954 2.59725 32.6187 2.84709 32.859 3.0177C33.1472 2.60492 33.4219 2.21131 33.7005 1.81195C33.3574 1.45412 33.0405 1.12441 32.7069 0.776166C32.4181 1.09565 32.1414 1.40172 31.8379 1.73719ZM56.6958 55.0489C56.823 55.587 56.8377 56.0809 57.0019 56.5588H58.4044C58.3808 56.1218 58.3584 55.702 58.3354 55.279C57.7897 55.2023 57.2779 55.1307 56.6958 55.0489ZM0.774337 35.2905C1.1098 35.5915 1.41841 35.8681 1.74173 36.1582C2.17495 35.8311 2.60115 35.5084 3.05546 35.1653C2.61585 34.856 2.22097 34.5787 1.81842 34.295C1.46699 34.6304 1.13344 34.948 0.774337 35.2905ZM35.2928 67.2215C35.5893 66.8905 35.8711 66.5748 36.1593 66.2534C35.8277 65.8144 35.5075 65.3914 35.1676 64.9422C34.8647 65.3735 34.5823 65.7755 34.2973 66.1812C34.6424 66.5422 34.9599 66.8732 35.2928 67.2215ZM66.2574 31.8362C65.8203 32.1659 65.4005 32.4828 64.9424 32.8285C65.3794 33.1359 65.7794 33.417 66.1813 33.7001C66.5404 33.3557 66.8714 33.0387 67.2203 32.7052C66.9021 32.4183 66.596 32.1423 66.2574 31.8362ZM11.2944 12.9455C11.1991 12.4087 11.1148 11.9353 11.0266 11.4394H9.59278C9.61578 11.8611 9.63751 12.2733 9.66115 12.7123C10.1915 12.7877 10.7142 12.8631 11.2944 12.9455ZM12.7167 58.3301C12.7915 57.7978 12.8637 57.279 12.9442 56.7065C12.4158 56.7972 11.9461 56.8783 11.4471 56.964V58.4023C11.8503 58.3793 12.2701 58.3557 12.7167 58.3301ZM40.4391 34.6407C40.7343 34.472 40.995 34.3231 41.2557 34.1742C40.9439 34.1039 40.6557 34.0816 40.3465 34.1685C40.3771 34.3237 40.4027 34.4554 40.4391 34.6407ZM34.1842 26.7557C34.1536 26.7653 34.1222 26.7755 34.0916 26.7851C34.1082 27.0643 34.1248 27.3435 34.144 27.6547C34.3312 27.6145 34.4686 27.5857 34.6462 27.5474C34.4718 27.2483 34.328 27.0017 34.1842 26.7557ZM39.0097 29.9084C39.103 29.5634 39.1791 29.2796 39.2557 28.9959C39.2315 28.9819 39.2072 28.9685 39.1829 28.9544C38.9887 29.1665 38.7944 29.3787 38.5835 29.6087C38.7331 29.7135 38.8436 29.7915 39.0097 29.9084ZM26.7587 33.8068C26.7658 33.8317 26.7728 33.8566 26.7798 33.8816C27.0578 33.8835 27.3377 33.9148 27.6335 33.8253C27.6086 33.6688 27.6456 33.518 27.5057 33.3787C27.2539 33.5231 27.006 33.6649 26.7587 33.8068ZM29.6073 29.4132C29.7095 29.2598 29.7913 29.1359 29.8954 28.98C29.551 28.888 29.2661 28.8119 28.9811 28.7359L28.9408 28.7985C29.1536 28.9947 29.3664 29.1915 29.6073 29.4132ZM29.0137 38.1046C28.8776 38.4183 28.7881 38.7084 28.7619 39.0854C29.0079 38.824 29.2316 38.6362 29.3875 38.3646C29.2597 38.2758 29.1491 38.1991 29.0137 38.1046ZM38.112 38.9678C38.4072 39.141 38.7177 39.1812 39.0564 39.1921C38.8417 38.9966 38.6276 38.8004 38.3912 38.5844C38.2877 38.7263 38.2085 38.8349 38.112 38.9678ZM33.3574 40.4336C33.5312 40.741 33.6251 41.0196 33.8622 41.233V40.3493C33.6884 40.378 33.5478 40.4017 33.3574 40.4336ZM34.3184 32.6943C34.3414 32.7065 34.3638 32.718 34.3868 32.7301C34.5248 32.5723 34.6634 32.4151 34.8462 32.2068C34.6321 32.1825 34.4833 32.1659 34.3184 32.148V32.6943ZM32.9005 32.4618C33.0532 32.61 33.1868 32.7397 33.321 32.8694C33.3433 32.856 33.3663 32.8426 33.3887 32.8292C33.3676 32.6164 33.3465 32.4036 33.3203 32.1359C33.1504 32.2675 33.036 32.3563 32.9005 32.4618ZM35.7932 34.8534C35.8181 34.633 35.834 34.4911 35.8513 34.3372H35.2091C35.4213 34.5244 35.5791 34.6637 35.7932 34.8534ZM32.2143 33.1467C32.1817 33.3633 32.16 33.5058 32.1357 33.6675C32.3555 33.6809 32.5395 33.7161 32.7593 33.6324C32.5753 33.4688 32.4239 33.3327 32.2143 33.1467ZM32.1267 34.6618C32.2673 34.8394 32.36 34.9563 32.4245 35.0381C32.5836 34.8982 32.7159 34.7819 32.905 34.6157C32.6283 34.6324 32.4194 34.6445 32.1267 34.6618ZM35.5369 32.8943C35.3912 33.0745 35.2091 33.1595 35.1484 33.3838C35.3874 33.364 35.5957 33.3474 35.8596 33.3256C35.7363 33.1608 35.6507 33.0464 35.5369 32.8943ZM33.144 35.7921C33.3657 35.8164 33.5075 35.8311 33.6577 35.8477V35.2074C33.4711 35.4196 33.3376 35.5723 33.144 35.7921ZM34.6916 35.1141C34.5868 35.3736 34.6545 35.5838 34.6654 35.8605C34.834 35.732 34.9548 35.6394 35.0992 35.5288C34.958 35.3851 34.8398 35.2649 34.6916 35.1141Z" fill="white"/>
</svg>
