<svg width="79" height="79" viewBox="0 0 79 79" fill="none" xmlns="http://www.w3.org/2000/svg">
<path d="M24.8219 53.1524C24.2931 53.0939 23.7651 53.0323 23.2355 52.9777C22.3479 52.8856 21.4603 52.8022 20.5727 52.7062C20.3917 52.6867 20.1991 52.6602 20.04 52.5814C19.9331 52.5284 19.8153 52.3786 19.8122 52.2694C19.8099 52.1618 19.9284 52.0284 20.0283 51.9489C20.1086 51.8841 20.2381 51.8631 20.3481 51.8553C20.7427 51.828 21.1397 51.7851 21.5344 51.7999C23.0062 51.8553 24.4772 51.9333 25.949 51.9941C26.08 51.9996 26.2485 51.9816 26.3405 51.9044C26.9567 51.3873 27.5565 50.8507 28.214 50.2759C28.0307 50.2314 27.9028 50.1979 27.7733 50.1698C26.5839 49.914 25.3929 49.6651 24.2058 49.3984C23.9608 49.343 23.7237 49.2362 23.4952 49.1278C23.3377 49.0529 23.2191 48.9148 23.2503 48.7198C23.2823 48.5209 23.4484 48.4351 23.6185 48.4188C23.8844 48.3938 24.1597 48.3743 24.421 48.4141C25.9318 48.6465 27.4387 48.8969 28.948 49.1402C29.0025 49.1488 29.0579 49.1496 29.1484 49.1574C29.2147 49.0045 29.2841 48.8532 29.345 48.6996C29.8784 47.3526 30.2146 45.947 30.5711 44.5478C30.6116 44.3879 30.5711 44.1773 30.497 44.0237C29.6343 42.2196 28.2678 40.9826 26.3413 40.3968C25.9513 40.2783 25.5496 40.2003 25.1378 40.0997C24.9444 40.3664 24.7759 40.609 24.5981 40.8437C23.9827 41.6565 23.3665 42.4692 22.7449 43.2772C22.6513 43.3989 22.5405 43.5159 22.4157 43.6048C22.1474 43.7959 21.7832 43.7764 21.5453 43.5806C21.2926 43.3724 21.2045 43.0035 21.3768 42.6938C21.4845 42.4996 21.6451 42.3311 21.798 42.1658C22.3635 41.5504 22.936 40.942 23.5046 40.3297C23.5412 40.2907 23.5678 40.2432 23.6286 40.1581C23.503 40.1418 23.4133 40.1231 23.3236 40.1192C22.6014 40.0911 21.8799 40.0677 21.1577 40.038C20.979 40.031 20.8348 40.0638 20.7084 40.212C20.0571 40.9779 19.3926 41.7329 18.7421 42.4996C18.5877 42.6821 18.4722 42.8966 18.3396 43.0971C18.1782 43.3412 17.9582 43.4824 17.6595 43.434C17.4021 43.3919 17.2196 43.2406 17.1518 42.9808C17.0753 42.6891 17.1939 42.47 17.3974 42.2594C18.0932 41.5402 18.7764 40.8079 19.5057 40.0365C19.3786 39.9998 19.3302 39.9756 19.2811 39.9733C17.9653 39.9148 16.6495 39.8641 15.3337 39.7962C15.0903 39.7838 14.9491 39.8625 14.8119 40.0583C14.2604 40.8469 13.6942 41.6253 13.1303 42.4052C13.0562 42.5082 12.9766 42.6111 12.8838 42.6962C12.6709 42.8919 12.4057 42.9184 12.1795 42.7827C11.9393 42.6384 11.8129 42.3553 11.9314 42.0847C12.0313 41.8569 12.1904 41.6502 12.3487 41.4545C12.791 40.9069 13.2465 40.3695 13.7293 39.7877C13.6084 39.751 13.5608 39.7253 13.5109 39.7229C12.422 39.666 11.3324 39.6184 10.2444 39.5521C9.96359 39.535 9.77406 39.6098 9.59935 39.8438C9.11577 40.4904 8.61036 41.1206 8.09948 41.7454C7.9778 41.8936 7.81714 42.0277 7.6471 42.1143C7.39829 42.2407 7.14324 42.1822 6.94045 41.9895C6.73844 41.7976 6.6659 41.5512 6.77354 41.2907C6.84217 41.1253 6.95059 40.9685 7.06915 40.832C7.35695 40.5006 7.66114 40.1831 7.95675 39.8586C8.04878 39.758 8.13536 39.6527 8.27575 39.4905C6.83827 39.4055 5.47568 39.3244 4.15598 39.2464C3.89781 39.5903 3.68644 39.9476 3.40409 40.233C2.76218 40.882 1.72717 40.9584 0.937062 40.4608C0.172696 39.9795 -0.18687 39.0537 0.0962569 38.2051C0.315427 37.5468 0.738169 37.0781 1.46198 36.9548C1.55947 36.9385 1.65697 36.919 1.75368 36.8963C2.74814 36.6647 3.45401 36.9829 3.94305 37.8861C3.96957 37.936 3.99765 37.9852 4.02963 38.0429C5.33997 38.0928 6.65109 38.1419 8.01915 38.1942C7.95129 38.0803 7.91463 37.9992 7.86081 37.9321C7.57613 37.5796 7.27584 37.2387 7.00441 36.8761C6.85388 36.674 6.72986 36.4463 6.63159 36.2139C6.55125 36.0259 6.56295 35.8161 6.74235 35.6694C6.92096 35.5236 7.11595 35.5618 7.2969 35.6694C7.41779 35.7412 7.53947 35.8208 7.63853 35.9198C7.96923 36.2497 8.29993 36.5797 8.61036 36.9275C8.959 37.3183 9.29517 37.7215 9.61652 38.1349C9.77485 38.3385 9.98388 38.3252 10.1906 38.3361C11.0532 38.3822 11.9166 38.4188 12.7793 38.4609C13.0328 38.4734 13.2862 38.4929 13.6115 38.5132C13.5374 38.3658 13.4922 38.2589 13.4321 38.1607C13.0874 37.5913 12.7231 37.0328 12.3994 36.4518C12.2083 36.1086 12.0625 35.7357 11.9346 35.3629C11.8636 35.1562 11.809 34.8856 12.0547 34.7483C12.3129 34.604 12.4907 34.824 12.6209 34.9948C13.1544 35.6913 13.677 36.3972 14.1871 37.1116C14.4827 37.5266 14.7526 37.9602 15.0232 38.3923C15.116 38.5397 15.2252 38.6006 15.4 38.6099C16.7423 38.6801 18.0846 38.7597 19.4901 38.84C19.4121 38.7222 19.363 38.6341 19.3006 38.5569C18.4715 37.5336 17.6392 36.5118 16.8101 35.4885C16.7033 35.3567 16.5988 35.2202 16.5176 35.0728C16.4334 34.9191 16.3983 34.7444 16.5348 34.597C16.6729 34.4472 16.8452 34.4847 17.0067 34.5549C17.0964 34.5939 17.1822 34.6493 17.2578 34.7124C17.4325 34.8567 17.6135 34.9963 17.7672 35.1609C18.8295 36.3004 19.8941 37.4384 20.9354 38.5967C21.1608 38.847 21.3807 38.9866 21.7216 38.9991C22.4243 39.0241 23.1263 39.0849 23.9016 39.1356C23.7924 38.9609 23.7214 38.8455 23.6481 38.7316C23.0093 37.7449 22.3658 36.7614 21.7348 35.7701C21.5991 35.5571 21.4923 35.3216 21.4018 35.0845C21.2957 34.8068 21.3449 34.6095 21.5125 34.5135C21.7263 34.3911 21.901 34.5104 22.0515 34.6376C22.2129 34.7733 22.3689 34.9246 22.4937 35.0938C23.4055 36.3387 24.3087 37.5905 25.2143 38.84C25.247 38.8852 25.2767 38.932 25.3328 39.0155C25.4857 38.9562 25.6417 38.9016 25.7922 38.8353C27.1314 38.2472 28.3794 37.4914 29.6304 36.7419C29.7607 36.6639 29.8707 36.5017 29.9237 36.3543C30.5406 34.643 30.5282 32.9435 29.7825 31.2697C29.5462 30.7393 29.2514 30.2417 28.9043 29.7807C28.2195 29.8743 27.562 29.9617 26.9044 30.0537C26.2594 30.1434 25.6152 30.2393 24.9701 30.3267C24.8446 30.3438 24.7143 30.3524 24.5895 30.3361C24.198 30.2861 23.9211 29.9921 23.9133 29.6356C23.9055 29.2964 24.1457 28.9906 24.5162 28.915C24.7361 28.8705 24.9662 28.8682 25.1916 28.8588C25.97 28.8268 26.7485 28.8011 27.5269 28.7707C27.6072 28.7675 27.6867 28.7504 27.8037 28.7348C27.7601 28.6599 27.7413 28.6084 27.707 28.5718C27.1954 28.0219 26.6767 27.479 26.1721 26.9229C26.0246 26.7607 25.8733 26.692 25.6542 26.7108C24.6106 26.8005 23.5654 26.8761 22.5218 26.9643C22.3541 26.9783 22.1872 27.0235 22.0242 27.068C21.7356 27.1468 21.486 27.0859 21.2949 26.8582C21.1257 26.6554 21.0999 26.4183 21.2216 26.182C21.3698 25.8941 21.6249 25.8317 21.9337 25.8247C22.8814 25.8045 23.829 25.7608 24.7759 25.7233C24.8282 25.721 24.8789 25.6929 24.9639 25.6672C24.8664 25.5502 24.79 25.4519 24.7057 25.3599C23.8836 24.4606 23.0545 23.5683 22.241 22.6612C22.0609 22.4607 21.8955 22.389 21.6194 22.4397C20.6733 22.6136 19.7217 22.7548 18.7717 22.9061C18.647 22.9264 18.5175 22.949 18.3927 22.9396C18.115 22.9186 17.9029 22.7275 17.8514 22.4763C17.7991 22.2205 17.906 21.9499 18.1642 21.8414C18.3802 21.751 18.6236 21.7128 18.8591 21.6855C19.5197 21.6106 20.1827 21.5544 20.8441 21.4866C20.9081 21.4803 20.9697 21.4444 21.0586 21.4125C20.9993 21.3337 20.9627 21.2752 20.9167 21.2245C20.1843 20.4165 19.4472 19.6123 18.7195 18.7996C18.5643 18.6264 18.4161 18.5594 18.1696 18.5952C17.3709 18.7107 16.5676 18.791 15.7658 18.8784C15.6121 18.8955 15.4522 18.9033 15.3001 18.8815C14.9874 18.837 14.751 18.5867 14.7151 18.291C14.6793 17.9978 14.8509 17.7069 15.1582 17.5922C15.3009 17.5392 15.46 17.5204 15.6137 17.5111C16.123 17.4807 16.6323 17.4627 17.1416 17.4393C17.2087 17.4362 17.275 17.4261 17.4247 17.4105C16.4771 16.3427 15.5715 15.3225 14.6847 14.3226C14.2807 14.3834 13.8946 14.4833 13.5062 14.4911C12.6077 14.5098 12.0141 14.0215 11.6608 13.2345C11.3309 12.499 11.5149 11.6403 12.0711 11.0701C12.7403 10.3838 13.8845 10.3136 14.4695 10.8447C14.5209 10.8915 14.5849 10.9258 14.6457 10.9625C15.5131 11.4905 15.7923 12.2245 15.4998 13.2065C15.4834 13.2603 15.4686 13.3149 15.4483 13.3858C15.8968 13.8679 16.3507 14.3514 16.8008 14.8381C17.2415 15.3155 17.679 15.7959 18.1813 16.345C18.2133 16.1337 18.2383 15.9933 18.2546 15.8521C18.3077 15.388 18.3529 14.9232 18.4114 14.4599C18.4293 14.321 18.4722 14.183 18.5222 14.0512C18.6368 13.7509 18.8217 13.6011 19.0346 13.6191C19.253 13.637 19.4168 13.8133 19.4605 14.1315C19.5026 14.4396 19.533 14.7523 19.5275 15.062C19.5213 15.4574 19.4761 15.8529 19.4433 16.2483C19.4105 16.643 19.3645 17.0376 19.3411 17.4331C19.3349 17.5345 19.3645 17.6663 19.4285 17.7388C20.2303 18.6366 21.0407 19.5257 21.8503 20.4157C21.8581 20.4243 21.8768 20.4235 21.9166 20.4328C21.9485 20.3307 21.9868 20.2277 22.0125 20.1224C22.1825 19.4353 22.3292 18.7419 22.5265 18.0625C22.6318 17.6998 22.8057 17.3543 22.9789 17.0158C23.067 16.8434 23.2121 16.6796 23.4492 16.7264C23.6192 16.7592 23.7253 16.9464 23.6863 17.2615C23.5849 18.0758 23.4671 18.8893 23.3314 19.6981C23.2378 20.2566 23.113 20.8096 22.9836 21.361C22.936 21.563 22.9734 21.7057 23.1115 21.8586C23.9655 22.8055 24.8102 23.7602 25.6596 24.7109C25.6955 24.7507 25.7407 24.7819 25.839 24.8669C25.8671 24.6524 25.892 24.4933 25.9076 24.3334C26.0332 23.1073 26.1557 21.882 26.2828 20.6559C26.3 20.4874 26.3234 20.3166 26.3655 20.1536C26.4138 19.9688 26.5059 19.8011 26.7297 19.7948C26.9544 19.7886 27.0628 19.9477 27.1026 20.1364C27.1517 20.3704 27.1993 20.613 27.193 20.8501C27.1572 22.3227 27.1501 23.7984 27.0402 25.2655C26.9895 25.9378 27.069 26.4674 27.5916 26.9276C27.9075 27.2053 28.1539 27.5633 28.4332 27.8831C28.5143 27.9759 28.6016 28.0632 28.7405 28.2099C28.799 27.9127 28.8403 27.681 28.8895 27.451C29.1188 26.3855 29.3426 25.3185 29.5852 24.2562C29.6445 23.9973 29.7529 23.7461 29.8644 23.5028C29.9369 23.346 30.0727 23.2134 30.2645 23.2407C30.4782 23.2711 30.5796 23.4482 30.5843 23.6385C30.5945 24.0051 30.6023 24.3779 30.5508 24.739C30.341 26.1952 30.107 27.6483 29.8738 29.1567C29.9884 29.2059 30.1514 29.2808 30.3183 29.347C31.6653 29.879 33.0716 30.2128 34.4693 30.5708C34.616 30.6083 34.8102 30.5708 34.9521 30.5037C36.8334 29.6091 38.0946 28.1779 38.6546 26.1578C38.7451 25.8325 38.788 25.494 38.8527 25.1618C38.6024 24.9597 38.3567 24.7531 38.1016 24.5573C37.3037 23.945 36.4996 23.3413 35.7056 22.7244C35.5636 22.6144 35.4349 22.4709 35.3444 22.3164C35.1916 22.0559 35.2423 21.7432 35.4326 21.5256C35.6244 21.3056 35.9279 21.205 36.2024 21.336C36.4263 21.4429 36.6298 21.6075 36.8154 21.7767C37.434 22.3383 38.04 22.9147 38.6515 23.4833C38.7006 23.5285 38.7599 23.5628 38.848 23.6276C38.866 23.4958 38.8863 23.4022 38.8894 23.3086C38.9151 22.6011 38.9338 21.8929 38.9635 21.1847C38.9721 20.9889 38.9401 20.833 38.7794 20.6965C38.0135 20.0452 37.2585 19.3807 36.4918 18.7302C36.3202 18.5851 36.1197 18.4728 35.9286 18.3527C35.6814 18.1975 35.5332 17.9876 35.5589 17.6866C35.5816 17.4229 35.7672 17.2085 36.0261 17.1406C36.3217 17.0634 36.5339 17.1983 36.7437 17.3972C37.4511 18.0695 38.1718 18.7278 38.8894 19.39C38.905 19.4048 38.9409 19.397 39.0111 19.4048C39.0337 18.9283 39.0586 18.4533 39.0789 17.9791C39.1171 17.0876 39.1452 16.1953 39.1959 15.3046C39.2092 15.076 39.1351 14.9427 38.9518 14.814C38.164 14.2617 37.3848 13.6955 36.6049 13.1331C36.5019 13.059 36.3974 12.9818 36.3108 12.8898C36.1072 12.6737 36.0753 12.4187 36.2055 12.1886C36.3428 11.9476 36.622 11.8127 36.8981 11.9257C37.1274 12.0193 37.3365 12.1777 37.5315 12.3352C38.0806 12.7783 38.618 13.2353 39.2146 13.7329C39.2435 13.5637 39.2677 13.4763 39.2723 13.3874C39.3277 12.3267 39.3745 11.2651 39.4385 10.2051C39.4549 9.93762 39.3776 9.76525 39.1561 9.59989C38.5095 9.11632 37.8825 8.60778 37.2546 8.10002C37.1251 7.99551 37.0003 7.86915 36.9153 7.7272C36.7585 7.46591 36.8077 7.14768 37.0019 6.93943C37.2 6.7265 37.501 6.6602 37.7811 6.79748C37.9308 6.87079 38.0681 6.97843 38.1937 7.08996C38.522 7.38089 38.841 7.68352 39.1655 7.97913C39.256 8.06102 39.3527 8.13512 39.5063 8.26225C39.5913 6.83024 39.6717 5.46764 39.7489 4.17212C39.3659 3.86559 38.9728 3.62536 38.6757 3.29934C37.9558 2.50923 38.0938 1.20123 38.9299 0.47976C39.7497 -0.227668 40.9579 -0.143431 41.6762 0.670853C42.0857 1.13571 42.3087 2.26042 42.1036 2.84149C41.9523 3.27204 41.6793 3.60586 41.2893 3.84219C41.1809 3.90771 41.0686 3.96698 40.9602 4.0286C40.9064 5.34986 40.8526 6.66254 40.7972 8.03606C40.9243 7.94949 41.0148 7.89567 41.0967 7.83093C41.496 7.51427 41.8837 7.182 42.2947 6.88172C42.4733 6.75146 42.6894 6.64694 42.9039 6.59781C43.2611 6.51591 43.5138 6.82946 43.3804 7.1703C43.3251 7.31225 43.2392 7.45343 43.1347 7.5634C42.8126 7.90113 42.4866 8.23651 42.1395 8.5485C41.7292 8.91742 41.3042 9.27153 40.8666 9.60925C40.7028 9.73561 40.6864 9.88692 40.6778 10.0546C40.6271 10.9882 40.578 11.9211 40.5336 12.8555C40.5226 13.0902 40.532 13.325 40.532 13.6074C40.6607 13.5333 40.7675 13.474 40.8721 13.41C41.404 13.0856 41.9274 12.7463 42.4694 12.439C42.7877 12.258 43.1293 12.1161 43.4693 11.9796C43.6097 11.9234 43.7751 11.9 43.9256 11.9102C44.0387 11.9172 44.2134 11.978 44.2407 12.0568C44.2789 12.1652 44.2407 12.3399 44.169 12.4382C44.0551 12.5957 43.8991 12.7299 43.74 12.8453C42.9951 13.3858 42.2448 13.9186 41.4929 14.4505C41.2964 14.5893 41.1006 14.7375 40.8853 14.8397C40.4914 15.0261 40.3682 15.3163 40.3549 15.746C40.3206 16.9066 40.2356 18.0649 40.1716 19.2247C40.1677 19.2933 40.1716 19.3619 40.1716 19.4852C40.2918 19.4025 40.3822 19.3487 40.4626 19.2832C41.475 18.4626 42.485 17.639 43.4982 16.8193C43.6409 16.7038 43.7923 16.597 43.9514 16.5065C44.1089 16.4168 44.2782 16.4012 44.4193 16.5486C44.5465 16.6812 44.5293 16.8372 44.4513 16.9823C44.378 17.1188 44.2977 17.256 44.1955 17.3699C43.949 17.6429 43.7002 17.9159 43.4303 18.1655C42.3906 19.1272 41.3455 20.0834 40.2941 21.0318C40.1132 21.1949 40.0211 21.3587 40.011 21.609C39.986 22.2314 39.9252 22.8523 39.8823 23.4739C39.8737 23.5948 39.8807 23.7165 39.8807 23.8928C40.0461 23.7875 40.174 23.7071 40.3011 23.6252C41.3127 22.9732 42.3212 22.3164 43.3375 21.673C43.5388 21.5458 43.7665 21.4538 43.9919 21.375C44.1729 21.3119 44.3671 21.3267 44.4833 21.5131C44.5901 21.6831 44.52 21.8524 44.4084 21.9842C44.254 22.1667 44.0925 22.3531 43.9014 22.4935C42.6699 23.3998 41.4297 24.2937 40.1919 25.1914C40.1358 25.232 40.0765 25.2686 39.9845 25.3295C40.0398 25.4769 40.0866 25.6212 40.1467 25.76C40.7379 27.1132 41.5023 28.3737 42.2573 29.638C42.3345 29.7682 42.5006 29.8751 42.6488 29.9281C44.3304 30.5342 46.0074 30.5326 47.6539 29.8088C48.1179 29.6044 48.5461 29.319 48.9915 29.0717C49.1763 28.9695 49.2271 28.8268 49.1951 28.6139C49.0204 27.4517 48.8558 26.2888 48.6974 25.1243C48.6694 24.9169 48.6553 24.6977 48.6881 24.4925C48.7404 24.1618 49.018 23.9341 49.3331 23.913C49.6248 23.8935 49.9251 24.0698 50.0328 24.3685C50.0983 24.551 50.124 24.7538 50.1326 24.9496C50.1693 25.7982 50.1926 26.6484 50.2223 27.497C50.2254 27.589 50.2363 27.681 50.248 27.8292C50.351 27.7551 50.4087 27.7216 50.4563 27.6779C50.9952 27.1756 51.5295 26.6679 52.0724 26.171C52.219 26.0369 52.297 25.898 52.2798 25.6929C52.1886 24.6064 52.1082 23.5199 52.017 22.4334C52.0037 22.2798 51.9483 22.1308 51.9203 21.9779C51.8672 21.6909 51.9273 21.4398 52.1784 21.2643C52.382 21.1223 52.6074 21.1122 52.8235 21.2237C53.0902 21.3618 53.1768 21.6036 53.1822 21.896C53.2002 22.8991 53.2283 23.9013 53.254 24.98C53.3975 24.8857 53.4794 24.8467 53.5442 24.7882C54.4864 23.9286 55.4231 23.0637 56.3676 22.208C56.54 22.052 56.6125 21.907 56.5673 21.6582C56.448 21.0038 56.3731 20.3416 56.274 19.6833C56.2405 19.4594 56.182 19.2403 56.1414 19.0172C56.1087 18.8362 56.0681 18.6545 56.0634 18.4728C56.0541 18.1397 56.2413 17.9057 56.5275 17.8527C56.8231 17.7981 57.0875 17.9323 57.1967 18.2442C57.27 18.4533 57.2895 18.6841 57.3122 18.9072C57.3847 19.61 57.4479 20.3135 57.5204 21.0708C57.6429 20.9944 57.7178 20.9624 57.7747 20.9109C58.5843 20.1801 59.3876 19.4415 60.2019 18.7161C60.379 18.5586 60.4398 18.401 60.4071 18.1624C60.2932 17.3348 60.2004 16.5041 60.1044 15.6743C60.0904 15.5495 60.0888 15.4177 60.1115 15.2944C60.1731 14.9598 60.439 14.7266 60.7518 14.7133C61.0677 14.7001 61.3563 14.906 61.4358 15.2383C61.485 15.4426 61.4943 15.6587 61.5052 15.87C61.5302 16.3599 61.5458 16.8505 61.5692 17.437C62.6565 16.4722 63.6767 15.5666 64.7187 14.6416C64.5635 14.2422 64.4746 13.8203 64.4988 13.3749C64.5549 12.3329 65.5135 11.4656 66.5891 11.4983C67.6896 11.5319 68.5374 12.4327 68.4992 13.527C68.475 14.2079 67.8206 15.1805 67.199 15.452C66.7802 15.6345 66.3488 15.6493 65.9097 15.5378C65.8021 15.5105 65.6952 15.4801 65.6055 15.4559C64.6243 16.363 63.6626 17.2521 62.6464 18.1912C63.2422 18.2544 63.7609 18.3004 64.2757 18.3683C64.512 18.3995 64.7499 18.4556 64.9745 18.536C65.2592 18.6373 65.3832 18.8152 65.3708 19.0258C65.3575 19.2488 65.189 19.4197 64.8692 19.4594C64.519 19.5031 64.1618 19.5374 63.8108 19.5187C63.0761 19.4782 62.3437 19.3955 61.6098 19.3424C61.4943 19.3339 61.3415 19.3541 61.2619 19.4251C60.3626 20.2246 59.4742 21.0373 58.5835 21.8469C58.5757 21.8539 58.5804 21.8742 58.5765 21.9296C58.7941 21.985 59.0195 22.0442 59.2449 22.1004C59.8213 22.2439 60.4024 22.3734 60.9741 22.5356C61.2713 22.6199 61.5575 22.7509 61.8367 22.885C61.9725 22.9506 62.1004 23.0574 62.1971 23.1744C62.3687 23.3819 62.2961 23.5932 62.0309 23.6494C61.8687 23.6837 61.6901 23.6907 61.5263 23.6634C60.2706 23.4544 59.0133 23.2477 57.763 23.0075C57.465 22.9506 57.263 22.9903 57.0407 23.1939C56.1524 24.0066 55.2476 24.8014 54.3483 25.6017C54.2859 25.657 54.2141 25.7015 54.1463 25.7506C54.1549 25.7818 54.1634 25.8123 54.1712 25.8434C54.3709 25.8692 54.5706 25.8988 54.771 25.9191C55.9823 26.0431 57.1944 26.1648 58.4057 26.2896C58.5461 26.3044 58.6872 26.327 58.8237 26.3621C59.0718 26.4261 59.2207 26.5805 59.2145 26.749C59.2083 26.9167 59.0569 27.0688 58.8035 27.1195C58.582 27.1639 58.3542 27.2037 58.1303 27.199C56.7849 27.1694 55.4402 27.1296 54.0948 27.0844C53.7415 27.0727 53.3889 27.0204 53.0356 27.0103C52.9054 27.0064 52.74 27.029 52.6472 27.107C52.0497 27.607 51.4679 28.1248 50.8829 28.6388C50.865 28.6544 50.8642 28.6895 50.8431 28.7519C51.2752 28.8338 51.705 28.9056 52.1301 28.9984C53.0286 29.1942 53.9271 29.3931 54.8217 29.6068C55.0534 29.6622 55.2772 29.7612 55.4925 29.8642C55.6493 29.939 55.7764 30.0685 55.7514 30.2659C55.7234 30.4897 55.5385 30.5708 55.3552 30.588C55.0893 30.6129 54.8147 30.6207 54.5511 30.5856C53.527 30.4484 52.5045 30.2978 51.4835 30.1379C50.9539 30.0553 50.4282 29.9429 49.8495 29.8345C49.7816 29.9944 49.7083 30.1574 49.6436 30.3243C49.1194 31.6745 48.7762 33.0776 48.426 34.4784C48.3894 34.6251 48.4284 34.8169 48.4954 34.9581C49.3963 36.8573 50.8478 38.1139 52.8851 38.6692C53.1971 38.7542 53.5207 38.794 53.839 38.8548C54.0308 38.6154 54.2282 38.3798 54.4146 38.1357C55.0347 37.3261 55.6477 36.5118 56.2717 35.7053C56.3731 35.5735 56.5026 35.4518 56.643 35.3645C56.9097 35.1976 57.2505 35.2397 57.4736 35.4362C57.7021 35.6375 57.7934 35.9619 57.6468 36.2482C57.5399 36.458 57.3792 36.646 57.2178 36.8207C56.6133 37.4758 55.9987 38.1217 55.3506 38.8104C55.4551 38.8439 55.512 38.8759 55.5705 38.8782C56.3208 38.9079 57.0712 38.9297 57.8215 38.9609C58.0157 38.9687 58.1717 38.9344 58.309 38.7737C58.8892 38.0959 59.4883 37.4337 60.0639 36.752C60.2823 36.4939 60.4632 36.2037 60.6504 35.9206C60.8119 35.6765 61.0209 35.5252 61.3212 35.5618C61.5817 35.593 61.7697 35.7435 61.8469 35.997C61.9397 36.3028 61.8063 36.5298 61.5918 36.7536C60.9164 37.4579 60.2596 38.1802 59.5967 38.8977C59.5826 38.9133 59.5912 38.95 59.5873 39.0046C59.6365 39.0116 59.6872 39.0241 59.7379 39.0264C61.0396 39.0834 62.3414 39.1333 63.6431 39.2004C63.8974 39.2136 64.055 39.1387 64.2024 38.9266C64.7515 38.1365 65.3193 37.3589 65.884 36.5797C65.9667 36.4658 66.0579 36.3527 66.1655 36.2646C66.3707 36.0969 66.6296 36.0906 66.8387 36.2256C67.0477 36.3597 67.174 36.6077 67.082 36.8503C66.9946 37.082 66.8519 37.3011 66.6975 37.4969C66.2771 38.0304 65.838 38.5491 65.4082 39.0756C65.3762 39.1153 65.3614 39.1692 65.3201 39.2565C65.8309 39.2885 66.3052 39.322 66.7802 39.347C67.4736 39.3829 68.1669 39.4047 68.8595 39.4484C69.0842 39.4624 69.223 39.3836 69.358 39.2082C69.8579 38.5561 70.3696 37.9134 70.8851 37.2738C70.9896 37.1436 71.1129 37.0172 71.2525 36.9283C71.5161 36.7622 71.8226 36.7996 72.0426 36.9907C72.2547 37.1756 72.3382 37.4922 72.2087 37.7668C72.1323 37.9298 72.013 38.078 71.8921 38.2137C71.5263 38.6255 71.1503 39.028 70.7143 39.5053C72.1611 39.5927 73.53 39.6746 74.9292 39.7588C75.079 39.3244 75.345 38.964 75.696 38.6661C76.5095 37.975 77.8019 38.0998 78.5218 38.9367C79.2269 39.7565 79.1379 40.9678 78.3221 41.683C77.8658 42.0831 76.7668 42.3054 76.1897 42.1166C75.7404 41.9692 75.3956 41.6892 75.1507 41.286C75.0852 41.1776 75.0283 41.0645 74.9706 40.9576C73.6493 40.9061 72.3397 40.8562 70.9631 40.8024C71.0598 40.942 71.1144 41.0325 71.1799 41.1144C71.4724 41.4786 71.7805 41.832 72.0574 42.2079C72.1978 42.3982 72.3054 42.6205 72.3904 42.8428C72.4599 43.0237 72.4154 43.2109 72.2485 43.3388C72.0964 43.4551 71.9279 43.4504 71.7688 43.3607C71.6339 43.2843 71.4943 43.2047 71.3859 43.0971C71.0341 42.7484 70.6886 42.3943 70.3555 42.0285C70.0599 41.704 69.7643 41.3757 69.5093 41.02C69.3229 40.7603 69.0974 40.6675 68.7964 40.6565C67.9329 40.6246 67.0703 40.5801 66.2069 40.5388C65.9542 40.5263 65.7015 40.5076 65.3957 40.4881C65.4597 40.6222 65.4979 40.7228 65.5525 40.8125C65.8902 41.3694 66.2428 41.9185 66.5665 42.4832C66.7419 42.7882 66.8862 43.1142 67.0142 43.4426C67.0789 43.6095 67.1046 43.8037 67.0968 43.9831C67.0836 44.2725 66.8543 44.3895 66.6242 44.2163C66.4346 44.0744 66.2623 43.895 66.125 43.7015C65.4441 42.7437 64.7632 41.7852 64.1142 40.8055C63.9224 40.5162 63.7289 40.3828 63.3748 40.3695C62.1027 40.3212 60.8321 40.2346 59.4992 40.1597C59.5959 40.2939 59.6614 40.3953 59.7371 40.4889C60.549 41.4903 61.3641 42.4887 62.1745 43.4917C62.2899 43.6345 62.3975 43.785 62.4896 43.9433C62.5801 44.0985 62.6034 44.2709 62.4599 44.4136C62.3156 44.5572 62.1448 44.5158 61.9857 44.4417C61.8843 44.3941 61.7884 44.3286 61.7018 44.2569C61.538 44.1219 61.3695 43.9886 61.226 43.8341C60.1645 42.6938 59.1022 41.5535 58.057 40.3984C57.8457 40.1644 57.6491 40.0139 57.3129 40.0061C56.6905 39.992 56.0705 39.9242 55.4488 39.8805C55.3552 39.8742 55.2601 39.8797 55.108 39.8797C55.2086 40.0412 55.2796 40.1574 55.3537 40.272C56.0135 41.2953 56.6796 42.3148 57.3309 43.3435C57.458 43.544 57.5493 43.7733 57.6218 44.0003C57.6787 44.1773 57.6764 44.3715 57.4806 44.4893C57.3036 44.5961 57.1414 44.515 57.0119 44.4066C56.8286 44.253 56.6437 44.09 56.5026 43.8989C55.6033 42.6798 54.7157 41.4521 53.8249 40.2268C53.7758 40.1589 53.7337 40.0864 53.6689 39.9858C53.52 40.0427 53.3757 40.0911 53.2376 40.1519C51.8844 40.7439 50.6247 41.509 49.3604 42.2633C49.2302 42.3413 49.1233 42.5074 49.0695 42.6556C48.4681 44.3232 48.4635 45.9876 49.1764 47.6224C49.3901 48.113 49.6935 48.5638 49.9555 49.0334C50.0421 49.1886 50.1599 49.2346 50.3424 49.2073C51.5599 49.0256 52.7798 48.8516 53.9996 48.6855C54.1775 48.6613 54.3701 48.6621 54.5441 48.7019C54.8654 48.776 55.0612 49.0295 55.0807 49.3352C55.101 49.6527 54.9177 49.9608 54.594 50.052C54.353 50.1199 54.0925 50.1316 53.8398 50.1425C53.0192 50.1799 52.1979 50.2049 51.3774 50.2361C51.3259 50.2384 51.2752 50.2556 51.1575 50.2782C51.3236 50.4552 51.4546 50.5949 51.5849 50.7353C52.0006 51.1806 52.4218 51.6213 52.8274 52.0752C52.974 52.239 53.1269 52.3069 53.3453 52.2882C54.4029 52.1977 55.4621 52.1197 56.5205 52.0308C56.6742 52.0175 56.8263 51.9731 56.9768 51.9341C57.2818 51.8561 57.5423 51.9192 57.7318 52.1774C57.8784 52.3763 57.8964 52.6009 57.7817 52.8201C57.6319 53.1048 57.3792 53.1726 57.0696 53.1789C56.1219 53.1992 55.175 53.2444 54.2282 53.2818C54.1783 53.2842 54.1299 53.3099 54.0379 53.3372C54.1416 53.4605 54.218 53.5572 54.3007 53.6484C55.1236 54.5469 55.9535 55.4392 56.7662 56.3471C56.9487 56.5507 57.1156 56.61 57.3894 56.56C58.3214 56.3884 59.2589 56.2488 60.1957 56.1022C60.3478 56.078 60.5069 56.0554 60.6582 56.0726C60.9195 56.103 61.1012 56.2902 61.1504 56.5343C61.2018 56.7886 61.0911 57.06 60.8306 57.1653C60.613 57.2526 60.3696 57.2877 60.1341 57.315C59.4735 57.3907 58.8112 57.45 58.1491 57.5186C58.0945 57.5241 58.0422 57.5506 57.9611 57.5763C58.0118 57.6574 58.0453 57.7323 58.0968 57.7893C58.8191 58.5879 59.5483 59.3804 60.2643 60.1838C60.4305 60.3694 60.5872 60.4435 60.8493 60.4053C61.6613 60.2875 62.4794 60.2064 63.2953 60.1143C63.4076 60.1019 63.5222 60.0972 63.6346 60.1081C63.9957 60.144 64.2539 60.3967 64.2804 60.729C64.3069 61.0643 64.0971 61.3568 63.7453 61.4473C63.6096 61.4824 63.4653 61.4847 63.3241 61.4925C62.7743 61.523 62.2244 61.5487 61.6722 61.5768C61.7556 61.8201 63.6728 64.0446 64.3794 64.7193C64.8326 64.5211 65.3193 64.4634 65.8185 64.525C66.8777 64.6553 67.6724 65.8096 67.4665 66.9148C67.2669 67.9865 66.1772 68.7719 65.1594 68.4381C64.0316 68.0684 63.2937 67.4569 63.4076 66.2207C63.4271 66.0124 63.4981 65.8096 63.5441 65.6076C62.6518 64.6428 61.7603 63.6788 60.8064 62.6477C60.7627 63.0837 60.7354 63.4409 60.6886 63.7966C60.6426 64.1468 60.5989 64.5001 60.5131 64.8417C60.4164 65.2262 60.1988 65.4072 59.9516 65.3768C59.7199 65.3479 59.5436 65.149 59.5234 64.7684C59.4937 64.2326 59.4992 63.6928 59.5234 63.1562C59.546 62.6477 59.6076 62.1399 59.6614 61.6329C59.6786 61.4684 59.6567 61.3358 59.539 61.2063C58.766 60.3577 58.0001 59.5036 57.231 58.6527C57.2045 58.623 57.164 58.6051 57.0766 58.545C57.0329 58.7104 56.9931 58.8516 56.958 58.9935C56.8114 59.5988 56.6765 60.2072 56.515 60.8085C56.4347 61.108 56.3177 61.3982 56.1984 61.6852C56.1391 61.8264 56.0471 61.9582 55.9519 62.0798C55.8458 62.2148 55.7148 62.3411 55.5198 62.2631C55.349 62.1945 55.3115 62.0331 55.324 61.8732C55.3583 61.4364 55.3802 60.9957 55.4551 60.5652C55.6165 59.6308 55.7967 58.6995 55.9925 57.7713C56.0533 57.4835 56.0221 57.2761 55.8115 57.0475C55.0136 56.1841 54.2407 55.2981 53.4576 54.4214C53.3835 54.3379 53.3047 54.2591 53.1885 54.1359C53.1581 54.2669 53.1284 54.3512 53.1191 54.4377C52.9756 55.8042 52.8359 57.1707 52.6909 58.5365C52.676 58.6761 52.6425 58.8165 52.5965 58.9483C52.5411 59.1058 52.4194 59.2377 52.2486 59.1979C52.1309 59.1706 52.0092 59.0614 51.939 58.9561C51.8727 58.857 51.854 58.7166 51.8431 58.5918C51.8173 58.2814 51.7845 57.9694 51.797 57.659C51.8563 56.1451 51.9273 54.6312 51.999 53.118C52.0084 52.9153 51.9975 52.7413 51.8454 52.5729C51.3603 52.0378 50.8938 51.4856 50.4188 50.9412C50.3845 50.9014 50.3377 50.8725 50.255 50.8031C50.1583 51.314 50.0795 51.7835 49.9781 52.2476C49.7847 53.1329 49.5858 54.0166 49.3706 54.8964C49.3144 55.1265 49.2052 55.3472 49.0929 55.557C49.018 55.6958 48.8706 55.8167 48.7076 55.7458C48.5953 55.6966 48.4736 55.5656 48.4455 55.4494C48.3933 55.2341 48.3784 55.0001 48.3979 54.7786C48.5375 53.2109 48.8027 51.6619 49.1225 50.1222C49.1397 50.0419 49.149 49.9592 49.1646 49.8633C49.0367 49.8024 48.926 49.7424 48.8098 49.6963C47.4105 49.1426 45.9512 48.79 44.4981 48.4172C44.3647 48.3829 44.1869 48.4258 44.0559 48.4882C42.2191 49.3586 40.9672 50.7454 40.3799 52.7062C40.291 53.0042 40.2364 53.3123 40.1529 53.6125C40.0991 53.8068 40.1639 53.9222 40.323 54.04C41.2792 54.7474 42.2284 55.4642 43.1768 56.1825C43.3227 56.2925 43.4686 56.4126 43.5809 56.5546C43.8032 56.8361 43.7907 57.2027 43.5801 57.4578C43.3687 57.7128 43.0053 57.801 42.6956 57.6255C42.4897 57.5093 42.3119 57.3384 42.1364 57.1762C41.4929 56.5811 40.8565 55.9797 40.1662 55.3332C40.1412 55.4923 40.1178 55.5804 40.1147 55.6693C40.0858 56.3916 40.0632 57.113 40.032 57.8353C40.0242 58.0139 40.0539 58.1605 40.2029 58.2861C41.0242 58.981 41.8384 59.6854 42.659 60.3811C42.7767 60.4809 42.9171 60.5542 43.0505 60.6346C43.3149 60.7937 43.4748 61.0105 43.4342 61.3326C43.4007 61.5978 43.2447 61.7749 42.9928 61.8513C42.6824 61.9449 42.4601 61.7983 42.2409 61.5854C41.5319 60.8974 40.8073 60.2259 40.0344 59.4974C40 59.6698 39.9704 59.7571 39.9665 59.846C39.9088 61.1337 39.8589 62.4215 39.7949 63.7092C39.784 63.9198 39.8511 64.0438 40.0203 64.1631C40.819 64.7247 41.6099 65.2988 42.4016 65.8705C42.5045 65.9446 42.6075 66.0234 42.6933 66.1162C42.8851 66.3221 42.9163 66.6013 42.7884 66.8213C42.6582 67.0451 42.3946 67.1808 42.1309 67.0779C41.8884 66.9827 41.6645 66.8213 41.4586 66.6559C40.9087 66.216 40.3721 65.7582 39.784 65.2691C39.7512 65.4259 39.724 65.5039 39.7201 65.5827C39.6655 66.6723 39.6179 67.7619 39.557 68.8507C39.5446 69.0722 39.6077 69.2165 39.7863 69.3538C40.4384 69.853 41.0803 70.3662 41.7207 70.881C41.8509 70.9855 41.9788 71.1072 42.0685 71.246C42.2417 71.5159 42.1957 71.8552 41.9874 72.0696C41.7877 72.2756 41.4796 72.3395 41.2051 72.1968C41.0444 72.1133 40.9001 71.9924 40.7636 71.8715C40.3635 71.5151 39.9704 71.1501 39.5695 70.7827C39.4603 71.0206 39.2482 73.9689 39.2638 74.936C39.6857 75.0897 40.0492 75.3533 40.344 75.7058C41.032 76.5295 40.9001 77.8117 40.0562 78.5309C39.2458 79.2211 38.0517 79.1408 37.3396 78.3484C37.1462 78.1331 37.0089 77.8905 36.966 77.5996C36.9473 77.474 36.9325 77.3438 36.888 77.226C36.5955 76.453 37.0331 75.5054 37.7967 75.106C37.884 75.0608 37.969 75.0109 38.0447 74.9688C38.0954 73.6436 38.1453 72.334 38.1983 70.9426C38.0143 71.0877 37.8863 71.1883 37.7592 71.2889C37.3926 71.5783 37.0331 71.877 36.6564 72.1539C36.5113 72.2607 36.3334 72.3286 36.1626 72.3926C35.9723 72.4628 35.7929 72.4144 35.6658 72.2537C35.548 72.1047 35.5636 71.9308 35.6408 71.7709C35.6954 71.657 35.7648 71.5447 35.8514 71.4543C36.154 71.1368 36.4528 70.8147 36.778 70.5222C37.2093 70.1338 37.6602 69.7672 38.1125 69.4022C38.2444 69.2953 38.3169 69.1853 38.3247 69.013C38.3801 67.8531 38.4417 66.6933 38.4994 65.5335C38.501 65.5078 38.4838 65.4813 38.4651 65.4228C38.3645 65.4711 38.2631 65.5101 38.1726 65.5647C37.6032 65.9095 37.0432 66.2698 36.4645 66.599C36.1587 66.7729 35.8296 66.9094 35.4997 67.0334C35.346 67.0911 35.1643 67.102 34.9989 67.0903C34.7283 67.0716 34.6175 66.8626 34.7727 66.6426C34.9006 66.4609 35.0691 66.2963 35.2485 66.1645C36.0152 65.6053 36.7905 65.0585 37.5666 64.5133C37.8216 64.3347 38.0837 64.1647 38.352 64.0064C38.5298 63.9019 38.6008 63.7685 38.6109 63.5626C38.6538 62.643 38.7108 61.7242 38.7646 60.8054C38.7888 60.3975 38.8176 59.9895 38.8496 59.5005C38.6967 59.6081 38.5961 59.6705 38.5049 59.7446C37.4925 60.5652 36.4832 61.3896 35.4685 62.207C35.3156 62.3302 35.1494 62.4527 34.9677 62.5174C34.8593 62.5556 34.6784 62.5174 34.5902 62.4433C34.5185 62.3825 34.5005 62.2078 34.5247 62.0986C34.5536 61.9668 34.6378 61.8381 34.7252 61.7312C34.9045 61.5128 35.0878 61.2936 35.2945 61.1018C36.4153 60.0613 37.54 59.0239 38.6741 57.9983C38.8769 57.815 38.9885 57.6325 38.9986 57.3501C39.022 56.6856 39.082 56.0219 39.1265 55.3573C39.1312 55.2918 39.1265 55.2263 39.1265 55.0945C38.9494 55.2115 38.8246 55.2949 38.6983 55.3768C37.6992 56.0226 36.7039 56.6731 35.6986 57.3088C35.4856 57.4437 35.2454 57.5412 35.0067 57.627C34.8445 57.6855 34.6542 57.6816 34.5372 57.5264C34.4077 57.3548 34.4639 57.1653 34.5894 57.0171C34.7439 56.8346 34.9061 56.6482 35.0972 56.5078C36.3288 55.6015 37.5689 54.7076 38.8067 53.8099C38.8629 53.7693 38.9245 53.735 39.0259 53.6718C38.9549 53.5018 38.8894 53.3357 38.8176 53.1719C38.2358 51.8451 37.4808 50.6128 36.7437 49.3703C36.6719 49.2494 36.5284 49.1394 36.3951 49.0911C35.4263 48.7463 34.4342 48.5638 33.3961 48.6606C32.1653 48.7752 31.0671 49.2268 30.0469 49.9023C29.8511 50.0317 29.7669 50.1534 29.809 50.4186C30.0001 51.6065 30.1577 52.7998 30.3215 53.9916C30.3425 54.1445 30.3488 54.3052 30.3269 54.4565C30.277 54.8059 30.004 55.0594 29.6764 55.0867C29.3528 55.114 29.0291 54.9089 28.9386 54.5664C28.8785 54.3379 28.8785 54.0914 28.8684 53.852C28.8349 53.0455 28.8091 52.239 28.7779 51.4325C28.7756 51.3647 28.7584 51.2976 28.7483 51.2337C28.6984 51.2337 28.6625 51.2227 28.6484 51.2352C28.0565 51.7835 27.4613 52.3295 26.8795 52.8895C26.7898 52.9761 26.7087 53.1337 26.7173 53.2506C26.8124 54.5056 26.7719 55.7738 27.0776 57.0085C27.1494 57.2971 27.0721 57.5444 26.8335 57.7261C26.6354 57.8766 26.4084 57.8914 26.1908 57.7846C25.9209 57.6528 25.8289 57.418 25.8219 57.1208C25.8008 56.1732 25.7649 55.2255 25.7322 54.2779C25.7298 54.2131 25.7049 54.1484 25.6799 54.0368C25.5496 54.1429 25.4498 54.2147 25.3601 54.2974C24.4608 55.1194 23.5693 55.9501 22.6614 56.7621C22.4571 56.9446 22.39 57.1193 22.4391 57.3891C22.61 58.336 22.7597 59.2868 22.9134 60.236C22.9336 60.3608 22.9469 60.4911 22.9368 60.6159C22.9157 60.8803 22.7449 61.0776 22.5086 61.1377C22.248 61.2039 21.9735 61.115 21.8581 60.8631C21.7606 60.6502 21.7091 60.4076 21.6818 60.1736C21.603 59.4849 21.5469 58.7939 21.479 58.1036C21.4751 58.0661 21.4478 58.0303 21.4182 57.9655C21.3394 58.0154 21.2653 58.049 21.2084 58.1005C20.4097 58.8227 19.6188 59.5528 18.8131 60.2672C18.6204 60.438 18.5674 60.6104 18.6001 60.8584C18.7008 61.6166 18.7819 62.377 18.863 63.1375C18.8841 63.3325 18.9012 63.5353 18.8724 63.7279C18.8279 64.0313 18.5861 64.2435 18.3045 64.2794C17.9988 64.3176 17.7094 64.1592 17.5971 63.8543C17.5355 63.6858 17.516 63.4963 17.5051 63.3145C17.4708 62.7639 17.4505 62.2132 17.4201 61.5698C16.3461 62.5229 15.3274 63.4268 14.2791 64.3566C14.3158 64.4681 14.3618 64.5968 14.4016 64.7278C14.8392 66.1567 13.8603 67.5264 12.422 67.4983C11.2061 67.4749 10.2303 66.3634 10.5571 65.1943C10.8879 64.0095 11.6998 63.0447 13.2395 63.5103C13.2925 63.5267 13.3471 63.5376 13.3884 63.5477C14.3642 62.6453 15.3259 61.7562 16.357 60.8023C15.9685 60.764 15.6651 60.7438 15.3641 60.7032C14.9577 60.6486 14.5482 60.6026 14.1505 60.5106C13.7971 60.4287 13.6092 60.2087 13.6177 59.9833C13.6279 59.7376 13.8525 59.5512 14.2433 59.5216C14.6379 59.4919 15.0365 59.4771 15.4304 59.4982C16.0801 59.534 16.7282 59.6097 17.3772 59.6557C17.4934 59.6643 17.6486 59.6503 17.7274 59.5808C18.6399 58.7775 19.5416 57.9608 20.5009 57.099C20.302 57.0421 20.1632 56.9984 20.022 56.9633C19.3489 56.7956 18.6727 56.6427 18.0043 56.4571C17.7071 56.3744 17.4224 56.2379 17.1424 56.1045C17.0184 56.0453 16.9029 55.9478 16.814 55.8417C16.6292 55.6194 16.7103 55.3909 16.9934 55.3425C17.158 55.3144 17.335 55.3098 17.5004 55.3371C18.6041 55.5157 19.7178 55.6522 20.8028 55.9119C21.4283 56.0609 21.8479 55.9602 22.3011 55.5079C23.0311 54.7778 23.8337 54.1195 24.609 53.4355C24.6909 53.3637 24.7946 53.3169 24.8882 53.2584C24.8648 53.2226 24.8414 53.1867 24.8188 53.1508L24.8219 53.1524ZM29.8714 39.4172C29.9479 39.666 30.0056 39.9304 30.1093 40.1753C30.5297 41.1659 30.9759 42.1447 31.3916 43.1376C31.7574 44.012 32.1201 44.8894 32.4305 45.784C32.5381 46.0945 32.6894 46.3058 32.964 46.447C33.127 46.5312 33.2947 46.6092 33.4655 46.6763C34.3999 47.046 35.3398 47.4009 36.2695 47.7823C37.1594 48.1473 38.0525 48.51 38.9151 48.932C39.2552 49.0981 39.5469 49.1262 39.8799 49.0108C40.0133 48.964 40.1467 48.9148 40.2762 48.8587C41.1973 48.4578 42.113 48.0436 43.0404 47.656C43.9404 47.28 44.8429 46.9025 45.7648 46.5866C46.1095 46.4681 46.324 46.2848 46.4784 45.9884C46.5502 45.8503 46.6103 45.706 46.668 45.5617C47.0369 44.6266 47.3918 43.6867 47.774 42.757C48.1452 41.8546 48.5188 40.9506 48.9431 40.0731C49.0929 39.7635 49.135 39.4952 49.0328 39.1871C48.979 39.0264 48.9197 38.8665 48.8519 38.7105C48.4518 37.7886 48.0368 36.8729 47.65 35.9456C47.274 35.0447 46.9059 34.1399 46.5783 33.2211C46.4699 32.9162 46.3232 32.6978 46.0448 32.559C45.9184 32.4958 45.7913 32.4326 45.6603 32.3803C44.7391 32.0153 43.8133 31.6636 42.8969 31.2868C41.9547 30.9 41.0093 30.5162 40.0929 30.0748C39.7536 29.911 39.4619 29.8727 39.1288 29.9952C38.9697 30.0537 38.8098 30.113 38.6546 30.1801C37.7717 30.563 36.895 30.96 36.0059 31.3297C35.066 31.7205 34.1207 32.1011 33.1644 32.4505C32.9188 32.5402 32.7347 32.6494 32.6146 32.8686C32.5264 33.0293 32.4414 33.1938 32.3736 33.3639C32.0109 34.271 31.6677 35.1859 31.291 36.0867C30.8659 37.1046 30.4119 38.11 29.9728 39.1224C29.9346 39.2105 29.9096 39.3041 29.8699 39.4187L29.8714 39.4172ZM1.37384 38.6825C1.39256 38.7573 1.4144 38.9133 1.47134 39.0545C1.62499 39.4359 1.97831 39.6527 2.36752 39.6231C2.82379 39.5888 3.07494 39.3649 3.17712 38.9016C3.32609 38.2262 2.64207 37.525 1.95492 37.6521C1.89096 37.6638 1.82076 37.7013 1.77474 37.7473C1.53919 37.9836 1.38008 38.2582 1.37306 38.6825H1.37384ZM14.0241 11.5794C13.3845 11.5732 12.8463 12.0693 12.8487 12.6628C12.8502 13.1308 13.2839 13.5762 13.7324 13.5715C14.2316 13.566 14.6746 13.1019 14.6902 12.5692C14.7034 12.1075 14.3509 11.5833 14.0241 11.5802V11.5794ZM40.4088 1.37516C39.8331 1.38296 39.3815 1.78698 39.373 2.269C39.3628 2.78924 39.6889 3.1449 40.2169 3.19092C40.8541 3.2463 41.4757 2.58411 41.365 1.96247C41.3533 1.89774 41.3135 1.8291 41.2667 1.7823C41.0195 1.53739 40.7371 1.36268 40.4088 1.37516ZM12.5375 64.3191C12.2107 64.3254 11.9354 64.4603 11.7045 64.6795C11.6405 64.7403 11.5828 64.8472 11.5836 64.9322C11.589 65.4836 11.8137 65.9196 12.3698 66.1052C12.9984 66.3151 13.6825 65.7644 13.5631 65.1553C13.4664 64.6623 13.0406 64.3152 12.5375 64.3191ZM67.4182 14.0114C67.4205 13.3578 66.9393 12.8422 66.334 12.85C65.8551 12.8562 65.4316 13.2766 65.4402 13.7376C65.4495 14.2391 65.9105 14.6751 66.4456 14.6868C66.9112 14.6977 67.4182 14.346 67.419 14.0106L67.4182 14.0114ZM38.7108 75.808C38.0689 75.8205 37.6422 76.3641 37.6532 77.0068C37.6547 77.0825 37.6999 77.1698 37.7506 77.2291C38.0728 77.6066 38.6219 77.7291 39.0664 77.5317C39.4939 77.3414 39.6943 76.9553 39.6038 76.4936C39.5204 76.0654 39.185 75.8088 38.7108 75.8088V75.808ZM66.1499 66.3314C66.1453 65.929 65.9011 65.6014 65.5096 65.4735C65.1711 65.3627 64.7351 65.532 64.5073 65.8627C64.2039 66.3026 64.2968 66.9913 64.7109 67.3337C64.7616 67.3758 64.8318 67.4078 64.8973 67.4179C65.5322 67.5185 66.1577 66.9741 66.1507 66.3322L66.1499 66.3314ZM77.6654 40.3555C77.5913 40.1605 77.5429 39.9499 77.4368 39.7744C77.2317 39.4375 76.8643 39.3111 76.4775 39.4047C76.0929 39.4975 75.8824 39.7346 75.8223 40.1441C75.724 40.8094 76.3566 41.4474 77.0273 41.3531C77.1046 41.3421 77.1896 41.2953 77.2449 41.2392C77.4813 41.0005 77.6443 40.7244 77.6654 40.3555ZM30.5063 48.5412C31.3011 48.0686 32.138 47.8213 33.1145 47.7386C32.6965 47.45 32.3197 47.2652 32.0491 46.9805C31.7706 46.6872 31.5967 46.2949 31.3729 45.94C31.0804 46.8183 30.8035 47.6513 30.5071 48.5412H30.5063ZM47.6476 33.1517C47.7981 32.6151 47.9027 32.1791 48.0438 31.7548C48.1827 31.3375 48.3582 30.9335 48.5173 30.5232C47.7038 30.9624 46.8489 31.1574 45.9567 31.3219C46.778 31.6698 47.2678 32.3055 47.6476 33.1517ZM33.067 31.3679C32.2028 31.0809 31.3596 30.8001 30.4564 30.4998C30.9525 31.2962 31.1701 32.1463 31.2785 33.094C31.5546 32.6954 31.7402 32.3148 32.028 32.0426C32.3244 31.7618 32.7206 31.5856 33.067 31.3679ZM40.7059 49.8367C40.5297 49.882 40.3542 49.9335 40.1763 49.9717C39.7746 50.059 39.3792 50.1417 38.9705 49.9608C38.7669 49.8711 38.5298 49.8586 38.3114 49.8126C38.7233 50.6354 39.1171 51.4208 39.529 52.2445C39.7645 51.3514 40.1904 50.5769 40.7059 49.8367ZM29.0821 40.7423C29.1071 40.7252 29.132 40.708 29.157 40.6909C29.1125 40.5013 29.0642 40.3126 29.0244 40.1223C28.9464 39.7502 28.8723 39.3852 29.0384 39.0054C29.132 38.7901 29.1445 38.5397 29.1929 38.3081C28.3669 38.7215 27.5768 39.1177 26.7547 39.5295C27.6423 39.7541 28.4035 40.1691 29.0821 40.7416V40.7423ZM52.2057 39.4975C51.8095 39.3314 51.3821 39.1855 50.9867 38.9765C50.5982 38.7722 50.2433 38.5046 49.8276 38.234C49.8892 38.4859 49.9376 38.6754 49.982 38.865C50.0733 39.2534 50.1271 39.6364 49.968 40.0287C49.8838 40.2369 49.8588 40.4686 49.805 40.6979C50.6435 40.2783 51.4343 39.8828 52.2057 39.4967V39.4975ZM48.4908 48.4796C48.3238 48.0732 48.1296 47.6801 48.0017 47.266C47.8722 46.8471 47.8075 46.408 47.7069 45.9439C47.4495 46.3152 47.2639 46.6966 46.9753 46.9688C46.6812 47.2465 46.2866 47.4173 45.9387 47.6326C46.8099 47.9219 47.6468 48.1996 48.4908 48.4804V48.4796ZM39.5009 26.795C39.3285 27.2107 39.1889 27.628 38.9861 28.011C38.781 28.3994 38.5127 28.7551 38.242 29.1723C38.4479 29.124 38.5969 29.092 38.7443 29.0538C39.1842 28.9407 39.6179 28.8565 40.0664 29.0483C40.2551 29.1294 40.4766 29.1349 40.6888 29.1762C40.2785 28.3534 39.8916 27.5781 39.5001 26.7942L39.5009 26.795Z" fill="white"/>
<path d="M39.5769 30.9296C40.1455 30.8625 40.6143 30.9888 41.069 31.1425C42.441 31.6058 43.7608 32.183 44.9776 32.9802C45.6062 33.3912 46.121 33.9021 46.4603 34.5799C47.1912 36.0424 47.791 37.5509 48.0546 39.1748C48.1326 39.6553 48.1271 40.135 47.9914 40.6061C47.5141 42.2644 46.8222 43.8236 45.8348 45.2439C45.5251 45.6901 45.139 46.0637 44.6554 46.3258C43.1898 47.119 41.6501 47.7111 40.0106 48.0277C39.2844 48.1681 38.5723 48.0909 37.8781 47.846C36.5669 47.3835 35.2971 46.8336 34.1193 46.084C33.3963 45.6238 32.8284 45.0341 32.4571 44.2565C31.8152 42.911 31.2614 41.5351 30.9915 40.0601C30.8808 39.4533 30.8691 38.848 31.0532 38.2529C31.5406 36.6758 32.1927 35.1743 33.1357 33.8108C33.4696 33.3273 33.883 32.9256 34.4079 32.6463C35.8657 31.8687 37.3929 31.286 39.0184 30.9717C39.1292 30.9498 39.2431 30.9389 39.3554 30.9319C39.4537 30.9257 39.5535 30.9303 39.5761 30.9303L39.5769 30.9296ZM39.1573 42.9188C38.8484 42.9781 38.5621 43.0545 38.2712 43.0818C37.9623 43.1107 37.6495 43.0865 37.3391 43.1021C37.2689 43.106 37.1792 43.1622 37.1386 43.2214C36.8235 43.6855 36.6137 44.1933 36.5739 44.7565C36.5435 45.1862 36.6979 45.5333 37.0934 45.7463C37.2673 45.8399 37.4382 45.9428 37.6191 46.0208C38.0754 46.2166 38.1425 46.208 38.4397 45.8118C39.0668 44.9749 39.3788 44.049 39.1573 42.918V42.9188ZM41.7359 42.1926C41.321 42.6598 40.9154 43.106 40.5261 43.5662C40.4676 43.6348 40.4599 43.776 40.4778 43.8743C40.5597 44.3087 40.7289 44.7104 40.9801 45.0755C41.3639 45.6316 41.7102 45.7603 42.3568 45.5832C42.5331 45.5349 42.7093 45.4795 42.8755 45.4046C43.239 45.2408 43.2725 45.1839 43.2226 44.7853C43.09 43.7152 42.6345 42.826 41.7359 42.1942V42.1926ZM35.2838 40.4361C35.1278 40.4759 34.9476 40.511 34.7737 40.5671C34.3541 40.7044 33.9633 40.8994 33.6474 41.2169C33.429 41.4368 33.2777 41.6973 33.3471 42.0148C33.4126 42.3166 33.5164 42.6099 33.6147 42.904C33.7044 43.1723 33.8954 43.2526 34.177 43.2214C35.2854 43.0998 36.1863 42.6279 36.8243 41.7184C36.3197 41.2988 35.8244 40.8861 35.2838 40.4353V40.4361ZM43.1461 41.8159C43.547 42.1029 43.994 42.3042 44.4862 42.4009C45.1335 42.528 45.4955 42.365 45.8215 41.787C45.9252 41.6037 46.0009 41.4048 46.089 41.2137C46.1928 40.9875 46.1312 40.8191 45.9385 40.6623C45.061 39.9509 44.0806 39.635 42.9667 39.8324C43.0268 40.4922 43.0845 41.135 43.1461 41.8159ZM38.5723 35.2811C38.5231 35.0994 38.4779 34.863 38.3944 34.6415C38.2431 34.2437 38.0473 33.8709 37.7197 33.5815C37.4928 33.3811 37.233 33.2828 36.9397 33.3522C36.6527 33.4201 36.3727 33.5176 36.0942 33.6158C35.854 33.7009 35.7495 33.8662 35.7783 34.1377C35.8977 35.2569 36.3571 36.175 37.29 36.8177C37.7174 36.306 38.13 35.8115 38.573 35.2819L38.5723 35.2811ZM42.1875 37.2888C42.6883 37.7061 43.1937 38.1273 43.7288 38.5735C43.9331 38.5142 44.1804 38.4557 44.4167 38.3683C44.6008 38.3005 44.7779 38.2077 44.9464 38.1063C45.6421 37.6882 45.7848 37.3169 45.5602 36.5494C45.5282 36.441 45.4955 36.3326 45.4534 36.228C45.2771 35.7944 45.2178 35.7554 44.7615 35.7912C44.6078 35.8037 44.4534 35.8279 44.3036 35.8661C43.4277 36.09 42.6883 36.5205 42.1883 37.2888H42.1875ZM36.0381 39.1639C35.9788 38.5064 35.9211 37.8621 35.8602 37.189C35.464 36.8941 34.989 36.682 34.4648 36.5954C34.1084 36.5361 33.7433 36.5361 33.4711 36.8216C33.1841 37.1227 33.0024 37.4916 32.89 37.8933C32.8417 38.0657 32.8924 38.1991 33.0343 38.3013C33.2519 38.458 33.4571 38.6374 33.6911 38.7653C34.418 39.1624 35.1894 39.3472 36.0389 39.1639H36.0381ZM41.8256 35.8497C42.1758 35.3342 42.448 34.7554 42.4262 34.0714C42.4176 33.8015 42.3412 33.5519 42.1142 33.4068C41.8194 33.2181 41.5011 33.0644 41.1852 32.91C40.9777 32.8086 40.8194 32.8889 40.6704 33.0628C40.158 33.6626 39.8655 34.3576 39.7828 35.1345C39.7508 35.4332 39.8015 35.7413 39.8148 36.0416C40.4957 35.9769 41.1244 35.9168 41.8256 35.8497ZM32.5578 40.8269C33.0281 40.4813 33.4742 40.1529 33.9188 39.8261C33.6232 39.7013 33.3136 39.5992 33.032 39.4447C32.7559 39.2926 32.5086 39.0883 32.2489 38.9065C32.032 39.2388 32.0001 39.2848 32.0726 39.4993C32.2231 39.9502 32.3979 40.3932 32.5578 40.8269ZM39.8101 45.0677C39.6253 45.7143 39.3522 46.2759 38.8827 46.7166C39.137 46.9825 39.3866 46.9911 39.658 46.8874C39.9731 46.7673 40.2906 46.6511 40.6049 46.5286C40.686 46.4966 40.7601 46.4459 40.8077 46.4202C40.4747 45.9693 40.1603 45.5435 39.8093 45.0684L39.8101 45.0677ZM45.0922 39.1748C45.38 39.2973 45.6905 39.401 45.9713 39.5555C46.2482 39.7076 46.4962 39.9127 46.8113 40.1327C46.8651 39.9197 46.9673 39.7403 46.9384 39.5843C46.848 39.089 46.6108 38.6429 46.4509 38.1772C45.9791 38.5235 45.5508 38.8379 45.0922 39.1748ZM43.2202 35.3201C43.5244 35.1969 43.8122 35.0526 44.1164 34.9644C44.4183 34.8771 44.7365 34.8475 45.0423 34.7929C45.0501 34.4653 44.8894 34.2905 44.6375 34.1774C44.3286 34.0386 44.0228 33.8951 43.7132 33.7594C43.6329 33.7243 43.5431 33.7118 43.4846 33.6962C43.3942 34.25 43.3091 34.7726 43.2202 35.3193V35.3201ZM35.776 43.6918C35.4593 43.8173 35.1801 43.9546 34.8845 44.0381C34.5811 44.1239 34.262 44.1559 33.9625 44.2089C33.961 44.5599 34.1489 44.7299 34.4141 44.8454C34.7113 44.9749 35.0038 45.1145 35.3018 45.2432C35.3852 45.279 35.478 45.2923 35.5389 45.3087C35.6184 44.7674 35.6933 44.2565 35.776 43.6918ZM43.689 43.2222C43.8146 43.5365 43.9526 43.8181 44.0377 44.1145C44.125 44.4187 44.1617 44.7385 44.2334 45.1223C44.4284 44.999 44.6367 44.9398 44.7131 44.8048C44.9534 44.3805 45.1437 43.9273 45.3535 43.4858C44.7763 43.3946 44.2522 43.3119 43.689 43.2222ZM35.3486 35.7827C35.0303 35.1969 34.8307 34.6033 34.826 33.9559C34.567 33.9614 34.3642 34.0191 34.2597 34.2328C34.0499 34.6603 33.8549 35.0947 33.6552 35.5221C34.2308 35.6103 34.7675 35.693 35.3478 35.7827H35.3486ZM39.1432 33.8631C39.4459 33.3194 39.7485 32.7742 40.0589 32.2158C39.8741 32.0247 39.6268 32.0075 39.3538 32.1136C39.0527 32.2306 38.7485 32.3398 38.4475 32.4576C38.3531 32.4942 38.2642 32.5465 38.1994 32.5785C38.5348 33.0348 38.8492 33.4622 39.1432 33.8631ZM38.8687 38.4611C38.917 37.8707 38.9599 37.3692 38.9989 36.8684C39.0145 36.675 38.8835 36.579 38.7517 36.4652C38.4404 36.8216 38.1495 37.1547 37.8445 37.5049C38.1948 37.8325 38.5013 38.118 38.8687 38.4611ZM39.2275 40.6763C38.8063 41.0382 38.4763 41.3424 38.1238 41.617C37.9389 41.7613 37.8562 41.9212 37.8882 42.195C38.3344 42.0865 38.8008 42.2145 39.2282 42.0522V40.6755L39.2275 40.6763ZM41.5027 37.8379C41.1767 38.1874 40.8849 38.5009 40.5417 38.8691C41.0885 38.9081 41.5534 38.9237 42.0128 38.9822C42.2421 39.0118 42.3888 38.944 42.5346 38.7513C42.1977 38.4533 41.8662 38.1601 41.5027 37.8387V37.8379ZM40.7024 39.8004C41.0737 40.2364 41.3958 40.61 41.7109 40.9883C41.8373 41.1404 41.9902 41.1303 42.1969 41.1201C42.0861 40.6514 42.2312 40.1919 42.037 39.7341C41.6049 39.7559 41.1876 39.7762 40.7024 39.8004ZM40.1447 40.5476C40.0979 41.135 40.0426 41.6466 40.0262 42.1599C40.0223 42.2854 40.1447 42.4149 40.2243 42.5733C40.5597 42.1911 40.8522 41.858 41.1673 41.5C40.821 41.1771 40.5082 40.8861 40.1455 40.5484L40.1447 40.5476ZM36.8711 37.8278L36.7845 37.8918C36.9616 38.3301 36.7861 38.8043 36.9655 39.2747C37.4116 39.2482 37.8336 39.2232 38.3024 39.1951C37.9373 38.7669 37.63 38.3832 37.2939 38.0267C37.1948 37.9214 37.0146 37.8918 36.8711 37.8278ZM38.4646 40.135C37.9163 40.0952 37.4545 40.0781 36.9975 40.0227C36.7572 39.9938 36.5989 40.0555 36.478 40.2606C36.8228 40.5617 37.1574 40.8534 37.5091 41.1607C37.8297 40.8167 38.1144 40.511 38.4646 40.1342V40.135ZM39.7828 38.3247C40.2336 37.9393 40.6041 37.6156 40.9832 37.3029C41.1361 37.1765 41.1439 37.026 41.1189 36.8255C40.6704 36.8544 40.2305 36.8824 39.7828 36.9113V38.3247Z" fill="white"/>
</svg>
