<svg width="62" height="67" viewBox="0 0 62 67" fill="none" xmlns="http://www.w3.org/2000/svg">
<g clip-path="url(#clip0_210_1906)">
<path fill-rule="evenodd" clip-rule="evenodd" d="M23.0391 13.546C21.404 10.3772 22.9114 5.58701 26.0538 3.96561C29.1962 2.34421 33.9736 3.8916 35.6086 7.06041C37.2437 10.2292 35.9875 14.221 35.7363 15.0194L31.8196 27.4662C31.4861 28.5261 30.3526 29.1109 29.2955 28.7686L16.8819 24.7478C16.0857 24.4899 12.1045 23.2004 10.4695 20.0316C8.83446 16.8628 10.3418 12.0726 13.4842 10.4512C16.6266 8.82981 21.404 10.3772 23.0391 13.546ZM23.6001 14.1643C25.6001 16.1643 28.6001 20.6643 30.1001 27.1643C29.6025 26.0449 29.1854 25.0183 28.781 24.0229C28.2708 22.7675 27.7809 21.5618 27.1754 20.2823C26.3311 18.4981 25.262 16.5705 23.6001 14.1643Z" fill="#FFE24A"/>
<path fill-rule="evenodd" clip-rule="evenodd" d="M47.928 21.4783C50.9385 19.5674 52.054 14.6711 50.159 11.6857C48.264 8.70025 43.3585 7.62577 40.3481 9.53668C37.3376 11.4476 36.408 15.5279 36.2221 16.3439L33.3236 29.0664C33.0768 30.1498 33.7603 31.2266 34.8457 31.4644L47.592 34.2563C48.4096 34.4354 52.4975 35.3308 55.508 33.4199C58.5185 31.509 59.634 26.6126 57.739 23.6272C55.844 20.6418 50.9385 19.5674 47.928 21.4783ZM47.6 22.1643C45.6 24.1643 41.1 27.1643 34.6 28.6643C35.7194 28.1668 36.746 27.7497 37.7413 27.3452C38.9968 26.8351 40.2025 26.3452 41.482 25.7397C43.2661 24.8954 45.1938 23.8263 47.6 22.1643Z" fill="#FFE24A"/>
<path fill-rule="evenodd" clip-rule="evenodd" d="M40.8364 46.5215C42.8674 49.4523 47.8048 50.369 50.7111 48.3549C53.6175 46.3408 54.4929 41.3959 52.4619 38.4651C50.4309 35.5343 46.3164 34.7704 45.4935 34.6176L32.6642 32.2356C31.5718 32.0328 30.5234 32.7593 30.3297 33.8534L28.0552 46.7021C27.9093 47.5263 27.1798 51.647 29.2109 54.5778C31.2419 57.5086 36.1793 58.4253 39.0856 56.4112C41.992 54.3972 42.8674 49.4523 40.8364 46.5215ZM40.4199 46.0218C38.2028 44.2655 34.7045 40.1409 32.4659 33.8569C33.089 34.9116 33.6216 35.8833 34.138 36.8255C34.7893 38.0138 35.4148 39.155 36.1637 40.3563C37.2079 42.0313 38.4918 43.8231 40.4199 46.0218Z" fill="#FFE24A"/>
<path fill-rule="evenodd" clip-rule="evenodd" d="M13.8638 37.7573C10.6082 39.2118 5.91022 37.4378 4.46786 34.2093C3.02551 30.9808 4.83878 26.2978 8.0944 24.8433C11.35 23.3888 15.265 24.8672 16.048 25.1629L28.2552 29.7724C29.2947 30.165 29.8149 31.3295 29.4137 32.3657L24.7022 44.5338C24.3999 45.3143 22.8889 49.2168 19.6333 50.6713C16.3776 52.1258 11.6796 50.3517 10.2373 47.1232C8.79493 43.8948 10.6082 39.2118 13.8638 37.7573ZM14.6 37.1505C16.735 35.2953 21.4338 32.6173 28.0228 31.5756C26.8713 31.9936 25.8181 32.3379 24.7969 32.6718C23.5088 33.0928 22.2718 33.4972 20.9531 34.0118C19.1143 34.7292 17.1165 35.6609 14.6 37.1505Z" fill="#FFE24A"/>
<path d="M12.6443 61.1379C20.5667 56.557 24.9706 48.6582 26.1091 44.0179C26.1808 43.7258 26.4841 43.5513 26.7694 43.6464L26.8262 43.6653C27.0303 43.7334 27.1695 43.9215 27.158 44.1364C26.9158 48.6524 22.3501 59.839 19.3046 65.4775C19.1697 65.7273 18.8541 65.8087 18.6116 65.661L12.627 62.0183C12.2966 61.8172 12.3094 61.3315 12.6443 61.1379Z" fill="#FFE24A"/>
</g>
<defs>
<clipPath id="clip0_210_1906">
<rect width="61.4312" height="66.1643" fill="white"/>
</clipPath>
</defs>
</svg>
