<svg width="62" height="67" viewBox="0 0 62 67" fill="none" xmlns="http://www.w3.org/2000/svg">
<path fill-rule="evenodd" clip-rule="evenodd" d="M29.2709 28.7638C28.4615 25.2912 31.0958 21.0158 34.5395 20.2131C37.9833 19.4104 42.2364 22.0804 43.0459 25.5531C43.8553 29.0258 41.66 32.5886 41.221 33.3011L34.376 44.4101C33.7932 45.3561 32.551 45.6456 31.6099 45.0549L20.5586 38.1172C19.8497 37.6722 16.3054 35.4472 15.496 31.9746C14.6866 28.5019 17.3209 24.2265 20.7646 23.4239C24.2083 22.6212 28.4615 25.2912 29.2709 28.7638ZM29.6635 29.5007C31.1129 31.9295 32.9199 37.027 32.7828 43.6964C32.5745 42.4893 32.4214 41.3918 32.2729 40.3277C32.0857 38.9856 31.9059 37.6966 31.6321 36.3078C31.2503 34.3712 30.6857 32.2405 29.6635 29.5007Z" fill="#FFE24A"/>
</svg>
