<svg width="62" height="67" viewBox="0 0 62 67" fill="none" xmlns="http://www.w3.org/2000/svg">
<g clip-path="url(#clip0_210_1905)">
<path fill-rule="evenodd" clip-rule="evenodd" d="M47.297 19.7048C50.0123 17.3935 50.4355 12.3896 48.1435 9.69694C45.8515 7.00432 40.8442 6.62297 38.1289 8.93425C35.4137 11.2455 35.061 15.4155 34.9904 16.2494L33.8907 29.2515C33.7971 30.3587 34.6238 31.3299 35.7317 31.4143L48.7426 32.4052C49.5771 32.4687 53.7498 32.7865 56.4651 30.4753C59.1803 28.164 59.6036 23.1601 57.3116 20.4674C55.0195 17.7748 50.0123 17.3935 47.297 19.7048ZM47.0676 20.4298C45.3654 22.6887 41.3267 26.2857 35.0987 28.6757C36.138 28.0272 37.0966 27.4713 38.026 26.9323C39.1982 26.2524 40.324 25.5995 41.5068 24.8218C43.156 23.7374 44.9162 22.4104 47.0676 20.4298Z" fill="#FFE24A"/>
<path fill-rule="evenodd" clip-rule="evenodd" d="M38.8837 49.141C40.5557 52.2905 45.3509 53.7819 48.4741 52.1238C51.5973 50.4658 53.0485 45.6583 51.3765 42.5088C49.7046 39.3594 45.7086 38.1165 44.9094 37.868L32.4496 33.9927C31.3886 33.6627 30.262 34.2608 29.9409 35.3245L26.1701 47.8163C25.9282 48.6175 24.7189 52.6238 26.3909 55.7732C28.0628 58.9227 32.858 60.4141 35.9812 58.756C39.1045 57.098 40.5557 52.2905 38.8837 49.141ZM38.5289 48.5958C36.534 46.5908 33.5454 42.0832 32.0618 35.5794C32.5565 36.7001 32.971 37.7277 33.373 38.7241C33.8799 39.9808 34.3668 41.1878 34.969 42.4688C35.8088 44.2551 36.873 46.1855 38.5289 48.5958Z" fill="#FFE24A"/>
<path fill-rule="evenodd" clip-rule="evenodd" d="M14.2042 25.6935C10.7003 25.0323 7.85216 20.8963 8.50791 17.4216C9.16367 13.9469 13.3233 11.1335 16.8272 11.7947C20.3311 12.456 22.7046 15.9026 23.1793 16.592L30.5799 27.3388C31.2101 28.2539 30.9735 29.5073 30.0532 30.1298L19.2448 37.4402C18.5515 37.9091 15.0851 40.2536 11.5812 39.5924C8.07729 38.9311 5.22914 34.7951 5.88489 31.3204C6.54065 27.8457 10.7003 25.0323 14.2042 25.6935ZM15.155 25.6148C17.9667 25.3079 23.3538 25.7868 29.3609 28.6877C28.1766 28.3746 27.115 28.0569 26.0857 27.749C24.7874 27.3606 23.5406 26.9875 22.1638 26.6583C20.2441 26.1994 18.0717 25.8258 15.155 25.6148Z" fill="#FFE24A"/>
</g>
<defs>
<clipPath id="clip0_210_1905">
<rect width="61.4312" height="66.1643" fill="white"/>
</clipPath>
</defs>
</svg>
