<svg width="62" height="67" viewBox="0 0 62 67" fill="none" xmlns="http://www.w3.org/2000/svg">
<g clip-path="url(#clip0_210_1904)">
<path fill-rule="evenodd" clip-rule="evenodd" d="M21.132 16.2163C19.9323 12.8585 22.0624 8.31087 25.3923 7.12113C28.7222 5.93139 33.2518 8.09952 34.4515 11.4574C35.6513 14.8153 33.8761 18.6049 33.5211 19.3629L27.9862 31.1793C27.5149 32.1855 26.3137 32.6146 25.3115 32.1349L13.5418 26.5013C12.7869 26.1399 9.01221 24.3331 7.81248 20.9753C6.61275 17.6174 8.74289 13.0698 12.0728 11.8801C15.4027 10.6903 19.9323 12.8585 21.132 16.2163ZM21.6059 16.9036C23.3226 19.1515 25.6985 24.0101 26.322 30.6517C25.9775 29.4761 25.7004 28.4032 25.4317 27.363C25.0929 26.0509 24.7674 24.7908 24.3371 23.4422C23.7372 21.5618 22.9336 19.5092 21.6059 16.9036Z" fill="#FFE24A"/>
<path fill-rule="evenodd" clip-rule="evenodd" d="M43.2176 45.165C45.6363 42.545 45.4568 37.5264 42.8585 35.1279C40.2603 32.7294 35.2435 32.9509 32.8248 35.5709C30.4061 38.191 30.5557 42.3731 30.5856 43.2095L31.0521 56.2497C31.0918 57.3601 32.029 58.2253 33.139 58.1762L46.1748 57.6007C47.011 57.5638 51.1917 57.3792 53.6104 54.7591C56.0291 52.1391 55.8496 47.1205 53.2514 44.722C50.6532 42.3235 45.6363 42.545 43.2176 45.165ZM43.0768 45.9123C41.6576 48.3589 38.0791 52.4141 32.1824 55.5332C33.1365 54.7649 34.0215 54.0981 34.8796 53.4516C35.9618 52.6361 37.0013 51.8529 38.0824 50.9391C39.5898 49.6649 41.1782 48.1365 43.0768 45.9123Z" fill="#FFE24A"/>
</g>
<defs>
<clipPath id="clip0_210_1904">
<rect width="61.4312" height="66.1643" fill="white"/>
</clipPath>
</defs>
</svg>
